<?xml version="1.0" encoding="UTF-8" standalone="no"?>
<!-- Created with Inkscape (http://www.inkscape.org/) -->

<svg
   xmlns:dc="http://purl.org/dc/elements/1.1/"
   xmlns:cc="http://creativecommons.org/ns#"
   xmlns:rdf="http://www.w3.org/1999/02/22-rdf-syntax-ns#"
   xmlns:svg="http://www.w3.org/2000/svg"
   xmlns="http://www.w3.org/2000/svg"
   xmlns:sodipodi="http://sodipodi.sourceforge.net/DTD/sodipodi-0.dtd"
   xmlns:inkscape="http://www.inkscape.org/namespaces/inkscape"
   width="215.14124"
   height="43.013241"
   id="svg9611"
   version="1.1"
   inkscape:version="0.48.4 r9939"
   sodipodi:docname="New document 88">
  <defs
     id="defs9613" />
  <sodipodi:namedview
     id="base"
     pagecolor="#ffffff"
     bordercolor="#666666"
     borderopacity="1.0"
     inkscape:pageopacity="0.0"
     inkscape:pageshadow="2"
     inkscape:zoom="0.35"
     inkscape:cx="151.14204"
     inkscape:cy="-101.35052"
     inkscape:document-units="px"
     inkscape:current-layer="layer1"
     showgrid="false"
     fit-margin-top="0"
     fit-margin-left="0"
     fit-margin-right="0"
     fit-margin-bottom="0"
     inkscape:window-width="463"
     inkscape:window-height="423"
     inkscape:window-x="78"
     inkscape:window-y="78"
     inkscape:window-maximized="0" />
  <metadata
     id="metadata9616">
    <rdf:RDF>
      <cc:Work
         rdf:about="">
        <dc:format>image/svg+xml</dc:format>
        <dc:type
           rdf:resource="http://purl.org/dc/dcmitype/StillImage" />
        <dc:title></dc:title>
      </cc:Work>
    </rdf:RDF>
  </metadata>
  <g
     inkscape:label="Layer 1"
     inkscape:groupmode="layer"
     id="layer1"
     transform="translate(-223.85796,-387.99842)">
    <g
       transform="translate(-26.036753,-54.67226)"
       id="g9592">
      <g
         style="font-size:40px;font-style:normal;font-weight:normal;line-height:125%;letter-spacing:0px;word-spacing:0px;fill:#ffffff;fill-opacity:1;stroke:none;font-family:Sans"
         id="text6251-6">
        <path
           d="m 331.81032,467.63165 c -0.49668,1.53665 -1.21333,2.7433 -2.14997,3.61995 -0.93667,0.87666 -2.11332,1.32332 -3.52996,1.33998 -2.34164,-0.0675 -4.03829,-1.21248 -5.08993,-3.43495 -1.05166,-2.22247 -1.56832,-5.11743 -1.54998,-8.68489 -0.0183,-3.56744 0.49832,-6.4624 1.54998,-8.68489 1.05164,-2.22245 2.74829,-3.36743 5.08993,-3.43496 1.47414,0.0167 2.68579,0.49336 3.63495,1.42999 0.94914,0.93667 1.6708,2.23332 2.16498,3.88995 l 2.19997,-0.99999 c -0.65085,-2.02495 -1.62917,-3.62493 -2.93496,-4.79994 -1.30584,-1.17496 -2.99415,-1.77495 -5.06494,-1.79998 -3.24663,0.10003 -5.57327,1.50001 -6.97991,4.19995 -1.40665,2.69999 -2.09331,6.09994 -2.05997,10.19987 -0.0333,4.09996 0.65332,7.49991 2.05997,10.19987 1.40664,2.69996 3.73328,4.09994 6.97991,4.19994 1.99413,-0.0233 3.63577,-0.58666 4.92494,-1.68998 1.28913,-1.10331 2.26078,-2.60663 2.91496,-4.50994 z"
           style="fill:#ff6600;font-family:Mission Gothic Light;-inkscape-font-specification:Mission Gothic Light"
           id="path9633" />
        <path
           d="m 352.36656,474.47156 0,-12.99984 c 0.0442,-2.36578 -0.39418,-4.35409 -1.31498,-5.96492 -0.92084,-1.61079 -2.58915,-2.44911 -5.00494,-2.51497 -1.24332,0.01 -2.32664,0.34002 -3.24996,0.98999 -0.92332,0.65001 -1.66665,1.56 -2.22997,2.72997 l -0.08,0 c 0.002,-0.0458 0.008,-0.38415 0.02,-1.01499 0.0117,-0.63081 0.0183,-1.27913 0.02,-1.94498 l 0,-8.47989 -2.39997,0 0,29.19963 2.39997,0 0,-12.95984 c 0.0283,-1.92579 0.51165,-3.4541 1.44998,-4.58494 0.93831,-1.1308 2.16163,-1.70912 3.66995,-1.73497 1.43997,0.0284 2.51995,0.61167 3.23996,1.74997 0.71997,1.13834 1.07997,2.66165 1.07998,4.56994 l 0,12.95984 z"
           style="fill:#ff6600;font-family:Mission Gothic Light;-inkscape-font-specification:Mission Gothic Light"
           id="path9635" />
        <path
           d="m 371.61594,474.47156 c -0.0792,-0.12333 -0.20085,-0.47666 -0.36499,-1.05999 -0.16418,-0.58332 -0.25585,-1.37665 -0.275,-2.37997 l 0,-10.43986 c -0.0375,-2.57579 -0.63251,-4.49409 -1.78498,-5.75493 -1.1525,-1.2608 -2.63747,-1.88912 -4.45494,-1.88498 -1.35249,-0.004 -2.61747,0.32419 -3.79495,0.98499 -1.17749,0.66085 -2.19248,1.67917 -3.04496,3.05496 l 1.79998,1.43998 c 0.47915,-0.99413 1.11081,-1.78579 1.89497,-2.37497 0.78415,-0.58914 1.7258,-0.8908 2.82497,-0.90498 1.25663,-0.002 2.25329,0.43251 2.98996,1.30498 0.73664,0.87251 1.1133,2.19749 1.12998,3.97495 l 0,1.67998 c -3.94996,0.0167 -6.87992,0.61333 -8.78989,1.78997 -1.90997,1.17667 -2.85996,2.83331 -2.84996,4.96994 0.0167,1.80748 0.55333,3.25246 1.60998,4.33494 1.05665,1.08249 2.5333,1.63748 4.42994,1.66498 1.50748,-0.0392 2.71246,-0.44083 3.61496,-1.20498 0.90247,-0.76416 1.57746,-1.65581 2.02497,-2.67497 0.0725,0.94249 0.17749,1.73748 0.315,2.38497 0.13748,0.64749 0.23248,1.01249 0.28499,1.09499 z m -3.07996,-8.59989 c -0.003,1.89665 -0.45667,3.50329 -1.35998,4.81994 -0.90333,1.31665 -2.23665,2.00331 -3.99995,2.05997 -1.07333,-0.002 -1.98665,-0.32833 -2.73996,-0.97999 -0.75333,-0.65165 -1.14666,-1.61831 -1.17999,-2.89996 0.0142,-1.56331 0.72582,-2.74662 2.13497,-3.54996 1.40914,-0.80331 3.43078,-1.20664 6.06493,-1.20998 0.35998,10e-6 0.71997,10e-6 1.07998,0 z"
           style="fill:#ff6600;font-family:Mission Gothic Light;-inkscape-font-specification:Mission Gothic Light"
           id="path9637" />
        <path
           d="m 379.16046,474.47156 0,-29.19963 -2.43996,0 0,29.19963 z"
           style="fill:#ff6600;font-family:Mission Gothic Light;-inkscape-font-specification:Mission Gothic Light"
           id="path9639" />
        <path
           d="m 387.20734,474.47156 0,-29.19963 -2.43997,0 0,29.19963 z"
           style="fill:#ff6600;font-family:Mission Gothic Light;-inkscape-font-specification:Mission Gothic Light"
           id="path9641" />
        <path
           d="m 404.77409,468.47163 c -0.48917,1.43499 -1.14083,2.49498 -1.95497,3.17996 -0.81417,0.685 -1.85582,1.02499 -3.12496,1.01999 -1.69999,-0.0233 -2.98997,-0.72665 -3.86995,-2.10997 -0.88,-1.38331 -1.34999,-3.30662 -1.40998,-5.76993 l 12.51983,0 0,-0.75999 c 0.0367,-3.32994 -0.50667,-5.9899 -1.62997,-7.9799 -1.12334,-1.98995 -3.04664,-3.00994 -5.76993,-3.05996 -2.39748,0.0317 -4.25245,1.00834 -5.56493,2.92997 -1.31248,1.92166 -1.97748,4.59828 -1.99497,8.02989 0.015,3.44747 0.67499,6.12243 1.97997,8.0249 1.30498,1.90247 3.16495,2.86746 5.57993,2.89496 1.86163,-0.002 3.36828,-0.44749 4.51994,-1.33498 1.15164,-0.88749 2.05829,-2.20247 2.71997,-3.94495 z m -10.35986,-5.71992 c 0.12166,-2.36579 0.61832,-4.2241 1.48998,-5.57493 0.87164,-1.3508 2.10829,-2.03912 3.70995,-2.06497 1.6833,0.0159 2.90662,0.68417 3.66995,2.00497 0.76331,1.32083 1.16664,3.19914 1.20999,5.63493 z"
           style="fill:#ff6600;font-family:Mission Gothic Light;-inkscape-font-specification:Mission Gothic Light"
           id="path9643" />
        <path
           d="m 426.04406,474.47156 0,-12.99984 c 0.0442,-2.36578 -0.39418,-4.35409 -1.31498,-5.96492 -0.92084,-1.61079 -2.58915,-2.44911 -5.00494,-2.51497 -1.28333,0.009 -2.39664,0.35086 -3.33996,1.02499 -0.94332,0.67418 -1.69665,1.62583 -2.25997,2.85496 l -0.08,0 c -0.0408,-0.94997 -0.13917,-1.75995 -0.29499,-2.42997 -0.15584,-0.66997 -0.24417,-1.01996 -0.265,-1.04998 l -2.31997,0 c 0.0775,0.12835 0.1925,0.49168 0.345,1.08998 0.15249,0.59835 0.23749,1.38167 0.25499,2.34997 l 0,17.63978 2.43997,0 0,-12.15985 c -0.003,-2.02912 0.41332,-3.71077 1.24999,-5.04493 0.83664,-1.33413 2.11329,-2.02579 3.82995,-2.07497 1.63246,0.0267 2.76745,0.65334 3.40495,1.87997 0.63748,1.22667 0.94248,2.89331 0.91499,4.99994 l 0,12.39984 z"
           style="fill:#ff6600;font-family:Mission Gothic Light;-inkscape-font-specification:Mission Gothic Light"
           id="path9645" />
        <path
           d="m 442.52598,475.19155 c 0.008,1.66497 -0.33834,2.99496 -1.03999,3.98995 -0.70167,0.99498 -1.80832,1.50497 -3.31995,1.52998 -1.0475,-0.003 -1.95249,-0.29751 -2.71497,-0.88499 -0.7625,-0.5875 -1.33749,-1.45249 -1.72498,-2.59497 l -2.07997,1.27999 c 0.64749,1.57247 1.53247,2.72745 2.65496,3.46495 1.12248,0.73748 2.43747,1.10248 3.94495,1.09499 2.15246,-0.0258 3.80744,-0.75417 4.96494,-2.18498 1.15747,-1.43082 1.74246,-3.40912 1.75498,-5.93492 l 0,-18.11977 c 0.004,-0.9683 0.0958,-1.75162 0.27499,-2.34997 0.17915,-0.5983 0.30082,-0.96163 0.365,-1.08998 l -2.35997,0 c -0.0183,0.0192 -0.10168,0.29085 -0.25,0.81499 -0.14834,0.52418 -0.25167,1.18584 -0.30999,1.98497 l -0.08,0 c -0.46084,-0.9208 -1.09917,-1.67912 -1.91498,-2.27497 -0.81583,-0.5958 -1.80415,-0.90413 -2.96496,-0.92499 -2.30748,0.0175 -4.06245,0.92251 -5.26493,2.71497 -1.20249,1.79249 -1.80748,4.36746 -1.81498,7.7249 0.0108,3.34496 0.60916,5.93493 1.79498,7.7699 1.18581,1.83498 2.89412,2.76496 5.12493,2.78996 1.29248,-0.0267 2.33746,-0.36332 3.13496,-1.00998 0.79748,-0.64666 1.39247,-1.44332 1.78498,-2.38997 l 0.08,0 c -0.002,0.0117 -0.008,0.25833 -0.02,0.73999 -0.0117,0.48166 -0.0183,1.12832 -0.02,1.93997 z m 0,-9.83987 c -0.006,1.89248 -0.40418,3.41746 -1.19499,4.57494 -0.79083,1.15748 -1.93915,1.75248 -3.44495,1.78497 -1.70332,-0.0225 -2.92664,-0.75748 -3.66995,-2.20497 -0.74333,-1.44747 -1.10666,-3.47245 -1.08999,-6.07492 -0.0158,-2.58162 0.35582,-4.58826 1.11499,-6.01992 0.75915,-1.43163 2.0008,-2.15829 3.72495,-2.17997 1.58997,0.0559 2.74995,0.70417 3.47995,1.94497 0.72998,1.24083 1.08997,2.73915 1.07999,4.49494 z"
           style="fill:#ff6600;font-family:Mission Gothic Light;-inkscape-font-specification:Mission Gothic Light"
           id="path9647" />
        <path
           d="m 462.82097,468.47163 c -0.48918,1.43499 -1.14084,2.49498 -1.95498,3.17996 -0.81417,0.685 -1.85582,1.02499 -3.12496,1.01999 -1.69998,-0.0233 -2.98997,-0.72665 -3.86995,-2.10997 -0.87999,-1.38331 -1.34998,-3.30662 -1.40998,-5.76993 l 12.51984,0 0,-0.75999 c 0.0367,-3.32994 -0.50668,-5.9899 -1.62998,-7.9799 -1.12333,-1.98995 -3.04664,-3.00994 -5.76993,-3.05996 -2.39747,0.0317 -4.25245,1.00834 -5.56492,2.92997 -1.31249,1.92166 -1.97748,4.59828 -1.99498,8.02989 0.015,3.44747 0.67499,6.12243 1.97998,8.0249 1.30497,1.90247 3.16495,2.86746 5.57992,2.89496 1.86164,-0.002 3.36828,-0.44749 4.51995,-1.33498 1.15163,-0.88749 2.05829,-2.20247 2.71996,-3.94495 z m -10.35987,-5.71992 c 0.12166,-2.36579 0.61832,-4.2241 1.48998,-5.57493 0.87165,-1.3508 2.1083,-2.03912 3.70995,-2.06497 1.6833,0.0159 2.90662,0.68417 3.66996,2.00497 0.76331,1.32083 1.16663,3.19914 1.20998,5.63493 z"
           style="fill:#ff6600;font-family:Mission Gothic Light;-inkscape-font-specification:Mission Gothic Light"
           id="path9649" />
      </g>
      <path
         style="fill:#ff6600"
         inkscape:connector-curvature="0"
         d="m 262.79864,464.1773 c 0,4.74436 3.85829,8.60265 8.60265,8.60265 3.78732,0 6.97245,-2.47541 8.11875,-5.87991 l 4.78307,-2.77651 0.002,0.0538 c 0,7.12729 -5.77668,12.90397 -12.90397,12.90397 -7.12729,0 -12.90397,-5.77668 -12.90397,-12.90397 0,-7.12729 5.77668,-12.90397 12.90397,-12.90397 2.33132,0 4.51209,0.62799 6.39822,1.70762 l -4.75296,2.7593 c -0.53337,-0.10323 -1.08179,-0.1656 -1.64526,-0.1656 -4.74436,0 -8.60265,3.85829 -8.60265,8.60265 z m 8.60265,-4.30132 c -2.37648,0 -4.30132,1.92699 -4.30132,4.30132 0,2.37433 1.92484,4.30132 4.30132,4.30132 2.37648,0 4.30132,-1.92699 4.30132,-4.30132 l -0.004,-0.0323 7.22623,-4.19379 c 2.09904,-1.21512 5.81539,-0.72262 7.9811,0.34195 l 10.60492,-6.15734 -6.79179,-3.37439 0.36346,-7.8112 -10.63502,6.1724 c -0.15055,2.41089 -1.57859,5.88421 -3.66688,7.09933 l -7.27569,4.2239 c -0.62369,-0.35056 -1.33556,-0.56992 -2.10335,-0.56992 z m 17.19454,4.10991 0.0108,0.19141 c 0,9.48657 -7.71873,17.2053 -17.2053,17.2053 -9.48657,0 -17.2053,-7.71873 -17.2053,-17.2053 0,-9.48657 7.71873,-17.2053 17.2053,-17.2053 3.17223,0 6.13584,0.87747 8.69083,2.38079 0.71832,-1.26029 0.92048,-3.32063 0.31399,-4.68845 -2.74209,-1.26674 -5.78528,-1.99366 -9.00482,-1.99366 -11.87811,0 -21.50662,9.62851 -21.50662,21.50662 0,11.87811 9.62851,21.50662 21.50662,21.50662 11.25441,0 20.47645,-8.64781 21.41414,-19.66135 -0.64735,-1.03877 -2.2926,-2.28185 -4.2196,-2.03668 z"
         id="path9580" />
    </g>
  </g>
</svg>
