<?xml version="1.0" encoding="UTF-8" standalone="no"?>
<!-- Created with Inkscape (http://www.inkscape.org/) -->

<svg
   xmlns:dc="http://purl.org/dc/elements/1.1/"
   xmlns:cc="http://creativecommons.org/ns#"
   xmlns:rdf="http://www.w3.org/1999/02/22-rdf-syntax-ns#"
   xmlns:svg="http://www.w3.org/2000/svg"
   xmlns="http://www.w3.org/2000/svg"
   xmlns:sodipodi="http://sodipodi.sourceforge.net/DTD/sodipodi-0.dtd"
   xmlns:inkscape="http://www.inkscape.org/namespaces/inkscape"
   width="248.2298"
   height="53.68"
   id="svg3417"
   version="1.1"
   inkscape:version="0.48.4 r9939"
   sodipodi:docname="clue_lb.svg">
  <defs
     id="defs3419" />
  <sodipodi:namedview
     id="base"
     pagecolor="#ffffff"
     bordercolor="#666666"
     borderopacity="1.0"
     inkscape:pageopacity="0.0"
     inkscape:pageshadow="2"
     inkscape:zoom="0.35"
     inkscape:cx="-256.59939"
     inkscape:cy="-215.16176"
     inkscape:document-units="px"
     inkscape:current-layer="layer1"
     showgrid="false"
     fit-margin-top="0"
     fit-margin-left="0"
     fit-margin-right="0"
     fit-margin-bottom="0"
     inkscape:window-width="1366"
     inkscape:window-height="705"
     inkscape:window-x="-8"
     inkscape:window-y="-8"
     inkscape:window-maximized="1" />
  <metadata
     id="metadata3422">
    <rdf:RDF>
      <cc:Work
         rdf:about="">
        <dc:format>image/svg+xml</dc:format>
        <dc:type
           rdf:resource="http://purl.org/dc/dcmitype/StillImage" />
        <dc:title></dc:title>
      </cc:Work>
    </rdf:RDF>
  </metadata>
  <g
     inkscape:label="Layer 1"
     inkscape:groupmode="layer"
     id="layer1"
     transform="translate(-290.17081,-263.52042)">
    <g
       transform="translate(65.321387,-294.16396)"
       id="g3438"
       style="fill:#f98533;fill-opacity:1">
      <g
         transform="translate(1.1432874,127.11963)"
         id="g9592-6-8"
         style="fill:#f98533;fill-opacity:1">
        <g
           style="font-size:40px;font-style:normal;font-weight:normal;line-height:125%;letter-spacing:0px;word-spacing:0px;fill:#f98533;fill-opacity:1;stroke:none;font-family:Sans"
           id="text6251-6-7-3">
          <path
             d="m 363.02827,467.63165 c -0.49667,1.53665 -1.21333,2.7433 -2.14997,3.61995 -0.93667,0.87666 -2.11332,1.32332 -3.52995,1.33998 -2.34165,-0.0675 -4.03829,-1.21248 -5.08994,-3.43495 -1.05166,-2.22247 -1.56832,-5.11743 -1.54998,-8.68489 -0.0183,-3.56744 0.49833,-6.4624 1.54998,-8.68489 1.05165,-2.22245 2.74829,-3.36743 5.08994,-3.43496 1.47413,0.0167 2.68578,0.49336 3.63495,1.42999 0.94914,0.93667 1.6708,2.23332 2.16497,3.88995 l 2.19997,-0.99999 c -0.65084,-2.02495 -1.62916,-3.62493 -2.93496,-4.79994 -1.30583,-1.17496 -2.99414,-1.77495 -5.06493,-1.79998 -3.24664,0.10003 -5.57327,1.50001 -6.97991,4.19995 -1.40665,2.69999 -2.09331,6.09994 -2.05998,10.19987 -0.0333,4.09996 0.65333,7.49991 2.05998,10.19987 1.40664,2.69996 3.73327,4.09994 6.97991,4.19994 1.99413,-0.0233 3.63577,-0.58666 4.92493,-1.68998 1.28914,-1.10331 2.26079,-2.60663 2.91497,-4.50994 z"
             style="fill:#f98533;font-family:Mission Gothic Light;-inkscape-font-specification:Mission Gothic Light;fill-opacity:1"
             id="path3556" />
          <path
             d="m 371.78467,474.47156 0,-29.19963 -2.43997,0 0,29.19963 z"
             style="fill:#f98533;font-family:Mission Gothic Light;-inkscape-font-specification:Mission Gothic Light;fill-opacity:1"
             id="path3558" />
          <path
             d="m 391.99139,474.47156 c -0.06,-0.10917 -0.17002,-0.46083 -0.33,-1.05499 -0.16001,-0.59416 -0.25001,-1.37581 -0.26999,-2.34497 l 0,-17.67977 -2.43997,0 0,12.39984 c -0.0117,2.00165 -0.45834,3.63829 -1.33998,4.90994 -0.88167,1.27165 -2.12832,1.92831 -3.73996,1.96997 -1.64998,-0.0225 -2.78997,-0.63749 -3.41995,-1.84498 -0.63,-1.20748 -0.93,-2.87245 -0.89999,-4.99493 l 0,-12.43984 -2.43997,0 0,12.99983 c -0.0442,2.36581 0.39416,4.35412 1.31498,5.96492 0.92082,1.61082 2.58913,2.44914 5.00494,2.51497 1.26831,-0.007 2.38162,-0.34333 3.33996,-1.00999 0.9583,-0.66665 1.71163,-1.62331 2.25997,-2.86996 l 0.08,0 c 0.0408,0.94999 0.13915,1.75998 0.29499,2.42997 0.15582,0.66999 0.24415,1.01999 0.265,1.04999 z"
             style="fill:#f98533;font-family:Mission Gothic Light;-inkscape-font-specification:Mission Gothic Light;fill-opacity:1"
             id="path3560" />
          <path
             d="m 409.19517,468.47163 c -0.48917,1.43499 -1.14083,2.49498 -1.95497,3.17996 -0.81417,0.685 -1.85582,1.02499 -3.12496,1.01999 -1.69999,-0.0233 -2.98997,-0.72665 -3.86995,-2.10997 -0.87999,-1.38331 -1.34999,-3.30662 -1.40998,-5.76993 l 12.51984,0 0,-0.75999 c 0.0367,-3.32994 -0.50668,-5.9899 -1.62998,-7.9799 -1.12334,-1.98995 -3.04664,-3.00994 -5.76993,-3.05996 -2.39748,0.0317 -4.25245,1.00834 -5.56493,2.92997 -1.31248,1.92166 -1.97747,4.59828 -1.99497,8.02989 0.015,3.44747 0.67499,6.12243 1.97997,8.0249 1.30498,1.90247 3.16495,2.86746 5.57993,2.89496 1.86163,-0.002 3.36828,-0.44749 4.51994,-1.33498 1.15164,-0.88749 2.05829,-2.20247 2.71997,-3.94495 z m -10.35986,-5.71992 c 0.12166,-2.36579 0.61832,-4.2241 1.48998,-5.57493 0.87165,-1.3508 2.1083,-2.03912 3.70995,-2.06497 1.6833,0.0159 2.90662,0.68417 3.66995,2.00497 0.76331,1.32083 1.16664,3.19914 1.20999,5.63493 z"
             style="fill:#f98533;font-family:Mission Gothic Light;-inkscape-font-specification:Mission Gothic Light;fill-opacity:1"
             id="path3562" />
        </g>
      </g>
      <g
         style="fill:#f98533;fill-opacity:1"
         transform="matrix(0.10045335,0,0,0.10045335,282.11337,556.03457)"
         id="g10740">
        <g
           style="fill:#f98533;fill-opacity:1"
           id="g10700">
          <path
             style="fill:#f98533;fill-opacity:1"
             inkscape:connector-curvature="0"
             d="m 130.358,60.6 c -4.9,-8.6 -1.8,-18.4 6.1,-23.3 3.1,-1.8 6.7,-2.4 9.8,-2.4 5.5,0.6 10.4,3.7 13.5,8.6 l 22.6,38.6 -30,17.1 -22,-38.6 z m 290.701,0 c 4.899,-8.6 1.8,-19 -6.7,-23.3 -8.6,-4.9 -19,-1.2 -23.9,6.1 l 0,0 -22,38.6 30,17.1 22.6,-38.5 z m -128.5,-43.5 c 0,-9.8 -8,-17.1 -17.101,-17.1 -9.8,0 -17.7,7.3 -17.7,17.1 v 44.7 h 34.9 V 17.1 h -0.099 z m 223.399,121.2 c -3.1,-4.9 -8,-8 -13.5,-8.6 -3.1,0 -6.699,0 -9.8,1.8 l -38.6,22.6 17.1,30 39.2,-22.6 c 7.401,-4.2 10.5,-14.6 5.6,-23.2 z m -34.899,363.501 h -13.5 c 1.2,-1.801 1.8,-4.301 1.8,-6.701 v -18.4 c 0,-8.6 -6.7,-15.299 -15.3,-15.299 h -11.601 -332.3 -12.2 c -8.6,0 -15.3,6.699 -15.3,15.299 v 18.4 c 0,2.4 0.6,4.9 1.8,6.701 h -13.5 c -8.6,0 -15.3,6.699 -15.3,15.299 v 18.4 c 0,8.6 6.7,15.301 15.3,15.301 h 410.7 c 8.601,0 15.3,-6.701 15.3,-15.301 v -18.4 c -0.6,-7.901 -7.3,-15.299 -15.899,-15.299 z M 436.358,444.9 h -321.3 V 283.4 281 275.4 c 0,-88.7 72.2,-160.3 161,-160.3 l 0,0 c 88.701,0 161,71.6 161,160.3 v 4.901 2.398 162.201 h -0.7 z m -184.2,-140.701 c 0,-45.899 -37.3,-83.199 -83.2,-83.199 v 167.1 c 45.9,-0.1 83.2,-37.401 83.2,-83.901 z m 129.7,-83.299 c -45.9,0 -83.2,37.3 -83.2,83.2 0,45.9 37.3,83.201 83.2,83.201 V 220.9 z m -284.5,-66.1 -39.2,-22.6 c -1.8,-1.2 -4.3,-1.8 -6.1,-1.8 -6.7,-0.6 -13.5,2.4 -17.1,8.6 -4.9,8.6 -2.4,18.4 6.1,23.3 l 39.2,22.6 17.1,-30.1 z"
             id="path10702" />
        </g>
        <g
           style="fill:#f98533;fill-opacity:1"
           id="g10704" />
        <g
           style="fill:#f98533;fill-opacity:1"
           id="g10706" />
        <g
           style="fill:#f98533;fill-opacity:1"
           id="g10708" />
        <g
           style="fill:#f98533;fill-opacity:1"
           id="g10710" />
        <g
           style="fill:#f98533;fill-opacity:1"
           id="g10712" />
        <g
           style="fill:#f98533;fill-opacity:1"
           id="g10714" />
        <g
           style="fill:#f98533;fill-opacity:1"
           id="g10716" />
        <g
           style="fill:#f98533;fill-opacity:1"
           id="g10718" />
        <g
           style="fill:#f98533;fill-opacity:1"
           id="g10720" />
        <g
           style="fill:#f98533;fill-opacity:1"
           id="g10722" />
        <g
           style="fill:#f98533;fill-opacity:1"
           id="g10724" />
        <g
           style="fill:#f98533;fill-opacity:1"
           id="g10726" />
        <g
           style="fill:#f98533;fill-opacity:1"
           id="g10728" />
        <g
           style="fill:#f98533;fill-opacity:1"
           id="g10730" />
        <g
           style="fill:#f98533;fill-opacity:1"
           id="g10732" />
      </g>
    </g>
  </g>
</svg>
