<?xml version="1.0" encoding="UTF-8" standalone="no"?>
<!-- Created with Inkscape (http://www.inkscape.org/) -->

<svg
   xmlns:dc="http://purl.org/dc/elements/1.1/"
   xmlns:cc="http://creativecommons.org/ns#"
   xmlns:rdf="http://www.w3.org/1999/02/22-rdf-syntax-ns#"
   xmlns:svg="http://www.w3.org/2000/svg"
   xmlns="http://www.w3.org/2000/svg"
   xmlns:sodipodi="http://sodipodi.sourceforge.net/DTD/sodipodi-0.dtd"
   xmlns:inkscape="http://www.inkscape.org/namespaces/inkscape"
   width="100"
   height="100"
   id="svg4886"
   version="1.1"
   inkscape:version="0.48.4 r9939"
   sodipodi:docname="wifi_info_btn.svg">
  <defs
     id="defs4888" />
  <sodipodi:namedview
     id="base"
     pagecolor="#ffffff"
     bordercolor="#666666"
     borderopacity="1.0"
     inkscape:pageopacity="0.0"
     inkscape:pageshadow="2"
     inkscape:zoom="1.191573"
     inkscape:cx="-1.7161716"
     inkscape:cy="65.714286"
     inkscape:document-units="px"
     inkscape:current-layer="g4801"
     showgrid="false"
     fit-margin-top="0"
     fit-margin-left="0"
     fit-margin-right="0"
     fit-margin-bottom="0"
     inkscape:window-width="1366"
     inkscape:window-height="705"
     inkscape:window-x="-8"
     inkscape:window-y="-8"
     inkscape:window-maximized="1" />
  <metadata
     id="metadata4891">
    <rdf:RDF>
      <cc:Work
         rdf:about="">
        <dc:format>image/svg+xml</dc:format>
        <dc:type
           rdf:resource="http://purl.org/dc/dcmitype/StillImage" />
        <dc:title></dc:title>
      </cc:Work>
    </rdf:RDF>
  </metadata>
  <g
     inkscape:label="Layer 1"
     inkscape:groupmode="layer"
     id="layer1"
     transform="translate(-155.71428,-430.93359)">
    <g
       transform="translate(549.58064,-1071.1687)"
       id="g4801">
      <g
         id="g5348">
        <rect
           ry="21.153849"
           y="1502.1023"
           x="-393.86636"
           height="100"
           width="100"
           id="rect3097-2-9-3-9"
           style="fill:none;fill-opacity:0.35672517999999998;stroke:none" />
        <g
           style="fill:#ffffff"
           transform="matrix(0.15126859,0,0,0.15126859,-376.3664,1519.6023)"
           id="g4398">
          <g
             style="fill:#ffffff"
             id="g4354">
            <g
               style="fill:#ffffff"
               id="g4356">
              <path
                 style="fill:#ffffff"
                 inkscape:connector-curvature="0"
                 d="m 233.137,234.36 -30.939,30.94 -37.799,-37.8 30.939,-30.938 c 6.856,-6.855 6.856,-18.012 0,-24.867 -6.855,-6.856 -18.011,-6.856 -24.867,0 l -30.94,30.939 -15.539,-15.538 c -4.12,-4.122 -10.801,-4.121 -14.921,0 L 86.625,209.54 c -4.12,4.12 -4.12,10.801 0,14.921 l 3.35,3.351 -50.72,50.718 c -2.361,2.362 -3.465,5.702 -2.976,9.005 l 7.816,52.813 -41.005,41.005 c -4.12,4.119 -4.12,10.8 0,14.92 l 30.337,30.336 c 4.12,4.121 10.8,4.121 14.92,0 l 41.006,-41.006 52.813,7.817 c 3.303,0.488 6.644,-0.614 9.004,-2.977 l 50.719,-50.719 3.35,3.35 c 4.12,4.119 10.801,4.119 14.921,0 l 22.445,-22.447 c 4.121,-4.117 4.121,-10.801 0,-14.92 l -15.539,-15.539 30.939,-30.939 c 6.855,-6.856 6.855,-18.012 0,-24.868 -6.857,-6.856 -18.011,-6.856 -24.868,-10e-4 z"
                 id="path4358" />
              <path
                 style="fill:#ffffff"
                 inkscape:connector-curvature="0"
                 d="M 426.609,33.428 396.273,3.089 c -4.119,-4.118 -10.801,-4.118 -14.92,0 l -41.006,41.007 -52.814,-7.817 c -3.303,-0.488 -6.643,0.615 -9.004,2.978 l -50.719,50.719 -3.35,-3.351 c -4.119,-4.119 -10.8,-4.121 -14.921,0 l -22.446,22.446 c -4.12,4.12 -4.12,10.8 0,14.921 l 118.613,118.613 c 4.119,4.119 10.801,4.119 14.922,0 l 22.445,-22.447 c 4.119,-4.12 4.119,-10.801 0,-14.92 l -3.35,-3.35 50.719,-50.72 c 2.361,-2.36 3.465,-5.699 2.977,-9.004 l -7.816,-52.812 41.006,-41.006 c 4.121,-4.119 4.121,-10.801 0,-14.918 z"
                 id="path4360" />
            </g>
          </g>
          <g
             style="fill:#ffffff"
             id="g4362" />
          <g
             style="fill:#ffffff"
             id="g4364" />
          <g
             style="fill:#ffffff"
             id="g4366" />
          <g
             style="fill:#ffffff"
             id="g4368" />
          <g
             style="fill:#ffffff"
             id="g4370" />
          <g
             style="fill:#ffffff"
             id="g4372" />
          <g
             style="fill:#ffffff"
             id="g4374" />
          <g
             style="fill:#ffffff"
             id="g4376" />
          <g
             style="fill:#ffffff"
             id="g4378" />
          <g
             style="fill:#ffffff"
             id="g4380" />
          <g
             style="fill:#ffffff"
             id="g4382" />
          <g
             style="fill:#ffffff"
             id="g4384" />
          <g
             style="fill:#ffffff"
             id="g4386" />
          <g
             style="fill:#ffffff"
             id="g4388" />
          <g
             style="fill:#ffffff"
             id="g4390" />
        </g>
      </g>
    </g>
  </g>
</svg>
