<?xml version="1.0" encoding="UTF-8" standalone="no"?>
<!-- Created with Inkscape (http://www.inkscape.org/) -->

<svg
   xmlns:dc="http://purl.org/dc/elements/1.1/"
   xmlns:cc="http://creativecommons.org/ns#"
   xmlns:rdf="http://www.w3.org/1999/02/22-rdf-syntax-ns#"
   xmlns:svg="http://www.w3.org/2000/svg"
   xmlns="http://www.w3.org/2000/svg"
   xmlns:sodipodi="http://sodipodi.sourceforge.net/DTD/sodipodi-0.dtd"
   xmlns:inkscape="http://www.inkscape.org/namespaces/inkscape"
   width="293.34824"
   height="96.279549"
   id="svg7916"
   version="1.1"
   inkscape:version="0.48.4 r9939"
   sodipodi:docname="info_btn.svg">
  <defs
     id="defs7918" />
  <sodipodi:namedview
     id="base"
     pagecolor="#ffffff"
     bordercolor="#666666"
     borderopacity="1.0"
     inkscape:pageopacity="0.0"
     inkscape:pageshadow="2"
     inkscape:zoom="0.35"
     inkscape:cx="-185.28787"
     inkscape:cy="97.622698"
     inkscape:document-units="px"
     inkscape:current-layer="layer1"
     showgrid="false"
     fit-margin-top="0"
     fit-margin-left="0"
     fit-margin-right="0"
     fit-margin-bottom="0"
     inkscape:window-width="1366"
     inkscape:window-height="705"
     inkscape:window-x="-8"
     inkscape:window-y="-8"
     inkscape:window-maximized="1" />
  <metadata
     id="metadata7921">
    <rdf:RDF>
      <cc:Work
         rdf:about="">
        <dc:format>image/svg+xml</dc:format>
        <dc:type
           rdf:resource="http://purl.org/dc/dcmitype/StillImage" />
        <dc:title></dc:title>
      </cc:Work>
    </rdf:RDF>
  </metadata>
  <g
     inkscape:label="Layer 1"
     inkscape:groupmode="layer"
     id="layer1"
     transform="translate(-218.8593,-533.70533)">
    <g
       transform="translate(-1001.7117,96.81518)"
       id="g7657">
      <g
         style="font-size:40px;font-style:normal;font-weight:normal;line-height:100%;letter-spacing:0px;word-spacing:0px;fill:#ffffff;fill-opacity:1;stroke:none;font-family:Sans"
         id="text6251-3-3">
        <path
           inkscape:connector-curvature="0"
           d="m 1314.8382,453.80994 c -0.099,2.81498 -0.6308,5.10494 -1.595,6.86991 -0.9641,1.76498 -2.4858,2.67497 -4.5649,2.72997 -2.3225,-0.065 -4.0075,-1.20498 -5.0549,-3.41996 -1.0475,-2.21496 -1.5625,-5.11492 -1.545,-8.69988 -0.018,-3.56578 0.4975,-6.45407 1.545,-8.66489 1.0474,-2.21078 2.7324,-3.3491 5.0549,-3.41496 1.515,0.02 2.7549,0.52002 3.7199,1.49998 0.965,0.98001 1.685,2.31999 2.16,4.01995 l 2.24,-0.95999 c -0.6309,-2.10661 -1.6092,-3.77326 -2.935,-4.99993 -1.3258,-1.22663 -3.0541,-1.85328 -5.1849,-1.87998 -3.2291,0.10003 -5.5508,1.50001 -6.9649,4.19995 -1.4142,2.69998 -2.1058,6.09994 -2.075,10.19987 -0.031,4.11745 0.6608,7.5224 2.075,10.21486 1.4141,2.69247 3.7358,4.08745 6.9649,4.18495 3.1266,-0.0892 5.3632,-1.45081 6.7099,-4.08495 1.3466,-2.63412 2.0033,-6.00574 1.97,-10.11487 l -7.5599,0 0,2.31997 z"
           style="fill:#ffffff;font-family:Mission Gothic Light;-inkscape-font-specification:Mission Gothic Light"
           id="path7816" />
        <path
           inkscape:connector-curvature="0"
           d="m 1330.3133,465.68979 c 3.1924,-0.0925 5.4974,-1.47748 6.9149,-4.15495 1.4175,-2.67746 2.1125,-6.09241 2.085,-10.24486 0.027,-4.15243 -0.6675,-7.56739 -2.085,-10.24487 -1.4175,-2.67744 -3.7225,-4.06242 -6.9149,-4.15495 -3.21,0.0925 -5.5199,1.47751 -6.9299,4.15495 -1.41,2.67748 -2.1,6.09244 -2.07,10.24487 -0.03,4.15245 0.66,7.5674 2.07,10.24486 1.41,2.67747 3.7199,4.06245 6.9299,4.15495 z m 0,-2.27997 c -2.305,-0.055 -3.985,-1.17498 -5.0399,-3.35996 -1.055,-2.18496 -1.575,-5.10492 -1.56,-8.75988 -0.015,-3.65494 0.505,-6.5749 1.56,-8.75989 1.0549,-2.18495 2.7349,-3.30493 5.0399,-3.35996 2.2858,0.055 3.9541,1.17501 5.0049,3.35996 1.0508,2.18499 1.5692,5.10495 1.555,8.75989 0.014,3.65496 -0.5042,6.57492 -1.555,8.75988 -1.0508,2.18498 -2.7191,3.30496 -5.0049,3.35996 z"
           style="fill:#ffffff;font-family:Mission Gothic Light;-inkscape-font-specification:Mission Gothic Light"
           id="path7818" />
        <path
           inkscape:connector-curvature="0"
           d="m 1346.5484,458.84988 0,-21.55972 -2.4,0 0,21.55972 z m 0.36,5.31993 c -0.01,-0.44999 -0.16,-0.81999 -0.45,-1.10999 -0.29,-0.28999 -0.66,-0.43999 -1.11,-0.44999 -0.4309,0.01 -0.7892,0.16 -1.075,0.44999 -0.2858,0.29 -0.4342,0.66 -0.445,1.10999 0.011,0.43083 0.1592,0.78916 0.445,1.07499 0.2858,0.28582 0.6441,0.43416 1.075,0.44499 0.45,-0.0108 0.82,-0.15917 1.11,-0.445 0.29,-0.28582 0.44,-0.64415 0.45,-1.07498 z"
           style="fill:#ffffff;font-family:Mission Gothic Light;-inkscape-font-specification:Mission Gothic Light"
           id="path7820" />
        <path
           inkscape:connector-curvature="0"
           d="m 1354.7515,458.84988 0,-21.55972 -2.4,0 0,21.55972 z m 0.36,5.31993 c -0.01,-0.44999 -0.16,-0.81999 -0.45,-1.10999 -0.29,-0.28999 -0.66,-0.43999 -1.11,-0.44999 -0.4308,0.01 -0.7892,0.16 -1.075,0.44999 -0.2858,0.29 -0.4341,0.66 -0.445,1.10999 0.011,0.43083 0.1592,0.78916 0.445,1.07499 0.2858,0.28582 0.6442,0.43416 1.075,0.44499 0.45,-0.0108 0.82,-0.15917 1.11,-0.445 0.29,-0.28582 0.44,-0.64415 0.45,-1.07498 z"
           style="fill:#ffffff;font-family:Mission Gothic Light;-inkscape-font-specification:Mission Gothic Light"
           id="path7822" />
        <path
           inkscape:connector-curvature="0"
           d="m 1362.9546,458.84988 0,-21.55972 -2.4,0 0,21.55972 z m 0.36,5.31993 c -0.01,-0.44999 -0.16,-0.81999 -0.45,-1.10999 -0.29,-0.28999 -0.66,-0.43999 -1.11,-0.44999 -0.4308,0.01 -0.7891,0.16 -1.075,0.44999 -0.2858,0.29 -0.4341,0.66 -0.445,1.10999 0.011,0.43083 0.1592,0.78916 0.445,1.07499 0.2859,0.28582 0.6442,0.43416 1.075,0.44499 0.45,-0.0108 0.82,-0.15917 1.11,-0.445 0.29,-0.28582 0.44,-0.64415 0.45,-1.07498 z"
           style="fill:#ffffff;font-family:Mission Gothic Light;-inkscape-font-specification:Mission Gothic Light"
           id="path7824" />
        <path
           inkscape:connector-curvature="0"
           d="m 1301.5784,496.28979 0,-19.59974 -1.708,0 0,19.59974 z"
           style="font-size:28px;line-height:100%;fill:#ffffff;font-family:Mission Gothic Light;-inkscape-font-specification:Mission Gothic Light"
           id="path7826" />
        <path
           inkscape:connector-curvature="0"
           d="m 1323.2862,496.28979 0,-9.09988 c 0.031,-1.65605 -0.276,-3.04786 -0.9205,-4.17544 -0.6446,-1.12756 -1.8124,-1.71438 -3.5035,-1.76048 -0.8983,0.006 -1.6776,0.24559 -2.338,0.71749 -0.6603,0.47192 -1.1876,1.13808 -1.5819,1.99847 l -0.056,0 c -0.029,-0.66498 -0.097,-1.23197 -0.2065,-1.70097 -0.1091,-0.46898 -0.171,-0.71398 -0.1855,-0.735 l -1.624,0 c 0.054,0.0899 0.1347,0.34418 0.2415,0.76299 0.1067,0.41885 0.1662,0.96717 0.1785,1.64498 l 0,12.34784 1.708,0 0,-8.51189 c 0,-1.42038 0.2893,-2.59753 0.8749,-3.53145 0.5857,-0.93389 1.4794,-1.41805 2.681,-1.45248 1.1427,0.0187 1.9372,0.45734 2.3835,1.31598 0.4462,0.85867 0.6597,2.02532 0.6405,3.49996 l 0,8.67988 z"
           style="font-size:28px;line-height:100%;fill:#ffffff;font-family:Mission Gothic Light;-inkscape-font-specification:Mission Gothic Light"
           id="path7828" />
        <path
           inkscape:connector-curvature="0"
           d="m 1335.4675,492.08985 c -0.3424,1.00449 -0.7986,1.74648 -1.3685,2.22597 -0.5699,0.4795 -1.2991,0.71749 -2.1875,0.71399 -1.19,-0.0163 -2.0929,-0.50866 -2.7089,-1.47698 -0.616,-0.96832 -0.945,-2.31463 -0.987,-4.03895 l 8.7639,0 0,-0.53199 c 0.026,-2.33096 -0.3547,-4.19294 -1.141,-5.58593 -0.7864,-1.39297 -2.1327,-2.10696 -4.039,-2.14197 -1.6782,0.0222 -2.9767,0.70584 -3.8954,2.05097 -0.9188,1.34516 -1.3842,3.2188 -1.3965,5.62093 0.011,2.41322 0.4725,4.2857 1.386,5.61743 0.9135,1.33173 2.2155,2.00722 3.9059,2.02647 1.3032,-0.002 2.3578,-0.31324 3.164,-0.93449 0.8061,-0.62124 1.4408,-1.54172 1.904,-2.76146 z m -7.2519,-4.00395 c 0.085,-1.65605 0.4328,-2.95687 1.043,-3.90245 0.6101,-0.94556 1.4758,-1.42738 2.5969,-1.44548 1.1783,0.0111 2.0347,0.47892 2.569,1.40348 0.5343,0.92458 0.8166,2.2394 0.847,3.94445 z"
           style="font-size:28px;line-height:100%;fill:#ffffff;font-family:Mission Gothic Light;-inkscape-font-specification:Mission Gothic Light"
           id="path7830" />
        <path
           inkscape:connector-curvature="0"
           d="m 1348.5925,492.08985 c -0.3424,1.00449 -0.7986,1.74648 -1.3685,2.22597 -0.5699,0.4795 -1.2991,0.71749 -2.1875,0.71399 -1.19,-0.0163 -2.0929,-0.50866 -2.7089,-1.47698 -0.616,-0.96832 -0.945,-2.31463 -0.987,-4.03895 l 8.7639,0 0,-0.53199 c 0.026,-2.33096 -0.3547,-4.19294 -1.141,-5.58593 -0.7864,-1.39297 -2.1327,-2.10696 -4.039,-2.14197 -1.6782,0.0222 -2.9767,0.70584 -3.8954,2.05097 -0.9188,1.34516 -1.3842,3.2188 -1.3965,5.62093 0.011,2.41322 0.4725,4.2857 1.386,5.61743 0.9135,1.33173 2.2155,2.00722 3.9059,2.02647 1.3032,-0.002 2.3578,-0.31324 3.164,-0.93449 0.8061,-0.62124 1.4408,-1.54172 1.904,-2.76146 z m -7.2519,-4.00395 c 0.085,-1.65605 0.4328,-2.95687 1.043,-3.90245 0.6101,-0.94556 1.4758,-1.42738 2.5969,-1.44548 1.1783,0.0111 2.0347,0.47892 2.569,1.40348 0.5343,0.92458 0.8166,2.2394 0.847,3.94445 z"
           style="font-size:28px;line-height:100%;fill:#ffffff;font-family:Mission Gothic Light;-inkscape-font-specification:Mission Gothic Light"
           id="path7832" />
        <path
           inkscape:connector-curvature="0"
           d="m 1363.1735,496.28979 c -0.042,-0.0782 -0.119,-0.32782 -0.231,-0.74899 -0.112,-0.42116 -0.175,-0.96481 -0.189,-1.63097 l 0,-18.05977 -1.708,0 0,5.48793 c 0,0.51509 0.01,0.98292 0.014,1.40348 0.01,0.42059 0.013,0.64342 0.014,0.66849 l -0.056,0 c -0.3208,-0.64106 -0.7572,-1.15789 -1.309,-1.55048 -0.5518,-0.39256 -1.2261,-0.59439 -2.023,-0.60549 -1.614,0.0228 -2.8378,0.70525 -3.6714,2.04747 -0.8336,1.34225 -1.2524,3.20772 -1.2565,5.59643 0.01,2.40214 0.4258,4.27578 1.253,5.62093 0.8271,1.34515 2.0148,2.0288 3.5629,2.05097 0.9304,-0.0198 1.6806,-0.25316 2.2505,-0.69999 0.5699,-0.44683 1.0051,-0.98815 1.3055,-1.62398 l 0.056,0 c 0.026,0.54366 0.086,1.00332 0.182,1.37898 0.096,0.37567 0.1563,0.59733 0.182,0.66499 z m -2.128,-5.82392 c 0,1.35274 -0.2713,2.44122 -0.8085,3.26546 -0.5372,0.82424 -1.3317,1.24773 -2.3835,1.27048 -1.2069,-0.0233 -2.076,-0.57866 -2.6074,-1.66598 -0.5314,-1.08731 -0.7916,-2.56663 -0.7805,-4.43794 -0.011,-1.84563 0.2491,-3.31328 0.7805,-4.40294 0.5314,-1.08964 1.4005,-1.6473 2.6074,-1.67298 1.162,0.0408 1.988,0.51917 2.478,1.43498 0.49,0.91583 0.728,2.02415 0.714,3.32496 z"
           style="font-size:28px;line-height:100%;fill:#ffffff;font-family:Mission Gothic Light;-inkscape-font-specification:Mission Gothic Light"
           id="path7834" />
        <path
           inkscape:connector-curvature="0"
           d="m 1380.2588,494.35782 c -0.231,0.18492 -0.504,0.33308 -0.819,0.44449 -0.315,0.11142 -0.63,0.16859 -0.945,0.1715 -0.6195,-0.003 -1.0955,-0.21408 -1.428,-0.63349 -0.3325,-0.41941 -0.5005,-1.02957 -0.504,-1.83048 l 0,-9.46387 3.388,0 0,-1.51199 -3.388,0 0,-3.52795 -1.68,0 0,3.52795 -1.9879,0 0,1.51199 1.9879,0 0,9.54787 c -0.01,1.2559 0.2713,2.23006 0.8295,2.92246 0.5583,0.69241 1.4298,1.04357 2.6145,1.05349 0.5063,-0.007 0.9706,-0.084 1.393,-0.231 0.4223,-0.14699 0.7886,-0.32199 1.099,-0.52499 z"
           style="font-size:28px;line-height:100%;fill:#ffffff;font-family:Mission Gothic Light;-inkscape-font-specification:Mission Gothic Light"
           id="path7836" />
        <path
           inkscape:connector-curvature="0"
           d="m 1388.045,495.00181 c -1.2005,-0.0251 -2.0895,-0.58391 -2.667,-1.67648 -0.5775,-1.09256 -0.8645,-2.56837 -0.861,-4.42744 0,-1.8713 0.2835,-3.35061 0.861,-4.43794 0.5775,-1.08731 1.4665,-1.64264 2.667,-1.66598 1.2139,0.0233 2.111,0.57867 2.6914,1.66598 0.5804,1.08733 0.8686,2.56664 0.8645,4.43794 0,1.88356 -0.2841,3.36638 -0.8645,4.44844 -0.5804,1.08207 -1.4775,1.6339 -2.6914,1.65548 z m 0,1.56798 c 1.7394,-0.0204 3.0554,-0.70057 3.9479,-2.04047 0.8925,-1.3399 1.3405,-3.21704 1.344,-5.63143 0,-2.40096 -0.4515,-4.26993 -1.344,-5.60693 -0.8925,-1.33697 -2.2085,-2.01596 -3.9479,-2.03697 -1.7261,0.021 -3.0339,0.7 -3.9235,2.03697 -0.8896,1.337 -1.3364,3.20597 -1.3405,5.60693 0,2.41439 0.4509,4.29153 1.3405,5.63143 0.8896,1.3399 2.1974,2.02005 3.9235,2.04047 z"
           style="font-size:28px;line-height:100%;fill:#ffffff;font-family:Mission Gothic Light;-inkscape-font-specification:Mission Gothic Light"
           id="path7838" />
        <path
           inkscape:connector-curvature="0"
           d="m 1411.8274,492.03385 c -0.2625,0.90649 -0.6545,1.62048 -1.176,2.14197 -0.5215,0.5215 -1.1934,0.78749 -2.0159,0.79799 -1.2262,-0.0228 -2.1268,-0.57224 -2.702,-1.64848 -0.5752,-1.07623 -0.8598,-2.54271 -0.854,-4.39944 0,-1.87013 0.2841,-3.34478 0.8645,-4.42394 0.5804,-1.07914 1.4776,-1.6298 2.6915,-1.65198 0.8236,0.008 1.4933,0.26484 2.0089,0.76999 0.5157,0.50517 0.8914,1.20983 1.127,2.11397 l 1.484,-0.81199 c -0.3704,-1.1328 -0.9316,-2.02413 -1.6835,-2.67396 -0.7519,-0.64982 -1.74,-0.98114 -2.9644,-0.99399 -1.6893,0.0204 -2.9867,0.70059 -3.892,2.04047 -0.9053,1.33991 -1.3626,3.21705 -1.372,5.63143 0.01,2.41322 0.4614,4.2857 1.3615,5.61743 0.9001,1.33173 2.2009,2.00722 3.9025,2.02647 1.2395,-0.0111 2.2394,-0.34591 2.9994,-1.00449 0.7601,-0.65857 1.3189,-1.57439 1.6765,-2.74746 z"
           style="font-size:28px;line-height:100%;fill:#ffffff;font-family:Mission Gothic Light;-inkscape-font-specification:Mission Gothic Light"
           id="path7840" />
        <path
           inkscape:connector-curvature="0"
           d="m 1425.8974,496.28979 c -0.055,-0.0863 -0.1406,-0.33366 -0.2555,-0.74199 -0.1149,-0.40832 -0.1791,-0.96365 -0.1925,-1.66597 l 0,-7.30791 c -0.026,-1.80305 -0.4427,-3.14586 -1.2495,-4.02845 -0.8067,-0.88256 -1.8462,-1.32238 -3.1184,-1.31948 -0.9468,-0.003 -1.8323,0.22693 -2.6565,0.68949 -0.8242,0.46259 -1.5347,1.17542 -2.1315,2.13847 l 1.26,1.00799 c 0.3354,-0.6959 0.7776,-1.25006 1.3265,-1.66248 0.5489,-0.4124 1.2081,-0.62356 1.9775,-0.63349 0.8796,-0.002 1.5773,0.30276 2.0929,0.91349 0.5157,0.61075 0.7794,1.53824 0.791,2.78246 l 0,1.17599 c -2.7649,0.0117 -4.8159,0.42933 -6.1529,1.25298 -1.337,0.82366 -2.002,1.98331 -1.995,3.47896 0.012,1.26523 0.3874,2.27672 1.127,3.03446 0.7397,0.75774 1.7733,1.14623 3.101,1.16548 1.0552,-0.0274 1.8987,-0.30858 2.5305,-0.84349 0.6317,-0.53491 1.1042,-1.15907 1.4174,-1.87247 0.051,0.65974 0.1243,1.21623 0.2205,1.66947 0.096,0.45325 0.1628,0.70875 0.1995,0.76649 z m -2.156,-6.01992 c 0,1.32766 -0.3196,2.45231 -0.952,3.37396 -0.6323,0.92165 -1.5656,1.40232 -2.7999,1.44198 -0.7513,-10e-4 -1.3907,-0.22983 -1.918,-0.68599 -0.5273,-0.45616 -0.8027,-1.13282 -0.826,-2.02997 0.01,-1.09432 0.5081,-1.92264 1.4945,-2.48497 0.9864,-0.56232 2.4015,-0.84465 4.2454,-0.84699 0.252,10e-6 0.504,10e-6 0.756,0 z"
           style="font-size:28px;line-height:100%;fill:#ffffff;font-family:Mission Gothic Light;-inkscape-font-specification:Mission Gothic Light"
           id="path7842" />
        <path
           inkscape:connector-curvature="0"
           d="m 1435.6025,494.35782 c -0.231,0.18492 -0.504,0.33308 -0.819,0.44449 -0.315,0.11142 -0.63,0.16859 -0.945,0.1715 -0.6195,-0.003 -1.0955,-0.21408 -1.4279,-0.63349 -0.3325,-0.41941 -0.5005,-1.02957 -0.504,-1.83048 l 0,-9.46387 3.3879,0 0,-1.51199 -3.3879,0 0,-3.52795 -1.68,0 0,3.52795 -1.988,0 0,1.51199 1.988,0 0,9.54787 c -0.01,1.2559 0.2712,2.23006 0.8295,2.92246 0.5582,0.69241 1.4297,1.04357 2.6144,1.05349 0.5064,-0.007 0.9707,-0.084 1.393,-0.231 0.4223,-0.14699 0.7887,-0.32199 1.099,-0.52499 z"
           style="font-size:28px;line-height:100%;fill:#ffffff;font-family:Mission Gothic Light;-inkscape-font-specification:Mission Gothic Light"
           id="path7844" />
        <path
           inkscape:connector-curvature="0"
           d="m 1446.6087,492.03385 c -0.2625,0.90649 -0.6545,1.62048 -1.176,2.14197 -0.5215,0.5215 -1.1935,0.78749 -2.016,0.79799 -1.2261,-0.0228 -2.1268,-0.57224 -2.7019,-1.64848 -0.5752,-1.07623 -0.8599,-2.54271 -0.854,-4.39944 0,-1.87013 0.284,-3.34478 0.8645,-4.42394 0.5804,-1.07914 1.4775,-1.6298 2.6914,-1.65198 0.8237,0.008 1.4933,0.26484 2.009,0.76999 0.5156,0.50517 0.8913,1.20983 1.127,2.11397 l 1.484,-0.81199 c -0.3705,-1.1328 -0.9316,-2.02413 -1.6835,-2.67396 -0.7519,-0.64982 -1.7401,-0.98114 -2.9645,-0.99399 -1.6893,0.0204 -2.9866,0.70059 -3.8919,2.04047 -0.9054,1.33991 -1.3627,3.21705 -1.372,5.63143 0.01,2.41322 0.4614,4.2857 1.3615,5.61743 0.9,1.33173 2.2009,2.00722 3.9024,2.02647 1.2396,-0.0111 2.2394,-0.34591 2.9995,-1.00449 0.76,-0.65857 1.3189,-1.57439 1.6765,-2.74746 z"
           style="font-size:28px;line-height:100%;fill:#ffffff;font-family:Mission Gothic Light;-inkscape-font-specification:Mission Gothic Light"
           id="path7846" />
        <path
           inkscape:connector-curvature="0"
           d="m 1460.9307,496.28979 0,-9.09988 c 0.031,-1.65605 -0.276,-3.04786 -0.9205,-4.17544 -0.6446,-1.12756 -1.8124,-1.71438 -3.5035,-1.76048 -0.8703,0.007 -1.6286,0.23801 -2.275,0.69299 -0.6463,0.45501 -1.1666,1.092 -1.5609,1.91097 l -0.056,0 c 0,-0.0321 0.01,-0.2689 0.014,-0.71049 0.01,-0.44156 0.013,-0.89539 0.014,-1.36148 l 0,-5.93592 -1.68,0 0,20.43973 1.68,0 0,-9.07188 c 0.02,-1.34805 0.3581,-2.41787 1.0149,-3.20946 0.6569,-0.79156 1.5132,-1.19638 2.569,-1.21448 1.008,0.0199 1.764,0.42817 2.268,1.22498 0.504,0.79684 0.756,1.86316 0.756,3.19896 l 0,9.07188 z"
           style="font-size:28px;line-height:100%;fill:#ffffff;font-family:Mission Gothic Light;-inkscape-font-specification:Mission Gothic Light"
           id="path7848" />
        <path
           inkscape:connector-curvature="0"
           d="m 1316.2222,524.28979 0,-9.29588 c 0.04,-1.63563 -0.2083,-2.99128 -0.7455,-4.06694 -0.5373,-1.07564 -1.6047,-1.6333 -3.2025,-1.67298 -0.8855,-0.003 -1.6484,0.23393 -2.2889,0.71049 -0.6405,0.47659 -1.1375,1.21041 -1.491,2.20147 l -0.056,0 c -0.2065,-0.86622 -0.6055,-1.55572 -1.197,-2.06847 -0.5915,-0.51273 -1.3965,-0.77523 -2.415,-0.78749 -0.7974,-0.008 -1.4915,0.18259 -2.0824,0.57049 -0.5909,0.38793 -1.0821,1.01908 -1.4735,1.89348 l -0.056,0 c -0.041,-0.63232 -0.1132,-1.15964 -0.217,-1.58198 -0.1038,-0.42232 -0.1622,-0.64165 -0.175,-0.658 l -1.624,0 c 0.054,0.0899 0.1348,0.34418 0.2415,0.76299 0.1068,0.41885 0.1663,0.96717 0.1785,1.64498 l 0,12.34784 1.708,0 0,-9.09988 c 0.018,-1.46589 0.3249,-2.55204 0.9205,-3.25846 0.5955,-0.70639 1.3714,-1.05755 2.3274,-1.05348 0.8756,-0.006 1.5114,0.32842 1.9075,1.00448 0.3961,0.67609 0.5909,1.73191 0.5845,3.16746 l 0,9.23988 1.708,0 0,-8.90388 c 0.015,-1.5353 0.3144,-2.67162 0.8995,-3.40896 0.585,-0.73731 1.3679,-1.10364 2.3484,-1.09898 0.8756,-0.006 1.5114,0.32842 1.9075,1.00448 0.3961,0.67609 0.5909,1.73191 0.5845,3.16746 l 0,9.23988 z"
           style="font-size:28px;line-height:100%;fill:#ffffff;font-family:Mission Gothic Light;-inkscape-font-specification:Mission Gothic Light"
           id="path7850" />
        <path
           inkscape:connector-curvature="0"
           d="m 1323.5422,524.2618 c -0.2917,1.0459 -0.6534,1.99905 -1.085,2.85946 -0.4317,0.8604 -1.1153,1.31656 -2.051,1.36848 -0.2957,-5.9e-4 -0.5792,-0.0414 -0.8505,-0.1225 -0.2712,-0.0811 -0.5197,-0.19892 -0.7455,-0.35349 l -0.784,1.45598 c 0.3769,0.22399 0.7712,0.39199 1.183,0.50399 0.4119,0.11199 0.8482,0.16799 1.309,0.168 1.1276,-0.009 2.0224,-0.41825 2.6845,-1.22848 0.662,-0.81025 1.2139,-1.96873 1.6555,-3.47546 l 4.7319,-15.9038 -1.764,0 -2.8839,9.96788 c -0.1593,0.54074 -0.2958,1.02024 -0.4095,1.43848 -0.1138,0.41824 -0.1733,0.63874 -0.1785,0.66149 l -0.056,0 c 0,-0.0537 -0.044,-0.25433 -0.1365,-0.60199 -0.093,-0.34766 -0.2433,-0.85632 -0.4515,-1.52598 l -3.108,-9.93988 -1.876,0 z"
           style="font-size:28px;line-height:100%;fill:#ffffff;font-family:Mission Gothic Light;-inkscape-font-specification:Mission Gothic Light"
           id="path7852" />
        <path
           inkscape:connector-curvature="0"
           d="m 1347.4602,520.03385 c -0.2625,0.90649 -0.6545,1.62048 -1.1759,2.14197 -0.5215,0.5215 -1.1935,0.78749 -2.016,0.79799 -1.2262,-0.0227 -2.1268,-0.57224 -2.702,-1.64848 -0.5751,-1.07623 -0.8598,-2.54271 -0.854,-4.39944 0,-1.87013 0.2841,-3.34478 0.8645,-4.42394 0.5804,-1.07914 1.4776,-1.6298 2.6915,-1.65198 0.8236,0.008 1.4933,0.26484 2.009,0.76999 0.5156,0.50517 0.8913,1.20983 1.1269,2.11397 l 1.484,-0.81199 c -0.3704,-1.1328 -0.9316,-2.02413 -1.6835,-2.67396 -0.7519,-0.64982 -1.74,-0.98114 -2.9644,-0.99399 -1.6893,0.0204 -2.9866,0.70059 -3.892,2.04047 -0.9053,1.33991 -1.3626,3.21705 -1.3719,5.63143 0.01,2.41322 0.4614,4.2857 1.3614,5.61743 0.9001,1.33173 2.2009,2.00722 3.9025,2.02647 1.2395,-0.0111 2.2394,-0.34591 2.9994,-1.00449 0.7601,-0.65857 1.3189,-1.57439 1.6765,-2.74746 z"
           style="font-size:28px;line-height:100%;fill:#ffffff;font-family:Mission Gothic Light;-inkscape-font-specification:Mission Gothic Light"
           id="path7854" />
        <path
           inkscape:connector-curvature="0"
           d="m 1356.4903,523.00181 c -1.2005,-0.0251 -2.0895,-0.58391 -2.667,-1.67648 -0.5775,-1.09256 -0.8645,-2.56837 -0.861,-4.42744 0,-1.8713 0.2835,-3.35061 0.861,-4.43794 0.5775,-1.08731 1.4665,-1.64264 2.667,-1.66598 1.2139,0.0233 2.111,0.57867 2.6914,1.66598 0.5804,1.08733 0.8686,2.56664 0.8645,4.43794 0,1.88356 -0.2841,3.36638 -0.8644,4.44844 -0.5805,1.08207 -1.4776,1.6339 -2.6915,1.65548 z m 0,1.56798 c 1.7395,-0.0204 3.0554,-0.70057 3.9479,-2.04047 0.8925,-1.3399 1.3405,-3.21704 1.344,-5.63143 0,-2.40096 -0.4515,-4.26993 -1.344,-5.60693 -0.8925,-1.33697 -2.2084,-2.01596 -3.9479,-2.03697 -1.7261,0.021 -3.0339,0.7 -3.9235,2.03697 -0.8895,1.337 -1.3364,3.20597 -1.3404,5.60693 0,2.41439 0.4509,4.29153 1.3404,5.63143 0.8896,1.3399 2.1974,2.02005 3.9235,2.04047 z"
           style="font-size:28px;line-height:100%;fill:#ffffff;font-family:Mission Gothic Light;-inkscape-font-specification:Mission Gothic Light"
           id="path7856" />
        <path
           inkscape:connector-curvature="0"
           d="m 1375.2393,524.28979 0,-9.09988 c 0.031,-1.65605 -0.2759,-3.04786 -0.9205,-4.17544 -0.6446,-1.12756 -1.8124,-1.71438 -3.5035,-1.76048 -0.8983,0.006 -1.6776,0.24559 -2.3379,0.71749 -0.6604,0.47192 -1.1877,1.13808 -1.582,1.99847 l -0.056,0 c -0.029,-0.66498 -0.097,-1.23197 -0.2065,-1.70097 -0.1091,-0.46898 -0.1709,-0.71398 -0.1855,-0.735 l -1.624,0 c 0.054,0.0899 0.1348,0.34418 0.2415,0.76299 0.1068,0.41885 0.1663,0.96717 0.1785,1.64498 l 0,12.34784 1.708,0 0,-8.51189 c 0,-1.42038 0.2893,-2.59753 0.875,-3.53145 0.5856,-0.93389 1.4793,-1.41805 2.6809,-1.45248 1.1428,0.0187 1.9373,0.45734 2.3835,1.31598 0.4462,0.85867 0.6597,2.02532 0.6405,3.49996 l 0,8.67988 z"
           style="font-size:28px;line-height:100%;fill:#ffffff;font-family:Mission Gothic Light;-inkscape-font-specification:Mission Gothic Light"
           id="path7858" />
        <path
           inkscape:connector-curvature="0"
           d="m 1389.1846,524.28979 0,-9.09988 c 0.031,-1.65605 -0.2759,-3.04786 -0.9205,-4.17544 -0.6446,-1.12756 -1.8124,-1.71438 -3.5035,-1.76048 -0.8983,0.006 -1.6776,0.24559 -2.3379,0.71749 -0.6604,0.47192 -1.1877,1.13808 -1.582,1.99847 l -0.056,0 c -0.029,-0.66498 -0.097,-1.23197 -0.2065,-1.70097 -0.1091,-0.46898 -0.1709,-0.71398 -0.1855,-0.735 l -1.624,0 c 0.054,0.0899 0.1348,0.34418 0.2415,0.76299 0.1068,0.41885 0.1663,0.96717 0.1785,1.64498 l 0,12.34784 1.708,0 0,-8.51189 c 0,-1.42038 0.2893,-2.59753 0.875,-3.53145 0.5856,-0.93389 1.4793,-1.41805 2.681,-1.45248 1.1427,0.0187 1.9372,0.45734 2.3834,1.31598 0.4463,0.85867 0.6598,2.02532 0.6405,3.49996 l 0,8.67988 z"
           style="font-size:28px;line-height:100%;fill:#ffffff;font-family:Mission Gothic Light;-inkscape-font-specification:Mission Gothic Light"
           id="path7860" />
        <path
           inkscape:connector-curvature="0"
           d="m 1401.3659,520.08985 c -0.3424,1.00449 -0.7986,1.74648 -1.3685,2.22597 -0.5699,0.4795 -1.299,0.71749 -2.1874,0.71399 -1.19,-0.0163 -2.093,-0.50866 -2.709,-1.47698 -0.616,-0.96832 -0.945,-2.31463 -0.987,-4.03895 l 8.7639,0 0,-0.53199 c 0.026,-2.33096 -0.3547,-4.19294 -1.141,-5.58593 -0.7863,-1.39297 -2.1326,-2.10696 -4.0389,-2.14197 -1.6783,0.0222 -2.9767,0.70584 -3.8955,2.05097 -0.9187,1.34516 -1.3842,3.2188 -1.3965,5.62093 0.011,2.41322 0.4725,4.2857 1.386,5.61743 0.9135,1.33173 2.2155,2.00722 3.906,2.02647 1.3031,-0.002 2.3578,-0.31324 3.1639,-0.93449 0.8062,-0.62124 1.4408,-1.54172 1.904,-2.76146 z m -7.2519,-4.00395 c 0.085,-1.65605 0.4328,-2.95687 1.043,-3.90245 0.6102,-0.94556 1.4758,-1.42738 2.597,-1.44548 1.1783,0.0111 2.0346,0.47892 2.5689,1.40348 0.5344,0.92458 0.8167,2.2394 0.847,3.94445 z"
           style="font-size:28px;line-height:100%;fill:#ffffff;font-family:Mission Gothic Light;-inkscape-font-specification:Mission Gothic Light"
           id="path7862" />
        <path
           inkscape:connector-curvature="0"
           d="m 1414.0149,520.03385 c -0.2625,0.90649 -0.6545,1.62048 -1.176,2.14197 -0.5215,0.5215 -1.1934,0.78749 -2.0159,0.79799 -1.2262,-0.0227 -2.1268,-0.57224 -2.702,-1.64848 -0.5752,-1.07623 -0.8598,-2.54271 -0.854,-4.39944 0,-1.87013 0.2841,-3.34478 0.8645,-4.42394 0.5804,-1.07914 1.4776,-1.6298 2.6915,-1.65198 0.8236,0.008 1.4933,0.26484 2.0089,0.76999 0.5157,0.50517 0.8914,1.20983 1.127,2.11397 l 1.484,-0.81199 c -0.3704,-1.1328 -0.9316,-2.02413 -1.6835,-2.67396 -0.7519,-0.64982 -1.74,-0.98114 -2.9644,-0.99399 -1.6893,0.0204 -2.9867,0.70059 -3.892,2.04047 -0.9053,1.33991 -1.3626,3.21705 -1.372,5.63143 0.01,2.41322 0.4614,4.2857 1.3615,5.61743 0.9001,1.33173 2.2009,2.00722 3.9025,2.02647 1.2395,-0.0111 2.2394,-0.34591 2.9994,-1.00449 0.7601,-0.65857 1.3189,-1.57439 1.6765,-2.74746 z"
           style="font-size:28px;line-height:100%;fill:#ffffff;font-family:Mission Gothic Light;-inkscape-font-specification:Mission Gothic Light"
           id="path7864" />
        <path
           inkscape:connector-curvature="0"
           d="m 1424.501,522.35782 c -0.2311,0.18492 -0.504,0.33308 -0.819,0.44449 -0.315,0.11142 -0.63,0.16859 -0.945,0.1715 -0.6195,-0.003 -1.0955,-0.21408 -1.428,-0.63349 -0.3325,-0.41941 -0.5005,-1.02957 -0.504,-1.83048 l 0,-9.46387 3.388,0 0,-1.51199 -3.388,0 0,-3.52795 -1.68,0 0,3.52795 -1.988,0 0,1.51199 1.988,0 0,9.54787 c -0.01,1.2559 0.2713,2.23006 0.8295,2.92246 0.5583,0.69241 1.4297,1.04357 2.6145,1.05349 0.5063,-0.007 0.9706,-0.084 1.393,-0.231 0.4223,-0.14699 0.7886,-0.32199 1.0989,-0.52499 z"
           style="font-size:28px;line-height:100%;fill:#ffffff;font-family:Mission Gothic Light;-inkscape-font-specification:Mission Gothic Light"
           id="path7866" />
        <path
           inkscape:connector-curvature="0"
           d="m 1429.4032,524.28979 0,-14.75581 -1.708,0 0,14.75581 z m 0.224,-18.11576 c -0.01,-0.31498 -0.112,-0.57398 -0.315,-0.77699 -0.203,-0.20298 -0.462,-0.30798 -0.777,-0.315 -0.3016,0.007 -0.5524,0.11202 -0.7525,0.315 -0.2001,0.20301 -0.3039,0.46201 -0.3115,0.77699 0.01,0.3016 0.1114,0.55243 0.3115,0.75249 0.2001,0.2001 0.4509,0.30393 0.7525,0.31149 0.315,-0.008 0.574,-0.11139 0.777,-0.31149 0.203,-0.20007 0.308,-0.4509 0.315,-0.75249 z"
           style="font-size:28px;line-height:100%;fill:#ffffff;font-family:Mission Gothic Light;-inkscape-font-specification:Mission Gothic Light"
           id="path7868" />
        <path
           inkscape:connector-curvature="0"
           d="m 1438.084,523.00181 c -1.2005,-0.0251 -2.0894,-0.58391 -2.6669,-1.67648 -0.5775,-1.09256 -0.8645,-2.56837 -0.861,-4.42744 0,-1.8713 0.2835,-3.35061 0.861,-4.43794 0.5775,-1.08731 1.4664,-1.64264 2.6669,-1.66598 1.2139,0.0233 2.1111,0.57867 2.6915,1.66598 0.5804,1.08733 0.8686,2.56664 0.8645,4.43794 0,1.88356 -0.2841,3.36638 -0.8645,4.44844 -0.5804,1.08207 -1.4776,1.6339 -2.6915,1.65548 z m 0,1.56798 c 1.7395,-0.0204 3.0555,-0.70057 3.948,-2.04047 0.8925,-1.3399 1.3405,-3.21704 1.344,-5.63143 0,-2.40096 -0.4515,-4.26993 -1.344,-5.60693 -0.8925,-1.33697 -2.2085,-2.01596 -3.948,-2.03697 -1.726,0.021 -3.0338,0.7 -3.9234,2.03697 -0.8896,1.337 -1.3364,3.20597 -1.3405,5.60693 0,2.41439 0.4509,4.29153 1.3405,5.63143 0.8896,1.3399 2.1974,2.02005 3.9234,2.04047 z"
           style="font-size:28px;line-height:100%;fill:#ffffff;font-family:Mission Gothic Light;-inkscape-font-specification:Mission Gothic Light"
           id="path7870" />
        <path
           inkscape:connector-curvature="0"
           d="m 1456.833,524.28979 0,-9.09988 c 0.031,-1.65605 -0.2759,-3.04786 -0.9205,-4.17544 -0.6445,-1.12756 -1.8124,-1.71438 -3.5034,-1.76048 -0.8983,0.006 -1.6777,0.24559 -2.338,0.71749 -0.6603,0.47192 -1.1876,1.13808 -1.582,1.99847 l -0.056,0 c -0.029,-0.66498 -0.097,-1.23197 -0.2065,-1.70097 -0.109,-0.46898 -0.1709,-0.71398 -0.1855,-0.735 l -1.6239,0 c 0.054,0.0899 0.1347,0.34418 0.2415,0.76299 0.1067,0.41885 0.1662,0.96717 0.1785,1.64498 l 0,12.34784 1.7079,0 0,-8.51189 c 0,-1.42038 0.2894,-2.59753 0.875,-3.53145 0.5857,-0.93389 1.4793,-1.41805 2.681,-1.45248 1.1427,0.0187 1.9372,0.45734 2.3835,1.31598 0.4462,0.85867 0.6597,2.02532 0.6404,3.49996 l 0,8.67988 z"
           style="font-size:28px;line-height:100%;fill:#ffffff;font-family:Mission Gothic Light;-inkscape-font-specification:Mission Gothic Light"
           id="path7872" />
      </g>
      <path
         style="fill:#ff0000"
         inkscape:connector-curvature="0"
         d="m 1244.4533,449.91688 v 17.36897 h 15.1979 v -4.34224 h -10.8556 v -13.02673 h -4.3423 z m 23.5654,16.68073 4.3379,0.3452 c -0.2866,1.85414 -0.7621,3.6388 -1.4156,5.34096 l -3.908,-1.96486 c 0.4342,-1.19629 0.7664,-2.43817 0.9857,-3.7213 z m -5.532,16.9912 -3.0678,-3.13294 c -1.0552,0.77293 -2.1842,1.45032 -3.3761,2.02566 l 1.4525,4.12296 c 1.7825,-0.81851 3.4542,-1.83243 4.9914,-3.01568 z m 2.6618,-9.35537 c -0.7273,1.18544 -1.5611,2.29487 -2.4946,3.31748 l 3.0482,3.11121 c 1.2658,-1.36129 2.3861,-2.85719 3.3414,-4.46817 l -3.895,-1.96052 z m -44.5775,-11.28983 c 0,14.38803 11.6698,26.05346 26.0622,26.05346 2.3469,0 4.6114,-0.3387 6.7739,-0.92056 l -1.4438,-4.1121 c -1.7087,0.43422 -3.489,0.69041 -5.3301,0.69041 -11.976,0 -21.7178,-9.73965 -21.7178,-21.71121 0,-11.97157 9.7418,-21.71122 21.7178,-21.71122 4.8524,0 9.3206,1.61532 12.9377,4.31836 l -4.4508,4.44864 15.2304,2.93969 -2.9419,-15.22608 -4.7417,4.73957 c -4.4204,-3.46946 -9.9763,-5.56242 -16.0337,-5.56242 -14.3924,0 -26.0622,11.66544 -26.0622,26.05346 z m 51.6141,-5.12167 h -4.5073 c 0.3539,1.4351 0.5667,2.91798 0.6253,4.44428 l 4.3748,0.34955 c -0.022,-1.6392 -0.1845,-3.24366 -0.4928,-4.79383 z"
         id="path7512-7" />
    </g>
  </g>
</svg>
