<?xml version="1.0" encoding="UTF-8" standalone="no"?>
<!-- Created with Inkscape (http://www.inkscape.org/) -->

<svg
   xmlns:dc="http://purl.org/dc/elements/1.1/"
   xmlns:cc="http://creativecommons.org/ns#"
   xmlns:rdf="http://www.w3.org/1999/02/22-rdf-syntax-ns#"
   xmlns:svg="http://www.w3.org/2000/svg"
   xmlns="http://www.w3.org/2000/svg"
   xmlns:sodipodi="http://sodipodi.sourceforge.net/DTD/sodipodi-0.dtd"
   xmlns:inkscape="http://www.inkscape.org/namespaces/inkscape"
   width="236.09647"
   height="43.767281"
   id="svg5714"
   version="1.1"
   inkscape:version="0.48.4 r9939"
   sodipodi:docname="New document 21">
  <defs
     id="defs5716" />
  <sodipodi:namedview
     id="base"
     pagecolor="#ffffff"
     bordercolor="#666666"
     borderopacity="1.0"
     inkscape:pageopacity="0.0"
     inkscape:pageshadow="2"
     inkscape:zoom="0.35"
     inkscape:cx="101.18894"
     inkscape:cy="56.169358"
     inkscape:document-units="px"
     inkscape:current-layer="layer1"
     showgrid="false"
     fit-margin-top="0"
     fit-margin-left="0"
     fit-margin-right="0"
     fit-margin-bottom="0"
     inkscape:window-width="463"
     inkscape:window-height="423"
     inkscape:window-x="614"
     inkscape:window-y="124"
     inkscape:window-maximized="0" />
  <metadata
     id="metadata5719">
    <rdf:RDF>
      <cc:Work
         rdf:about="">
        <dc:format>image/svg+xml</dc:format>
        <dc:type
           rdf:resource="http://purl.org/dc/dcmitype/StillImage" />
        <dc:title></dc:title>
      </cc:Work>
    </rdf:RDF>
  </metadata>
  <g
     inkscape:label="Layer 1"
     inkscape:groupmode="layer"
     id="layer1"
     transform="translate(-404.80891,-544.76426)">
    <g
       transform="translate(849.33392,-608.69754)"
       id="g5693">
      <g
         style="font-size:40px;font-style:normal;font-weight:normal;line-height:125%;letter-spacing:0px;word-spacing:0px;fill:#ffffff;fill-opacity:1;stroke:none;font-family:Sans"
         id="text6251-6-5">
        <path
           d="m -381.69339,1190.0253 0,-27.9997 -2.43997,0 0,27.9997 z"
           style="fill:#ff6600;font-family:Mission Gothic Light;-inkscape-font-specification:Mission Gothic Light"
           id="path5798" />
        <path
           d="m -361.07291,1190.0253 0,-12.9999 c 0.0441,-2.3658 -0.39418,-4.3541 -1.31499,-5.9649 -0.92083,-1.6108 -2.58914,-2.4491 -5.00493,-2.515 -1.28333,0.01 -2.39665,0.3509 -3.33996,1.025 -0.94333,0.6742 -1.69665,1.6259 -2.25997,2.855 l -0.08,0 c -0.0408,-0.95 -0.13917,-1.76 -0.295,-2.43 -0.15583,-0.6699 -0.24416,-1.0199 -0.26499,-1.05 l -2.31997,0 c 0.0775,0.1284 0.19249,0.4917 0.34499,1.09 0.1525,0.5984 0.2375,1.3817 0.255,2.35 l 0,17.6398 2.43997,0 0,-12.1599 c -0.003,-2.0291 0.41332,-3.7107 1.24998,-5.0449 0.83665,-1.3341 2.1133,-2.0258 3.82995,-2.075 1.63247,0.027 2.76745,0.6534 3.40496,1.88 0.63748,1.2267 0.94247,2.8933 0.91499,4.9999 l 0,12.3999 z"
           style="fill:#ff6600;font-family:Mission Gothic Light;-inkscape-font-specification:Mission Gothic Light"
           id="path5800" />
        <path
           d="m -351.7109,1190.0253 0,-18.9198 4.31994,0 0,-2.16 -4.31994,0 0,-2.9999 c 0.007,-2.2866 0.87331,-3.4333 2.59996,-3.44 0.44249,0 0.86748,0.077 1.27499,0.22 0.40748,0.1434 0.78248,0.3367 1.12498,0.58 l 0.95999,-2.04 c -0.42167,-0.2866 -0.92833,-0.5233 -1.51998,-0.71 -0.59167,-0.1866 -1.25833,-0.2833 -1.99997,-0.2899 -1.67332,0.017 -2.90664,0.5433 -3.69996,1.5799 -0.79333,1.0367 -1.18665,2.4834 -1.17998,4.34 l 0,2.7599 -3.19996,0 0,2.16 3.19996,0 0,18.9198 z"
           style="fill:#ff6600;font-family:Mission Gothic Light;-inkscape-font-specification:Mission Gothic Light"
           id="path5802" />
        <path
           d="m -337.07594,1188.1853 c -1.71498,-0.036 -2.98497,-0.8342 -3.80995,-2.395 -0.825,-1.5608 -1.23499,-3.6691 -1.22998,-6.3249 -0.005,-2.6733 0.40499,-4.7866 1.22998,-6.3399 0.82498,-1.5533 2.09497,-2.3466 3.80995,-2.38 1.73413,0.033 3.01578,0.8267 3.84495,2.38 0.82914,1.5533 1.2408,3.6666 1.23499,6.3399 0.006,2.6908 -0.40585,4.8091 -1.23499,6.3549 -0.82917,1.5458 -2.11082,2.3342 -3.84495,2.365 z m 0,2.24 c 2.48496,-0.029 4.36493,-1.0009 5.63993,-2.915 1.27497,-1.9141 1.91496,-4.5958 1.91997,-8.0449 -0.005,-3.4299 -0.645,-6.0999 -1.91997,-8.0099 -1.275,-1.9099 -3.15497,-2.8799 -5.63993,-2.91 -2.46581,0.03 -4.33412,1.0001 -5.60493,2.91 -1.27082,1.91 -1.90914,4.58 -1.91497,8.0099 0.006,3.4491 0.64415,6.1308 1.91497,8.0449 1.27082,1.9141 3.13912,2.8858 5.60493,2.915 z"
           style="fill:#ff6600;font-family:Mission Gothic Light;-inkscape-font-specification:Mission Gothic Light"
           id="path5804" />
        <path
           d="m -322.13151,1190.0253 0,-12.5599 c 0.0283,-1.9641 0.52165,-3.5157 1.47998,-4.6549 0.95831,-1.1391 2.21163,-1.7208 3.75995,-1.745 0.28249,0 0.54748,0.028 0.79499,0.075 0.24749,0.048 0.46248,0.1025 0.64499,0.165 l 0.48,-2.6 c -0.21751,-0.04 -0.43251,-0.07 -0.645,-0.09 -0.2125,-0.02 -0.4375,-0.03 -0.67499,-0.03 -1.38499,0 -2.57497,0.3476 -3.56995,1.035 -0.995,0.6875 -1.76498,1.7025 -2.30997,3.045 l -0.08,0 c -0.0425,-1.0125 -0.1475,-1.8775 -0.315,-2.595 -0.1675,-0.7174 -0.2625,-1.0924 -0.28499,-1.125 l -2.31997,0 c 0.0775,0.1284 0.19249,0.4917 0.34499,1.09 0.1525,0.5984 0.2375,1.3817 0.255,2.35 l 0,17.6398 z"
           style="fill:#ff6600;font-family:Mission Gothic Light;-inkscape-font-specification:Mission Gothic Light"
           id="path5806" />
        <path
           d="m -287.80491,1190.0253 0,-13.2799 c 0.0575,-2.3366 -0.29752,-4.2732 -1.06499,-5.8099 -0.76751,-1.5366 -2.29249,-2.3333 -4.57494,-2.39 -1.265,-0 -2.35499,0.3342 -3.26996,1.015 -0.915,0.6809 -1.62499,1.7292 -2.12997,3.145 l -0.08,0 c -0.29501,-1.2375 -0.865,-2.2225 -1.70998,-2.955 -0.845,-0.7324 -1.99498,-1.1074 -3.44995,-1.125 -1.13916,-0.011 -2.13082,0.2609 -2.97496,0.815 -0.84417,0.5542 -1.54582,1.4559 -2.10498,2.705 l -0.08,0 c -0.0583,-0.9033 -0.16168,-1.6566 -0.31,-2.26 -0.14834,-0.6033 -0.23167,-0.9166 -0.25,-0.94 l -2.31997,0 c 0.0775,0.1284 0.1925,0.4917 0.345,1.09 0.15249,0.5984 0.23749,1.3817 0.25499,2.35 l 0,17.6398 2.43997,0 0,-12.9999 c 0.0258,-2.0941 0.46416,-3.6457 1.31499,-4.6549 0.85081,-1.0091 1.95913,-1.5108 3.32495,-1.505 1.25081,-0.01 2.15913,0.4692 2.72497,1.435 0.56581,0.9658 0.84414,2.4741 0.83499,4.5249 l 0,13.1999 2.43997,0 0,-12.7199 c 0.0208,-2.1933 0.44914,-3.8166 1.28498,-4.8699 0.8358,-1.0533 1.95412,-1.5766 3.35496,-1.57 1.25079,-0.01 2.15911,0.4692 2.72496,1.435 0.5658,0.9658 0.84413,2.4741 0.83499,4.5249 l 0,13.1999 z"
           style="fill:#ff6600;font-family:Mission Gothic Light;-inkscape-font-specification:Mission Gothic Light"
           id="path5808" />
        <path
           d="m -268.54791,1190.0253 c -0.0792,-0.1234 -0.20085,-0.4767 -0.36499,-1.06 -0.16418,-0.5833 -0.25585,-1.3767 -0.275,-2.38 l 0,-10.4399 c -0.0375,-2.5757 -0.63251,-4.494 -1.78498,-5.7549 -1.15249,-1.2608 -2.63747,-1.8891 -4.45494,-1.885 -1.35249,-0 -2.61747,0.3242 -3.79495,0.985 -1.17749,0.6609 -2.19247,1.6792 -3.04496,3.055 l 1.79998,1.44 c 0.47915,-0.9942 1.11081,-1.7858 1.89497,-2.375 0.78415,-0.5891 1.72581,-0.8908 2.82497,-0.905 1.25664,-0 2.25329,0.4325 2.98996,1.305 0.73664,0.8725 1.1133,2.1975 1.12998,3.9749 l 0,1.68 c -3.94996,0.017 -6.87992,0.6134 -8.78988,1.79 -1.90998,1.1767 -2.85997,2.8333 -2.84997,4.9699 0.0167,1.8075 0.55333,3.2525 1.60998,4.335 1.05665,1.0825 2.5333,1.6375 4.42995,1.665 1.50747,-0.039 2.71245,-0.4409 3.61495,-1.205 0.90247,-0.7642 1.57746,-1.6558 2.02497,-2.675 0.0725,0.9425 0.17749,1.7375 0.315,2.385 0.13748,0.6475 0.23248,1.0125 0.285,1.095 z m -3.07996,-8.5999 c -0.003,1.8966 -0.45667,3.5033 -1.35998,4.8199 -0.90333,1.3167 -2.23665,2.0033 -3.99995,2.06 -1.07332,-0 -1.98665,-0.3283 -2.73996,-0.98 -0.75333,-0.6517 -1.14666,-1.6183 -1.17999,-2.9 0.0142,-1.5633 0.72582,-2.7466 2.13497,-3.5499 1.40915,-0.8033 3.43078,-1.2067 6.06493,-1.21 0.35998,0 0.71997,0 1.07998,0 z"
           style="fill:#ff6600;font-family:Mission Gothic Light;-inkscape-font-specification:Mission Gothic Light"
           id="path5810" />
        <path
           d="m -254.68347,1187.2653 c -0.33,0.2642 -0.72,0.4758 -1.16998,0.635 -0.45001,0.1592 -0.9,0.2408 -1.34998,0.245 -0.885,-0 -1.56499,-0.3058 -2.03998,-0.905 -0.475,-0.5992 -0.71499,-1.4708 -0.71999,-2.615 l 0,-13.5198 4.83994,0 0,-2.16 -4.83994,0 0,-5.0399 -2.39997,0 0,5.0399 -2.83996,0 0,2.16 2.83996,0 0,13.6398 c -0.008,1.7942 0.3875,3.1858 1.18499,4.175 0.79748,0.9891 2.04247,1.4908 3.73495,1.505 0.72332,-0.01 1.38664,-0.12 1.98998,-0.33 0.60331,-0.21 1.12663,-0.46 1.56997,-0.75 z"
           style="fill:#ff6600;font-family:Mission Gothic Light;-inkscape-font-specification:Mission Gothic Light"
           id="path5812" />
        <path
           d="m -247.68026,1190.0253 0,-21.0798 -2.43997,0 0,21.0798 z m 0.32,-25.8797 c -0.01,-0.45 -0.16001,-0.82 -0.45,-1.11 -0.29,-0.29 -0.66,-0.44 -1.10998,-0.45 -0.43084,0.01 -0.78916,0.16 -1.07499,0.45 -0.28583,0.29 -0.43416,0.66 -0.445,1.11 0.0108,0.4309 0.15917,0.7892 0.445,1.075 0.28583,0.2858 0.64415,0.4342 1.07499,0.445 0.44999,-0.011 0.81998,-0.1592 1.10998,-0.445 0.28999,-0.2858 0.43999,-0.6441 0.45,-1.075 z"
           style="fill:#ff6600;font-family:Mission Gothic Light;-inkscape-font-specification:Mission Gothic Light"
           id="path5814" />
        <path
           d="m -235.27906,1188.1853 c -1.71499,-0.036 -2.98497,-0.8342 -3.80996,-2.395 -0.82499,-1.5608 -1.23498,-3.6691 -1.22998,-6.3249 -0.005,-2.6733 0.40499,-4.7866 1.22999,-6.3399 0.82498,-1.5533 2.09496,-2.3466 3.80995,-2.38 1.73413,0.033 3.01578,0.8267 3.84495,2.38 0.82914,1.5533 1.2408,3.6666 1.23498,6.3399 0.006,2.6908 -0.40584,4.8091 -1.23498,6.3549 -0.82917,1.5458 -2.11082,2.3342 -3.84495,2.365 z m 0,2.24 c 2.48495,-0.029 4.36493,-1.0009 5.63992,-2.915 1.27497,-1.9141 1.91496,-4.5958 1.91998,-8.0449 -0.005,-3.4299 -0.64501,-6.0999 -1.91998,-8.0099 -1.27499,-1.9099 -3.15497,-2.8799 -5.63992,-2.91 -2.46581,0.03 -4.33412,1.0001 -5.60493,2.91 -1.27082,1.91 -1.90915,4.58 -1.91498,8.0099 0.006,3.4491 0.64416,6.1308 1.91498,8.0449 1.27081,1.9141 3.13912,2.8858 5.60493,2.915 z"
           style="fill:#ff6600;font-family:Mission Gothic Light;-inkscape-font-specification:Mission Gothic Light"
           id="path5816" />
        <path
           d="m -208.49479,1190.0253 0,-12.9999 c 0.0442,-2.3658 -0.39418,-4.3541 -1.31498,-5.9649 -0.92084,-1.6108 -2.58915,-2.4491 -5.00494,-2.515 -1.28332,0.01 -2.39664,0.3509 -3.33996,1.025 -0.94332,0.6742 -1.69665,1.6259 -2.25997,2.855 l -0.08,0 c -0.0408,-0.95 -0.13918,-1.76 -0.295,-2.43 -0.15584,-0.6699 -0.24417,-1.0199 -0.265,-1.05 l -2.31997,0 c 0.0775,0.1284 0.1925,0.4917 0.345,1.09 0.15249,0.5984 0.23749,1.3817 0.25499,2.35 l 0,17.6398 2.43997,0 0,-12.1599 c -0.003,-2.0291 0.41333,-3.7107 1.24999,-5.0449 0.83665,-1.3341 2.11329,-2.0258 3.82995,-2.075 1.63246,0.027 2.76745,0.6534 3.40495,1.88 0.63748,1.2267 0.94248,2.8933 0.91499,4.9999 l 0,12.3999 z"
           style="fill:#ff6600;font-family:Mission Gothic Light;-inkscape-font-specification:Mission Gothic Light"
           id="path5818" />
      </g>
      <g
         style="fill:#ff6600;fill-opacity:1"
         transform="matrix(0.08849536,0,0,0.08849536,-444.72261,1153.4618)"
         id="g3928">
        <path
           style="fill:#ff6600;fill-opacity:1"
           inkscape:connector-curvature="0"
           id="XMLID_140_"
           d="M 257.063,0 C 127.136,0 21.808,105.33 21.808,235.266 c 0,41.012 10.535,79.541 28.973,113.104 L 3.825,464.586 c -3.285,8.118 -1.391,17.402 4.799,23.593 6.176,6.19 15.47,8.085 23.586,4.802 l 118.707,-47.953 c 31.933,16.186 67.912,25.504 106.146,25.504 129.945,0 235.275,-105.33 235.275,-235.266 C 492.338,105.33 387.009,0 257.063,0 z m -0.259,94.852 c 22.865,0 41.403,18.538 41.403,41.404 0,22.866 -18.538,41.403 -41.403,41.403 -22.865,0 -41.406,-18.537 -41.406,-41.403 0,-22.866 18.54,-41.404 41.406,-41.404 z m 41.812,261.644 c 0,10.6 -8.592,19.191 -19.191,19.191 h -45.243 c -10.6,0 -19.19,-8.591 -19.19,-19.191 V 198.312 c 11.939,8.077 26.345,12.797 41.813,12.797 15.467,0 29.872,-4.721 41.813,-12.797 v 158.184 z" />
        <g
           style="fill:#ff6600;fill-opacity:1"
           id="g3892" />
        <g
           style="fill:#ff6600;fill-opacity:1"
           id="g3894" />
        <g
           style="fill:#ff6600;fill-opacity:1"
           id="g3896" />
        <g
           style="fill:#ff6600;fill-opacity:1"
           id="g3898" />
        <g
           style="fill:#ff6600;fill-opacity:1"
           id="g3900" />
        <g
           style="fill:#ff6600;fill-opacity:1"
           id="g3902" />
        <g
           style="fill:#ff6600;fill-opacity:1"
           id="g3904" />
        <g
           style="fill:#ff6600;fill-opacity:1"
           id="g3906" />
        <g
           style="fill:#ff6600;fill-opacity:1"
           id="g3908" />
        <g
           style="fill:#ff6600;fill-opacity:1"
           id="g3910" />
        <g
           style="fill:#ff6600;fill-opacity:1"
           id="g3912" />
        <g
           style="fill:#ff6600;fill-opacity:1"
           id="g3914" />
        <g
           style="fill:#ff6600;fill-opacity:1"
           id="g3916" />
        <g
           style="fill:#ff6600;fill-opacity:1"
           id="g3918" />
        <g
           style="fill:#ff6600;fill-opacity:1"
           id="g3920" />
      </g>
    </g>
  </g>
</svg>
