<?xml version="1.0" encoding="UTF-8" standalone="no"?>
<!-- Created with Inkscape (http://www.inkscape.org/) -->

<svg
   xmlns:dc="http://purl.org/dc/elements/1.1/"
   xmlns:cc="http://creativecommons.org/ns#"
   xmlns:rdf="http://www.w3.org/1999/02/22-rdf-syntax-ns#"
   xmlns:svg="http://www.w3.org/2000/svg"
   xmlns="http://www.w3.org/2000/svg"
   xmlns:sodipodi="http://sodipodi.sourceforge.net/DTD/sodipodi-0.dtd"
   xmlns:inkscape="http://www.inkscape.org/namespaces/inkscape"
   width="293.34824"
   height="96.279549"
   id="svg7916"
   version="1.1"
   inkscape:version="0.48.4 r9939"
   sodipodi:docname="play_btn.svg">
  <defs
     id="defs7918" />
  <sodipodi:namedview
     id="base"
     pagecolor="#ffffff"
     bordercolor="#666666"
     borderopacity="1.0"
     inkscape:pageopacity="0.0"
     inkscape:pageshadow="2"
     inkscape:zoom="0.35"
     inkscape:cx="-185.28787"
     inkscape:cy="97.622698"
     inkscape:document-units="px"
     inkscape:current-layer="layer1"
     showgrid="false"
     fit-margin-top="0"
     fit-margin-left="0"
     fit-margin-right="0"
     fit-margin-bottom="0"
     inkscape:window-width="1366"
     inkscape:window-height="705"
     inkscape:window-x="-8"
     inkscape:window-y="-8"
     inkscape:window-maximized="1" />
  <metadata
     id="metadata7921">
    <rdf:RDF>
      <cc:Work
         rdf:about="">
        <dc:format>image/svg+xml</dc:format>
        <dc:type
           rdf:resource="http://purl.org/dc/dcmitype/StillImage" />
        <dc:title></dc:title>
      </cc:Work>
    </rdf:RDF>
  </metadata>
  <g
     inkscape:label="Layer 1"
     inkscape:groupmode="layer"
     id="layer1"
     transform="translate(-218.8593,-533.70533)">
    <g
       transform="translate(-1001.7117,-214.12118)"
       id="g7672">
      <g
         style="font-size:40px;font-style:normal;font-weight:normal;line-height:100%;letter-spacing:0px;word-spacing:0px;fill:#ffffff;fill-opacity:1;stroke:none;font-family:Sans"
         id="text6251-3-0-3-6">
        <path
           inkscape:connector-curvature="0"
           d="m 1303.6368,776.2262 0,-27.99964 -2.4399,0 0,27.99964 z"
           style="fill:#ffffff;font-family:Mission Gothic Light;-inkscape-font-specification:Mission Gothic Light"
           id="path7680" />
        <path
           inkscape:connector-curvature="0"
           d="m 1326.9373,776.2262 0,-27.99964 -2.32,0 0,19.87974 c 0.01,0.6375 0.025,1.31249 0.06,2.02498 0.035,0.71249 0.055,1.11749 0.06,1.21498 l -0.08,0 c -0.019,-0.0517 -0.1708,-0.39832 -0.455,-1.03999 -0.2842,-0.64165 -0.5858,-1.26831 -0.905,-1.87997 l -10.7598,-20.19974 -2.24,0 0,27.99964 2.32,0 0,-19.79975 c -0.01,-0.87163 -0.025,-1.62829 -0.06,-2.26997 -0.035,-0.64164 -0.055,-0.9783 -0.06,-1.00999 l 0.08,0 c 0.01,0.0284 0.1325,0.32169 0.375,0.87999 0.2425,0.55835 0.5574,1.21167 0.9449,1.95998 l 10.7999,20.23974 z"
           style="fill:#ffffff;font-family:Mission Gothic Light;-inkscape-font-specification:Mission Gothic Light"
           id="path7682" />
        <path
           inkscape:connector-curvature="0"
           d="m 1336.0187,776.2262 0,-10.71987 9.5199,0 0,-2.31997 -9.5199,0 0,-12.59983 11.1199,0 0,-2.35997 -13.5599,0 0,27.99964 z"
           style="fill:#ffffff;font-family:Mission Gothic Light;-inkscape-font-specification:Mission Gothic Light"
           id="path7684" />
        <path
           inkscape:connector-curvature="0"
           d="m 1359.7724,776.62619 c 3.1924,-0.0925 5.4974,-1.47748 6.9149,-4.15495 1.4175,-2.67745 2.1125,-6.09241 2.085,-10.24486 0.027,-4.15243 -0.6675,-7.56738 -2.085,-10.24487 -1.4175,-2.67744 -3.7225,-4.06242 -6.9149,-4.15495 -3.21,0.0925 -5.5199,1.47751 -6.9299,4.15495 -1.41,2.67749 -2.1,6.09244 -2.07,10.24487 -0.03,4.15245 0.66,7.56741 2.07,10.24486 1.41,2.67747 3.7199,4.06245 6.9299,4.15495 z m 0,-2.27997 c -2.305,-0.055 -3.985,-1.17498 -5.0399,-3.35996 -1.055,-2.18496 -1.575,-5.10492 -1.56,-8.75988 -0.015,-3.65494 0.505,-6.5749 1.56,-8.75989 1.0549,-2.18495 2.7349,-3.30493 5.0399,-3.35996 2.2858,0.055 3.9541,1.17501 5.0049,3.35996 1.0508,2.18499 1.5692,5.10495 1.555,8.75989 0.014,3.65496 -0.5042,6.57492 -1.555,8.75988 -1.0508,2.18498 -2.7191,3.30496 -5.0049,3.35996 z"
           style="fill:#ffffff;font-family:Mission Gothic Light;-inkscape-font-specification:Mission Gothic Light"
           id="path7686" />
        <path
           inkscape:connector-curvature="0"
           d="m 1301.8969,807.2262 0,-19.59975 -1.708,0 0,19.59975 z"
           style="font-size:28px;line-height:100%;fill:#ffffff;font-family:Mission Gothic Light;-inkscape-font-specification:Mission Gothic Light"
           id="path7688" />
        <path
           inkscape:connector-curvature="0"
           d="m 1309.4928,812.82612 c 0.3745,0.12541 0.7315,0.21758 1.071,0.2765 0.3395,0.0589 0.6825,0.0881 1.029,0.0875 1.4776,0.0128 2.6104,-0.46783 3.3984,-1.44198 0.7881,-0.97416 1.1859,-2.51881 1.1935,-4.63394 l 0,-14.64381 -1.7359,0 0,14.72781 c 5e-4,1.60297 -0.2386,2.73696 -0.7175,3.40195 -0.479,0.66499 -1.2011,0.98699 -2.1665,0.96599 -0.2538,0.002 -0.5093,-0.0163 -0.7665,-0.056 -0.2572,-0.0397 -0.5057,-0.11434 -0.7455,-0.224 z m 6.8879,-23.71569 c -0.01,-0.31498 -0.112,-0.57397 -0.315,-0.77699 -0.203,-0.20298 -0.462,-0.30798 -0.777,-0.315 -0.3015,0.007 -0.5524,0.11202 -0.7525,0.315 -0.2,0.20302 -0.3039,0.46201 -0.3114,0.77699 0.01,0.3016 0.1114,0.55243 0.3115,0.75249 0.2,0.2001 0.4509,0.30393 0.7524,0.3115 0.315,-0.008 0.574,-0.1114 0.777,-0.3115 0.203,-0.20006 0.308,-0.45089 0.315,-0.75249 z"
           style="font-size:28px;line-height:100%;fill:#ffffff;font-family:Mission Gothic Light;-inkscape-font-specification:Mission Gothic Light"
           id="path7690" />
        <path
           inkscape:connector-curvature="0"
           d="m 1330.4152,807.2262 c -0.042,-0.0764 -0.119,-0.32258 -0.231,-0.73849 -0.112,-0.41592 -0.175,-0.96307 -0.189,-1.64148 l 0,-12.37584 -1.708,0 0,8.67988 c -0.01,1.40116 -0.3208,2.54681 -0.938,3.43696 -0.6171,0.89016 -1.4898,1.34982 -2.6179,1.37898 -1.155,-0.0158 -1.953,-0.44624 -2.394,-1.29148 -0.441,-0.84524 -0.651,-2.01072 -0.63,-3.49646 l 0,-8.70788 -1.708,0 0,9.09988 c -0.031,1.65607 0.2759,3.04788 0.9205,4.17545 0.6446,1.12756 1.8124,1.71439 3.5035,1.76047 0.8878,-0.005 1.6671,-0.24033 2.3379,-0.70699 0.6709,-0.46666 1.1982,-1.13632 1.582,-2.00897 l 0.056,0 c 0.029,0.66499 0.097,1.23198 0.2065,1.70098 0.1091,0.46899 0.1709,0.71399 0.1855,0.73499 z"
           style="font-size:28px;line-height:100%;fill:#ffffff;font-family:Mission Gothic Light;-inkscape-font-specification:Mission Gothic Light"
           id="path7692" />
        <path
           inkscape:connector-curvature="0"
           d="m 1343.3258,794.59836 c -0.6142,-0.78398 -1.2967,-1.37197 -2.0474,-1.76398 -0.7508,-0.39198 -1.6643,-0.58798 -2.7405,-0.58799 -1.3918,0.0245 -2.5001,0.39551 -3.325,1.11299 -0.8248,0.7175 -1.2471,1.63449 -1.2669,2.75096 0.042,1.16812 0.4652,2.04311 1.2687,2.62497 0.8035,0.58187 1.7339,1.04386 2.7912,1.38598 1.0573,0.34212 1.9877,0.73762 2.7912,1.18648 0.8035,0.44888 1.2264,1.12437 1.2687,2.02648 -0.012,0.8569 -0.2957,1.50906 -0.8504,1.95647 -0.5548,0.44741 -1.3073,0.67258 -2.2575,0.67549 -0.8843,-0.005 -1.7057,-0.21174 -2.464,-0.61949 -0.7583,-0.40774 -1.3556,-0.98523 -1.792,-1.73248 -0.2123,0.18259 -0.4316,0.36342 -0.6579,0.5425 -0.2264,0.17908 -0.4457,0.35291 -0.658,0.52149 0.5769,0.92632 1.348,1.62865 2.3134,2.10697 0.9654,0.47833 2.0236,0.71866 3.1745,0.72099 1.5283,-0.004 2.7276,-0.36691 3.5979,-1.08848 0.8704,-0.72158 1.3137,-1.77739 1.33,-3.16746 -0.042,-1.22549 -0.4652,-2.15021 -1.2687,-2.77416 -0.8035,-0.62393 -1.734,-1.11202 -2.7912,-1.46429 -1.0573,-0.35225 -1.9877,-0.73359 -2.7912,-1.14405 -0.8036,-0.41043 -1.2265,-1.0149 -1.2688,-1.81341 0.02,-0.73381 0.2946,-1.30314 0.8225,-1.70798 0.5279,-0.40481 1.1871,-0.61014 1.9775,-0.61599 0.8131,-0.003 1.5038,0.15051 2.072,0.46199 0.5681,0.31151 1.0908,0.80151 1.5679,1.46999 z"
           style="font-size:28px;line-height:100%;fill:#ffffff;font-family:Mission Gothic Light;-inkscape-font-specification:Mission Gothic Light"
           id="path7694" />
        <path
           inkscape:connector-curvature="0"
           d="m 1352.9601,805.29422 c -0.231,0.18492 -0.504,0.33308 -0.819,0.4445 -0.315,0.11141 -0.63,0.16858 -0.945,0.17149 -0.6195,-0.003 -1.0955,-0.21408 -1.428,-0.63349 -0.3325,-0.41941 -0.5005,-1.02957 -0.504,-1.83048 l 0,-9.46387 3.388,0 0,-1.51198 -3.388,0 0,-3.52796 -1.68,0 0,3.52796 -1.9879,0 0,1.51198 1.9879,0 0,9.54787 c -0.01,1.25591 0.2713,2.23006 0.8295,2.92247 0.5583,0.6924 1.4297,1.04357 2.6145,1.05348 0.5063,-0.007 0.9706,-0.084 1.393,-0.23099 0.4223,-0.147 0.7886,-0.322 1.099,-0.525 z"
           style="font-size:28px;line-height:100%;fill:#ffffff;font-family:Mission Gothic Light;-inkscape-font-specification:Mission Gothic Light"
           id="path7696" />
        <path
           inkscape:connector-curvature="0"
           d="m 1376.8116,807.2262 4.5079,-14.75581 -1.8199,0 -2.884,9.85587 c -0.1109,0.40716 -0.2112,0.81083 -0.301,1.21098 -0.09,0.40017 -0.1762,0.78983 -0.259,1.16899 l -0.056,0 c -0.01,-0.0449 -0.075,-0.33308 -0.1995,-0.86449 -0.1243,-0.53141 -0.2538,-1.03657 -0.3885,-1.51548 l -2.996,-9.85587 -1.5119,0 -2.968,9.82787 c -0.1348,0.48008 -0.2642,0.98991 -0.3885,1.52948 -0.1242,0.53958 -0.1907,0.83241 -0.1995,0.87849 l -0.056,0 c -0.011,-0.0496 -0.081,-0.34941 -0.21,-0.89949 -0.1295,-0.55007 -0.2555,-1.0529 -0.378,-1.50848 l -2.8839,-9.82787 -1.82,0 4.5359,14.75581 1.54,0 2.968,-9.99588 c 0.196,-0.65914 0.343,-1.2028 0.441,-1.63097 0.098,-0.42815 0.1469,-0.64982 0.147,-0.665 l 0.056,0 c 0.1633,0.70467 0.3686,1.47933 0.6159,2.32397 l 2.94,9.96788 z"
           style="font-size:28px;line-height:100%;fill:#ffffff;font-family:Mission Gothic Light;-inkscape-font-specification:Mission Gothic Light"
           id="path7698" />
        <path
           inkscape:connector-curvature="0"
           d="m 1393.6221,807.2262 c -0.055,-0.0863 -0.1406,-0.33367 -0.2555,-0.74199 -0.1149,-0.40833 -0.1791,-0.96366 -0.1925,-1.66598 l 0,-7.30791 c -0.026,-1.80305 -0.4427,-3.14586 -1.2494,-4.02845 -0.8068,-0.88255 -1.8463,-1.32238 -3.1185,-1.31948 -0.9467,-0.003 -1.8322,0.22693 -2.6565,0.68949 -0.8242,0.46259 -1.5347,1.17542 -2.1314,2.13847 l 1.2599,1.00799 c 0.3355,-0.6959 0.7776,-1.25005 1.3265,-1.66248 0.5489,-0.4124 1.2081,-0.62356 1.9775,-0.63349 0.8797,-0.002 1.5773,0.30276 2.093,0.91349 0.5156,0.61075 0.7793,1.53824 0.791,2.78246 l 0,1.17599 c -2.765,0.0117 -4.816,0.42933 -6.153,1.25298 -1.3369,0.82366 -2.0019,1.98331 -1.9949,3.47896 0.012,1.26523 0.3873,2.27672 1.127,3.03446 0.7396,0.75774 1.7733,1.14623 3.1009,1.16548 1.0552,-0.0274 1.8987,-0.30858 2.5305,-0.84349 0.6317,-0.53491 1.1042,-1.15906 1.4175,-1.87247 0.051,0.65974 0.1242,1.21623 0.2205,1.66948 0.096,0.45324 0.1627,0.70874 0.1995,0.76649 z m -2.1559,-6.01993 c 0,1.32766 -0.3197,2.45231 -0.952,3.37396 -0.6324,0.92166 -1.5657,1.40232 -2.8,1.44198 -0.7513,-10e-4 -1.3906,-0.22983 -1.918,-0.68599 -0.5273,-0.45616 -0.8026,-1.13282 -0.8259,-2.02997 0.01,-1.09432 0.508,-1.92264 1.4944,-2.48497 0.9864,-0.56232 2.4016,-0.84465 4.2455,-0.84699 0.252,10e-6 0.504,10e-6 0.756,0 z"
           style="font-size:28px;line-height:100%;fill:#ffffff;font-family:Mission Gothic Light;-inkscape-font-specification:Mission Gothic Light"
           id="path7700" />
        <path
           inkscape:connector-curvature="0"
           d="m 1407.3312,807.2262 0,-9.09989 c 0.031,-1.65605 -0.2759,-3.04786 -0.9205,-4.17544 -0.6446,-1.12756 -1.8124,-1.71438 -3.5034,-1.76048 -0.8984,0.006 -1.6777,0.2456 -2.338,0.71749 -0.6603,0.47193 -1.1877,1.13808 -1.582,1.99847 l -0.056,0 c -0.029,-0.66497 -0.097,-1.23197 -0.2065,-1.70097 -0.1091,-0.46898 -0.1709,-0.71398 -0.1855,-0.73499 l -1.624,0 c 0.054,0.0898 0.1348,0.34417 0.2415,0.76299 0.1068,0.41884 0.1663,0.96716 0.1785,1.64498 l 0,12.34784 1.708,0 0,-8.51189 c 0,-1.42039 0.2893,-2.59754 0.875,-3.53146 0.5856,-0.93389 1.4793,-1.41805 2.681,-1.45248 1.1427,0.0187 1.9372,0.45734 2.3834,1.31598 0.4463,0.85867 0.6598,2.02532 0.6405,3.49996 l 0,8.67989 z"
           style="font-size:28px;line-height:100%;fill:#ffffff;font-family:Mission Gothic Light;-inkscape-font-specification:Mission Gothic Light"
           id="path7702" />
        <path
           inkscape:connector-curvature="0"
           d="m 1417.2726,805.29422 c -0.231,0.18492 -0.504,0.33308 -0.819,0.4445 -0.315,0.11141 -0.63,0.16858 -0.945,0.17149 -0.6195,-0.003 -1.0955,-0.21408 -1.428,-0.63349 -0.3325,-0.41941 -0.5005,-1.02957 -0.504,-1.83048 l 0,-9.46387 3.388,0 0,-1.51198 -3.388,0 0,-3.52796 -1.68,0 0,3.52796 -1.9879,0 0,1.51198 1.9879,0 0,9.54787 c -0.01,1.25591 0.2713,2.23006 0.8295,2.92247 0.5583,0.6924 1.4297,1.04357 2.6145,1.05348 0.5063,-0.007 0.9706,-0.084 1.393,-0.23099 0.4223,-0.147 0.7886,-0.322 1.099,-0.525 z"
           style="font-size:28px;line-height:100%;fill:#ffffff;font-family:Mission Gothic Light;-inkscape-font-specification:Mission Gothic Light"
           id="path7704" />
        <path
           inkscape:connector-curvature="0"
           d="m 1433.7882,805.29422 c -0.231,0.18492 -0.504,0.33308 -0.819,0.4445 -0.315,0.11141 -0.63,0.16858 -0.945,0.17149 -0.6195,-0.003 -1.0955,-0.21408 -1.428,-0.63349 -0.3325,-0.41941 -0.5005,-1.02957 -0.504,-1.83048 l 0,-9.46387 3.388,0 0,-1.51198 -3.388,0 0,-3.52796 -1.6799,0 0,3.52796 -1.988,0 0,1.51198 1.988,0 0,9.54787 c -0.01,1.25591 0.2712,2.23006 0.8294,2.92247 0.5583,0.6924 1.4298,1.04357 2.6145,1.05348 0.5063,-0.007 0.9707,-0.084 1.393,-0.23099 0.4223,-0.147 0.7886,-0.322 1.099,-0.525 z"
           style="font-size:28px;line-height:100%;fill:#ffffff;font-family:Mission Gothic Light;-inkscape-font-specification:Mission Gothic Light"
           id="path7706" />
        <path
           inkscape:connector-curvature="0"
           d="m 1441.5744,805.93821 c -1.2005,-0.0251 -2.0895,-0.5839 -2.667,-1.67648 -0.5775,-1.09256 -0.8645,-2.56837 -0.861,-4.42744 0,-1.8713 0.2835,-3.35061 0.861,-4.43794 0.5775,-1.08731 1.4665,-1.64263 2.667,-1.66598 1.2139,0.0234 2.111,0.57867 2.6915,1.66598 0.5804,1.08733 0.8685,2.56664 0.8644,4.43794 0,1.88357 -0.284,3.36638 -0.8644,4.44844 -0.5805,1.08208 -1.4776,1.6339 -2.6915,1.65548 z m 0,1.56798 c 1.7395,-0.0204 3.0554,-0.70057 3.9479,-2.04047 0.8925,-1.3399 1.3405,-3.21704 1.344,-5.63143 0,-2.40096 -0.4515,-4.26993 -1.344,-5.60693 -0.8925,-1.33697 -2.2084,-2.01596 -3.9479,-2.03697 -1.7261,0.021 -3.0339,0.70001 -3.9235,2.03697 -0.8895,1.337 -1.3364,3.20597 -1.3404,5.60693 0,2.41439 0.4509,4.29153 1.3404,5.63143 0.8896,1.3399 2.1974,2.02006 3.9235,2.04047 z"
           style="font-size:28px;line-height:100%;fill:#ffffff;font-family:Mission Gothic Light;-inkscape-font-specification:Mission Gothic Light"
           id="path7708" />
        <path
           inkscape:connector-curvature="0"
           d="m 1460.2049,807.2262 0,-13.24383 3.024,0 0,-1.51198 -3.024,0 0,-2.09998 c 0,-1.60062 0.6113,-2.40328 1.82,-2.40797 0.3097,0.002 0.6072,0.0537 0.8925,0.154 0.2852,0.10035 0.5477,0.23568 0.7875,0.406 l 0.672,-1.42798 c -0.2952,-0.20065 -0.6499,-0.36631 -1.064,-0.497 -0.4142,-0.13064 -0.8809,-0.19831 -1.4,-0.203 -1.1713,0.0117 -2.0347,0.38035 -2.59,1.10599 -0.5553,0.72568 -0.8306,1.73833 -0.826,3.03796 l 0,1.93198 -2.2399,0 0,1.51198 2.2399,0 0,13.24383 z"
           style="font-size:28px;line-height:100%;fill:#ffffff;font-family:Mission Gothic Light;-inkscape-font-specification:Mission Gothic Light"
           id="path7710" />
        <path
           inkscape:connector-curvature="0"
           d="m 1467.5654,807.2262 0,-14.75581 -1.7079,0 0,14.75581 z m 0.224,-18.11577 c -0.01,-0.31498 -0.112,-0.57397 -0.315,-0.77699 -0.203,-0.20298 -0.462,-0.30798 -0.777,-0.315 -0.3015,0.007 -0.5524,0.11202 -0.7525,0.315 -0.2,0.20302 -0.3039,0.46201 -0.3114,0.77699 0.01,0.3016 0.1114,0.55243 0.3114,0.75249 0.2001,0.2001 0.451,0.30393 0.7525,0.3115 0.315,-0.008 0.574,-0.1114 0.777,-0.3115 0.203,-0.20006 0.308,-0.45089 0.315,-0.75249 z"
           style="font-size:28px;line-height:100%;fill:#ffffff;font-family:Mission Gothic Light;-inkscape-font-specification:Mission Gothic Light"
           id="path7712" />
        <path
           inkscape:connector-curvature="0"
           d="m 1481.7062,807.2262 0,-9.09989 c 0.031,-1.65605 -0.2759,-3.04786 -0.9205,-4.17544 -0.6446,-1.12756 -1.8124,-1.71438 -3.5034,-1.76048 -0.8984,0.006 -1.6777,0.2456 -2.338,0.71749 -0.6603,0.47193 -1.1877,1.13808 -1.582,1.99847 l -0.056,0 c -0.029,-0.66497 -0.097,-1.23197 -0.2065,-1.70097 -0.1091,-0.46898 -0.1709,-0.71398 -0.1855,-0.73499 l -1.624,0 c 0.054,0.0898 0.1348,0.34417 0.2415,0.76299 0.1068,0.41884 0.1663,0.96716 0.1785,1.64498 l 0,12.34784 1.708,0 0,-8.51189 c 0,-1.42039 0.2893,-2.59754 0.875,-3.53146 0.5856,-0.93389 1.4793,-1.41805 2.681,-1.45248 1.1427,0.0187 1.9372,0.45734 2.3834,1.31598 0.4463,0.85867 0.6598,2.02532 0.6405,3.49996 l 0,8.67989 z"
           style="font-size:28px;line-height:100%;fill:#ffffff;font-family:Mission Gothic Light;-inkscape-font-specification:Mission Gothic Light"
           id="path7714" />
        <path
           inkscape:connector-curvature="0"
           d="m 1495.3435,807.2262 c -0.042,-0.0782 -0.119,-0.32783 -0.231,-0.74899 -0.112,-0.42116 -0.175,-0.96482 -0.189,-1.63098 l 0,-18.05977 -1.708,0 0,5.48793 c 0,0.51509 0.01,0.98292 0.014,1.40348 0.01,0.42059 0.013,0.64342 0.014,0.66849 l -0.056,0 c -0.3208,-0.64106 -0.7571,-1.15789 -1.3089,-1.55048 -0.5519,-0.39256 -1.2262,-0.59439 -2.023,-0.60549 -1.6141,0.0228 -2.8379,0.70526 -3.6715,2.04747 -0.8335,1.34225 -1.2524,3.20772 -1.2565,5.59643 0.01,2.40214 0.4259,4.27578 1.253,5.62093 0.8272,1.34515 2.0148,2.02881 3.563,2.05097 0.9304,-0.0198 1.6805,-0.25316 2.2505,-0.69999 0.5699,-0.44683 1.005,-0.98815 1.3054,-1.62398 l 0.056,0 c 0.026,0.54366 0.086,1.00332 0.182,1.37898 0.096,0.37567 0.1564,0.59733 0.182,0.665 z m -2.128,-5.82393 c 0,1.35274 -0.2712,2.44122 -0.8084,3.26546 -0.5373,0.82424 -1.3318,1.24773 -2.3835,1.27048 -1.2069,-0.0233 -2.0761,-0.57865 -2.6075,-1.66598 -0.5314,-1.08731 -0.7916,-2.56662 -0.7805,-4.43794 -0.011,-1.84563 0.2491,-3.31328 0.7805,-4.40294 0.5314,-1.08964 1.4006,-1.6473 2.6075,-1.67298 1.162,0.0408 1.9879,0.51917 2.4779,1.43498 0.49,0.91583 0.728,2.02415 0.714,3.32496 z"
           style="font-size:28px;line-height:100%;fill:#ffffff;font-family:Mission Gothic Light;-inkscape-font-specification:Mission Gothic Light"
           id="path7716" />
        <path
           inkscape:connector-curvature="0"
           d="m 1309.5128,835.2262 c -0.055,-0.0863 -0.1406,-0.33367 -0.2555,-0.74199 -0.115,-0.40833 -0.1791,-0.96366 -0.1925,-1.66598 l 0,-7.30791 c -0.026,-1.80305 -0.4428,-3.14586 -1.2495,-4.02845 -0.8068,-0.88255 -1.8462,-1.32238 -3.1185,-1.31948 -0.9467,-0.003 -1.8322,0.22693 -2.6564,0.68949 -0.8243,0.46259 -1.5348,1.17542 -2.1315,2.13847 l 1.26,1.00799 c 0.3354,-0.6959 0.7775,-1.25005 1.3265,-1.66248 0.5489,-0.4124 1.208,-0.62356 1.9774,-0.63349 0.8797,-0.002 1.5773,0.30276 2.093,0.91349 0.5157,0.61075 0.7793,1.53824 0.791,2.78246 l 0,1.17599 c -2.765,0.0117 -4.816,0.42933 -6.1529,1.25298 -1.337,0.82366 -2.002,1.98331 -1.995,3.47896 0.012,1.26523 0.3873,2.27672 1.127,3.03446 0.7396,0.75774 1.7733,1.14623 3.1009,1.16548 1.0553,-0.0274 1.8988,-0.30858 2.5305,-0.84349 0.6317,-0.53491 1.1042,-1.15906 1.4175,-1.87247 0.051,0.65974 0.1242,1.21623 0.2205,1.66948 0.096,0.45324 0.1627,0.70874 0.1995,0.76649 z m -2.156,-6.01993 c 0,1.32766 -0.3197,2.45231 -0.952,3.37396 -0.6323,0.92166 -1.5656,1.40232 -2.8,1.44198 -0.7513,-10e-4 -1.3906,-0.22983 -1.9179,-0.68599 -0.5274,-0.45616 -0.8027,-1.13282 -0.826,-2.02997 0.01,-1.09432 0.508,-1.92264 1.4945,-2.48497 0.9864,-0.56232 2.4015,-0.84465 4.2454,-0.84699 0.252,10e-6 0.504,10e-6 0.756,0 z"
           style="font-size:28px;line-height:100%;fill:#ffffff;font-family:Mission Gothic Light;-inkscape-font-specification:Mission Gothic Light"
           id="path7718" />
        <path
           inkscape:connector-curvature="0"
           d="m 1322.2074,840.82612 0,-5.48793 c 0,-0.56407 -0.01,-1.0459 -0.014,-1.44548 -0.01,-0.39957 -0.013,-0.6084 -0.014,-0.62649 l 0.056,0 c 0.343,0.68133 0.7979,1.22265 1.3649,1.62398 0.567,0.40133 1.288,0.60666 2.163,0.61599 1.5569,-0.0239 2.7341,-0.70407 3.5315,-2.04047 0.7974,-1.3364 1.1975,-3.18554 1.2005,-5.54743 -0.01,-2.41671 -0.4317,-4.30318 -1.267,-5.65943 -0.8354,-1.35622 -2.0277,-2.04571 -3.577,-2.06847 -0.9036,0.0204 -1.6374,0.25259 -2.2015,0.69649 -0.564,0.44393 -0.9969,0.97709 -1.2984,1.59948 l -0.056,0 c -0.053,-0.53723 -0.129,-1.00272 -0.2275,-1.39648 -0.099,-0.39373 -0.1534,-0.60023 -0.1645,-0.61949 l -1.624,0 c 0.054,0.0898 0.1347,0.34417 0.2415,0.76299 0.1067,0.41884 0.1662,0.96716 0.1785,1.64498 l 0,17.94776 z m 0,-14.39181 c 0,-1.36964 0.256,-2.48029 0.7805,-3.33196 0.5244,-0.85164 1.3375,-1.2903 2.4394,-1.31598 1.1935,0.0268 2.0545,0.58917 2.583,1.68698 0.5285,1.09783 0.7875,2.57014 0.777,4.41694 0.011,1.87015 -0.2491,3.3448 -0.7805,4.42394 -0.5314,1.07916 -1.4006,1.62982 -2.6075,1.65198 -1.1497,-0.0403 -1.9722,-0.51274 -2.4674,-1.41748 -0.4953,-0.90473 -0.7368,-2.00022 -0.7245,-3.28646 z"
           style="font-size:28px;line-height:100%;fill:#ffffff;font-family:Mission Gothic Light;-inkscape-font-specification:Mission Gothic Light"
           id="path7720" />
        <path
           inkscape:connector-curvature="0"
           d="m 1335.5752,835.2262 0,-20.43974 -1.708,0 0,20.43974 z"
           style="font-size:28px;line-height:100%;fill:#ffffff;font-family:Mission Gothic Light;-inkscape-font-specification:Mission Gothic Light"
           id="path7722" />
        <path
           inkscape:connector-curvature="0"
           d="m 1349.2159,835.2262 c -0.055,-0.0863 -0.1406,-0.33367 -0.2555,-0.74199 -0.1149,-0.40833 -0.1791,-0.96366 -0.1925,-1.66598 l 0,-7.30791 c -0.026,-1.80305 -0.4428,-3.14586 -1.2495,-4.02845 -0.8067,-0.88255 -1.8462,-1.32238 -3.1184,-1.31948 -0.9468,-0.003 -1.8323,0.22693 -2.6565,0.68949 -0.8243,0.46259 -1.5347,1.17542 -2.1315,2.13847 l 1.26,1.00799 c 0.3354,-0.6959 0.7776,-1.25005 1.3265,-1.66248 0.5489,-0.4124 1.208,-0.62356 1.9775,-0.63349 0.8796,-0.002 1.5773,0.30276 2.0929,0.91349 0.5157,0.61075 0.7793,1.53824 0.791,2.78246 l 0,1.17599 c -2.765,0.0117 -4.8159,0.42933 -6.1529,1.25298 -1.337,0.82366 -2.002,1.98331 -1.995,3.47896 0.012,1.26523 0.3873,2.27672 1.127,3.03446 0.7397,0.75774 1.7733,1.14623 3.101,1.16548 1.0552,-0.0274 1.8987,-0.30858 2.5304,-0.84349 0.6318,-0.53491 1.1043,-1.15906 1.4175,-1.87247 0.051,0.65974 0.1243,1.21623 0.2205,1.66948 0.096,0.45324 0.1628,0.70874 0.1995,0.76649 z m -2.156,-6.01993 c 0,1.32766 -0.3197,2.45231 -0.952,3.37396 -0.6323,0.92166 -1.5656,1.40232 -2.7999,1.44198 -0.7514,-10e-4 -1.3907,-0.22983 -1.918,-0.68599 -0.5273,-0.45616 -0.8027,-1.13282 -0.826,-2.02997 0.01,-1.09432 0.5081,-1.92264 1.4945,-2.48497 0.9864,-0.56232 2.4015,-0.84465 4.2454,-0.84699 0.252,10e-6 0.504,10e-6 0.756,0 z"
           style="font-size:28px;line-height:100%;fill:#ffffff;font-family:Mission Gothic Light;-inkscape-font-specification:Mission Gothic Light"
           id="path7724" />
        <path
           inkscape:connector-curvature="0"
           d="m 1360.685,830.97025 c -0.2625,0.90649 -0.6545,1.62048 -1.176,2.14197 -0.5215,0.5215 -1.1935,0.78749 -2.016,0.79799 -1.2261,-0.0227 -2.1268,-0.57224 -2.7019,-1.64848 -0.5752,-1.07623 -0.8599,-2.54271 -0.854,-4.39944 0,-1.87013 0.284,-3.34478 0.8645,-4.42394 0.5804,-1.07914 1.4775,-1.6298 2.6914,-1.65198 0.8237,0.008 1.4933,0.26484 2.009,0.76999 0.5156,0.50517 0.8913,1.20983 1.127,2.11397 l 1.484,-0.81199 c -0.3705,-1.1328 -0.9316,-2.02412 -1.6835,-2.67396 -0.7519,-0.64981 -1.7401,-0.98114 -2.9645,-0.99399 -1.6893,0.0204 -2.9866,0.70059 -3.8919,2.04047 -0.9054,1.33991 -1.3627,3.21706 -1.372,5.63143 0.01,2.41322 0.4614,4.2857 1.3615,5.61743 0.9,1.33173 2.2009,2.00722 3.9024,2.02647 1.2396,-0.0111 2.2394,-0.34591 2.9995,-1.00448 0.76,-0.65858 1.3189,-1.5744 1.6765,-2.74747 z"
           style="font-size:28px;line-height:100%;fill:#ffffff;font-family:Mission Gothic Light;-inkscape-font-specification:Mission Gothic Light"
           id="path7726" />
        <path
           inkscape:connector-curvature="0"
           d="m 1373.411,831.02625 c -0.3425,1.00449 -0.7986,1.74648 -1.3685,2.22597 -0.5699,0.4795 -1.2991,0.71749 -2.1875,0.71399 -1.19,-0.0163 -2.093,-0.50866 -2.709,-1.47698 -0.6159,-0.96832 -0.9449,-2.31463 -0.9869,-4.03895 l 8.7638,0 0,-0.53199 c 0.026,-2.33096 -0.3546,-4.19293 -1.1409,-5.58593 -0.7864,-1.39297 -2.1327,-2.10696 -4.039,-2.14197 -1.6782,0.0222 -2.9767,0.70584 -3.8954,2.05097 -0.9188,1.34516 -1.3843,3.21881 -1.3965,5.62093 0.011,2.41322 0.4725,4.2857 1.386,5.61743 0.9134,1.33173 2.2154,2.00722 3.9059,2.02647 1.3032,-0.002 2.3578,-0.31324 3.164,-0.93449 0.8061,-0.62124 1.4408,-1.54172 1.904,-2.76146 z m -7.2519,-4.00395 c 0.085,-1.65605 0.4328,-2.95687 1.0429,-3.90245 0.6102,-0.94556 1.4759,-1.42738 2.597,-1.44548 1.1783,0.0111 2.0346,0.47892 2.569,1.40348 0.5343,0.92459 0.8166,2.2394 0.847,3.94445 z"
           style="font-size:28px;line-height:100%;fill:#ffffff;font-family:Mission Gothic Light;-inkscape-font-specification:Mission Gothic Light"
           id="path7728" />
        <path
           inkscape:connector-curvature="0"
           d="m 1379.0321,836.90617 4.4799,-22.9597 -1.708,0 -4.4519,22.9597 z"
           style="font-size:28px;line-height:100%;fill:#ffffff;font-family:Mission Gothic Light;-inkscape-font-specification:Mission Gothic Light"
           id="path7730" />
        <path
           inkscape:connector-curvature="0"
           d="m 1388.4326,835.2262 0,-14.75581 -1.708,0 0,14.75581 z m 0.224,-18.11577 c -0.01,-0.31498 -0.112,-0.57397 -0.315,-0.77699 -0.203,-0.20298 -0.462,-0.30798 -0.777,-0.315 -0.3016,0.007 -0.5524,0.11202 -0.7525,0.315 -0.2,0.20302 -0.3039,0.46201 -0.3115,0.77699 0.01,0.3016 0.1115,0.55243 0.3115,0.75249 0.2001,0.2001 0.4509,0.30393 0.7525,0.3115 0.315,-0.008 0.574,-0.1114 0.777,-0.3115 0.203,-0.20006 0.308,-0.45089 0.315,-0.75249 z"
           style="font-size:28px;line-height:100%;fill:#ffffff;font-family:Mission Gothic Light;-inkscape-font-specification:Mission Gothic Light"
           id="path7732" />
        <path
           inkscape:connector-curvature="0"
           d="m 1402.5734,835.2262 0,-9.09989 c 0.031,-1.65605 -0.2759,-3.04786 -0.9205,-4.17544 -0.6446,-1.12756 -1.8124,-1.71438 -3.5035,-1.76048 -0.8983,0.006 -1.6776,0.2456 -2.3379,0.71749 -0.6604,0.47193 -1.1877,1.13808 -1.582,1.99847 l -0.056,0 c -0.029,-0.66497 -0.097,-1.23197 -0.2065,-1.70097 -0.1091,-0.46898 -0.1709,-0.71398 -0.1855,-0.73499 l -1.624,0 c 0.054,0.0898 0.1348,0.34417 0.2415,0.76299 0.1068,0.41884 0.1663,0.96716 0.1785,1.64498 l 0,12.34784 1.708,0 0,-8.51189 c 0,-1.42039 0.2893,-2.59754 0.875,-3.53146 0.5856,-0.93389 1.4793,-1.41805 2.6809,-1.45248 1.1428,0.0187 1.9373,0.45734 2.3835,1.31598 0.4462,0.85867 0.6597,2.02532 0.6405,3.49996 l 0,8.67989 z"
           style="font-size:28px;line-height:100%;fill:#ffffff;font-family:Mission Gothic Light;-inkscape-font-specification:Mission Gothic Light"
           id="path7734" />
        <path
           inkscape:connector-curvature="0"
           d="m 1409.1268,835.2262 0,-13.24383 3.024,0 0,-1.51198 -3.024,0 0,-2.09998 c 0,-1.60062 0.6113,-2.40328 1.82,-2.40797 0.3097,0.002 0.6072,0.0537 0.8925,0.154 0.2852,0.10035 0.5477,0.23568 0.7874,0.406 l 0.672,-1.42798 c -0.2951,-0.20065 -0.6498,-0.36631 -1.0639,-0.497 -0.4142,-0.13064 -0.8809,-0.19831 -1.4,-0.203 -1.1714,0.0117 -2.0347,0.38035 -2.59,1.10599 -0.5553,0.72568 -0.8307,1.73833 -0.826,3.03796 l 0,1.93198 -2.24,0 0,1.51198 2.24,0 0,13.24383 z"
           style="font-size:28px;line-height:100%;fill:#ffffff;font-family:Mission Gothic Light;-inkscape-font-specification:Mission Gothic Light"
           id="path7736" />
        <path
           inkscape:connector-curvature="0"
           d="m 1419.3713,833.93821 c -1.2005,-0.0251 -2.0895,-0.5839 -2.667,-1.67648 -0.5775,-1.09256 -0.8645,-2.56837 -0.861,-4.42744 0,-1.8713 0.2835,-3.35061 0.861,-4.43794 0.5775,-1.08731 1.4665,-1.64263 2.667,-1.66598 1.2139,0.0234 2.111,0.57867 2.6914,1.66598 0.5804,1.08733 0.8686,2.56664 0.8645,4.43794 0,1.88357 -0.2841,3.36638 -0.8645,4.44844 -0.5804,1.08208 -1.4775,1.6339 -2.6914,1.65548 z m 0,1.56798 c 1.7394,-0.0204 3.0554,-0.70057 3.9479,-2.04047 0.8925,-1.3399 1.3405,-3.21704 1.344,-5.63143 0,-2.40096 -0.4515,-4.26993 -1.344,-5.60693 -0.8925,-1.33697 -2.2085,-2.01596 -3.9479,-2.03697 -1.7261,0.021 -3.0339,0.70001 -3.9235,2.03697 -0.8896,1.337 -1.3364,3.20597 -1.3405,5.60693 0,2.41439 0.4509,4.29153 1.3405,5.63143 0.8896,1.3399 2.1974,2.02006 3.9235,2.04047 z"
           style="font-size:28px;line-height:100%;fill:#ffffff;font-family:Mission Gothic Light;-inkscape-font-specification:Mission Gothic Light"
           id="path7738" />
      </g>
      <path
         style="fill:#0000ff"
         inkscape:connector-curvature="0"
         d="m 1246.571,752.15984 c 11.947,0 21.6667,9.71966 21.6667,21.66667 0,11.94701 -9.7197,21.66666 -21.6667,21.66666 -11.947,0 -21.6667,-9.71965 -21.6667,-21.66666 0,-11.94701 9.7197,-21.66667 21.6667,-21.66667 z m 0,-4.33333 c -14.3585,0 -26,11.64149 -26,26 0,14.35851 11.6415,26 26,26 14.3585,0 26,-11.64149 26,-26 0,-14.35851 -11.6415,-26 -26,-26 z m 2.1667,39 h -4.3334 v -17.33333 h 4.3334 v 17.33333 z m -2.1667,-26.54167 c 1.495,0 2.7083,1.21334 2.7083,2.70834 0,1.495 -1.2133,2.70834 -2.7083,2.70834 -1.495,0 -2.7083,-1.21334 -2.7083,-2.70834 0,-1.495 1.2133,-2.70834 2.7083,-2.70834 z"
         id="path7486-8" />
    </g>
  </g>
</svg>
