<?xml version="1.0" encoding="UTF-8" standalone="no"?>
<!-- Created with Inkscape (http://www.inkscape.org/) -->

<svg
   xmlns:dc="http://purl.org/dc/elements/1.1/"
   xmlns:cc="http://creativecommons.org/ns#"
   xmlns:rdf="http://www.w3.org/1999/02/22-rdf-syntax-ns#"
   xmlns:svg="http://www.w3.org/2000/svg"
   xmlns="http://www.w3.org/2000/svg"
   xmlns:sodipodi="http://sodipodi.sourceforge.net/DTD/sodipodi-0.dtd"
   xmlns:inkscape="http://www.inkscape.org/namespaces/inkscape"
   width="100"
   height="100"
   id="svg4886"
   version="1.1"
   inkscape:version="0.48.4 r9939"
   sodipodi:docname="New document 14">
  <defs
     id="defs4888" />
  <sodipodi:namedview
     id="base"
     pagecolor="#ffffff"
     bordercolor="#666666"
     borderopacity="1.0"
     inkscape:pageopacity="0.0"
     inkscape:pageshadow="2"
     inkscape:zoom="1.191573"
     inkscape:cx="98.571429"
     inkscape:cy="65.714286"
     inkscape:document-units="px"
     inkscape:current-layer="layer1"
     showgrid="false"
     fit-margin-top="0"
     fit-margin-left="0"
     fit-margin-right="0"
     fit-margin-bottom="0"
     inkscape:window-width="463"
     inkscape:window-height="423"
     inkscape:window-x="52"
     inkscape:window-y="52"
     inkscape:window-maximized="0" />
  <metadata
     id="metadata4891">
    <rdf:RDF>
      <cc:Work
         rdf:about="">
        <dc:format>image/svg+xml</dc:format>
        <dc:type
           rdf:resource="http://purl.org/dc/dcmitype/StillImage" />
        <dc:title></dc:title>
      </cc:Work>
    </rdf:RDF>
  </metadata>
  <g
     inkscape:label="Layer 1"
     inkscape:groupmode="layer"
     id="layer1"
     transform="translate(-155.71428,-430.93359)">
    <g
       id="g4976">
      <rect
         ry="21.153849"
         y="430.93359"
         x="155.71428"
         height="100"
         width="100"
         id="rect3097-2-9-3-9-4"
         style="fill:none;fill-opacity:0.35672517999999998;stroke:none" />
      <g
         style="fill:#ffffff"
         transform="matrix(1.5529805,0,0,1.5529805,170.10522,445.3245)"
         id="g4676">
        <g
           style="fill:#ffffff"
           id="g4624">
          <g
             style="fill:#ffffff"
             id="g4626">
            <path
               style="fill:#ffffff"
               inkscape:connector-curvature="0"
               d="M 13.625,5.974 C 13.625,3.78 11.848,2.002 9.653,2.002 H 3.971 C 1.779,2.002 0,3.78 0,5.974 v 15.982 c 0,2.194 1.778,3.972 3.971,3.972 h 5.683 c 2.194,0 3.972,-1.777 3.972,-3.972 l -10e-4,-15.982 0,0 z m -9.79,9.843 c -0.747,0 -1.351,-0.604 -1.351,-1.349 0,-0.745 0.604,-1.349 1.351,-1.349 0.744,0 1.348,0.604 1.348,1.349 -10e-4,0.744 -0.604,1.349 -1.348,1.349 z m 4.14,-5.175 H 6.314 V 5.9 L 5.338,6.44 5.17,5.395 6.802,4.662 h 1.174 l -0.001,5.98 0,0 z"
               id="path4628" />
            <polygon
               style="fill:#ffffff"
               points="6.555,5.9 6.59,5.883 6.555,5.883 "
               id="polygon4630" />
            <polygon
               style="fill:#ffffff"
               points="22.77,9.446 22.752,9.446 22.752,9.461 "
               id="polygon4632" />
            <path
               style="fill:#ffffff"
               inkscape:connector-curvature="0"
               d="m 29.909,5.974 c 0,-2.194 -1.779,-3.972 -3.974,-3.972 h -5.679 c -2.195,0 -3.974,1.778 -3.974,3.972 v 15.982 c 0,2.194 1.778,3.972 3.974,3.972 h 5.679 c 2.193,0 3.974,-1.777 3.974,-3.972 V 5.974 z m -8.974,3.807 0.71,-0.694 c 1.294,-1.158 1.893,-1.825 1.911,-2.518 0,-0.484 -0.306,-0.868 -0.991,-0.868 -0.51,0 -0.966,0.255 -1.276,0.493 L 20.893,5.198 c 0.45,-0.338 1.139,-0.611 1.94,-0.611 1.345,0 2.081,0.784 2.081,1.862 0,0.995 -0.738,1.722 -1.597,2.488 l -0.548,0.375 h 2.153 v 1.329 h -3.988 l 10e-4,-0.86 0,0 z m -0.919,3.764 c 0.781,0 1.414,0.632 1.414,1.411 0,0.78 -0.633,1.411 -1.414,1.411 -0.776,0 -1.409,-0.631 -1.409,-1.411 0,-0.779 0.633,-1.411 1.409,-1.411 z"
               id="path4634" />
            <path
               style="fill:#ffffff"
               inkscape:connector-curvature="0"
               d="m 45.859,5.974 c 0,-2.194 -1.779,-3.972 -3.973,-3.972 h -5.683 c -2.192,0 -3.972,1.778 -3.972,3.972 v 15.982 c 0,2.194 1.779,3.972 3.972,3.972 h 5.683 c 2.192,0 3.973,-1.777 3.973,-3.972 V 5.974 z M 36,16.367 c -0.781,0 -1.414,-0.631 -1.414,-1.411 0,-0.778 0.633,-1.411 1.414,-1.411 0.775,0 1.409,0.632 1.409,1.411 0,0.78 -0.634,1.411 -1.409,1.411 z m 2.521,-5.647 c -0.769,0 -1.416,-0.2 -1.764,-0.419 L 37.042,9.26 c 0.246,0.126 0.811,0.365 1.377,0.365 0.721,0 1.086,-0.346 1.086,-0.793 0,-0.583 -0.585,-0.848 -1.195,-0.848 H 37.882 V 6.987 h 0.398 c 0.468,0 1.059,-0.183 1.059,-0.684 0,-0.356 -0.291,-0.622 -0.873,-0.622 -0.486,0 -0.996,0.21 -1.242,0.356 L 36.941,5.033 c 0.354,-0.228 1.066,-0.447 1.836,-0.447 1.269,0 1.912,0.667 1.912,1.478 0,0.63 -0.479,1.123 -1.145,1.379 v 0.02 c 0.664,0.128 1.346,0.666 1.346,1.442 10e-4,1.049 -0.863,1.815 -2.369,1.815 z"
               id="path4636" />
            <path
               style="fill:#ffffff"
               inkscape:connector-curvature="0"
               d="m 34.141,29.291 c -2.809,0 -5.248,1.622 -6.492,3.949 h -1.747 c -0.188,0 -0.373,-0.015 -0.531,0.088 l -2.037,1.285 c -0.25,0.164 -0.572,0.146 -0.822,-0.016 l -1.89,-1.226 c -0.248,-0.159 -0.564,-0.166 -0.814,-0.013 l -1.985,1.225 c -0.262,0.163 -0.593,0.164 -0.857,0.004 l -2.031,-1.221 c -0.272,-0.162 -0.613,-0.161 -0.884,0.005 L 12.705,34.2 C 12.478,34.339 12.19,34.334 11.97,34.186 L 10.553,33.309 C 10.415,33.217 10.252,33.237 10.087,33.237 H 8.068 c -2.002,0 -3.624,1.459 -3.624,3.461 0,1.849 1.498,3.184 3.346,3.184 h 19.858 c 1.244,2.326 3.685,3.975 6.492,3.975 4.065,0 7.365,-3.216 7.365,-7.285 0.003,-4.064 -3.298,-7.281 -7.364,-7.281 z m 1.996,9.68 c -1.315,0 -2.383,-1.066 -2.383,-2.382 0,-1.316 1.066,-2.381 2.383,-2.381 1.315,0 2.383,1.065 2.383,2.381 0,1.316 -1.068,2.382 -2.383,2.382 z"
               id="path4638" />
          </g>
        </g>
        <g
           style="fill:#ffffff"
           id="g4640" />
        <g
           style="fill:#ffffff"
           id="g4642" />
        <g
           style="fill:#ffffff"
           id="g4644" />
        <g
           style="fill:#ffffff"
           id="g4646" />
        <g
           style="fill:#ffffff"
           id="g4648" />
        <g
           style="fill:#ffffff"
           id="g4650" />
        <g
           style="fill:#ffffff"
           id="g4652" />
        <g
           style="fill:#ffffff"
           id="g4654" />
        <g
           style="fill:#ffffff"
           id="g4656" />
        <g
           style="fill:#ffffff"
           id="g4658" />
        <g
           style="fill:#ffffff"
           id="g4660" />
        <g
           style="fill:#ffffff"
           id="g4662" />
        <g
           style="fill:#ffffff"
           id="g4664" />
        <g
           style="fill:#ffffff"
           id="g4666" />
        <g
           style="fill:#ffffff"
           id="g4668" />
      </g>
    </g>
  </g>
</svg>
