<?xml version="1.0" encoding="UTF-8" standalone="no"?>
<!-- Created with Inkscape (http://www.inkscape.org/) -->

<svg
   xmlns:dc="http://purl.org/dc/elements/1.1/"
   xmlns:cc="http://creativecommons.org/ns#"
   xmlns:rdf="http://www.w3.org/1999/02/22-rdf-syntax-ns#"
   xmlns:svg="http://www.w3.org/2000/svg"
   xmlns="http://www.w3.org/2000/svg"
   xmlns:sodipodi="http://sodipodi.sourceforge.net/DTD/sodipodi-0.dtd"
   xmlns:inkscape="http://www.inkscape.org/namespaces/inkscape"
   width="248.2298"
   height="49.676479"
   id="svg6583"
   version="1.1"
   inkscape:version="0.48.4 r9939"
   sodipodi:docname="New document 55">
  <defs
     id="defs6585" />
  <sodipodi:namedview
     id="base"
     pagecolor="#ffffff"
     bordercolor="#666666"
     borderopacity="1.0"
     inkscape:pageopacity="0.0"
     inkscape:pageshadow="2"
     inkscape:zoom="0.35"
     inkscape:cx="124.1149"
     inkscape:cy="24.838237"
     inkscape:document-units="px"
     inkscape:current-layer="layer1"
     showgrid="false"
     fit-margin-top="0"
     fit-margin-left="0"
     fit-margin-right="0"
     fit-margin-bottom="0"
     inkscape:window-width="463"
     inkscape:window-height="423"
     inkscape:window-x="52"
     inkscape:window-y="52"
     inkscape:window-maximized="0" />
  <metadata
     id="metadata6588">
    <rdf:RDF>
      <cc:Work
         rdf:about="">
        <dc:format>image/svg+xml</dc:format>
        <dc:type
           rdf:resource="http://purl.org/dc/dcmitype/StillImage" />
        <dc:title></dc:title>
      </cc:Work>
    </rdf:RDF>
  </metadata>
  <g
     inkscape:label="Layer 1"
     inkscape:groupmode="layer"
     id="layer1"
     transform="translate(-250.8851,-507.52394)">
    <g
       transform="translate(3.8906725,-234.30826)"
       id="g6564">
      <path
         inkscape:connector-curvature="0"
         d="m 298.89223,747.98135 c 0.79724,-2.2684 0.64808,-4.01686 -0.44943,-5.24612 -1.29604,-1.0399 -3.14064,-1.18119 -5.5338,-0.42632 -2.39289,0.7562 -4.53658,2.03214 -6.43121,3.82802 l -5.98178,5.6717 -24.86226,-5.63581 c -0.39888,-0.11833 -0.77275,-0.0238 -1.12148,0.28331 l -4.78592,4.53718 c -0.27382,0.26023 -0.38631,0.57918 -0.33629,0.95723 0.0748,0.37854 0.28679,0.66174 0.63564,0.85095 l 18.99311,9.88957 -9.68369,9.18091 -7.2532,-1.87819 c -0.0498,-0.0238 -0.14915,-0.0358 -0.29883,-0.0358 -0.34912,0 -0.63551,0.10615 -0.85997,0.31908 l -3.58902,3.43806 c -0.2492,0.28294 -0.36116,0.57855 -0.33628,0.88546 0.0495,0.37805 0.21149,0.64994 0.48596,0.81569 l 9.42152,6.69895 7.06607,8.93211 c 0.22445,0.26047 0.52368,0.41331 0.89755,0.46135 h 0.0748 c 0.34912,0 0.63551,-0.10615 0.85997,-0.31857 l 3.58888,-3.40231 c 0.32398,-0.33136 0.42377,-0.69762 0.29936,-1.09925 l -1.9817,-6.87662 9.68354,-9.18153 10.43169,18.00798 c 0.14928,0.30728 0.41092,0.49624 0.78506,0.56726 0.0744,0.0237 0.16172,0.0352 0.26177,0.0352 0.29844,0 0.5356,-0.071 0.70989,-0.21255 l 4.78658,-3.40266 c 0.42298,-0.33062 0.57266,-0.72022 0.44865,-1.16928 l -5.98192,-24.67068 6.0195,-5.70672 c 1.89383,-1.79663 3.23963,-3.82927 4.03727,-6.09768 z"
         id="path3868-8"
         style="fill:#ffffff" />
      <g
         style="font-size:40px;font-style:normal;font-weight:normal;line-height:125%;letter-spacing:0px;word-spacing:0px;fill:#ffffff;fill-opacity:1;stroke:none;font-family:Sans"
         id="text6251">
        <path
           d="m 336.08056,776.36469 0,-7.8399 4.03995,0 c 3.19745,-0.065 5.52242,-1.03498 6.97491,-2.90997 1.45246,-1.87496 2.16746,-4.26493 2.14498,-7.1699 0.0216,-2.92245 -0.68168,-5.31741 -2.10998,-7.18491 -1.42833,-1.86745 -3.71163,-2.83244 -6.84991,-2.89496 l -6.63991,0 0,27.99964 z m 0,-10.15987 0,-15.5198 4.03995,0 c 2.32746,0.0334 4.03244,0.74668 5.11494,2.13997 1.08247,1.39334 1.61746,3.26664 1.60498,5.61993 0.0116,2.35331 -0.52168,4.22662 -1.59998,5.61992 -1.07834,1.39333 -2.77165,2.10665 -5.07994,2.13998 z"
           style="fill:#ffffff;font-family:Mission Gothic Light;-inkscape-font-specification:Mission Gothic Light"
           id="path6605" />
        <path
           d="m 367.11667,776.36469 c -0.0792,-0.12334 -0.20084,-0.47667 -0.36499,-1.05999 -0.16418,-0.58333 -0.25585,-1.37665 -0.275,-2.37997 l 0,-10.43987 c -0.0375,-2.57578 -0.6325,-4.49409 -1.78497,-5.75492 -1.1525,-1.2608 -2.63748,-1.88912 -4.45495,-1.88498 -1.35249,-0.004 -2.61747,0.32419 -3.79495,0.98499 -1.17749,0.66084 -2.19247,1.67916 -3.04496,3.05496 l 1.79998,1.43998 c 0.47915,-0.99414 1.11081,-1.78579 1.89497,-2.37497 0.78415,-0.58914 1.72581,-0.8908 2.82497,-0.90499 1.25664,-0.002 2.25329,0.43252 2.98996,1.30499 0.73664,0.8725 1.1133,2.19749 1.12998,3.97495 l 0,1.67997 c -3.94995,0.0167 -6.87991,0.61334 -8.78988,1.78998 -1.90998,1.17666 -2.85997,2.83331 -2.84997,4.96994 0.0167,1.80748 0.55333,3.25246 1.60998,4.33494 1.05665,1.08249 2.5333,1.63748 4.42995,1.66498 1.50747,-0.0392 2.71245,-0.44083 3.61495,-1.20499 0.90248,-0.76415 1.57747,-1.6558 2.02497,-2.67496 0.0725,0.94249 0.17749,1.73748 0.315,2.38497 0.13748,0.64749 0.23248,1.01249 0.285,1.09499 z m -3.07996,-8.59989 c -0.003,1.89664 -0.45667,3.50329 -1.35998,4.81993 -0.90333,1.31666 -2.23665,2.00331 -3.99995,2.05998 -1.07332,-0.002 -1.98664,-0.32833 -2.73996,-0.97999 -0.75333,-0.65166 -1.14666,-1.61831 -1.17999,-2.89996 0.0142,-1.56331 0.72582,-2.74663 2.13498,-3.54996 1.40914,-0.80331 3.43078,-1.20664 6.06492,-1.20998 0.35998,10e-6 0.71998,10e-6 1.07998,0 z"
           style="fill:#ffffff;font-family:Mission Gothic Light;-inkscape-font-specification:Mission Gothic Light"
           id="path6607" />
        <path
           d="m 385.42106,758.32492 c -0.87751,-1.11997 -1.85249,-1.95996 -2.92496,-2.51997 -1.0725,-0.55997 -2.37748,-0.83997 -3.91495,-0.83999 -1.98832,0.035 -3.57163,0.56501 -4.74994,1.58998 -1.17832,1.02501 -1.78165,2.33499 -1.80998,3.92995 0.0604,1.66874 0.66457,2.91873 1.81248,3.74995 1.14789,0.83125 2.47704,1.49124 3.98745,1.97998 1.51038,0.48875 2.83953,1.05374 3.98744,1.69497 1.14789,0.64125 1.75205,1.60624 1.81248,2.89497 -0.0175,1.22415 -0.42251,2.15581 -1.21498,2.79496 -0.7925,0.63916 -1.86749,0.96082 -3.22496,0.96499 -1.26333,-0.007 -2.43664,-0.3025 -3.51996,-0.88499 -1.08332,-0.58249 -1.93664,-1.40748 -2.55996,-2.47497 -0.30334,0.26084 -0.61667,0.51916 -0.93999,0.77499 -0.32333,0.25584 -0.63666,0.50417 -0.93999,0.74499 0.82416,1.32332 1.92581,2.32664 3.30496,3.00996 1.37914,0.68333 2.89079,1.02666 4.53494,1.02999 2.18329,-0.006 3.8966,-0.52416 5.13993,-1.55498 1.2433,-1.03082 1.87663,-2.53913 1.89998,-4.52494 -0.0604,-1.7507 -0.66459,-3.07173 -1.81248,-3.96308 -1.14791,-0.89133 -2.47706,-1.58861 -3.98745,-2.09184 -1.5104,-0.50322 -2.83955,-1.048 -3.98745,-1.63436 -1.1479,-0.58633 -1.75206,-1.44986 -1.81247,-2.59059 0.0292,-1.0483 0.42082,-1.86162 1.17498,-2.43997 0.75415,-0.57831 1.69581,-0.87163 2.82497,-0.87999 1.16164,-0.005 2.14829,0.21502 2.95996,0.65999 0.81164,0.44502 1.5583,1.14501 2.23997,2.09998 z"
           style="fill:#ffffff;font-family:Mission Gothic Light;-inkscape-font-specification:Mission Gothic Light"
           id="path6609" />
        <path
           d="m 403.62418,758.32492 c -0.8775,-1.11997 -1.85249,-1.95996 -2.92496,-2.51997 -1.0725,-0.55997 -2.37748,-0.83997 -3.91495,-0.83999 -1.98831,0.035 -3.57162,0.56501 -4.74994,1.58998 -1.17832,1.02501 -1.78164,2.33499 -1.80997,3.92995 0.0604,1.66874 0.66457,2.91873 1.81247,3.74995 1.1479,0.83125 2.47705,1.49124 3.98745,1.97998 1.51039,0.48875 2.83954,1.05374 3.98745,1.69497 1.14789,0.64125 1.75205,1.60624 1.81248,2.89497 -0.0175,1.22415 -0.42251,2.15581 -1.21499,2.79496 -0.7925,0.63916 -1.86748,0.96082 -3.22496,0.96499 -1.26332,-0.007 -2.43664,-0.3025 -3.51995,-0.88499 -1.08333,-0.58249 -1.93665,-1.40748 -2.55997,-2.47497 -0.30333,0.26084 -0.61666,0.51916 -0.93999,0.77499 -0.32333,0.25584 -0.63666,0.50417 -0.93998,0.74499 0.82415,1.32332 1.9258,2.32664 3.30495,3.00996 1.37915,0.68333 2.89079,1.02666 4.53495,1.02999 2.18329,-0.006 3.8966,-0.52416 5.13993,-1.55498 1.2433,-1.03082 1.87662,-2.53913 1.89997,-4.52494 -0.0604,-1.7507 -0.66459,-3.07173 -1.81247,-3.96308 -1.14792,-0.89133 -2.47707,-1.58861 -3.98745,-2.09184 -1.51041,-0.50322 -2.83956,-1.048 -3.98745,-1.63436 -1.14791,-0.58633 -1.75207,-1.44986 -1.81248,-2.59059 0.0292,-1.0483 0.42083,-1.86162 1.17499,-2.43997 0.75415,-0.57831 1.6958,-0.87163 2.82496,-0.87999 1.16164,-0.005 2.1483,0.21502 2.95996,0.65999 0.81165,0.44502 1.5583,1.14501 2.23998,2.09998 z"
           style="fill:#ffffff;font-family:Mission Gothic Light;-inkscape-font-specification:Mission Gothic Light"
           id="path6611" />
        <path
           d="m 420.58732,770.36476 c -0.48917,1.43499 -1.14083,2.49497 -1.95497,3.17996 -0.81417,0.68499 -1.85582,1.02499 -3.12496,1.01999 -1.69999,-0.0233 -2.98997,-0.72666 -3.86995,-2.10997 -0.87999,-1.38331 -1.34999,-3.30662 -1.40998,-5.76993 l 12.51984,0 0,-0.75999 c 0.0367,-3.32994 -0.50668,-5.98991 -1.62998,-7.9799 -1.12334,-1.98995 -3.04664,-3.00994 -5.76993,-3.05996 -2.39747,0.0317 -4.25245,1.00834 -5.56493,2.92996 -1.31248,1.92166 -1.97747,4.59829 -1.99497,8.0299 0.015,3.44746 0.67499,6.12243 1.97997,8.0249 1.30498,1.90247 3.16496,2.86746 5.57993,2.89496 1.86163,-0.003 3.36828,-0.44749 4.51994,-1.33498 1.15164,-0.88749 2.0583,-2.20247 2.71997,-3.94495 z m -10.35986,-5.71992 c 0.12166,-2.36579 0.61832,-4.2241 1.48998,-5.57493 0.87165,-1.3508 2.1083,-2.03912 3.70995,-2.06498 1.6833,0.0159 2.90662,0.68418 3.66995,2.00498 0.76331,1.32083 1.16664,3.19914 1.20999,5.63493 z"
           style="fill:#ffffff;font-family:Mission Gothic Light;-inkscape-font-specification:Mission Gothic Light"
           id="path6613" />
        <path
           d="m 441.85729,776.36469 0,-12.99984 c 0.0442,-2.36579 -0.39418,-4.35409 -1.31498,-5.96492 -0.92084,-1.61079 -2.58915,-2.44911 -5.00494,-2.51497 -1.28332,0.009 -2.39664,0.35085 -3.33995,1.02499 -0.94333,0.67418 -1.69666,1.62583 -2.25997,2.85496 l -0.08,0 c -0.0408,-0.94997 -0.13917,-1.75996 -0.295,-2.42997 -0.15584,-0.66997 -0.24417,-1.01996 -0.265,-1.04998 l -2.31997,0 c 0.0775,0.12835 0.1925,0.49168 0.345,1.08998 0.15249,0.59835 0.23749,1.38167 0.255,2.34997 l 0,17.63978 2.43996,0 0,-12.15985 c -0.003,-2.02912 0.41333,-3.71077 1.24999,-5.04493 0.83665,-1.33413 2.1133,-2.02579 3.82995,-2.07498 1.63247,0.0267 2.76745,0.65335 3.40496,1.87998 0.63747,1.22667 0.94247,2.89331 0.91498,4.99993 l 0,12.39985 z"
           style="fill:#ffffff;font-family:Mission Gothic Light;-inkscape-font-specification:Mission Gothic Light"
           id="path6615" />
        <path
           d="m 458.33921,777.08468 c 0.008,1.66497 -0.33834,2.99495 -1.03999,3.98994 -0.70167,0.99499 -1.80832,1.50498 -3.31995,1.52998 -1.0475,-0.003 -1.95248,-0.2975 -2.71497,-0.88498 -0.76249,-0.5875 -1.33749,-1.45249 -1.72498,-2.59497 l -2.07997,1.27998 c 0.64749,1.57248 1.53248,2.72746 2.65497,3.46496 1.12248,0.73748 2.43746,1.10247 3.94495,1.09498 2.15246,-0.0258 3.80743,-0.75416 4.96493,-2.18497 1.15747,-1.43082 1.74246,-3.40912 1.75498,-5.93492 l 0,-18.11977 c 0.004,-0.9683 0.0958,-1.75162 0.275,-2.34997 0.17914,-0.5983 0.30081,-0.96163 0.36499,-1.08998 l -2.35997,0 c -0.0183,0.0192 -0.10168,0.29085 -0.25,0.81499 -0.14834,0.52418 -0.25167,1.18583 -0.30999,1.98497 l -0.08,0 c -0.46084,-0.9208 -1.09916,-1.67913 -1.91498,-2.27497 -0.81583,-0.5958 -1.80415,-0.90413 -2.96496,-0.92499 -2.30747,0.0175 -4.06245,0.92251 -5.26493,2.71497 -1.20249,1.79249 -1.80748,4.36746 -1.81498,7.7249 0.0108,3.34496 0.60916,5.93492 1.79498,7.7699 1.18581,1.83497 2.89412,2.76496 5.12494,2.78996 1.29247,-0.0267 2.33745,-0.36333 3.13495,-1.00999 0.79748,-0.64665 1.39247,-1.44331 1.78498,-2.38996 l 0.08,0 c -0.002,0.0117 -0.008,0.25833 -0.02,0.73998 -0.0117,0.48167 -0.0183,1.12833 -0.02,1.93998 z m 0,-9.83988 c -0.006,1.89248 -0.40417,3.41746 -1.19498,4.57494 -0.79084,1.15749 -1.93916,1.75248 -3.44496,1.78498 -1.70332,-0.0225 -2.92663,-0.75749 -3.66995,-2.20497 -0.74333,-1.44748 -1.10666,-3.47245 -1.08999,-6.07492 -0.0158,-2.58162 0.35583,-4.58826 1.11499,-6.01993 0.75915,-1.43163 2.0008,-2.15828 3.72495,-2.17997 1.58997,0.0559 2.74995,0.70418 3.47996,1.94498 0.72997,1.24083 1.08997,2.73914 1.07998,4.49494 z"
           style="fill:#ffffff;font-family:Mission Gothic Light;-inkscape-font-specification:Mission Gothic Light"
           id="path6617" />
        <path
           d="m 478.6342,770.36476 c -0.48917,1.43499 -1.14083,2.49497 -1.95498,3.17996 -0.81416,0.68499 -1.85582,1.02499 -3.12495,1.01999 -1.69999,-0.0233 -2.98997,-0.72666 -3.86996,-2.10997 -0.87999,-1.38331 -1.34998,-3.30662 -1.40998,-5.76993 l 12.51984,0 0,-0.75999 c 0.0367,-3.32994 -0.50667,-5.98991 -1.62998,-7.9799 -1.12333,-1.98995 -3.04664,-3.00994 -5.76992,-3.05996 -2.39748,0.0317 -4.25245,1.00834 -5.56493,2.92996 -1.31249,1.92166 -1.97748,4.59829 -1.99498,8.0299 0.015,3.44746 0.67499,6.12243 1.97998,8.0249 1.30498,1.90247 3.16495,2.86746 5.57993,2.89496 1.86163,-0.003 3.36827,-0.44749 4.51994,-1.33498 1.15164,-0.88749 2.05829,-2.20247 2.71996,-3.94495 z m -10.35987,-5.71992 c 0.12166,-2.36579 0.61832,-4.2241 1.48998,-5.57493 0.87165,-1.3508 2.1083,-2.03912 3.70996,-2.06498 1.6833,0.0159 2.90661,0.68418 3.66995,2.00498 0.76331,1.32083 1.16664,3.19914 1.20998,5.63493 z"
           style="fill:#ffffff;font-family:Mission Gothic Light;-inkscape-font-specification:Mission Gothic Light"
           id="path6619" />
        <path
           d="m 488.06432,776.36469 0,-12.55984 c 0.0283,-1.96413 0.52165,-3.51578 1.47998,-4.65494 0.95831,-1.13914 2.21163,-1.7208 3.75995,-1.74498 0.28249,0.003 0.54748,0.0275 0.79499,0.075 0.24749,0.0475 0.46248,0.10252 0.64499,0.165 l 0.48,-2.59997 c -0.21751,-0.04 -0.43251,-0.07 -0.64499,-0.09 -0.21251,-0.02 -0.43751,-0.03 -0.675,-0.03 -1.38499,0.003 -2.57497,0.34752 -3.56995,1.03499 -0.99499,0.68751 -1.76498,1.70249 -2.30997,3.04496 l -0.08,0 c -0.0425,-1.01247 -0.1475,-1.87746 -0.315,-2.59497 -0.1675,-0.71747 -0.2625,-1.09246 -0.28499,-1.12498 l -2.31997,0 c 0.0775,0.12835 0.19249,0.49168 0.34499,1.08998 0.1525,0.59835 0.2375,1.38167 0.255,2.34997 l 0,17.63978 z"
           style="fill:#ffffff;font-family:Mission Gothic Light;-inkscape-font-specification:Mission Gothic Light"
           id="path6621" />
      </g>
    </g>
  </g>
</svg>
