<?xml version="1.0" encoding="UTF-8" standalone="no"?>
<!-- Created with Inkscape (http://www.inkscape.org/) -->

<svg
   xmlns:dc="http://purl.org/dc/elements/1.1/"
   xmlns:cc="http://creativecommons.org/ns#"
   xmlns:rdf="http://www.w3.org/1999/02/22-rdf-syntax-ns#"
   xmlns:svg="http://www.w3.org/2000/svg"
   xmlns="http://www.w3.org/2000/svg"
   xmlns:sodipodi="http://sodipodi.sourceforge.net/DTD/sodipodi-0.dtd"
   xmlns:inkscape="http://www.inkscape.org/namespaces/inkscape"
   width="293.34824"
   height="96.279549"
   id="svg7916"
   version="1.1"
   inkscape:version="0.48.4 r9939"
   sodipodi:docname="go_btn.svg">
  <defs
     id="defs7918" />
  <sodipodi:namedview
     id="base"
     pagecolor="#ffffff"
     bordercolor="#666666"
     borderopacity="1.0"
     inkscape:pageopacity="0.0"
     inkscape:pageshadow="2"
     inkscape:zoom="0.35"
     inkscape:cx="156.1407"
     inkscape:cy="97.622698"
     inkscape:document-units="px"
     inkscape:current-layer="layer1"
     showgrid="false"
     fit-margin-top="0"
     fit-margin-left="0"
     fit-margin-right="0"
     fit-margin-bottom="0"
     inkscape:window-width="463"
     inkscape:window-height="423"
     inkscape:window-x="104"
     inkscape:window-y="104"
     inkscape:window-maximized="0" />
  <metadata
     id="metadata7921">
    <rdf:RDF>
      <cc:Work
         rdf:about="">
        <dc:format>image/svg+xml</dc:format>
        <dc:type
           rdf:resource="http://purl.org/dc/dcmitype/StillImage" />
        <dc:title></dc:title>
      </cc:Work>
    </rdf:RDF>
  </metadata>
  <g
     inkscape:label="Layer 1"
     inkscape:groupmode="layer"
     id="layer1"
     transform="translate(-218.8593,-533.70533)">
    <g
       transform="translate(-1001.7117,-59.906798)"
       id="g7664">
      <g
         style="font-size:40px;font-style:normal;font-weight:normal;line-height:100%;letter-spacing:0px;word-spacing:0px;fill:#ffffff;fill-opacity:1;stroke:none;font-family:Sans"
         id="text6251-3-0-38">
        <path
           inkscape:connector-curvature="0"
           d="m 1303.6368,625.29175 0,-7.8399 4.04,0 c 3.1974,-0.065 5.5224,-1.03498 6.9749,-2.90996 1.4525,-1.87497 2.1674,-4.26493 2.145,-7.16991 0.022,-2.92244 -0.6817,-5.31741 -2.11,-7.18491 -1.4283,-1.86745 -3.7116,-2.83244 -6.8499,-2.89496 l -6.6399,0 0,27.99964 z m 0,-10.15987 0,-15.5198 4.04,0 c 2.3274,0.0334 4.0324,0.74668 5.1149,2.13997 1.0825,1.39334 1.6175,3.26665 1.605,5.61993 0.012,2.35332 -0.5217,4.22662 -1.6,5.61993 -1.0783,1.39332 -2.7716,2.10665 -5.0799,2.13997 z"
           style="fill:#ffffff;font-family:Mission Gothic Light;-inkscape-font-specification:Mission Gothic Light"
           id="path7741" />
        <path
           inkscape:connector-curvature="0"
           d="m 1334.553,625.29175 0,-2.31997 -10.7599,0 0,-25.67967 -2.44,0 0,27.99964 z"
           style="fill:#ffffff;font-family:Mission Gothic Light;-inkscape-font-specification:Mission Gothic Light"
           id="path7743" />
        <path
           inkscape:connector-curvature="0"
           d="m 1354.0129,625.29175 -7.8399,-27.99964 -2.2799,0 -7.8399,27.99964 2.5199,0 1.92,-6.83991 9.0399,0 1.92,6.83991 z m -4.9999,-9.07989 -7.9599,0 3.2,-11.75984 c 0.1874,-0.68664 0.3524,-1.3533 0.4949,-1.99998 0.1425,-0.64663 0.2175,-0.9933 0.225,-1.03998 l 0.08,0 c 0.01,0.0467 0.091,0.39335 0.245,1.03998 0.1542,0.64668 0.3259,1.31334 0.515,1.99998 z"
           style="fill:#ffffff;font-family:Mission Gothic Light;-inkscape-font-specification:Mission Gothic Light"
           id="path7745" />
        <path
           inkscape:connector-curvature="0"
           d="m 1364.6355,625.29175 0,-8.2799 7.1199,-19.71974 -2.6799,0 -4.6,13.27983 c -0.2675,0.79917 -0.4925,1.59082 -0.675,2.37497 -0.1825,0.78416 -0.2775,1.20583 -0.285,1.26498 l -0.08,0 c -0.01,-0.0592 -0.1108,-0.48082 -0.3049,-1.26498 -0.1942,-0.78415 -0.4259,-1.5758 -0.695,-2.37497 l -4.68,-13.27983 -2.6399,0 7.0799,19.63975 0,8.35989 z"
           style="fill:#ffffff;font-family:Mission Gothic Light;-inkscape-font-specification:Mission Gothic Light"
           id="path7747" />
        <path
           inkscape:connector-curvature="0"
           d="m 1387.8806,624.17176 c -0.01,-0.44999 -0.16,-0.81999 -0.45,-1.10998 -0.29,-0.29 -0.66,-0.44 -1.11,-0.45 -0.4308,0.01 -0.7891,0.16 -1.075,0.45 -0.2858,0.28999 -0.4341,0.65999 -0.445,1.10998 0.011,0.43083 0.1592,0.78916 0.445,1.07499 0.2859,0.28583 0.6442,0.43416 1.075,0.44499 0.45,-0.0108 0.82,-0.15916 1.11,-0.44499 0.29,-0.28583 0.44,-0.64416 0.45,-1.07499 z m 0,-13.07983 c -0.01,-0.44998 -0.16,-0.81997 -0.45,-1.10999 -0.29,-0.28998 -0.66,-0.43997 -1.11,-0.44999 -0.4308,0.01 -0.7891,0.16001 -1.075,0.45 -0.2858,0.29001 -0.4341,0.66 -0.445,1.10998 0.011,0.43084 0.1592,0.78917 0.445,1.07499 0.2859,0.28584 0.6442,0.43417 1.075,0.44499 0.45,-0.0108 0.82,-0.15915 1.11,-0.44499 0.29,-0.28582 0.44,-0.64415 0.45,-1.07499 z"
           style="fill:#ffffff;font-family:Mission Gothic Light;-inkscape-font-specification:Mission Gothic Light"
           id="path7749" />
        <path
           inkscape:connector-curvature="0"
           d="m 1392.8244,628.9717 c 1.0383,-1.49082 1.9416,-3.66912 2.7099,-6.53492 0.7684,-2.86579 1.1717,-6.59407 1.21,-11.18485 -0.038,-4.56992 -0.4416,-8.27987 -1.21,-11.12986 -0.7683,-2.84993 -1.6716,-5.0199 -2.7099,-6.50991 l -1.84,1.23998 c 1.0358,1.45334 1.8641,3.53665 2.485,6.24992 0.6208,2.71332 0.9391,6.09661 0.955,10.14987 -0.016,4.07412 -0.3342,7.47574 -0.955,10.20487 -0.6209,2.72913 -1.4492,4.82077 -2.485,6.27492 z"
           style="fill:#ffffff;font-family:Mission Gothic Light;-inkscape-font-specification:Mission Gothic Light"
           id="path7751" />
        <path
           inkscape:connector-curvature="0"
           d="m 1309.6528,656.29175 0,-1.62398 -7.7839,0 0,-6.52392 6.6919,0 0,-1.62398 -6.6919,0 0,-8.17589 7.7839,0 0,-1.65198 -9.4919,0 0,19.59975 z"
           style="font-size:28px;line-height:100%;fill:#ffffff;font-family:Mission Gothic Light;-inkscape-font-specification:Mission Gothic Light"
           id="path7753" />
        <path
           inkscape:connector-curvature="0"
           d="m 1322.706,656.29175 -3.9479,-7.36391 3.9479,-7.3919 -1.82,0 -2.3519,4.47994 c -0.2404,0.46667 -0.4387,0.86333 -0.595,1.18998 -0.1564,0.32668 -0.2567,0.55534 -0.301,0.686 l -0.056,0 c -0.058,-0.14349 -0.1663,-0.37449 -0.3255,-0.693 -0.1593,-0.31848 -0.3588,-0.70348 -0.5985,-1.15498 l -2.352,-4.50794 -1.8199,0 3.9479,7.3919 -3.9479,7.36391 1.8199,0 2.352,-4.45194 c 0.2712,-0.52033 0.4917,-0.96365 0.6615,-1.32999 0.1697,-0.36632 0.2572,-0.55765 0.2625,-0.57399 l 0.056,0 c 0,0.0169 0.086,0.20709 0.245,0.57049 0.1586,0.36342 0.3663,0.79858 0.623,1.30549 l 2.3799,4.47994 z"
           style="font-size:28px;line-height:100%;fill:#ffffff;font-family:Mission Gothic Light;-inkscape-font-specification:Mission Gothic Light"
           id="path7755" />
        <path
           inkscape:connector-curvature="0"
           d="m 1327.5121,661.89168 0,-5.48793 c 0,-0.56408 -0.01,-1.04591 -0.014,-1.44549 -0.01,-0.39957 -0.013,-0.6084 -0.014,-0.62649 l 0.056,0 c 0.3429,0.68133 0.7979,1.22265 1.3649,1.62398 0.567,0.40133 1.288,0.60666 2.163,0.61599 1.5569,-0.0239 2.734,-0.70407 3.5315,-2.04047 0.7974,-1.3364 1.1975,-3.18554 1.2004,-5.54743 -0.01,-2.41671 -0.4316,-4.30318 -1.2669,-5.65943 -0.8354,-1.35621 -2.0277,-2.0457 -3.577,-2.06847 -0.9036,0.0204 -1.6374,0.2526 -2.2015,0.69649 -0.564,0.44393 -0.9969,0.97709 -1.2984,1.59948 l -0.056,0 c -0.053,-0.53723 -0.129,-1.00272 -0.2275,-1.39648 -0.099,-0.39373 -0.1535,-0.60023 -0.1645,-0.61949 l -1.624,0 c 0.054,0.0898 0.1347,0.34417 0.2415,0.76299 0.1067,0.41884 0.1662,0.96717 0.1785,1.64498 l 0,17.94777 z m 0,-14.39182 c 0,-1.36964 0.256,-2.48029 0.7804,-3.33196 0.5244,-0.85164 1.3376,-1.2903 2.4395,-1.31598 1.1935,0.0269 2.0545,0.58917 2.583,1.68698 0.5285,1.09783 0.7875,2.57014 0.777,4.41694 0.011,1.87015 -0.2491,3.3448 -0.7805,4.42395 -0.5314,1.07915 -1.4006,1.62981 -2.6075,1.65197 -1.1497,-0.0402 -1.9722,-0.51274 -2.4675,-1.41748 -0.4952,-0.90473 -0.7367,-2.00022 -0.7244,-3.28646 z"
           style="font-size:28px;line-height:100%;fill:#ffffff;font-family:Mission Gothic Light;-inkscape-font-specification:Mission Gothic Light"
           id="path7757" />
        <path
           inkscape:connector-curvature="0"
           d="m 1340.8799,656.29175 0,-20.43974 -1.708,0 0,20.43974 z"
           style="font-size:28px;line-height:100%;fill:#ffffff;font-family:Mission Gothic Light;-inkscape-font-specification:Mission Gothic Light"
           id="path7759" />
        <path
           inkscape:connector-curvature="0"
           d="m 1349.4806,655.00376 c -1.2004,-0.0251 -2.0894,-0.5839 -2.6669,-1.67647 -0.5775,-1.09257 -0.8645,-2.56838 -0.861,-4.42745 0,-1.8713 0.2835,-3.35061 0.861,-4.43794 0.5775,-1.08731 1.4665,-1.64263 2.6669,-1.66598 1.2139,0.0233 2.1111,0.57867 2.6915,1.66598 0.5804,1.08733 0.8686,2.56664 0.8645,4.43794 0,1.88357 -0.2841,3.36638 -0.8645,4.44845 -0.5804,1.08207 -1.4776,1.63389 -2.6915,1.65547 z m 0,1.56798 c 1.7395,-0.0204 3.0555,-0.70057 3.948,-2.04047 0.8925,-1.3399 1.3405,-3.21704 1.344,-5.63143 0,-2.40096 -0.4515,-4.26993 -1.344,-5.60693 -0.8925,-1.33696 -2.2085,-2.01595 -3.948,-2.03697 -1.726,0.021 -3.0338,0.70001 -3.9234,2.03698 -0.8896,1.33699 -1.3364,3.20596 -1.3405,5.60692 0,2.41439 0.4509,4.29153 1.3405,5.63143 0.8896,1.3399 2.1974,2.02006 3.9234,2.04047 z"
           style="font-size:28px;line-height:100%;fill:#ffffff;font-family:Mission Gothic Light;-inkscape-font-specification:Mission Gothic Light"
           id="path7761" />
        <path
           inkscape:connector-curvature="0"
           d="m 1359.9417,656.29175 0,-8.79189 c 0.02,-1.37489 0.3652,-2.46104 1.036,-3.25846 0.6708,-0.79739 1.5482,-1.20455 2.632,-1.22148 0.1977,0.002 0.3832,0.0193 0.5565,0.0525 0.1732,0.0333 0.3237,0.0718 0.4515,0.1155 l 0.336,-1.81998 c -0.1523,-0.028 -0.3028,-0.049 -0.4515,-0.063 -0.1488,-0.014 -0.3063,-0.021 -0.4725,-0.021 -0.9695,0.002 -1.8025,0.24326 -2.499,0.72449 -0.6965,0.48126 -1.2355,1.19175 -1.617,2.13147 l -0.056,0 c -0.03,-0.70872 -0.1032,-1.31421 -0.2205,-1.81647 -0.1172,-0.50223 -0.1837,-0.76473 -0.1995,-0.78749 l -1.6239,0 c 0.054,0.0898 0.1347,0.34417 0.2415,0.76299 0.1067,0.41884 0.1662,0.96717 0.1785,1.64498 l 0,12.34784 z"
           style="font-size:28px;line-height:100%;fill:#ffffff;font-family:Mission Gothic Light;-inkscape-font-specification:Mission Gothic Light"
           id="path7763" />
        <path
           inkscape:connector-curvature="0"
           d="m 1375.5985,652.0918 c -0.3425,1.00449 -0.7986,1.74648 -1.3685,2.22597 -0.5699,0.4795 -1.2991,0.7175 -2.1875,0.71399 -1.19,-0.0163 -2.093,-0.50865 -2.709,-1.47698 -0.6159,-0.96831 -0.9449,-2.31463 -0.9869,-4.03894 l 8.7638,0 0,-0.532 c 0.026,-2.33096 -0.3546,-4.19293 -1.1409,-5.58593 -0.7864,-1.39296 -2.1327,-2.10695 -4.039,-2.14197 -1.6782,0.0222 -2.9767,0.70584 -3.8954,2.05098 -0.9188,1.34516 -1.3843,3.2188 -1.3965,5.62092 0.011,2.41323 0.4725,4.2857 1.386,5.61743 0.9134,1.33173 2.2154,2.00722 3.9059,2.02647 1.3032,-0.002 2.3578,-0.31324 3.164,-0.93448 0.8061,-0.62124 1.4408,-1.54173 1.904,-2.76147 z m -7.2519,-4.00395 c 0.085,-1.65605 0.4328,-2.95686 1.0429,-3.90245 0.6102,-0.94556 1.4759,-1.42738 2.597,-1.44548 1.1783,0.0111 2.0346,0.47893 2.569,1.40348 0.5343,0.92459 0.8166,2.2394 0.847,3.94445 z"
           style="font-size:28px;line-height:100%;fill:#ffffff;font-family:Mission Gothic Light;-inkscape-font-specification:Mission Gothic Light"
           id="path7765" />
        <path
           inkscape:connector-curvature="0"
           d="m 1393.7569,654.35977 c -0.231,0.18492 -0.504,0.33308 -0.819,0.4445 -0.315,0.11141 -0.63,0.16858 -0.9449,0.17149 -0.6195,-0.003 -1.0955,-0.21407 -1.428,-0.63349 -0.3325,-0.41941 -0.5005,-1.02956 -0.504,-1.83047 l 0,-9.46388 3.3879,0 0,-1.51198 -3.3879,0 0,-3.52796 -1.68,0 0,3.52796 -1.988,0 0,1.51198 1.988,0 0,9.54788 c -0.01,1.2559 0.2712,2.23005 0.8295,2.92246 0.5582,0.69241 1.4297,1.04357 2.6145,1.05348 0.5063,-0.007 0.9706,-0.084 1.3929,-0.23099 0.4224,-0.147 0.7887,-0.322 1.099,-0.525 z"
           style="font-size:28px;line-height:100%;fill:#ffffff;font-family:Mission Gothic Light;-inkscape-font-specification:Mission Gothic Light"
           id="path7767" />
        <path
           inkscape:connector-curvature="0"
           d="m 1406.8351,656.29175 0,-9.09988 c 0.031,-1.65606 -0.276,-3.04787 -0.9205,-4.17545 -0.6446,-1.12756 -1.8124,-1.71438 -3.5035,-1.76048 -0.8703,0.007 -1.6286,0.23801 -2.2749,0.69299 -0.6464,0.45501 -1.1667,1.092 -1.561,1.91098 l -0.056,0 c 0,-0.0321 0.01,-0.2689 0.014,-0.71049 0.01,-0.44157 0.013,-0.89539 0.014,-1.36149 l 0,-5.93592 -1.68,0 0,20.43974 1.68,0 0,-9.07189 c 0.02,-1.34805 0.3581,-2.41787 1.015,-3.20945 0.6568,-0.79156 1.5131,-1.19639 2.5689,-1.21449 1.008,0.0199 1.764,0.42818 2.268,1.22499 0.504,0.79683 0.756,1.86315 0.756,3.19895 l 0,9.07189 z"
           style="font-size:28px;line-height:100%;fill:#ffffff;font-family:Mission Gothic Light;-inkscape-font-specification:Mission Gothic Light"
           id="path7769" />
        <path
           inkscape:connector-curvature="0"
           d="m 1418.9657,652.0918 c -0.3425,1.00449 -0.7986,1.74648 -1.3685,2.22597 -0.5699,0.4795 -1.2991,0.7175 -2.1875,0.71399 -1.19,-0.0163 -2.093,-0.50865 -2.709,-1.47698 -0.616,-0.96831 -0.945,-2.31463 -0.987,-4.03894 l 8.7639,0 0,-0.532 c 0.026,-2.33096 -0.3546,-4.19293 -1.1409,-5.58593 -0.7864,-1.39296 -2.1327,-2.10695 -4.039,-2.14197 -1.6782,0.0222 -2.9767,0.70584 -3.8954,2.05098 -0.9188,1.34516 -1.3843,3.2188 -1.3965,5.62092 0.011,2.41323 0.4725,4.2857 1.386,5.61743 0.9134,1.33173 2.2154,2.00722 3.9059,2.02647 1.3031,-0.002 2.3578,-0.31324 3.164,-0.93448 0.8061,-0.62124 1.4408,-1.54173 1.9039,-2.76147 z m -7.252,-4.00395 c 0.085,-1.65605 0.4329,-2.95686 1.043,-3.90245 0.6102,-0.94556 1.4758,-1.42738 2.597,-1.44548 1.1783,0.0111 2.0346,0.47893 2.569,1.40348 0.5343,0.92459 0.8166,2.2394 0.847,3.94445 z"
           style="font-size:28px;line-height:100%;fill:#ffffff;font-family:Mission Gothic Light;-inkscape-font-specification:Mission Gothic Light"
           id="path7771" />
        <path
           inkscape:connector-curvature="0"
           d="m 1432.7002,656.29175 0,-20.43974 -1.708,0 0,20.43974 z"
           style="font-size:28px;line-height:100%;fill:#ffffff;font-family:Mission Gothic Light;-inkscape-font-specification:Mission Gothic Light"
           id="path7773" />
        <path
           inkscape:connector-curvature="0"
           d="m 1441.301,655.00376 c -1.2005,-0.0251 -2.0895,-0.5839 -2.667,-1.67647 -0.5775,-1.09257 -0.8645,-2.56838 -0.861,-4.42745 0,-1.8713 0.2835,-3.35061 0.861,-4.43794 0.5775,-1.08731 1.4665,-1.64263 2.667,-1.66598 1.2138,0.0233 2.111,0.57867 2.6914,1.66598 0.5804,1.08733 0.8686,2.56664 0.8645,4.43794 0,1.88357 -0.2841,3.36638 -0.8645,4.44845 -0.5804,1.08207 -1.4776,1.63389 -2.6914,1.65547 z m 0,1.56798 c 1.7394,-0.0204 3.0554,-0.70057 3.9479,-2.04047 0.8925,-1.3399 1.3405,-3.21704 1.344,-5.63143 0,-2.40096 -0.4515,-4.26993 -1.344,-5.60693 -0.8925,-1.33696 -2.2085,-2.01595 -3.9479,-2.03697 -1.7261,0.021 -3.0339,0.70001 -3.9235,2.03698 -0.8896,1.33699 -1.3364,3.20596 -1.3405,5.60692 0,2.41439 0.4509,4.29153 1.3405,5.63143 0.8896,1.3399 2.1974,2.02006 3.9235,2.04047 z"
           style="font-size:28px;line-height:100%;fill:#ffffff;font-family:Mission Gothic Light;-inkscape-font-specification:Mission Gothic Light"
           id="path7775" />
        <path
           inkscape:connector-curvature="0"
           d="m 1457.81,652.0358 c -0.2625,0.90649 -0.6545,1.62048 -1.176,2.14197 -0.5215,0.5215 -1.1935,0.7875 -2.016,0.79799 -1.2261,-0.0227 -2.1268,-0.57224 -2.7019,-1.64847 -0.5752,-1.07624 -0.8599,-2.54272 -0.854,-4.39945 0,-1.87013 0.284,-3.34478 0.8645,-4.42394 0.5804,-1.07914 1.4775,-1.6298 2.6914,-1.65198 0.8237,0.008 1.4933,0.26484 2.009,0.76999 0.5156,0.50517 0.8913,1.20983 1.127,2.11397 l 1.484,-0.81199 c -0.3705,-1.1328 -0.9316,-2.02412 -1.6835,-2.67396 -0.7519,-0.64981 -1.7401,-0.98114 -2.9645,-0.99399 -1.6893,0.0204 -2.9866,0.70059 -3.8919,2.04048 -0.9054,1.33991 -1.3627,3.21705 -1.372,5.63142 0.01,2.41323 0.4614,4.2857 1.3615,5.61743 0.9,1.33173 2.2009,2.00722 3.9024,2.02647 1.2396,-0.0111 2.2394,-0.34591 2.9995,-1.00448 0.76,-0.65858 1.3189,-1.5744 1.6765,-2.74747 z"
           style="font-size:28px;line-height:100%;fill:#ffffff;font-family:Mission Gothic Light;-inkscape-font-specification:Mission Gothic Light"
           id="path7777" />
        <path
           inkscape:connector-curvature="0"
           d="m 1471.88,656.29175 c -0.056,-0.0863 -0.1406,-0.33366 -0.2555,-0.74199 -0.115,-0.40833 -0.1791,-0.96366 -0.1925,-1.66598 l 0,-7.30791 c -0.026,-1.80305 -0.4428,-3.14586 -1.2495,-4.02845 -0.8068,-0.88255 -1.8463,-1.32238 -3.1185,-1.31948 -0.9467,-0.003 -1.8322,0.22693 -2.6565,0.68949 -0.8242,0.46259 -1.5347,1.17542 -2.1314,2.13848 l 1.26,1.00798 c 0.3354,-0.69589 0.7775,-1.25005 1.3264,-1.66248 0.5489,-0.41239 1.2081,-0.62356 1.9775,-0.63349 0.8797,-0.002 1.5773,0.30276 2.093,0.91349 0.5156,0.61076 0.7793,1.53824 0.791,2.78246 l 0,1.17599 c -2.765,0.0117 -4.816,0.42934 -6.1529,1.25298 -1.337,0.82367 -2.002,1.98332 -1.995,3.47896 0.012,1.26523 0.3873,2.27672 1.127,3.03446 0.7396,0.75774 1.7733,1.14623 3.1009,1.16548 1.0553,-0.0274 1.8987,-0.30858 2.5305,-0.84349 0.6317,-0.5349 1.1042,-1.15906 1.4175,-1.87247 0.051,0.65974 0.1242,1.21623 0.2205,1.66948 0.096,0.45324 0.1627,0.70874 0.1995,0.76649 z m -2.156,-6.01992 c 0,1.32765 -0.3197,2.4523 -0.952,3.37395 -0.6323,0.92166 -1.5657,1.40232 -2.8,1.44198 -0.7513,-10e-4 -1.3906,-0.22983 -1.9179,-0.68599 -0.5274,-0.45616 -0.8027,-1.13281 -0.826,-2.02997 0.01,-1.09432 0.508,-1.92264 1.4944,-2.48497 0.9864,-0.56232 2.4016,-0.84465 4.2455,-0.84699 0.252,10e-6 0.504,10e-6 0.756,0 z"
           style="font-size:28px;line-height:100%;fill:#ffffff;font-family:Mission Gothic Light;-inkscape-font-specification:Mission Gothic Light"
           id="path7779" />
        <path
           inkscape:connector-curvature="0"
           d="m 1481.5851,654.35977 c -0.231,0.18492 -0.504,0.33308 -0.819,0.4445 -0.315,0.11141 -0.63,0.16858 -0.945,0.17149 -0.6195,-0.003 -1.0955,-0.21407 -1.428,-0.63349 -0.3325,-0.41941 -0.5005,-1.02956 -0.504,-1.83047 l 0,-9.46388 3.388,0 0,-1.51198 -3.388,0 0,-3.52796 -1.68,0 0,3.52796 -1.9879,0 0,1.51198 1.9879,0 0,9.54788 c -0.01,1.2559 0.2713,2.23005 0.8295,2.92246 0.5583,0.69241 1.4297,1.04357 2.6145,1.05348 0.5063,-0.007 0.9706,-0.084 1.393,-0.23099 0.4223,-0.147 0.7886,-0.322 1.099,-0.525 z"
           style="font-size:28px;line-height:100%;fill:#ffffff;font-family:Mission Gothic Light;-inkscape-font-specification:Mission Gothic Light"
           id="path7781" />
        <path
           inkscape:connector-curvature="0"
           d="m 1486.4873,656.29175 0,-14.75581 -1.708,0 0,14.75581 z m 0.224,-18.11577 c -0.01,-0.31498 -0.112,-0.57397 -0.315,-0.77699 -0.203,-0.20298 -0.462,-0.30798 -0.777,-0.31499 -0.3016,0.007 -0.5524,0.11201 -0.7525,0.31499 -0.2001,0.20302 -0.3039,0.46201 -0.3115,0.77699 0.01,0.3016 0.1114,0.55243 0.3115,0.75249 0.2001,0.2001 0.4509,0.30393 0.7525,0.3115 0.315,-0.008 0.574,-0.1114 0.777,-0.3115 0.203,-0.20006 0.308,-0.45089 0.315,-0.75249 z"
           style="font-size:28px;line-height:100%;fill:#ffffff;font-family:Mission Gothic Light;-inkscape-font-specification:Mission Gothic Light"
           id="path7783" />
        <path
           inkscape:connector-curvature="0"
           d="m 1495.1681,655.00376 c -1.2004,-0.0251 -2.0894,-0.5839 -2.6669,-1.67647 -0.5775,-1.09257 -0.8645,-2.56838 -0.861,-4.42745 0,-1.8713 0.2835,-3.35061 0.861,-4.43794 0.5775,-1.08731 1.4665,-1.64263 2.6669,-1.66598 1.2139,0.0233 2.1111,0.57867 2.6915,1.66598 0.5804,1.08733 0.8686,2.56664 0.8645,4.43794 0,1.88357 -0.2841,3.36638 -0.8645,4.44845 -0.5804,1.08207 -1.4776,1.63389 -2.6915,1.65547 z m 0,1.56798 c 1.7395,-0.0204 3.0555,-0.70057 3.948,-2.04047 0.8925,-1.3399 1.3405,-3.21704 1.344,-5.63143 0,-2.40096 -0.4515,-4.26993 -1.344,-5.60693 -0.8925,-1.33696 -2.2085,-2.01595 -3.948,-2.03697 -1.726,0.021 -3.0338,0.70001 -3.9234,2.03698 -0.8896,1.33699 -1.3364,3.20596 -1.3405,5.60692 0,2.41439 0.4509,4.29153 1.3405,5.63143 0.8896,1.3399 2.1974,2.02006 3.9234,2.04047 z"
           style="font-size:28px;line-height:100%;fill:#ffffff;font-family:Mission Gothic Light;-inkscape-font-specification:Mission Gothic Light"
           id="path7785" />
        <path
           inkscape:connector-curvature="0"
           d="m 1513.9171,656.29175 0,-9.09988 c 0.031,-1.65606 -0.2759,-3.04787 -0.9205,-4.17545 -0.6445,-1.12756 -1.8124,-1.71438 -3.5034,-1.76048 -0.8983,0.006 -1.6777,0.2456 -2.338,0.71749 -0.6603,0.47193 -1.1876,1.13808 -1.582,1.99848 l -0.056,0 c -0.028,-0.66498 -0.097,-1.23197 -0.2065,-1.70098 -0.109,-0.46898 -0.1709,-0.71398 -0.1855,-0.73499 l -1.6239,0 c 0.054,0.0898 0.1347,0.34417 0.2415,0.76299 0.1067,0.41884 0.1662,0.96717 0.1785,1.64498 l 0,12.34784 1.7079,0 0,-8.51189 c 0,-1.42039 0.2894,-2.59754 0.875,-3.53146 0.5857,-0.93389 1.4793,-1.41805 2.681,-1.45248 1.1427,0.0187 1.9372,0.45734 2.3835,1.31598 0.4462,0.85867 0.6597,2.02532 0.6405,3.49996 l 0,8.67989 z"
           style="font-size:28px;line-height:100%;fill:#ffffff;font-family:Mission Gothic Light;-inkscape-font-specification:Mission Gothic Light"
           id="path7787" />
        <path
           inkscape:connector-curvature="0"
           d="m 1309.5128,684.29175 c -0.055,-0.0863 -0.1406,-0.33366 -0.2555,-0.74199 -0.115,-0.40833 -0.1791,-0.96366 -0.1925,-1.66598 l 0,-7.30791 c -0.026,-1.80305 -0.4428,-3.14586 -1.2495,-4.02845 -0.8068,-0.88255 -1.8462,-1.32238 -3.1185,-1.31948 -0.9467,-0.003 -1.8322,0.22693 -2.6564,0.68949 -0.8243,0.46259 -1.5348,1.17542 -2.1315,2.13848 l 1.26,1.00798 c 0.3354,-0.69589 0.7775,-1.25005 1.3265,-1.66248 0.5489,-0.41239 1.208,-0.62356 1.9774,-0.63349 0.8797,-0.002 1.5773,0.30276 2.093,0.91349 0.5157,0.61076 0.7793,1.53824 0.791,2.78246 l 0,1.17599 c -2.765,0.0117 -4.816,0.42934 -6.1529,1.25298 -1.337,0.82367 -2.002,1.98332 -1.995,3.47896 0.012,1.26523 0.3873,2.27672 1.127,3.03446 0.7396,0.75774 1.7733,1.14623 3.1009,1.16548 1.0553,-0.0274 1.8988,-0.30858 2.5305,-0.84349 0.6317,-0.5349 1.1042,-1.15906 1.4175,-1.87247 0.051,0.65974 0.1242,1.21623 0.2205,1.66948 0.096,0.45324 0.1627,0.70874 0.1995,0.76649 z m -2.156,-6.01992 c 0,1.32765 -0.3197,2.4523 -0.952,3.37395 -0.6323,0.92166 -1.5656,1.40232 -2.8,1.44198 -0.7513,-10e-4 -1.3906,-0.22983 -1.9179,-0.68599 -0.5274,-0.45616 -0.8027,-1.13281 -0.826,-2.02997 0.01,-1.09432 0.508,-1.92264 1.4945,-2.48497 0.9864,-0.56232 2.4015,-0.84465 4.2454,-0.84699 0.252,10e-6 0.504,10e-6 0.756,0 z"
           style="font-size:28px;line-height:100%;fill:#ffffff;font-family:Mission Gothic Light;-inkscape-font-specification:Mission Gothic Light"
           id="path7789" />
        <path
           inkscape:connector-curvature="0"
           d="m 1323.2218,684.29175 0,-9.09988 c 0.031,-1.65606 -0.2759,-3.04787 -0.9205,-4.17545 -0.6446,-1.12756 -1.8124,-1.71438 -3.5034,-1.76048 -0.8984,0.006 -1.6777,0.2456 -2.338,0.71749 -0.6603,0.47193 -1.1876,1.13808 -1.582,1.99848 l -0.056,0 c -0.029,-0.66498 -0.097,-1.23197 -0.2065,-1.70098 -0.1091,-0.46898 -0.1709,-0.71398 -0.1855,-0.73499 l -1.6239,0 c 0.054,0.0898 0.1347,0.34417 0.2415,0.76299 0.1067,0.41884 0.1662,0.96717 0.1784,1.64498 l 0,12.34784 1.708,0 0,-8.51189 c 0,-1.42039 0.2894,-2.59754 0.875,-3.53146 0.5857,-0.93389 1.4793,-1.41805 2.681,-1.45248 1.1427,0.0187 1.9372,0.45734 2.3835,1.31598 0.4462,0.85867 0.6597,2.02532 0.6404,3.49996 l 0,8.67989 z"
           style="font-size:28px;line-height:100%;fill:#ffffff;font-family:Mission Gothic Light;-inkscape-font-specification:Mission Gothic Light"
           id="path7791" />
        <path
           inkscape:connector-curvature="0"
           d="m 1336.8591,684.29175 c -0.042,-0.0782 -0.119,-0.32783 -0.231,-0.74899 -0.112,-0.42116 -0.175,-0.96482 -0.189,-1.63098 l 0,-18.05977 -1.7079,0 0,5.48793 c 0,0.51509 0.01,0.98292 0.014,1.40348 0.01,0.42059 0.013,0.64342 0.014,0.66849 l -0.056,0 c -0.3209,-0.64106 -0.7572,-1.15788 -1.309,-1.55048 -0.5519,-0.39256 -1.2262,-0.59439 -2.023,-0.60549 -1.6141,0.0228 -2.8379,0.70526 -3.6714,2.04748 -0.8336,1.34224 -1.2524,3.20771 -1.2565,5.59642 0.01,2.40214 0.4258,4.27578 1.253,5.62093 0.8271,1.34515 2.0148,2.02881 3.5629,2.05097 0.9304,-0.0198 1.6806,-0.25316 2.2505,-0.69999 0.5699,-0.44682 1.005,-0.98815 1.3055,-1.62398 l 0.056,0 c 0.026,0.54367 0.086,1.00333 0.182,1.37899 0.096,0.37566 0.1563,0.59732 0.182,0.66499 z m -2.1279,-5.82393 c 0,1.35274 -0.2713,2.44122 -0.8085,3.26546 -0.5373,0.82424 -1.3318,1.24774 -2.3835,1.27048 -1.2069,-0.0233 -2.0761,-0.57865 -2.6075,-1.66597 -0.5314,-1.08732 -0.7915,-2.56663 -0.7805,-4.43795 -0.011,-1.84563 0.2491,-3.31328 0.7805,-4.40294 0.5314,-1.08964 1.4006,-1.6473 2.6075,-1.67298 1.162,0.0408 1.988,0.51917 2.478,1.43498 0.49,0.91584 0.728,2.02415 0.714,3.32496 z"
           style="font-size:28px;line-height:100%;fill:#ffffff;font-family:Mission Gothic Light;-inkscape-font-specification:Mission Gothic Light"
           id="path7793" />
        <path
           inkscape:connector-curvature="0"
           d="m 1356.1844,680.0918 c -0.3424,1.00449 -0.7986,1.74648 -1.3685,2.22597 -0.5699,0.4795 -1.2991,0.7175 -2.1874,0.71399 -1.19,-0.0163 -2.093,-0.50865 -2.709,-1.47698 -0.616,-0.96831 -0.945,-2.31463 -0.987,-4.03894 l 8.7639,0 0,-0.532 c 0.026,-2.33096 -0.3547,-4.19293 -1.141,-5.58593 -0.7863,-1.39296 -2.1326,-2.10695 -4.0389,-2.14197 -1.6783,0.0222 -2.9768,0.70584 -3.8955,2.05098 -0.9187,1.34516 -1.3842,3.2188 -1.3965,5.62092 0.01,2.41323 0.4725,4.2857 1.386,5.61743 0.9135,1.33173 2.2155,2.00722 3.906,2.02647 1.3031,-0.002 2.3577,-0.31324 3.1639,-0.93448 0.8062,-0.62124 1.4408,-1.54173 1.904,-2.76147 z m -7.2519,-4.00395 c 0.085,-1.65605 0.4328,-2.95686 1.043,-3.90245 0.6101,-0.94556 1.4758,-1.42738 2.597,-1.44548 1.1783,0.0111 2.0346,0.47893 2.5689,1.40348 0.5343,0.92459 0.8167,2.2394 0.847,3.94445 z"
           style="font-size:28px;line-height:100%;fill:#ffffff;font-family:Mission Gothic Light;-inkscape-font-specification:Mission Gothic Light"
           id="path7795" />
        <path
           inkscape:connector-curvature="0"
           d="m 1370.6534,684.29175 c -0.055,-0.0863 -0.1406,-0.33366 -0.2555,-0.74199 -0.1149,-0.40833 -0.1791,-0.96366 -0.1925,-1.66598 l 0,-7.30791 c -0.026,-1.80305 -0.4428,-3.14586 -1.2495,-4.02845 -0.8067,-0.88255 -1.8462,-1.32238 -3.1184,-1.31948 -0.9468,-0.003 -1.8323,0.22693 -2.6565,0.68949 -0.8243,0.46259 -1.5347,1.17542 -2.1315,2.13848 l 1.26,1.00798 c 0.3354,-0.69589 0.7776,-1.25005 1.3265,-1.66248 0.5489,-0.41239 1.208,-0.62356 1.9775,-0.63349 0.8796,-0.002 1.5773,0.30276 2.0929,0.91349 0.5157,0.61076 0.7793,1.53824 0.791,2.78246 l 0,1.17599 c -2.765,0.0117 -4.8159,0.42934 -6.1529,1.25298 -1.337,0.82367 -2.002,1.98332 -1.995,3.47896 0.012,1.26523 0.3873,2.27672 1.127,3.03446 0.7397,0.75774 1.7733,1.14623 3.101,1.16548 1.0552,-0.0274 1.8987,-0.30858 2.5304,-0.84349 0.6318,-0.5349 1.1043,-1.15906 1.4175,-1.87247 0.051,0.65974 0.1243,1.21623 0.2205,1.66948 0.096,0.45324 0.1628,0.70874 0.1995,0.76649 z m -2.156,-6.01992 c 0,1.32765 -0.3197,2.4523 -0.952,3.37395 -0.6323,0.92166 -1.5656,1.40232 -2.7999,1.44198 -0.7514,-10e-4 -1.3907,-0.22983 -1.918,-0.68599 -0.5273,-0.45616 -0.8027,-1.13281 -0.826,-2.02997 0.01,-1.09432 0.5081,-1.92264 1.4945,-2.48497 0.9864,-0.56232 2.4015,-0.84465 4.2454,-0.84699 0.252,10e-6 0.504,10e-6 0.756,0 z"
           style="font-size:28px;line-height:100%;fill:#ffffff;font-family:Mission Gothic Light;-inkscape-font-specification:Mission Gothic Light"
           id="path7797" />
        <path
           inkscape:connector-curvature="0"
           d="m 1376.0746,684.29175 0,-8.79189 c 0.02,-1.37489 0.3651,-2.46104 1.0359,-3.25846 0.6709,-0.79739 1.5482,-1.20455 2.632,-1.22148 0.1977,0.002 0.3832,0.0193 0.5565,0.0525 0.1732,0.0333 0.3237,0.0718 0.4515,0.1155 l 0.336,-1.81998 c -0.1523,-0.028 -0.3028,-0.049 -0.4515,-0.063 -0.1488,-0.014 -0.3063,-0.021 -0.4725,-0.021 -0.9695,0.002 -1.8025,0.24326 -2.499,0.72449 -0.6965,0.48126 -1.2355,1.19175 -1.6169,2.13147 l -0.056,0 c -0.03,-0.70872 -0.1033,-1.31421 -0.2205,-1.81647 -0.1173,-0.50223 -0.1838,-0.76473 -0.1995,-0.78749 l -1.624,0 c 0.054,0.0898 0.1347,0.34417 0.2415,0.76299 0.1067,0.41884 0.1662,0.96717 0.1785,1.64498 l 0,12.34784 z"
           style="font-size:28px;line-height:100%;fill:#ffffff;font-family:Mission Gothic Light;-inkscape-font-specification:Mission Gothic Light"
           id="path7799" />
        <path
           inkscape:connector-curvature="0"
           d="m 1393.4953,684.29175 0,-9.09988 c 0.031,-1.65606 -0.276,-3.04787 -0.9205,-4.17545 -0.6446,-1.12756 -1.8124,-1.71438 -3.5035,-1.76048 -0.8983,0.006 -1.6776,0.2456 -2.338,0.71749 -0.6603,0.47193 -1.1876,1.13808 -1.5819,1.99848 l -0.056,0 c -0.029,-0.66498 -0.097,-1.23197 -0.2065,-1.70098 -0.1091,-0.46898 -0.1709,-0.71398 -0.1855,-0.73499 l -1.624,0 c 0.054,0.0898 0.1347,0.34417 0.2415,0.76299 0.1067,0.41884 0.1662,0.96717 0.1785,1.64498 l 0,12.34784 1.708,0 0,-8.51189 c 0,-1.42039 0.2893,-2.59754 0.875,-3.53146 0.5856,-0.93389 1.4793,-1.41805 2.6809,-1.45248 1.1427,0.0187 1.9372,0.45734 2.3835,1.31598 0.4462,0.85867 0.6597,2.02532 0.6405,3.49996 l 0,8.67989 z"
           style="font-size:28px;line-height:100%;fill:#ffffff;font-family:Mission Gothic Light;-inkscape-font-specification:Mission Gothic Light"
           id="path7801" />
        <path
           inkscape:connector-curvature="0"
           d="m 1406.4261,689.89168 0,-5.48793 c 0,-0.56408 -0.01,-1.04591 -0.014,-1.44549 -0.01,-0.39957 -0.013,-0.6084 -0.014,-0.62649 l 0.056,0 c 0.343,0.68133 0.798,1.22265 1.365,1.62398 0.567,0.40133 1.288,0.60666 2.163,0.61599 1.5569,-0.0239 2.734,-0.70407 3.5314,-2.04047 0.7974,-1.3364 1.1976,-3.18554 1.2005,-5.54743 -0.01,-2.41671 -0.4317,-4.30318 -1.267,-5.65943 -0.8353,-1.35621 -2.0276,-2.0457 -3.5769,-2.06847 -0.9036,0.0204 -1.6374,0.2526 -2.2015,0.69649 -0.5641,0.44393 -0.9969,0.97709 -1.2985,1.59948 l -0.056,0 c -0.053,-0.53723 -0.1289,-1.00272 -0.2275,-1.39648 -0.099,-0.39373 -0.1534,-0.60023 -0.1645,-0.61949 l -1.624,0 c 0.054,0.0898 0.1348,0.34417 0.2415,0.76299 0.1068,0.41884 0.1663,0.96717 0.1785,1.64498 l 0,17.94777 z m 0,-14.39182 c 0,-1.36964 0.2561,-2.48029 0.7805,-3.33196 0.5244,-0.85164 1.3376,-1.2903 2.4395,-1.31598 1.1934,0.0269 2.0544,0.58917 2.5829,1.68698 0.5285,1.09783 0.7875,2.57014 0.777,4.41694 0.011,1.87015 -0.2491,3.3448 -0.7805,4.42395 -0.5314,1.07915 -1.4005,1.62981 -2.6074,1.65197 -1.1498,-0.0402 -1.9723,-0.51274 -2.4675,-1.41748 -0.4952,-0.90473 -0.7367,-2.00022 -0.7245,-3.28646 z"
           style="font-size:28px;line-height:100%;fill:#ffffff;font-family:Mission Gothic Light;-inkscape-font-specification:Mission Gothic Light"
           id="path7803" />
        <path
           inkscape:connector-curvature="0"
           d="m 1422.7619,683.00376 c -1.2005,-0.0251 -2.0895,-0.5839 -2.667,-1.67647 -0.5775,-1.09257 -0.8645,-2.56838 -0.861,-4.42745 0,-1.8713 0.2835,-3.35061 0.861,-4.43794 0.5775,-1.08731 1.4665,-1.64263 2.667,-1.66598 1.2139,0.0233 2.111,0.57867 2.6915,1.66598 0.5804,1.08733 0.8685,2.56664 0.8644,4.43794 0,1.88357 -0.284,3.36638 -0.8644,4.44845 -0.5805,1.08207 -1.4776,1.63389 -2.6915,1.65547 z m 0,1.56798 c 1.7395,-0.0204 3.0554,-0.70057 3.9479,-2.04047 0.8925,-1.3399 1.3405,-3.21704 1.344,-5.63143 0,-2.40096 -0.4515,-4.26993 -1.344,-5.60693 -0.8925,-1.33696 -2.2084,-2.01595 -3.9479,-2.03697 -1.7261,0.021 -3.0339,0.70001 -3.9235,2.03698 -0.8895,1.33699 -1.3364,3.20596 -1.3404,5.60692 0,2.41439 0.4509,4.29153 1.3404,5.63143 0.8896,1.3399 2.1974,2.02006 3.9235,2.04047 z"
           style="font-size:28px;line-height:100%;fill:#ffffff;font-family:Mission Gothic Light;-inkscape-font-specification:Mission Gothic Light"
           id="path7805" />
        <path
           inkscape:connector-curvature="0"
           d="m 1433.167,684.29175 0,-14.75581 -1.708,0 0,14.75581 z m 0.224,-18.11577 c -0.01,-0.31498 -0.112,-0.57397 -0.315,-0.77699 -0.203,-0.20298 -0.462,-0.30798 -0.777,-0.31499 -0.3016,0.007 -0.5524,0.11201 -0.7525,0.31499 -0.2001,0.20302 -0.3039,0.46201 -0.3115,0.77699 0.01,0.3016 0.1114,0.55243 0.3115,0.75249 0.2001,0.2001 0.4509,0.30393 0.7525,0.3115 0.315,-0.008 0.574,-0.1114 0.777,-0.3115 0.203,-0.20006 0.308,-0.45089 0.315,-0.75249 z"
           style="font-size:28px;line-height:100%;fill:#ffffff;font-family:Mission Gothic Light;-inkscape-font-specification:Mission Gothic Light"
           id="path7807" />
        <path
           inkscape:connector-curvature="0"
           d="m 1447.3078,684.29175 0,-9.09988 c 0.031,-1.65606 -0.276,-3.04787 -0.9205,-4.17545 -0.6446,-1.12756 -1.8124,-1.71438 -3.5035,-1.76048 -0.8983,0.006 -1.6776,0.2456 -2.338,0.71749 -0.6603,0.47193 -1.1876,1.13808 -1.5819,1.99848 l -0.056,0 c -0.029,-0.66498 -0.097,-1.23197 -0.2065,-1.70098 -0.1091,-0.46898 -0.1709,-0.71398 -0.1855,-0.73499 l -1.624,0 c 0.054,0.0898 0.1347,0.34417 0.2415,0.76299 0.1067,0.41884 0.1662,0.96717 0.1785,1.64498 l 0,12.34784 1.708,0 0,-8.51189 c 0,-1.42039 0.2893,-2.59754 0.875,-3.53146 0.5856,-0.93389 1.4793,-1.41805 2.6809,-1.45248 1.1427,0.0187 1.9372,0.45734 2.3835,1.31598 0.4462,0.85867 0.6597,2.02532 0.6405,3.49996 l 0,8.67989 z"
           style="font-size:28px;line-height:100%;fill:#ffffff;font-family:Mission Gothic Light;-inkscape-font-specification:Mission Gothic Light"
           id="path7809" />
        <path
           inkscape:connector-curvature="0"
           d="m 1457.2491,682.35977 c -0.231,0.18492 -0.504,0.33308 -0.819,0.4445 -0.315,0.11141 -0.63,0.16858 -0.945,0.17149 -0.6195,-0.003 -1.0954,-0.21407 -1.4279,-0.63349 -0.3325,-0.41941 -0.5005,-1.02956 -0.504,-1.83047 l 0,-9.46388 3.3879,0 0,-1.51198 -3.3879,0 0,-3.52796 -1.68,0 0,3.52796 -1.988,0 0,1.51198 1.988,0 0,9.54788 c -0.01,1.2559 0.2712,2.23005 0.8295,2.92246 0.5582,0.69241 1.4297,1.04357 2.6144,1.05348 0.5064,-0.007 0.9707,-0.084 1.393,-0.23099 0.4223,-0.147 0.7887,-0.322 1.099,-0.525 z"
           style="font-size:28px;line-height:100%;fill:#ffffff;font-family:Mission Gothic Light;-inkscape-font-specification:Mission Gothic Light"
           id="path7811" />
        <path
           inkscape:connector-curvature="0"
           d="m 1469.5993,671.66391 c -0.6143,-0.78398 -1.2968,-1.37197 -2.0475,-1.76398 -0.7508,-0.39198 -1.6642,-0.58797 -2.7405,-0.58799 -1.3918,0.0245 -2.5001,0.39551 -3.3249,1.11299 -0.8249,0.7175 -1.2472,1.63449 -1.267,2.75096 0.042,1.16812 0.4652,2.04311 1.2687,2.62497 0.8036,0.58187 1.734,1.04387 2.7912,1.38598 1.0573,0.34213 1.9877,0.73762 2.7913,1.18648 0.8035,0.44888 1.2264,1.12437 1.2687,2.02648 -0.012,0.85691 -0.2958,1.50906 -0.8505,1.95647 -0.5548,0.44742 -1.3072,0.67258 -2.2575,0.67549 -0.8843,-0.005 -1.7056,-0.21174 -2.4639,-0.61949 -0.7584,-0.40774 -1.3557,-0.98523 -1.792,-1.73248 -0.2124,0.18259 -0.4317,0.36342 -0.658,0.5425 -0.2263,0.17908 -0.4457,0.35291 -0.658,0.52149 0.5769,0.92632 1.3481,1.62865 2.3135,2.10697 0.9654,0.47833 2.0235,0.71866 3.1744,0.72099 1.5283,-0.004 2.7276,-0.36691 3.598,-1.08848 0.8703,-0.72157 1.3136,-1.77739 1.33,-3.16746 -0.042,-1.22549 -0.4652,-2.15021 -1.2688,-2.77415 -0.8035,-0.62394 -1.7339,-1.11203 -2.7912,-1.4643 -1.0573,-0.35224 -1.9877,-0.73359 -2.7912,-1.14404 -0.8035,-0.41044 -1.2264,-1.01491 -1.2687,-1.81342 0.02,-0.73381 0.2945,-1.30314 0.8225,-1.70798 0.5279,-0.40481 1.187,-0.61014 1.9774,-0.61599 0.8132,-0.003 1.5038,0.15051 2.072,0.462 0.5682,0.3115 1.0908,0.8015 1.568,1.46998 z"
           style="font-size:28px;line-height:100%;fill:#ffffff;font-family:Mission Gothic Light;-inkscape-font-specification:Mission Gothic Light"
           id="path7813" />
      </g>
      <path
         style="fill:#00ff00"
         inkscape:connector-curvature="0"
         d="m 1246.6245,597.95437 c 11.9715,0 21.7112,9.73965 21.7112,21.71121 0,11.97156 -9.7397,21.71121 -21.7112,21.71121 -11.9716,0 -21.7113,-9.73965 -21.7113,-21.71121 0,-11.97156 9.7397,-21.71121 21.7113,-21.71121 z m 0,-4.34224 c -14.3881,0 -26.0535,11.66543 -26.0535,26.05345 0,14.38802 11.6654,26.05346 26.0535,26.05346 14.388,0 26.0534,-11.66544 26.0534,-26.05346 0,-14.38802 -11.6654,-26.05345 -26.0534,-26.05345 z m -6.5134,36.90906 v -21.71121 l 19.5401,11.17259 -19.5401,10.53862 z"
         id="path7501-9" />
    </g>
  </g>
</svg>
