<?xml version="1.0" encoding="UTF-8" standalone="no"?>
<!-- Created with Inkscape (http://www.inkscape.org/) -->

<svg
   xmlns:dc="http://purl.org/dc/elements/1.1/"
   xmlns:cc="http://creativecommons.org/ns#"
   xmlns:rdf="http://www.w3.org/1999/02/22-rdf-syntax-ns#"
   xmlns:svg="http://www.w3.org/2000/svg"
   xmlns="http://www.w3.org/2000/svg"
   xmlns:sodipodi="http://sodipodi.sourceforge.net/DTD/sodipodi-0.dtd"
   xmlns:inkscape="http://www.inkscape.org/namespaces/inkscape"
   width="340.8429"
   height="70.553596"
   id="svg3663"
   version="1.1"
   inkscape:version="0.48.4 r9939"
   sodipodi:docname="New document 7">
  <defs
     id="defs3665" />
  <sodipodi:namedview
     id="base"
     pagecolor="#ffffff"
     bordercolor="#666666"
     borderopacity="1.0"
     inkscape:pageopacity="0.0"
     inkscape:pageshadow="2"
     inkscape:zoom="0.35"
     inkscape:cx="125.44009"
     inkscape:cy="20.991117"
     inkscape:document-units="px"
     inkscape:current-layer="layer1"
     showgrid="false"
     fit-margin-top="0"
     fit-margin-left="0"
     fit-margin-right="0"
     fit-margin-bottom="0"
     inkscape:window-width="463"
     inkscape:window-height="423"
     inkscape:window-x="78"
     inkscape:window-y="78"
     inkscape:window-maximized="0" />
  <metadata
     id="metadata3668">
    <rdf:RDF>
      <cc:Work
         rdf:about="">
        <dc:format>image/svg+xml</dc:format>
        <dc:type
           rdf:resource="http://purl.org/dc/dcmitype/StillImage" />
        <dc:title></dc:title>
      </cc:Work>
    </rdf:RDF>
  </metadata>
  <g
     inkscape:label="Layer 1"
     inkscape:groupmode="layer"
     id="layer1"
     transform="translate(-249.55991,-482.7997)">
    <g
       style="font-size:40px;font-style:normal;font-weight:normal;line-height:125%;letter-spacing:0px;word-spacing:0px;fill:#ffffff;fill-opacity:1;stroke:none;font-family:Sans"
       id="text6251-61-5">
      <path
         d="m 357.39188,511.99933 0,-10.71986 9.51988,0 0,-2.31997 -9.51988,0 0,-12.59984 11.11986,0 0,-2.35997 -13.55982,0 0,27.99964 z"
         style="text-align:center;text-anchor:middle;fill:#ffffff;font-family:Mission Gothic Light;-inkscape-font-specification:Mission Gothic Light"
         id="path3683"
         inkscape:connector-curvature="0" />
      <path
         d="m 379.70559,510.15935 c -1.71499,-0.0358 -2.98497,-0.83415 -3.80996,-2.39497 -0.82499,-1.5608 -1.23498,-3.66911 -1.22998,-6.32492 -0.005,-2.67328 0.40499,-4.78659 1.22999,-6.33991 0.82498,-1.5533 2.09496,-2.34662 3.80995,-2.37997 1.73413,0.0333 3.01578,0.82667 3.84495,2.37997 0.82914,1.55332 1.2408,3.66663 1.23498,6.33991 0.006,2.69081 -0.40584,4.80911 -1.23498,6.35492 -0.82917,1.54582 -2.11082,2.33414 -3.84495,2.36497 z m 0,2.23997 c 2.48495,-0.0292 4.36493,-1.00082 5.63992,-2.91496 1.27497,-1.91414 1.91496,-4.59577 1.91998,-8.0449 -0.005,-3.42994 -0.64501,-6.0999 -1.91998,-8.00989 -1.27499,-1.90996 -3.15497,-2.87994 -5.63992,-2.90996 -2.46581,0.03 -4.33412,1 -5.60493,2.90996 -1.27082,1.90999 -1.90915,4.57995 -1.91498,8.00989 0.006,3.44913 0.64416,6.13076 1.91498,8.0449 1.27081,1.91414 3.13912,2.8858 5.60493,2.91496 z"
         style="text-align:center;text-anchor:middle;fill:#ffffff;font-family:Mission Gothic Light;-inkscape-font-specification:Mission Gothic Light"
         id="path3685"
         inkscape:connector-curvature="0" />
      <path
         d="m 406.60986,511.99933 c -0.06,-0.10917 -0.17002,-0.46083 -0.33,-1.05499 -0.16001,-0.59416 -0.25001,-1.37581 -0.26999,-2.34497 l 0,-17.67977 -2.43997,0 0,12.39984 c -0.0117,2.00165 -0.45834,3.63829 -1.33999,4.90994 -0.88166,1.27165 -2.12831,1.92831 -3.73995,1.96997 -1.64998,-0.0225 -2.78997,-0.63749 -3.41995,-1.84498 -0.63,-1.20747 -0.93,-2.87245 -0.89999,-4.99493 l 0,-12.43984 -2.43997,0 0,12.99983 c -0.0442,2.36581 0.39416,4.35412 1.31498,5.96493 0.92082,1.61081 2.58913,2.44913 5.00494,2.51496 1.26831,-0.007 2.38162,-0.34333 3.33996,-1.00998 0.9583,-0.66666 1.71163,-1.62331 2.25997,-2.86997 l 0.08,0 c 0.0408,0.94999 0.13915,1.75998 0.29499,2.42997 0.15582,0.66999 0.24415,1.01999 0.265,1.04999 z"
         style="text-align:center;text-anchor:middle;fill:#ffffff;font-family:Mission Gothic Light;-inkscape-font-specification:Mission Gothic Light"
         id="path3687"
         inkscape:connector-curvature="0" />
      <path
         d="m 426.33361,511.99933 0,-12.99983 c 0.0442,-2.36579 -0.39418,-4.3541 -1.31498,-5.96493 -0.92084,-1.61079 -2.58915,-2.44911 -5.00494,-2.51496 -1.28332,0.009 -2.39664,0.35085 -3.33996,1.02498 -0.94332,0.67418 -1.69665,1.62583 -2.25997,2.85497 l -0.08,0 c -0.0408,-0.94997 -0.13918,-1.75996 -0.295,-2.42997 -0.15584,-0.66997 -0.24417,-1.01997 -0.265,-1.04999 l -2.31997,0 c 0.0775,0.12835 0.1925,0.49168 0.345,1.08999 0.15249,0.59834 0.23749,1.38166 0.25499,2.34997 l 0,17.63977 2.43997,0 0,-12.15984 c -0.003,-2.02913 0.41333,-3.71077 1.24999,-5.04494 0.83665,-1.33413 2.11329,-2.02579 3.82995,-2.07497 1.63246,0.0267 2.76745,0.65334 3.40495,1.87997 0.63748,1.22667 0.94248,2.89331 0.91499,4.99994 l 0,12.39984 z"
         style="text-align:center;text-anchor:middle;fill:#ffffff;font-family:Mission Gothic Light;-inkscape-font-specification:Mission Gothic Light"
         id="path3689"
         inkscape:connector-curvature="0" />
      <path
         d="m 445.81549,511.99933 c -0.06,-0.11167 -0.17001,-0.46833 -0.33,-1.06999 -0.16001,-0.60166 -0.25001,-1.37831 -0.26999,-2.32997 l 0,-25.79967 -2.43997,0 0,7.8399 c 0.002,0.73585 0.008,1.40417 0.02,2.00498 0.0117,0.60084 0.0183,0.91917 0.02,0.95499 l -0.08,0 c -0.45834,-0.91581 -1.08167,-1.65413 -1.86998,-2.21498 -0.78833,-0.5608 -1.75165,-0.84913 -2.88996,-0.86498 -2.30581,0.0325 -4.05412,1.0075 -5.24493,2.92496 -1.19082,1.91749 -1.78915,4.58245 -1.79498,7.99489 0.0117,3.43163 0.60833,6.10826 1.78998,8.0299 1.18165,1.92164 2.87829,2.8983 5.08993,2.92996 1.32914,-0.0283 2.4008,-0.36166 3.21496,-0.99998 0.81415,-0.63833 1.4358,-1.41165 1.86498,-2.31997 l 0.08,0 c 0.0367,0.77665 0.12331,1.43331 0.25999,1.96997 0.13665,0.53666 0.22332,0.85332 0.26,0.94999 z m -3.03996,-8.31989 c -0.003,1.93248 -0.38751,3.48746 -1.15498,4.66493 -0.76751,1.17749 -1.90249,1.78248 -3.40496,1.81498 -1.72415,-0.0333 -2.9658,-0.82665 -3.72495,-2.37997 -0.75916,-1.55331 -1.13083,-3.66661 -1.11499,-6.33992 -0.0158,-2.63662 0.35583,-4.73325 1.11499,-6.28992 0.75915,-1.55662 2.0008,-2.35328 3.72495,-2.38996 1.65997,0.0583 2.83995,0.74167 3.53995,2.04997 0.69998,1.30833 1.03998,2.89164 1.01999,4.74994 z"
         style="text-align:center;text-anchor:middle;fill:#ffffff;font-family:Mission Gothic Light;-inkscape-font-specification:Mission Gothic Light"
         id="path3691"
         inkscape:connector-curvature="0" />
      <path
         d="m 464.02314,511.99933 0,-21.07973 -2.43997,0 0,21.07973 z m 0.31999,-25.87967 c -0.01,-0.44997 -0.16,-0.81996 -0.44999,-1.10998 -0.29,-0.28997 -0.66,-0.43997 -1.10999,-0.45 -0.43083,0.01 -0.78916,0.16003 -1.07498,0.45 -0.28583,0.29002 -0.43417,0.66001 -0.445,1.10998 0.0108,0.43086 0.15917,0.78918 0.445,1.07499 0.28583,0.28585 0.64415,0.43418 1.07498,0.44499 0.44999,-0.0108 0.81999,-0.15914 1.10999,-0.44499 0.28999,-0.28581 0.43999,-0.64414 0.44999,-1.07499 z"
         style="text-align:center;text-anchor:middle;fill:#ffffff;font-family:Mission Gothic Light;-inkscape-font-specification:Mission Gothic Light"
         id="path3693"
         inkscape:connector-curvature="0" />
      <path
         d="m 478.50431,509.23936 c -0.33001,0.26417 -0.72,0.47583 -1.16999,0.635 -0.45,0.15916 -0.89999,0.24083 -1.34998,0.24499 -0.88499,-0.004 -1.56499,-0.30582 -2.03997,-0.90499 -0.475,-0.59915 -0.715,-1.47081 -0.71999,-2.61496 l 0,-13.51983 4.83993,0 0,-2.15997 -4.83993,0 0,-5.03994 -2.39997,0 0,5.03994 -2.83997,0 0,2.15997 2.83997,0 0,13.63983 c -0.007,1.79414 0.38749,3.18579 1.18498,4.17494 0.79749,0.98916 2.04247,1.49082 3.73495,1.50498 0.72332,-0.01 1.38664,-0.12 1.98998,-0.32999 0.60331,-0.21 1.12664,-0.46 1.56998,-0.74999 z"
         style="text-align:center;text-anchor:middle;fill:#ffffff;font-family:Mission Gothic Light;-inkscape-font-specification:Mission Gothic Light"
         id="path3695"
         inkscape:connector-curvature="0" />
      <path
         d="m 485.42752,505.55941 0,-21.55972 -2.39997,0 0,21.55972 z m 0.35999,5.31993 c -0.01,-0.44999 -0.16,-0.81998 -0.44999,-1.10998 -0.29001,-0.29 -0.66,-0.43999 -1.10999,-0.45 -0.43083,0.01 -0.78916,0.16 -1.07499,0.45 -0.28583,0.29 -0.43416,0.65999 -0.44499,1.10998 0.0108,0.43083 0.15916,0.78916 0.44499,1.07499 0.28583,0.28583 0.64416,0.43416 1.07499,0.44499 0.44999,-0.0108 0.81999,-0.15916 1.10999,-0.44499 0.28999,-0.28583 0.43998,-0.64416 0.44999,-1.07499 z"
         style="text-align:center;text-anchor:middle;fill:#ffffff;font-family:Mission Gothic Light;-inkscape-font-specification:Mission Gothic Light"
         id="path3697"
         inkscape:connector-curvature="0" />
      <path
         d="m 259.49978,538.12149 c -0.61425,-0.78398 -1.29674,-1.37197 -2.04747,-1.76398 -0.75075,-0.39198 -1.66424,-0.58797 -2.74047,-0.58799 -1.39182,0.0245 -2.50013,0.39551 -3.32495,1.11299 -0.82483,0.7175 -1.24716,1.63449 -1.26699,2.75096 0.0423,1.16812 0.4652,2.04311 1.26874,2.62497 0.80352,0.58187 1.73393,1.04387 2.79121,1.38598 1.05727,0.34213 1.98768,0.73762 2.79121,1.18648 0.80353,0.44888 1.22644,1.12437 1.26874,2.02648 -0.0123,0.85691 -0.29576,1.50906 -0.85049,1.95647 -0.55475,0.44742 -1.30724,0.67258 -2.25747,0.67549 -0.88433,-0.005 -1.70565,-0.21174 -2.46397,-0.61949 -0.75833,-0.40774 -1.35565,-0.98523 -1.79198,-1.73247 -0.21233,0.18258 -0.43166,0.36341 -0.65799,0.54249 -0.22633,0.17908 -0.44566,0.35291 -0.65799,0.52149 0.57691,0.92632 1.34806,1.62865 2.31347,2.10697 0.9654,0.47833 2.02355,0.71866 3.17446,0.721 1.52831,-0.004 2.72762,-0.36692 3.59795,-1.08849 0.87031,-0.72157 1.31364,-1.77739 1.32999,-3.16746 -0.0423,-1.22549 -0.46522,-2.15021 -1.26874,-2.77415 -0.80354,-0.62394 -1.73394,-1.11203 -2.79121,-1.4643 -1.05729,-0.35224 -1.98769,-0.73359 -2.79122,-1.14404 -0.80353,-0.41044 -1.22644,-1.01491 -1.26873,-1.81342 0.0204,-0.73381 0.29458,-1.30313 0.82249,-1.70798 0.5279,-0.40481 1.18706,-0.61014 1.97747,-0.61599 0.81315,-0.003 1.50381,0.15051 2.07198,0.462 0.56815,0.3115 1.09081,0.8015 1.56798,1.46998 z"
         style="font-size:28px;text-align:center;text-anchor:middle;fill:#ffffff;font-family:Mission Gothic Light;-inkscape-font-specification:Mission Gothic Light"
         id="path3699"
         inkscape:connector-curvature="0" />
      <path
         d="m 270.89799,546.49338 c -0.26251,0.9065 -0.6545,1.62048 -1.17599,2.14198 -0.5215,0.52149 -1.19349,0.78749 -2.01597,0.79799 -1.22616,-0.0227 -2.12681,-0.57225 -2.70197,-1.64848 -0.57516,-1.07623 -0.85982,-2.54271 -0.85399,-4.39945 -0.004,-1.87013 0.28408,-3.34478 0.86449,-4.42394 0.58041,-1.07914 1.47756,-1.6298 2.69147,-1.65198 0.82365,0.008 1.4933,0.26484 2.00897,0.76999 0.51565,0.50517 0.89132,1.20983 1.12699,2.11397 l 1.48398,-0.81199 c -0.37042,-1.1328 -0.93158,-2.02412 -1.68348,-2.67396 -0.75192,-0.64981 -1.74007,-0.98114 -2.96446,-0.99399 -1.68932,0.0204 -2.98663,0.70059 -3.89195,2.04048 -0.90532,1.33991 -1.36265,3.21705 -1.37198,5.63142 0.008,2.41323 0.46141,4.2857 1.36148,5.61743 0.90007,1.33173 2.20088,2.00722 3.90245,2.02648 1.23956,-0.0111 2.23938,-0.34592 2.99946,-1.00449 0.76006,-0.65858 1.31889,-1.5744 1.67648,-2.74747 z"
         style="font-size:28px;text-align:center;text-anchor:middle;fill:#ffffff;font-family:Mission Gothic Light;-inkscape-font-specification:Mission Gothic Light"
         id="path3701"
         inkscape:connector-curvature="0" />
      <path
         d="m 284.96796,550.74933 c -0.0554,-0.0863 -0.14059,-0.33366 -0.25549,-0.74199 -0.11493,-0.40833 -0.1791,-0.96365 -0.1925,-1.66598 l 0,-7.30791 c -0.0263,-1.80305 -0.44276,-3.14586 -1.24948,-4.02844 -0.80675,-0.88256 -1.84624,-1.32239 -3.11846,-1.31949 -0.94675,-0.003 -1.83224,0.22693 -2.65647,0.68949 -0.82424,0.4626 -1.53473,1.17542 -2.13147,2.13848 l 1.25998,1.00798 c 0.33541,-0.69589 0.77757,-1.25005 1.32648,-1.66248 0.54891,-0.41239 1.20807,-0.62356 1.97748,-0.63349 0.87965,-0.002 1.5773,0.30276 2.09297,0.91349 0.51565,0.61076 0.77932,1.53824 0.79099,2.78247 l 0,1.17598 c -2.76497,0.0117 -4.81594,0.42934 -6.15292,1.25298 -1.33698,0.82367 -2.00197,1.98332 -1.99497,3.47896 0.0117,1.26523 0.38732,2.27672 1.12698,3.03446 0.73966,0.75774 1.77331,1.14623 3.10096,1.16549 1.05523,-0.0274 1.89872,-0.30858 2.53047,-0.84349 0.63173,-0.53491 1.10423,-1.15907 1.41748,-1.87248 0.0507,0.65974 0.12424,1.21623 0.2205,1.66948 0.0962,0.45324 0.16274,0.70874 0.1995,0.76649 z m -2.15597,-6.01992 c -0.002,1.32765 -0.31967,2.4523 -0.95199,3.37395 -0.63233,0.92166 -1.56565,1.40232 -2.79996,1.44198 -0.75133,-10e-4 -1.39065,-0.22982 -1.91798,-0.68599 -0.52733,-0.45616 -0.80265,-1.13281 -0.82598,-2.02997 0.01,-1.09432 0.50807,-1.92264 1.49448,-2.48497 0.98639,-0.56232 2.40154,-0.84465 4.24544,-0.84699 0.25199,10e-6 0.50399,10e-6 0.75599,0 z"
         style="font-size:28px;text-align:center;text-anchor:middle;fill:#ffffff;font-family:Mission Gothic Light;-inkscape-font-specification:Mission Gothic Light"
         id="path3703"
         inkscape:connector-curvature="0" />
      <path
         d="m 298.67702,550.74933 0,-9.09988 c 0.0309,-1.65606 -0.27592,-3.04787 -0.92049,-4.17545 -0.64458,-1.12756 -1.8124,-1.71438 -3.50345,-1.76048 -0.89833,0.006 -1.67765,0.2456 -2.33797,0.71749 -0.66033,0.47193 -1.18766,1.13809 -1.58198,1.99848 l -0.056,0 c -0.0286,-0.66498 -0.0974,-1.23197 -0.2065,-1.70098 -0.10908,-0.46898 -0.17092,-0.71398 -0.1855,-0.73499 l -1.62397,0 c 0.0542,0.0898 0.13474,0.34417 0.24149,0.76299 0.10675,0.41884 0.16625,0.96717 0.1785,1.64498 l 0,12.34784 1.70798,0 0,-8.51189 c -0.002,-1.42039 0.28932,-2.59754 0.87499,-3.53146 0.58565,-0.93389 1.4793,-1.41805 2.68096,-1.45248 1.14273,0.0187 1.93722,0.45734 2.38347,1.31599 0.44623,0.85866 0.65973,2.02531 0.64049,3.49995 l 0,8.67989 z"
         style="font-size:28px;text-align:center;text-anchor:middle;fill:#ffffff;font-family:Mission Gothic Light;-inkscape-font-specification:Mission Gothic Light"
         id="path3705"
         inkscape:connector-curvature="0" />
      <path
         d="m 315.89182,548.81735 c -0.231,0.18492 -0.504,0.33308 -0.81899,0.4445 -0.315,0.11141 -0.63,0.16858 -0.94498,0.1715 -0.6195,-0.003 -1.0955,-0.21408 -1.42799,-0.6335 -0.3325,-0.41941 -0.50049,-1.02956 -0.50399,-1.83047 l 0,-9.46388 3.38796,0 0,-1.51198 -3.38796,0 0,-3.52796 -1.67998,0 0,3.52796 -1.98797,0 0,1.51198 1.98797,0 0,9.54788 c -0.005,1.2559 0.27125,2.23005 0.82949,2.92246 0.55824,0.69241 1.42973,1.04357 2.61447,1.05349 0.50632,-0.007 0.97065,-0.084 1.39298,-0.231 0.42232,-0.147 0.78865,-0.322 1.09899,-0.525 z"
         style="font-size:28px;text-align:center;text-anchor:middle;fill:#ffffff;font-family:Mission Gothic Light;-inkscape-font-specification:Mission Gothic Light"
         id="path3707"
         inkscape:connector-curvature="0" />
      <path
         d="m 328.96996,550.74933 0,-9.09988 c 0.0309,-1.65606 -0.27592,-3.04787 -0.92049,-4.17545 -0.64458,-1.12756 -1.8124,-1.71438 -3.50345,-1.76048 -0.87033,0.007 -1.62865,0.23801 -2.27497,0.69299 -0.64633,0.45501 -1.16666,1.092 -1.56098,1.91098 l -0.056,0 c 0.001,-0.0321 0.006,-0.2689 0.014,-0.71049 0.008,-0.44157 0.0128,-0.89539 0.014,-1.36148 l 0,-5.93593 -1.67998,0 0,20.43974 1.67998,0 0,-9.07188 c 0.0198,-1.34806 0.35816,-2.41788 1.01498,-3.20946 0.65682,-0.79156 1.51315,-1.19639 2.56897,-1.21449 1.00798,0.0199 1.76397,0.42818 2.26797,1.22499 0.50399,0.79683 0.75598,1.86315 0.75599,3.19896 l 0,9.07188 z"
         style="font-size:28px;text-align:center;text-anchor:middle;fill:#ffffff;font-family:Mission Gothic Light;-inkscape-font-specification:Mission Gothic Light"
         id="path3709"
         inkscape:connector-curvature="0" />
      <path
         d="m 341.10054,546.54938 c -0.34242,1.00449 -0.79858,1.74648 -1.36848,2.22597 -0.56992,0.4795 -1.29907,0.7175 -2.18747,0.71399 -1.18999,-0.0163 -2.09298,-0.50865 -2.70897,-1.47698 -0.61599,-0.96831 -0.94499,-2.31463 -0.98698,-4.03894 l 8.76388,0 0,-0.532 c 0.0257,-2.33096 -0.35467,-4.19293 -1.14098,-5.58593 -0.78633,-1.39296 -2.13265,-2.10695 -4.03895,-2.14197 -1.67823,0.0222 -2.97671,0.70584 -3.89545,2.05098 -0.91874,1.34516 -1.38423,3.2188 -1.39648,5.62092 0.0105,2.41323 0.47249,4.2857 1.38598,5.61743 0.91349,1.33173 2.21547,2.00722 3.90595,2.02648 1.30314,-0.002 2.35779,-0.31325 3.16396,-0.93449 0.80615,-0.62124 1.4408,-1.54173 1.90398,-2.76147 z m -7.2519,-4.00395 c 0.0852,-1.65605 0.43282,-2.95686 1.04298,-3.90245 0.61016,-0.94555 1.47581,-1.42738 2.59697,-1.44548 1.17831,0.0111 2.03463,0.47893 2.56897,1.40349 0.53431,0.92458 0.81664,2.23939 0.84699,3.94444 z"
         style="font-size:28px;text-align:center;text-anchor:middle;fill:#ffffff;font-family:Mission Gothic Light;-inkscape-font-specification:Mission Gothic Light"
         id="path3711"
         inkscape:connector-curvature="0" />
      <path
         d="m 363.51496,552.40131 c -0.43168,-0.39142 -0.78634,-0.77058 -1.06399,-1.13749 -0.27767,-0.36691 -0.49234,-0.72507 -0.64399,-1.07448 1.14214,-0.81024 1.97979,-2.02473 2.51296,-3.64346 0.53315,-1.61872 0.79681,-3.4842 0.79099,-5.59643 0.0192,-2.89445 -0.46725,-5.28141 -1.45948,-7.1609 -0.99225,-1.87946 -2.60572,-2.85245 -4.84043,-2.91897 -2.24698,0.0665 -3.86396,1.03951 -4.85094,2.91897 -0.98699,1.87949 -1.46998,4.26645 -1.44898,7.1609 -0.021,2.90672 0.46199,5.29719 1.44898,7.17141 0.98698,1.87423 2.60396,2.84372 4.85094,2.90847 0.33598,-0.003 0.65798,-0.0321 0.96598,-0.0875 0.30799,-0.0554 0.60199,-0.11959 0.88199,-0.1925 0.18841,0.40424 0.43457,0.82074 0.73849,1.24948 0.3039,0.42875 0.71107,0.88024 1.22149,1.35449 z m -4.95594,-6.24392 c 0.38324,0.58333 0.68773,1.12465 0.91349,1.62398 0.22574,0.49933 0.42523,0.98465 0.59849,1.45598 -0.392,0.13533 -0.812,0.20066 -1.25998,0.196 -1.60007,-0.0385 -2.76789,-0.82249 -3.50346,-2.35197 -0.73558,-1.52948 -1.0984,-3.57345 -1.08849,-6.13193 -0.0117,-2.54503 0.34766,-4.58084 1.07799,-6.10742 0.73032,-1.52654 1.90164,-2.30937 3.51396,-2.34847 1.60122,0.0391 2.7737,0.82193 3.51745,2.34847 0.74373,1.52658 1.11122,3.56239 1.10249,6.10742 0.004,1.78149 -0.1721,3.34247 -0.5285,4.68294 -0.35642,1.34049 -0.91758,2.35548 -1.68348,3.04497 -0.0455,-0.0752 -0.2345,-0.49875 -0.56699,-1.27049 -0.3325,-0.77173 -0.7035,-1.44023 -1.11298,-2.00547 z"
         style="font-size:28px;text-align:center;text-anchor:middle;fill:#ffffff;font-family:Mission Gothic Light;-inkscape-font-specification:Mission Gothic Light"
         id="path3713"
         inkscape:connector-curvature="0" />
      <path
         d="m 379.66744,550.74933 -3.30395,-7.08391 c 1.14564,-0.50399 1.99729,-1.27398 2.55496,-2.30997 0.55765,-1.03598 0.83531,-2.25396 0.83299,-3.65395 0.01,-1.92671 -0.49292,-3.49119 -1.50848,-4.69344 -1.01558,-1.20222 -2.60339,-1.82171 -4.76344,-1.85848 l -4.64794,0 0,19.59975 1.70798,0 0,-6.46792 2.82797,0 c 0.23974,5.9e-4 0.48123,-0.008 0.72449,-0.0245 0.24324,-0.0169 0.47773,-0.0461 0.70349,-0.0875 l 3.02396,6.57992 z m -9.12788,-8.0919 0,-9.88387 2.82797,0 c 1.58022,0.0163 2.7597,0.45968 3.53845,1.32998 0.77873,0.87034 1.16722,2.06966 1.16549,3.59796 0.001,1.52949 -0.38618,2.73347 -1.16199,3.61195 -0.77583,0.8785 -1.94715,1.32649 -3.51395,1.34398 z"
         style="font-size:28px;text-align:center;text-anchor:middle;fill:#ffffff;font-family:Mission Gothic Light;-inkscape-font-specification:Mission Gothic Light"
         id="path3715"
         inkscape:connector-curvature="0" />
      <path
         d="m 398.5933,546.49338 c -0.26251,0.9065 -0.6545,1.62048 -1.17598,2.14198 -0.52151,0.52149 -1.1935,0.78749 -2.01598,0.79799 -1.22616,-0.0227 -2.12681,-0.57225 -2.70196,-1.64848 -0.57517,-1.07623 -0.85983,-2.54271 -0.85399,-4.39945 -0.004,-1.87013 0.28407,-3.34478 0.86449,-4.42394 0.5804,-1.07914 1.47755,-1.6298 2.69146,-1.65198 0.82365,0.008 1.49331,0.26484 2.00898,0.76999 0.51565,0.50517 0.89131,1.20983 1.12698,2.11397 l 1.48398,-0.81199 c -0.37042,-1.1328 -0.93158,-2.02412 -1.68348,-2.67396 -0.75191,-0.64981 -1.74007,-0.98114 -2.96446,-0.99399 -1.68932,0.0204 -2.98663,0.70059 -3.89195,2.04048 -0.90532,1.33991 -1.36265,3.21705 -1.37198,5.63142 0.008,2.41323 0.46141,4.2857 1.36148,5.61743 0.90007,1.33173 2.20089,2.00722 3.90245,2.02648 1.23956,-0.0111 2.23938,-0.34592 2.99946,-1.00449 0.76007,-0.65858 1.31889,-1.5744 1.67648,-2.74747 z"
         style="font-size:28px;text-align:center;text-anchor:middle;fill:#ffffff;font-family:Mission Gothic Light;-inkscape-font-specification:Mission Gothic Light"
         id="path3717"
         inkscape:connector-curvature="0" />
      <path
         d="m 407.62334,549.46135 c -1.20049,-0.0251 -2.08948,-0.58391 -2.66697,-1.67648 -0.57749,-1.09257 -0.86449,-2.56838 -0.86098,-4.42745 -0.004,-1.8713 0.28349,-3.35061 0.86099,-4.43794 0.57748,-1.08731 1.46647,-1.64263 2.66696,-1.66598 1.21389,0.0233 2.11105,0.57867 2.69147,1.66598 0.5804,1.08733 0.86856,2.56664 0.86449,4.43794 0.004,1.88357 -0.28409,3.36638 -0.86449,4.44845 -0.58042,1.08207 -1.47758,1.63389 -2.69147,1.65548 z m 0,1.56798 c 1.73947,-0.0204 3.05545,-0.70058 3.94795,-2.04048 0.89248,-1.3399 1.34047,-3.21704 1.34398,-5.63143 -0.004,-2.40096 -0.4515,-4.26993 -1.34398,-5.60692 -0.8925,-1.33697 -2.20848,-2.01596 -3.94795,-2.03698 -1.72607,0.021 -3.03388,0.70001 -3.92345,2.03698 -0.88957,1.33699 -1.3364,3.20596 -1.34048,5.60692 0.004,2.41439 0.45091,4.29153 1.34048,5.63143 0.88957,1.3399 2.19739,2.02006 3.92345,2.04048 z"
         style="font-size:28px;text-align:center;text-anchor:middle;fill:#ffffff;font-family:Mission Gothic Light;-inkscape-font-specification:Mission Gothic Light"
         id="path3719"
         inkscape:connector-curvature="0" />
      <path
         d="m 426.06434,550.74933 c -0.042,-0.0782 -0.11901,-0.32783 -0.231,-0.74899 -0.11201,-0.42116 -0.17501,-0.96482 -0.189,-1.63098 l 0,-18.05977 -1.70798,0 0,5.48793 c 0.001,0.51509 0.006,0.98292 0.014,1.40348 0.008,0.42059 0.0128,0.64342 0.014,0.66849 l -0.056,0 c -0.32084,-0.64106 -0.75717,-1.15788 -1.30899,-1.55048 -0.55183,-0.39256 -1.22616,-0.59439 -2.02297,-0.60549 -1.61407,0.0228 -2.83789,0.70526 -3.67145,2.04748 -0.83358,1.34224 -1.25241,3.20771 -1.25649,5.59642 0.008,2.40214 0.42583,4.27578 1.25299,5.62093 0.82715,1.34515 2.0148,2.02881 3.56295,2.05098 0.9304,-0.0198 1.68055,-0.25317 2.25047,-0.7 0.5699,-0.44682 1.00506,-0.98815 1.30548,-1.62398 l 0.056,0 c 0.0257,0.54367 0.0863,1.00333 0.182,1.37899 0.0957,0.37566 0.15632,0.59732 0.182,0.66499 z m -2.12798,-5.82393 c -0.002,1.35274 -0.27125,2.44123 -0.80848,3.26546 -0.53726,0.82424 -1.33175,1.24774 -2.38347,1.27049 -1.20691,-0.0233 -2.07607,-0.57866 -2.60747,-1.66598 -0.53141,-1.08732 -0.79158,-2.56663 -0.78049,-4.43795 -0.0111,-1.84563 0.24908,-3.31328 0.78049,-4.40294 0.5314,-1.08964 1.40056,-1.6473 2.60747,-1.67298 1.16197,0.0408 1.98796,0.51917 2.47796,1.43498 0.48999,0.91584 0.72798,2.02415 0.71399,3.32496 z"
         style="font-size:28px;text-align:center;text-anchor:middle;fill:#ffffff;font-family:Mission Gothic Light;-inkscape-font-specification:Mission Gothic Light"
         id="path3721"
         inkscape:connector-curvature="0" />
      <path
         d="m 438.11617,546.54938 c -0.34242,1.00449 -0.79858,1.74648 -1.36848,2.22597 -0.56992,0.4795 -1.29908,0.7175 -2.18748,0.71399 -1.18999,-0.0163 -2.09297,-0.50865 -2.70896,-1.47698 -0.616,-0.96831 -0.94499,-2.31463 -0.98699,-4.03894 l 8.76389,0 0,-0.532 c 0.0256,-2.33096 -0.35467,-4.19293 -1.14099,-5.58593 -0.78633,-1.39296 -2.13264,-2.10695 -4.03894,-2.14197 -1.67824,0.0222 -2.97672,0.70584 -3.89545,2.05098 -0.91874,1.34516 -1.38424,3.2188 -1.39649,5.62092 0.0105,2.41323 0.4725,4.2857 1.38599,5.61743 0.91348,1.33173 2.21546,2.00722 3.90595,2.02648 1.30314,-0.002 2.35779,-0.31325 3.16396,-0.93449 0.80614,-0.62124 1.4408,-1.54173 1.90397,-2.76147 z m -7.25191,-4.00395 c 0.0852,-1.65605 0.43283,-2.95686 1.04299,-3.90245 0.61015,-0.94555 1.47581,-1.42738 2.59697,-1.44548 1.17831,0.0111 2.03463,0.47893 2.56896,1.40349 0.53432,0.92458 0.81665,2.23939 0.84699,3.94444 z"
         style="font-size:28px;text-align:center;text-anchor:middle;fill:#ffffff;font-family:Mission Gothic Light;-inkscape-font-specification:Mission Gothic Light"
         id="path3723"
         inkscape:connector-curvature="0" />
      <path
         d="m 459.85859,550.74933 c -0.0554,-0.0863 -0.1406,-0.33366 -0.2555,-0.74199 -0.11493,-0.40833 -0.17909,-0.96365 -0.1925,-1.66598 l 0,-7.30791 c -0.0263,-1.80305 -0.44275,-3.14586 -1.24948,-4.02844 -0.80675,-0.88256 -1.84623,-1.32239 -3.11846,-1.31949 -0.94674,-0.003 -1.83223,0.22693 -2.65647,0.68949 -0.82424,0.4626 -1.53473,1.17542 -2.13147,2.13848 l 1.25999,1.00798 c 0.3354,-0.69589 0.77757,-1.25005 1.32648,-1.66248 0.5489,-0.41239 1.20806,-0.62356 1.97747,-0.63349 0.87965,-0.002 1.57731,0.30276 2.09298,0.91349 0.51565,0.61076 0.77931,1.53824 0.79099,2.78247 l 0,1.17598 c -2.76497,0.0117 -4.81595,0.42934 -6.15292,1.25298 -1.33699,0.82367 -2.00198,1.98332 -1.99498,3.47896 0.0117,1.26523 0.38733,2.27672 1.12699,3.03446 0.73965,0.75774 1.7733,1.14623 3.10096,1.16549 1.05523,-0.0274 1.89872,-0.30858 2.53046,-0.84349 0.63174,-0.53491 1.10423,-1.15907 1.41749,-1.87248 0.0507,0.65974 0.12424,1.21623 0.22049,1.66948 0.0962,0.45324 0.16274,0.70874 0.1995,0.76649 z m -2.15597,-6.01992 c -0.002,1.32765 -0.31967,2.4523 -0.95199,3.37395 -0.63233,0.92166 -1.56565,1.40232 -2.79997,1.44198 -0.75132,-10e-4 -1.39065,-0.22982 -1.91797,-0.68599 -0.52733,-0.45616 -0.80266,-1.13281 -0.82599,-2.02997 0.01,-1.09432 0.50807,-1.92264 1.49448,-2.48497 0.9864,-0.56232 2.40155,-0.84465 4.24545,-0.84699 0.25198,10e-6 0.50398,10e-6 0.75599,0 z"
         style="font-size:28px;text-align:center;text-anchor:middle;fill:#ffffff;font-family:Mission Gothic Light;-inkscape-font-specification:Mission Gothic Light"
         id="path3725"
         inkscape:connector-curvature="0" />
      <path
         d="m 473.56765,550.74933 0,-9.09988 c 0.0309,-1.65606 -0.27593,-3.04787 -0.92049,-4.17545 -0.64459,-1.12756 -1.8124,-1.71438 -3.50346,-1.76048 -0.89833,0.006 -1.67765,0.2456 -2.33797,0.71749 -0.66033,0.47193 -1.18765,1.13809 -1.58198,1.99848 l -0.056,0 c -0.0286,-0.66498 -0.0974,-1.23197 -0.20649,-1.70098 -0.10909,-0.46898 -0.17092,-0.71398 -0.1855,-0.73499 l -1.62398,0 c 0.0543,0.0898 0.13475,0.34417 0.2415,0.76299 0.10674,0.41884 0.16624,0.96717 0.17849,1.64498 l 0,12.34784 1.70798,0 0,-8.51189 c -0.002,-1.42039 0.28933,-2.59754 0.87499,-3.53146 0.58566,-0.93389 1.47931,-1.41805 2.68097,-1.45248 1.14272,0.0187 1.93721,0.45734 2.38347,1.31599 0.44623,0.85866 0.65973,2.02531 0.64049,3.49995 l 0,8.67989 z"
         style="font-size:28px;text-align:center;text-anchor:middle;fill:#ffffff;font-family:Mission Gothic Light;-inkscape-font-specification:Mission Gothic Light"
         id="path3727"
         inkscape:connector-curvature="0" />
      <path
         d="m 487.20496,550.74933 c -0.042,-0.0782 -0.11901,-0.32783 -0.231,-0.74899 -0.11201,-0.42116 -0.175,-0.96482 -0.18899,-1.63098 l 0,-18.05977 -1.70798,0 0,5.48793 c 10e-4,0.51509 0.006,0.98292 0.014,1.40348 0.008,0.42059 0.0128,0.64342 0.014,0.66849 l -0.056,0 c -0.32084,-0.64106 -0.75717,-1.15788 -1.30898,-1.55048 -0.55184,-0.39256 -1.22616,-0.59439 -2.02298,-0.60549 -1.61406,0.0228 -2.83788,0.70526 -3.67145,2.04748 -0.83357,1.34224 -1.2524,3.20771 -1.25648,5.59642 0.008,2.40214 0.42582,4.27578 1.25298,5.62093 0.82715,1.34515 2.0148,2.02881 3.56295,2.05098 0.9304,-0.0198 1.68056,-0.25317 2.25048,-0.7 0.5699,-0.44682 1.00506,-0.98815 1.30548,-1.62398 l 0.056,0 c 0.0256,0.54367 0.0863,1.00333 0.182,1.37899 0.0956,0.37566 0.15632,0.59732 0.18199,0.66499 z m -2.12797,-5.82393 c -0.002,1.35274 -0.27126,2.44123 -0.80849,3.26546 -0.53725,0.82424 -1.33174,1.24774 -2.38347,1.27049 -1.20691,-0.0233 -2.07606,-0.57866 -2.60747,-1.66598 -0.53141,-1.08732 -0.79157,-2.56663 -0.78049,-4.43795 -0.0111,-1.84563 0.24908,-3.31328 0.78049,-4.40294 0.53141,-1.08964 1.40056,-1.6473 2.60747,-1.67298 1.16198,0.0408 1.98797,0.51917 2.47797,1.43498 0.48998,0.91584 0.72798,2.02415 0.71399,3.32496 z"
         style="font-size:28px;text-align:center;text-anchor:middle;fill:#ffffff;font-family:Mission Gothic Light;-inkscape-font-specification:Mission Gothic Light"
         id="path3729"
         inkscape:connector-curvature="0" />
      <path
         d="m 506.05424,546.49338 c -0.26251,0.9065 -0.6545,1.62048 -1.17599,2.14198 -0.5215,0.52149 -1.19349,0.78749 -2.01597,0.79799 -1.22616,-0.0227 -2.12681,-0.57225 -2.70197,-1.64848 -0.57516,-1.07623 -0.85982,-2.54271 -0.85399,-4.39945 -0.004,-1.87013 0.28408,-3.34478 0.86449,-4.42394 0.58041,-1.07914 1.47756,-1.6298 2.69147,-1.65198 0.82365,0.008 1.4933,0.26484 2.00897,0.76999 0.51565,0.50517 0.89132,1.20983 1.12699,2.11397 l 1.48398,-0.81199 c -0.37042,-1.1328 -0.93158,-2.02412 -1.68348,-2.67396 -0.75192,-0.64981 -1.74007,-0.98114 -2.96446,-0.99399 -1.68932,0.0204 -2.98663,0.70059 -3.89195,2.04048 -0.90532,1.33991 -1.36265,3.21705 -1.37198,5.63142 0.008,2.41323 0.46141,4.2857 1.36148,5.61743 0.90007,1.33173 2.20088,2.00722 3.90245,2.02648 1.23956,-0.0111 2.23938,-0.34592 2.99946,-1.00449 0.76006,-0.65858 1.31889,-1.5744 1.67648,-2.74747 z"
         style="font-size:28px;text-align:center;text-anchor:middle;fill:#ffffff;font-family:Mission Gothic Light;-inkscape-font-specification:Mission Gothic Light"
         id="path3731"
         inkscape:connector-curvature="0" />
      <path
         d="m 515.08428,549.46135 c -1.20049,-0.0251 -2.08948,-0.58391 -2.66697,-1.67648 -0.57749,-1.09257 -0.86449,-2.56838 -0.86099,-4.42745 -0.004,-1.8713 0.2835,-3.35061 0.86099,-4.43794 0.57749,-1.08731 1.46648,-1.64263 2.66697,-1.66598 1.21389,0.0233 2.11105,0.57867 2.69146,1.66598 0.5804,1.08733 0.86857,2.56664 0.86449,4.43794 0.004,1.88357 -0.28409,3.36638 -0.86449,4.44845 -0.58041,1.08207 -1.47757,1.63389 -2.69146,1.65548 z m 0,1.56798 c 1.73947,-0.0204 3.05545,-0.70058 3.94795,-2.04048 0.89247,-1.3399 1.34047,-3.21704 1.34398,-5.63143 -0.004,-2.40096 -0.4515,-4.26993 -1.34398,-5.60692 -0.8925,-1.33697 -2.20848,-2.01596 -3.94795,-2.03698 -1.72607,0.021 -3.03388,0.70001 -3.92345,2.03698 -0.88957,1.33699 -1.3364,3.20596 -1.34048,5.60692 0.004,2.41439 0.45091,4.29153 1.34048,5.63143 0.88957,1.3399 2.19738,2.02006 3.92345,2.04048 z"
         style="font-size:28px;text-align:center;text-anchor:middle;fill:#ffffff;font-family:Mission Gothic Light;-inkscape-font-specification:Mission Gothic Light"
         id="path3733"
         inkscape:connector-curvature="0" />
      <path
         d="m 533.83327,550.74933 0,-9.09988 c 0.0309,-1.65606 -0.27592,-3.04787 -0.92049,-4.17545 -0.64458,-1.12756 -1.8124,-1.71438 -3.50345,-1.76048 -0.89833,0.006 -1.67765,0.2456 -2.33797,0.71749 -0.66033,0.47193 -1.18766,1.13809 -1.58198,1.99848 l -0.056,0 c -0.0286,-0.66498 -0.0974,-1.23197 -0.2065,-1.70098 -0.10908,-0.46898 -0.17092,-0.71398 -0.1855,-0.73499 l -1.62397,0 c 0.0542,0.0898 0.13474,0.34417 0.24149,0.76299 0.10675,0.41884 0.16625,0.96717 0.1785,1.64498 l 0,12.34784 1.70798,0 0,-8.51189 c -0.002,-1.42039 0.28932,-2.59754 0.87499,-3.53146 0.58565,-0.93389 1.4793,-1.41805 2.68096,-1.45248 1.14273,0.0187 1.93722,0.45734 2.38347,1.31599 0.44623,0.85866 0.65973,2.02531 0.64049,3.49995 l 0,8.67989 z"
         style="font-size:28px;text-align:center;text-anchor:middle;fill:#ffffff;font-family:Mission Gothic Light;-inkscape-font-specification:Mission Gothic Light"
         id="path3735"
         inkscape:connector-curvature="0" />
      <path
         d="m 543.77464,548.81735 c -0.23101,0.18492 -0.50401,0.33308 -0.81899,0.4445 -0.31501,0.11141 -0.63,0.16858 -0.94499,0.1715 -0.6195,-0.003 -1.09549,-0.21408 -1.42798,-0.6335 -0.3325,-0.41941 -0.5005,-1.02956 -0.504,-1.83047 l 0,-9.46388 3.38796,0 0,-1.51198 -3.38796,0 0,-3.52796 -1.67998,0 0,3.52796 -1.98797,0 0,1.51198 1.98797,0 0,9.54788 c -0.005,1.2559 0.27125,2.23005 0.82949,2.92246 0.55824,0.69241 1.42973,1.04357 2.61447,1.05349 0.50632,-0.007 0.97065,-0.084 1.39298,-0.231 0.42232,-0.147 0.78865,-0.322 1.09899,-0.525 z"
         style="font-size:28px;text-align:center;text-anchor:middle;fill:#ffffff;font-family:Mission Gothic Light;-inkscape-font-specification:Mission Gothic Light"
         id="path3737"
         inkscape:connector-curvature="0" />
      <path
         d="m 548.67688,550.74933 0,-14.75581 -1.70798,0 0,14.75581 z m 0.224,-18.11577 c -0.007,-0.31498 -0.11201,-0.57397 -0.315,-0.77699 -0.203,-0.20298 -0.462,-0.30798 -0.77699,-0.31499 -0.30158,0.007 -0.55241,0.11201 -0.75249,0.31499 -0.20008,0.20302 -0.30392,0.46201 -0.3115,0.77699 0.008,0.3016 0.11142,0.55243 0.3115,0.75249 0.20008,0.2001 0.45091,0.30393 0.75249,0.3115 0.31499,-0.008 0.57399,-0.1114 0.77699,-0.3115 0.20299,-0.20006 0.30799,-0.45089 0.315,-0.75249 z"
         style="font-size:28px;text-align:center;text-anchor:middle;fill:#ffffff;font-family:Mission Gothic Light;-inkscape-font-specification:Mission Gothic Light"
         id="path3739"
         inkscape:connector-curvature="0" />
      <path
         d="m 562.81765,550.74933 0,-9.09988 c 0.0309,-1.65606 -0.27593,-3.04787 -0.92049,-4.17545 -0.64459,-1.12756 -1.8124,-1.71438 -3.50346,-1.76048 -0.89833,0.006 -1.67765,0.2456 -2.33797,0.71749 -0.66033,0.47193 -1.18765,1.13809 -1.58198,1.99848 l -0.056,0 c -0.0286,-0.66498 -0.0974,-1.23197 -0.20649,-1.70098 -0.10909,-0.46898 -0.17092,-0.71398 -0.1855,-0.73499 l -1.62398,0 c 0.0543,0.0898 0.13475,0.34417 0.2415,0.76299 0.10674,0.41884 0.16624,0.96717 0.17849,1.64498 l 0,12.34784 1.70798,0 0,-8.51189 c -0.002,-1.42039 0.28933,-2.59754 0.87499,-3.53146 0.58566,-0.93389 1.47931,-1.41805 2.68097,-1.45248 1.14272,0.0187 1.93721,0.45734 2.38347,1.31599 0.44623,0.85866 0.65973,2.02531 0.64049,3.49995 l 0,8.67989 z"
         style="font-size:28px;text-align:center;text-anchor:middle;fill:#ffffff;font-family:Mission Gothic Light;-inkscape-font-specification:Mission Gothic Light"
         id="path3741"
         inkscape:connector-curvature="0" />
      <path
         d="m 576.84696,550.74933 c -0.042,-0.0764 -0.11901,-0.32258 -0.231,-0.73849 -0.11201,-0.41591 -0.17501,-0.96307 -0.189,-1.64148 l 0,-12.37584 -1.70798,0 0,8.67989 c -0.008,1.40115 -0.32083,2.5468 -0.93798,3.43695 -0.61717,0.89016 -1.48983,1.34982 -2.61797,1.37898 -1.15499,-0.0157 -1.95298,-0.44624 -2.39397,-1.29148 -0.441,-0.84523 -0.65099,-2.01072 -0.62999,-3.49645 l 0,-8.70789 -1.70798,0 0,9.09988 c -0.0309,1.65607 0.27591,3.04788 0.92049,4.17545 0.64457,1.12757 1.81239,1.71439 3.50345,1.76048 0.88782,-0.005 1.66714,-0.24034 2.33797,-0.707 0.67082,-0.46666 1.19815,-1.13631 1.58198,-2.00897 l 0.056,0 c 0.0286,0.66499 0.0974,1.23199 0.2065,1.70098 0.10907,0.46899 0.1709,0.71399 0.1855,0.73499 z"
         style="font-size:28px;text-align:center;text-anchor:middle;fill:#ffffff;font-family:Mission Gothic Light;-inkscape-font-specification:Mission Gothic Light"
         id="path3743"
         inkscape:connector-curvature="0" />
      <path
         d="m 588.88961,546.54938 c -0.34243,1.00449 -0.79859,1.74648 -1.36849,2.22597 -0.56991,0.4795 -1.29907,0.7175 -2.18747,0.71399 -1.18999,-0.0163 -2.09298,-0.50865 -2.70896,-1.47698 -0.616,-0.96831 -0.94499,-2.31463 -0.98699,-4.03894 l 8.76389,0 0,-0.532 c 0.0256,-2.33096 -0.35468,-4.19293 -1.14099,-5.58593 -0.78633,-1.39296 -2.13265,-2.10695 -4.03895,-2.14197 -1.67823,0.0222 -2.97671,0.70584 -3.89545,2.05098 -0.91874,1.34516 -1.38423,3.2188 -1.39648,5.62092 0.0105,2.41323 0.47249,4.2857 1.38598,5.61743 0.91349,1.33173 2.21547,2.00722 3.90595,2.02648 1.30315,-0.002 2.3578,-0.31325 3.16396,-0.93449 0.80615,-0.62124 1.44081,-1.54173 1.90398,-2.76147 z m -7.25191,-4.00395 c 0.0852,-1.65605 0.43282,-2.95686 1.04299,-3.90245 0.61015,-0.94555 1.4758,-1.42738 2.59696,-1.44548 1.17831,0.0111 2.03463,0.47893 2.56897,1.40349 0.53432,0.92458 0.81665,2.23939 0.84699,3.94444 z"
         style="font-size:28px;text-align:center;text-anchor:middle;fill:#ffffff;font-family:Mission Gothic Light;-inkscape-font-specification:Mission Gothic Light"
         id="path3745"
         inkscape:connector-curvature="0" />
    </g>
  </g>
</svg>
