<?xml version="1.0" encoding="UTF-8" standalone="no"?>
<!-- Created with Inkscape (http://www.inkscape.org/) -->

<svg
   xmlns:dc="http://purl.org/dc/elements/1.1/"
   xmlns:cc="http://creativecommons.org/ns#"
   xmlns:rdf="http://www.w3.org/1999/02/22-rdf-syntax-ns#"
   xmlns:svg="http://www.w3.org/2000/svg"
   xmlns="http://www.w3.org/2000/svg"
   xmlns:sodipodi="http://sodipodi.sourceforge.net/DTD/sodipodi-0.dtd"
   xmlns:inkscape="http://www.inkscape.org/namespaces/inkscape"
   width="693.81372"
   height="629.00208"
   id="svg6994"
   version="1.1"
   inkscape:version="0.48.4 r9939"
   sodipodi:docname="New document 42">
  <defs
     id="defs6996" />
  <sodipodi:namedview
     id="base"
     pagecolor="#ffffff"
     bordercolor="#666666"
     borderopacity="1.0"
     inkscape:pageopacity="0.0"
     inkscape:pageshadow="2"
     inkscape:zoom="0.35"
     inkscape:cx="236.1925"
     inkscape:cy="360.21529"
     inkscape:document-units="px"
     inkscape:current-layer="layer1"
     showgrid="false"
     fit-margin-top="0"
     fit-margin-left="0"
     fit-margin-right="0"
     fit-margin-bottom="0"
     inkscape:window-width="463"
     inkscape:window-height="423"
     inkscape:window-x="52"
     inkscape:window-y="52"
     inkscape:window-maximized="0" />
  <metadata
     id="metadata6999">
    <rdf:RDF>
      <cc:Work
         rdf:about="">
        <dc:format>image/svg+xml</dc:format>
        <dc:type
           rdf:resource="http://purl.org/dc/dcmitype/StillImage" />
        <dc:title></dc:title>
      </cc:Work>
    </rdf:RDF>
  </metadata>
  <g
     inkscape:label="Layer 1"
     inkscape:groupmode="layer"
     id="layer1"
     transform="translate(-138.8075,-263.5754)">
    <g
       transform="translate(-1195.8198,-1005.3103)"
       id="g6971">
      <path
         style="fill:#ff6600;fill-opacity:1"
         inkscape:connector-curvature="0"
         d="m 1797.1172,1268.8857 c 0,161.8766 -84.1171,215.5438 -92.3405,280.7205 h -46.3189 c -8.2235,-65.1767 -92.5222,-118.8439 -92.5222,-280.7205 h 231.1816 z m -120.6273,215.5438 c -31.1434,-53.8323 -43.5116,-122.7244 -43.6933,-182.5179 h -28.0555 c 3.3852,76.7523 32.8608,137.6026 71.7488,182.5179 z m 28.7821,81.6896 h -47.3261 c -3.3356,19.6009 -10.4032,43.2475 -42.4549,43.2475 v 22.8044 h 132.1038 v -22.8044 c -33.0094,0 -39.1523,-23.6466 -42.3228,-43.2475 z m 116.9119,-26.3547 c -23.1512,-10.4692 -43.0824,-3.1374 -55.3845,4.8383 12.3021,-7.9922 26.4703,-24.1749 26.3382,-49.5884 -42.7851,17.1405 -37.8973,41.2164 -45.6584,55.2359 -5.2016,9.4289 -16.6286,4.5245 -16.6286,4.5245 l -3.5172,5.8126 c 6.0272,3.187 16.3313,5.2676 28.3362,5.2676 21.5825,0 48.6968,-6.7538 66.5143,-26.0905 z m 40.3577,-66.4151 c -22.821,1.6017 -34.9745,17.5202 -41.299,29.1123 6.3245,-11.5921 10.139,-32.0681 -0.8256,-52.1479 -26.5859,31.8535 -12.4178,48.8453 -12.5829,63.2612 -0.066,7.051 -8.0914,6.8859 -8.0914,6.8859 l 0.1156,6.6712 c 5.1851,-0.677 52.0819,-11.8398 62.6833,-53.7827 z m 17.1074,-63.9052 c -19.3367,7.0345 -25.7602,24.3236 -28.3693,35.9157 2.6091,-11.5921 0.677,-30.7637 -13.7883,-45.4107 -15.1094,34.1489 1.3541,45.3281 4.7888,57.845 1.6843,6.1263 -5.3668,10.0068 -5.3668,10.0068 l 4.7888,2.9558 c 1.0073,-0.4788 39.3834,-21.9952 37.9468,-61.3126 z m -3.3026,-62.6172 c -14.9112,10.9976 -16.7937,27.8739 -16.0836,38.5578 -0.6936,-10.6674 -6.5226,-27.0648 -22.7219,-36.0313 -4.3594,33.3232 12.6985,38.789 18.8578,48.7133 3.0054,4.8548 0.3798,10.8655 0.3798,10.8655 l 4.6897,-0.3138 c 0,0 0.4294,-2.0971 2.7907,-7.2987 4.8053,-10.6343 20.7238,-22.0283 12.0875,-54.4928 z m -31.3911,-44.9153 c 0,0 -4.5081,16.2488 -0.7431,28.6005 4.0291,13.1773 14.4158,22.4741 14.4158,22.4741 0,0 5.6144,-14.4158 1.6348,-28.6169 -3.6659,-13.0783 -15.3075,-22.4577 -15.3075,-22.4577 z m -209.2194,258.6757 -3.5172,-5.8126 c 0,0 -11.4105,4.9044 -16.6286,-4.5245 -7.7611,-14.0195 -2.8732,-38.0954 -45.6583,-55.2359 -0.1321,25.4135 14.036,41.6127 26.3381,49.5884 -12.3021,-7.9922 -32.2333,-15.3075 -55.3844,-4.8383 17.8009,19.3367 44.9317,26.107 66.5142,26.107 12.0049,-0.017 22.2925,-2.0971 28.3362,-5.2841 z m -72.5414,-33.4718 0.1156,-6.6712 c 0,0 -8.0253,0.1651 -8.0914,-6.8859 -0.1486,-14.4159 14.003,-31.3912 -12.5829,-63.2612 -10.9646,20.0797 -7.1501,40.5723 -0.8256,52.1479 -6.3245,-11.5921 -18.4945,-27.5106 -41.299,-29.1123 10.6014,41.9594 57.4982,53.1222 62.6833,53.7827 z m -41.8274,-56.3588 4.7888,-2.9558 c 0,0 -7.0511,-3.897 -5.3667,-10.0068 3.4347,-12.5169 19.8981,-23.6961 4.7887,-57.845 -14.4653,14.647 -16.4139,33.8186 -13.7883,45.4107 -2.609,-11.5921 -9.0161,-28.8812 -28.3693,-35.9157 -1.4531,39.3174 36.923,60.8338 37.9468,61.3126 z m -22.5567,-69.4205 c 2.3614,5.2016 2.7907,7.2988 2.7907,7.2988 l 4.6897,0.3137 c 0,0 -2.6256,-6.0107 0.3798,-10.8655 6.1593,-9.9243 23.2007,-15.4066 18.8578,-48.7133 -16.2323,8.95 -22.0448,25.3309 -22.7384,36.0148 0.6936,-10.6839 -1.1889,-27.5767 -16.0836,-38.5578 -8.6363,32.4645 7.2822,43.8585 12.104,54.5093 z m 3.9796,-76.9669 c -3.9631,14.2011 1.6348,28.6169 1.6348,28.6169 0,0 10.3867,-9.2968 14.4158,-22.4741 3.765,-12.3517 -0.743,-28.6005 -0.743,-28.6005 0,0 -11.6417,9.3794 -15.3076,22.4577 z"
         id="path6917" />
      <g
         style="font-size:40px;font-style:normal;font-weight:normal;line-height:125%;letter-spacing:0px;word-spacing:0px;fill:#ffffff;fill-opacity:1;stroke:none;font-family:Sans"
         id="text6251-6-7-7">
        <path
           d="m 1368.8989,1793.9821 0,-29.8077 25.6316,-70.991 -9.6478,0 -16.5598,47.8073 c -0.9631,2.877 -1.773,5.727 -2.43,8.5499 -0.657,2.823 -0.999,4.341 -1.026,4.554 l -0.288,0 c -0.033,-0.213 -0.399,-1.731 -1.098,-4.554 -0.699,-2.8229 -1.533,-5.6729 -2.5019,-8.5499 l -16.8478,-47.8073 -9.5039,0 25.4877,70.703 0,30.0957 z"
           style="font-size:144px;fill:#ff6600;font-family:Mission Gothic Light;-inkscape-font-specification:Mission Gothic Light"
           id="path7020" />
        <path
           d="m 1435.7666,1795.422 c 11.4928,-0.333 19.7907,-5.3189 24.8937,-14.9578 5.1028,-9.6388 7.6048,-21.9327 7.5059,-36.8815 0.099,-14.9487 -2.4031,-27.2426 -7.506,-36.8815 -5.1029,-9.6388 -13.4008,-14.6247 -24.8936,-14.9578 -11.5559,0.3331 -19.8718,5.319 -24.9477,14.9578 -5.076,9.6389 -7.5599,21.9328 -7.4519,36.8815 -0.108,14.9488 2.376,27.2427 7.4519,36.8815 5.0759,9.6389 13.3918,14.6248 24.9477,14.9578 z m 0,-8.2079 c -8.2979,-0.1979 -14.3459,-4.2299 -18.1438,-12.0958 -3.798,-7.8659 -5.6699,-18.3777 -5.6159,-31.5356 -0.054,-13.1578 1.8179,-23.6696 5.6159,-31.5356 3.7979,-7.8658 9.8458,-11.8977 18.1438,-12.0958 8.2288,0.1981 14.2347,4.23 18.0177,12.0958 3.7829,7.866 5.6489,18.3778 5.598,31.5356 0.051,13.1579 -1.8151,23.6697 -5.598,31.5356 -3.783,7.8659 -9.7889,11.8979 -18.0177,12.0958 z"
           style="font-size:144px;fill:#ff6600;font-family:Mission Gothic Light;-inkscape-font-specification:Mission Gothic Light"
           id="path7022" />
        <path
           d="m 1534.2443,1758.7025 c -0,9.2459 -1.653,16.2778 -4.9499,21.0957 -3.297,4.818 -8.223,7.242 -14.7778,7.2719 -6.555,-0.03 -11.4809,-2.4539 -14.7778,-7.2719 -3.297,-4.8179 -4.947,-11.8498 -4.95,-21.0957 l 0,-65.5191 -8.7839,0 0,67.1031 c 0.09,11.7329 2.646,20.5227 7.6679,26.3696 5.022,5.847 11.9699,8.7689 20.8438,8.7659 8.8738,0 15.8217,-2.9159 20.8437,-8.7479 5.0219,-5.8319 7.5778,-14.5797 7.6679,-26.2436 l 0,-67.2471 -8.7839,0 z"
           style="font-size:144px;fill:#ff6600;font-family:Mission Gothic Light;-inkscape-font-specification:Mission Gothic Light"
           id="path7024" />
        <path
           d="m 1621.7782,1793.9821 -16.9918,-36.4316 c 5.8919,-2.5919 10.2718,-6.5519 13.1399,-11.8798 2.8678,-5.3279 4.2958,-11.5918 4.2839,-18.7918 0.051,-9.9088 -2.535,-17.9547 -7.7579,-24.1377 -5.223,-6.1828 -13.3889,-9.3687 -24.4977,-9.5578 l -23.9037,0 0,100.7987 8.7839,0 0,-33.2636 14.5438,0 c 1.233,0 2.475,-0.039 3.726,-0.126 1.2509,-0.087 2.4569,-0.237 3.6179,-0.45 l 15.5518,33.8396 z m -46.9434,-41.6155 0,-50.8314 14.5438,0 c 8.1269,0.084 14.1928,2.3641 18.1978,6.84 4.0049,4.476 6.0028,10.6439 5.9939,18.5037 0.01,7.866 -1.986,14.0579 -5.9759,18.5758 -3.99,4.518 -10.0139,6.8219 -18.0718,6.9119 z"
           style="font-size:144px;fill:#ff6600;font-family:Mission Gothic Light;-inkscape-font-specification:Mission Gothic Light"
           id="path7026" />
        <path
           d="m 1673.3198,1776.8463 c 2.5289,5.4989 6.5069,9.9449 11.9338,13.3378 5.4269,3.393 11.8168,5.1389 19.1698,5.2379 9.2638,-0.183 16.3677,-2.8049 21.3117,-7.8659 4.9439,-5.0609 7.4398,-11.4628 7.4879,-19.2057 -0.2476,-8.1599 -2.7225,-14.3398 -7.4249,-18.5398 -4.7025,-4.1999 -10.1474,-7.5718 -16.3348,-10.1158 -6.1875,-2.544 -11.6324,-5.4119 -16.3348,-8.6039 -4.7025,-3.1919 -7.1774,-7.8599 -7.4249,-14.0039 0.09,-4.7968 1.746,-8.7748 4.9679,-11.9338 3.222,-3.1589 7.4699,-4.7968 12.7439,-4.9139 5.5379,0.1261 10.0138,1.602 13.4278,4.4279 3.4139,2.8261 5.8019,6.246 7.1639,10.2599 l 7.7759,-4.176 c -2.223,-5.7688 -5.661,-10.3587 -10.3139,-13.7698 -4.6529,-3.4109 -10.5749,-5.1568 -17.7657,-5.2379 -8.5559,0.1681 -15.1679,2.64 -19.8358,7.4159 -4.6679,4.776 -7.0319,10.8479 -7.0919,18.2157 0.2483,7.9485 2.7307,13.9934 7.4474,18.1348 4.7167,4.1415 10.1781,7.5045 16.3843,10.0889 6.2061,2.5845 11.6676,5.5155 16.3843,8.7929 4.7166,3.2775 7.1991,8.0264 7.4474,14.2468 0.021,4.9889 -1.605,9.2669 -4.8779,12.8338 -3.273,3.567 -8.319,5.433 -15.1378,5.5979 -5.451,-0.057 -10.2089,-1.4189 -14.2739,-4.0859 -4.0649,-2.667 -7.1309,-6.2969 -9.1978,-10.8899 z"
           style="font-size:144px;fill:#ff6600;font-family:Mission Gothic Light;-inkscape-font-specification:Mission Gothic Light"
           id="path7028" />
        <path
           d="m 1799.2021,1769.3584 c -1.7881,5.5319 -4.368,9.8759 -7.7399,13.0318 -3.372,3.156 -7.608,4.7639 -12.7079,4.8239 -8.4299,-0.2429 -14.5378,-4.3649 -18.3237,-12.3658 -3.786,-8.0009 -5.646,-18.4227 -5.58,-31.2656 -0.066,-12.8428 1.794,-23.2646 5.58,-31.2656 3.7859,-8.0008 9.8938,-12.1227 18.3237,-12.3658 5.3069,0.06 9.6688,1.776 13.0859,5.1479 3.4169,3.372 6.0148,8.04 7.7939,14.0038 l 7.9198,-3.5999 c -2.343,-7.2899 -5.8649,-13.0498 -10.5658,-17.2798 -4.701,-4.2299 -10.7789,-6.3898 -18.2338,-6.4799 -11.6879,0.3601 -20.0637,5.4 -25.1277,15.1198 -5.0639,9.7199 -7.5359,21.9598 -7.4159,36.7195 -0.12,14.7599 2.352,26.9997 7.4159,36.7195 5.064,9.7199 13.4398,14.7598 25.1277,15.1198 7.1789,-0.084 13.0888,-2.1119 17.7298,-6.0839 4.6409,-3.9719 8.1388,-9.3839 10.4939,-16.2358 z"
           style="font-size:144px;fill:#ff6600;font-family:Mission Gothic Light;-inkscape-font-specification:Mission Gothic Light"
           id="path7030" />
        <path
           d="m 1851.1728,1795.422 c 11.4928,-0.333 19.7907,-5.3189 24.8937,-14.9578 5.1029,-9.6388 7.6048,-21.9327 7.5059,-36.8815 0.099,-14.9487 -2.403,-27.2426 -7.5059,-36.8815 -5.103,-9.6388 -13.4009,-14.6247 -24.8937,-14.9578 -11.5559,0.3331 -19.8717,5.319 -24.9477,14.9578 -5.0759,9.6389 -7.5599,21.9328 -7.4519,36.8815 -0.108,14.9488 2.376,27.2427 7.4519,36.8815 5.076,9.6389 13.3918,14.6248 24.9477,14.9578 z m 0,-8.2079 c -8.2979,-0.1979 -14.3458,-4.2299 -18.1437,-12.0958 -3.798,-7.8659 -5.67,-18.3777 -5.616,-31.5356 -0.054,-13.1578 1.818,-23.6696 5.616,-31.5356 3.7979,-7.8658 9.8458,-11.8977 18.1437,-12.0958 8.2289,0.1981 14.2348,4.23 18.0178,12.0958 3.7829,7.866 5.6489,18.3778 5.5979,31.5356 0.051,13.1579 -1.815,23.6697 -5.5979,31.5356 -3.783,7.8659 -9.7889,11.8979 -18.0178,12.0958 z"
           style="font-size:144px;fill:#ff6600;font-family:Mission Gothic Light;-inkscape-font-specification:Mission Gothic Light"
           id="path7032" />
        <path
           d="m 1958.4345,1793.9821 -16.9918,-36.4316 c 5.8918,-2.5919 10.2718,-6.5519 13.1398,-11.8798 2.8679,-5.3279 4.2959,-11.5918 4.2839,-18.7918 0.051,-9.9088 -2.535,-17.9547 -7.7578,-24.1377 -5.223,-6.1828 -13.3889,-9.3687 -24.4977,-9.5578 l -23.9037,0 0,100.7987 8.7839,0 0,-33.2636 14.5438,0 c 1.2329,0 2.4749,-0.039 3.7259,-0.126 1.251,-0.087 2.4569,-0.237 3.618,-0.45 l 15.5518,33.8396 z m -46.9434,-41.6155 0,-50.8314 14.5438,0 c 8.1268,0.084 14.1927,2.3641 18.1977,6.84 4.0049,4.476 6.0029,10.6439 5.994,18.5037 0.01,7.866 -1.9861,14.0579 -5.976,18.5758 -3.99,4.518 -10.0139,6.8219 -18.0717,6.9119 z"
           style="font-size:144px;fill:#ff6600;font-family:Mission Gothic Light;-inkscape-font-specification:Mission Gothic Light"
           id="path7034" />
        <path
           d="m 2028.441,1793.9821 0,-8.3519 -40.0314,0 0,-33.5516 34.4155,0 0,-8.3519 -34.4155,0 0,-42.0475 40.0314,0 0,-8.4958 -48.8153,0 0,100.7987 z"
           style="font-size:144px;fill:#ff6600;font-family:Mission Gothic Light;-inkscape-font-specification:Mission Gothic Light"
           id="path7036" />
      </g>
      <g
         style="font-size:40px;font-style:normal;font-weight:normal;line-height:125%;letter-spacing:0px;word-spacing:0px;fill:#ffffff;fill-opacity:1;stroke:none;font-family:Sans"
         id="text6251-6-7-7-8">
        <path
           d="m 1430.8553,1882.84 -8.4959,-18.2158 c 2.9459,-1.296 5.1359,-3.2759 6.5699,-5.9399 1.434,-2.664 2.148,-5.7959 2.142,-9.3959 0.025,-4.9544 -1.2675,-8.9773 -3.879,-12.0688 -2.6115,-3.0915 -6.6944,-4.6844 -12.2488,-4.779 l -11.9519,0 0,50.3994 4.392,0 0,-16.6318 7.2719,0 c 0.6165,0 1.2375,-0.02 1.863,-0.063 0.6254,-0.043 1.2284,-0.1185 1.809,-0.225 l 7.7759,16.9198 z m -23.4717,-20.8078 0,-25.4156 7.2719,0 c 4.0634,0.042 7.0964,1.182 9.0989,3.4199 2.0024,2.238 3.0014,5.322 2.9969,9.2519 0,3.933 -0.993,7.0289 -2.9879,9.2879 -1.995,2.259 -5.007,3.411 -9.0359,3.4559 z"
           style="font-size:72px;fill:#ff6600;font-family:Mission Gothic Light;-inkscape-font-specification:Mission Gothic Light"
           id="path7039" />
        <path
           d="m 1462.0426,1872.0401 c -0.8805,2.583 -2.0535,4.491 -3.5189,5.7239 -1.4655,1.233 -3.3405,1.845 -5.6249,1.836 -3.06,-0.042 -5.382,-1.308 -6.966,-3.7979 -1.5839,-2.49 -2.4299,-5.952 -2.5379,-10.3859 l 22.5357,0 0,-1.368 c 0.066,-5.9939 -0.912,-10.7818 -2.934,-14.3638 -2.022,-3.5819 -5.4839,-5.4179 -10.3858,-5.5079 -4.3155,0.057 -7.6545,1.815 -10.0169,5.2739 -2.3625,3.459 -3.5595,8.2769 -3.591,14.4538 0.027,6.2054 1.215,11.0204 3.564,14.4448 2.3489,3.4245 5.6969,5.1615 10.0439,5.211 3.3509,-0 6.0629,-0.8055 8.1359,-2.403 2.0729,-1.5975 3.7049,-3.9645 4.8959,-7.1009 z m -18.6477,-10.2959 c 0.219,-4.2584 1.1129,-7.6033 2.6819,-10.0348 1.569,-2.4315 3.795,-3.6705 6.678,-3.717 3.0299,0.028 5.2319,1.2315 6.6059,3.609 1.3739,2.3775 2.0999,5.7584 2.1779,10.1428 z"
           style="font-size:72px;fill:#ff6600;font-family:Mission Gothic Light;-inkscape-font-specification:Mission Gothic Light"
           id="path7041" />
        <path
           d="m 1499.5366,1882.84 c -0.108,-0.201 -0.306,-0.843 -0.594,-1.926 -0.288,-1.083 -0.45,-2.481 -0.486,-4.194 l 0,-46.4394 -4.3919,0 0,14.1119 c 0,1.3245 0.015,2.5275 0.036,3.6089 0.021,1.0815 0.033,1.6545 0.036,1.719 l -0.144,0 c -0.8251,-1.6485 -1.947,-2.9774 -3.366,-3.987 -1.419,-1.0094 -3.153,-1.5284 -5.2019,-1.5569 -4.1505,0.058 -7.2974,1.8135 -9.4409,5.2649 -2.1435,3.4515 -3.2205,8.2484 -3.231,14.3908 0.021,6.1769 1.095,10.9949 3.222,14.4538 2.127,3.459 5.1809,5.217 9.1619,5.274 2.3924,-0.051 4.3214,-0.651 5.7869,-1.8 1.4655,-1.149 2.5844,-2.541 3.357,-4.176 l 0.144,0 c 0.066,1.398 0.2219,2.58 0.4679,3.546 0.246,0.966 0.402,1.536 0.468,1.71 z m -5.4719,-14.9758 c -0,3.4784 -0.6976,6.2774 -2.079,8.3968 -1.3815,2.1195 -3.4245,3.2085 -6.1289,3.267 -3.1035,-0.06 -5.3385,-1.488 -6.705,-4.2839 -1.3664,-2.796 -2.0354,-6.5999 -2.0069,-11.4119 -0.028,-4.7459 0.6405,-8.5199 2.0069,-11.3218 1.3665,-2.802 3.6015,-4.236 6.705,-4.302 2.9879,0.105 5.1119,1.335 6.3719,3.69 1.2599,2.355 1.8719,5.2049 1.836,8.5499 z"
           style="font-size:72px;fill:#ff6600;font-family:Mission Gothic Light;-inkscape-font-specification:Mission Gothic Light"
           id="path7043" />
        <path
           d="m 1530.527,1872.0401 c -0.8805,2.583 -2.0535,4.491 -3.5189,5.7239 -1.4656,1.233 -3.3405,1.845 -5.625,1.836 -3.0599,-0.042 -5.3819,-1.308 -6.9659,-3.7979 -1.584,-2.49 -2.43,-5.952 -2.538,-10.3859 l 22.5358,0 0,-1.368 c 0.066,-5.9939 -0.9121,-10.7818 -2.934,-14.3638 -2.022,-3.5819 -5.484,-5.4179 -10.3859,-5.5079 -4.3154,0.057 -7.6544,1.815 -10.0168,5.2739 -2.3625,3.459 -3.5595,8.2769 -3.591,14.4538 0.027,6.2054 1.215,11.0204 3.564,14.4448 2.3489,3.4245 5.6969,5.1615 10.0438,5.211 3.351,-0 6.0629,-0.8055 8.1359,-2.403 2.073,-1.5975 3.7049,-3.9645 4.896,-7.1009 z m -18.6478,-10.2959 c 0.219,-4.2584 1.113,-7.6033 2.682,-10.0348 1.569,-2.4315 3.7949,-3.6705 6.6779,-3.717 3.03,0.028 5.2319,1.2315 6.6059,3.609 1.374,2.3775 2.1,5.7584 2.178,10.1428 z"
           style="font-size:72px;fill:#ff6600;font-family:Mission Gothic Light;-inkscape-font-specification:Mission Gothic Light"
           id="path7045" />
        <path
           d="m 1564.277,1872.0401 c -0.8805,2.583 -2.0535,4.491 -3.5189,5.7239 -1.4656,1.233 -3.3405,1.845 -5.625,1.836 -3.0599,-0.042 -5.3819,-1.308 -6.9659,-3.7979 -1.584,-2.49 -2.43,-5.952 -2.538,-10.3859 l 22.5358,0 0,-1.368 c 0.066,-5.9939 -0.9121,-10.7818 -2.934,-14.3638 -2.022,-3.5819 -5.484,-5.4179 -10.3859,-5.5079 -4.3154,0.057 -7.6544,1.815 -10.0168,5.2739 -2.3625,3.459 -3.5595,8.2769 -3.591,14.4538 0.027,6.2054 1.215,11.0204 3.564,14.4448 2.3489,3.4245 5.6969,5.1615 10.0438,5.211 3.351,-0 6.0629,-0.8055 8.1359,-2.403 2.073,-1.5975 3.7049,-3.9645 4.896,-7.1009 z m -18.6478,-10.2959 c 0.219,-4.2584 1.113,-7.6033 2.682,-10.0348 1.569,-2.4315 3.7949,-3.6705 6.6779,-3.717 3.03,0.028 5.2319,1.2315 6.6059,3.609 1.374,2.3775 2.1,5.7584 2.178,10.1428 z"
           style="font-size:72px;fill:#ff6600;font-family:Mission Gothic Light;-inkscape-font-specification:Mission Gothic Light"
           id="path7047" />
        <path
           d="m 1619.5547,1882.84 0,-23.9037 c 0.1035,-4.2059 -0.5355,-7.6919 -1.9169,-10.4579 -1.3816,-2.7659 -4.1265,-4.1999 -8.2349,-4.3019 -2.277,-0.01 -4.239,0.6015 -5.886,1.8269 -1.647,1.2256 -2.925,3.1125 -3.8339,5.661 l -0.144,0 c -0.531,-2.2275 -1.557,-4.0004 -3.078,-5.319 -1.521,-1.3184 -3.5909,-1.9934 -6.2099,-2.0249 -2.0505,-0.02 -3.8355,0.4695 -5.3549,1.4669 -1.5195,0.9976 -2.7825,2.6205 -3.789,4.869 l -0.144,0 c -0.105,-1.626 -0.291,-2.9819 -0.558,-4.068 -0.267,-1.0859 -0.417,-1.6499 -0.45,-1.6919 l -4.1759,0 c 0.1395,0.231 0.3465,0.885 0.621,1.9619 0.2745,1.077 0.4275,2.487 0.459,4.23 l 0,31.7516 4.3919,0 0,-23.3997 c 0.047,-3.7695 0.8355,-6.5624 2.367,-8.3789 1.5315,-1.8165 3.5264,-2.7195 5.9849,-2.709 2.2515,-0.016 3.8864,0.8445 4.905,2.583 1.0184,1.7385 1.5194,4.4534 1.5029,8.1449 l 0,23.7597 4.392,0 0,-22.8957 c 0.037,-3.948 0.8084,-6.8699 2.3129,-8.7659 1.5045,-1.896 3.5175,-2.838 6.039,-2.826 2.2514,-0.016 3.8864,0.8445 4.9049,2.583 1.0185,1.7385 1.5194,4.4534 1.503,8.1449 l 0,23.7597 z"
           style="font-size:72px;fill:#ff6600;font-family:Mission Gothic Light;-inkscape-font-specification:Mission Gothic Light"
           id="path7049" />
        <path
           d="m 1657.0807,1882.768 c -0.75,2.6894 -1.68,5.1404 -2.79,7.3529 -1.11,2.2124 -2.868,3.3854 -5.2739,3.5189 -0.7605,-0 -1.4895,-0.1065 -2.187,-0.315 -0.6975,-0.2085 -1.3365,-0.5115 -1.917,-0.909 l -2.0159,3.744 c 0.9689,0.576 1.9829,1.008 3.0419,1.296 1.059,0.288 2.181,0.432 3.366,0.432 2.8994,-0.023 5.2004,-1.0755 6.9029,-3.159 1.7024,-2.0835 3.1214,-5.0624 4.2569,-8.9369 l 12.1679,-40.8954 -4.536,0 -7.4159,25.6316 c -0.4095,1.3905 -0.7605,2.6235 -1.053,3.699 -0.2925,1.0755 -0.4455,1.6425 -0.459,1.701 l -0.144,0 c 0,-0.138 -0.1125,-0.654 -0.351,-1.548 -0.2385,-0.894 -0.6255,-2.202 -1.1609,-3.924 l -7.9919,-25.5596 -4.824,0 z"
           style="font-size:72px;fill:#ff6600;font-family:Mission Gothic Light;-inkscape-font-specification:Mission Gothic Light"
           id="path7051" />
        <path
           d="m 1691.6013,1879.528 c -3.087,-0.064 -5.373,-1.5015 -6.858,-4.3109 -1.4849,-2.8095 -2.2229,-6.6044 -2.2139,-11.3849 -0.01,-4.8119 0.729,-8.6159 2.2139,-11.4118 1.485,-2.796 3.771,-4.224 6.858,-4.284 3.1214,0.06 5.4284,1.488 6.9209,4.284 1.4924,2.7959 2.2334,6.5999 2.2229,11.4118 0.01,4.8435 -0.7305,8.6564 -2.2229,11.4389 -1.4925,2.7824 -3.7995,4.2014 -6.9209,4.2569 z m 0,4.032 c 4.4729,-0.053 7.8568,-1.8015 10.1518,-5.247 2.295,-3.4454 3.4469,-8.2724 3.456,-14.4808 -0.01,-6.1739 -1.161,-10.9798 -3.456,-14.4178 -2.295,-3.4379 -5.6789,-5.1839 -10.1518,-5.2379 -4.4385,0.054 -7.8015,1.8 -10.0889,5.2379 -2.2875,3.438 -3.4365,8.2439 -3.447,14.4178 0.011,6.2084 1.1595,11.0354 3.447,14.4808 2.2874,3.4455 5.6504,5.1945 10.0889,5.247 z"
           style="font-size:72px;fill:#ff6600;font-family:Mission Gothic Light;-inkscape-font-specification:Mission Gothic Light"
           id="path7053" />
        <path
           d="m 1740.0289,1882.84 c -0.108,-0.1965 -0.306,-0.8295 -0.5939,-1.899 -0.2881,-1.0695 -0.4501,-2.4765 -0.486,-4.221 l 0,-31.8235 -4.392,0 0,22.3197 c -0.021,3.6029 -0.825,6.5489 -2.412,8.8379 -1.587,2.2889 -3.8309,3.4709 -6.7319,3.5459 -2.9699,-0.04 -5.0219,-1.1475 -6.1559,-3.321 -1.134,-2.1734 -1.674,-5.1704 -1.62,-8.9908 l 0,-22.3917 -4.3919,0 0,23.3997 c -0.08,4.2584 0.7095,7.8374 2.367,10.7368 1.6574,2.8995 4.6604,4.4085 9.0088,4.527 2.283,-0.012 4.287,-0.618 6.012,-1.818 1.7249,-1.2 3.0809,-2.922 4.0679,-5.166 l 0.144,0 c 0.073,1.71 0.2505,3.168 0.531,4.374 0.2805,1.206 0.4395,1.836 0.477,1.89 z"
           style="font-size:72px;fill:#ff6600;font-family:Mission Gothic Light;-inkscape-font-specification:Mission Gothic Light"
           id="path7055" />
        <path
           d="m 1754.22,1882.84 0,-22.6077 c 0.051,-3.5355 0.939,-6.3284 2.6639,-8.3789 1.725,-2.0505 3.981,-3.0975 6.768,-3.141 0.5084,0 0.9854,0.05 1.4309,0.135 0.4455,0.085 0.8325,0.1845 1.161,0.297 l 0.864,-4.6799 c -0.3915,-0.072 -0.7785,-0.126 -1.161,-0.162 -0.3825,-0.036 -0.7875,-0.054 -1.215,-0.054 -2.4929,0 -4.6349,0.6255 -6.4259,1.8629 -1.791,1.2376 -3.1769,3.0645 -4.1579,5.481 l -0.144,0 c -0.076,-1.8225 -0.2655,-3.3795 -0.567,-4.671 -0.3015,-1.2914 -0.4725,-1.9664 -0.513,-2.0249 l -4.176,0 c 0.1395,0.231 0.3465,0.885 0.621,1.9619 0.2745,1.077 0.4275,2.487 0.459,4.23 l 0,31.7516 z"
           style="font-size:72px;fill:#ff6600;font-family:Mission Gothic Light;-inkscape-font-specification:Mission Gothic Light"
           id="path7057" />
        <path
           d="m 1796.4075,1897.2398 0,-14.1118 c -0,-1.4505 -0.015,-2.6895 -0.036,-3.717 -0.021,-1.0275 -0.033,-1.5645 -0.036,-1.611 l 0.144,0 c 0.882,1.752 2.0519,3.144 3.5099,4.176 1.458,1.032 3.312,1.56 5.562,1.584 4.0034,-0.062 7.0303,-1.8105 9.0808,-5.247 2.0505,-3.4364 3.0795,-8.1914 3.087,-14.2648 -0.024,-6.2144 -1.11,-11.0653 -3.258,-14.5528 -2.148,-3.4874 -5.2139,-5.2604 -9.1978,-5.3189 -2.3235,0.053 -4.2105,0.6495 -5.661,1.7909 -1.4505,1.1416 -2.5634,2.5125 -3.3389,4.113 l -0.144,0 c -0.1365,-1.3815 -0.3315,-2.5784 -0.585,-3.591 -0.2535,-1.0124 -0.3945,-1.5434 -0.423,-1.5929 l -4.176,0 c 0.1395,0.231 0.3465,0.885 0.621,1.9619 0.2745,1.077 0.4275,2.487 0.459,4.23 l 0,46.1514 z m 0,-37.0075 c -0.011,-3.522 0.6585,-6.3779 2.0069,-8.5679 1.3485,-2.19 3.4395,-3.318 6.273,-3.384 3.0689,0.069 5.2829,1.515 6.6419,4.338 1.3589,2.8229 2.0249,6.6089 1.998,11.3578 0.028,4.809 -0.6406,8.6009 -2.007,11.3759 -1.3665,2.7749 -3.6015,4.1909 -6.7049,4.2479 -2.9565,-0.1035 -5.0715,-1.3185 -6.345,-3.6449 -1.2734,-2.3265 -1.8944,-5.1435 -1.8629,-8.4509 z"
           style="font-size:72px;fill:#ff6600;font-family:Mission Gothic Light;-inkscape-font-specification:Mission Gothic Light"
           id="path7059" />
        <path
           d="m 1838.4138,1879.528 c -3.087,-0.064 -5.373,-1.5015 -6.858,-4.3109 -1.4849,-2.8095 -2.2229,-6.6044 -2.2139,-11.3849 -0.01,-4.8119 0.729,-8.6159 2.2139,-11.4118 1.485,-2.796 3.771,-4.224 6.858,-4.284 3.1214,0.06 5.4284,1.488 6.9209,4.284 1.4924,2.7959 2.2334,6.5999 2.2229,11.4118 0.01,4.8435 -0.7305,8.6564 -2.2229,11.4389 -1.4925,2.7824 -3.7995,4.2014 -6.9209,4.2569 z m 0,4.032 c 4.4729,-0.053 7.8568,-1.8015 10.1518,-5.247 2.295,-3.4454 3.4469,-8.2724 3.456,-14.4808 -0.01,-6.1739 -1.161,-10.9798 -3.456,-14.4178 -2.295,-3.4379 -5.6789,-5.1839 -10.1518,-5.2379 -4.4385,0.054 -7.8015,1.8 -10.0889,5.2379 -2.2875,3.438 -3.4365,8.2439 -3.447,14.4178 0.011,6.2084 1.1595,11.0354 3.447,14.4808 2.2874,3.4455 5.6504,5.1945 10.0889,5.247 z"
           style="font-size:72px;fill:#ff6600;font-family:Mission Gothic Light;-inkscape-font-specification:Mission Gothic Light"
           id="path7061" />
        <path
           d="m 1865.1697,1882.84 0,-37.9435 -4.3919,0 0,37.9435 z m 0.576,-46.5834 c -0.018,-0.81 -0.288,-1.476 -0.81,-1.998 -0.522,-0.522 -1.188,-0.792 -1.9979,-0.81 -0.7755,0.018 -1.4205,0.288 -1.935,0.81 -0.5145,0.522 -0.7815,1.188 -0.801,1.998 0.019,0.7755 0.2865,1.4205 0.801,1.9349 0.5145,0.5146 1.1595,0.7816 1.935,0.801 0.8099,-0.019 1.4759,-0.2864 1.9979,-0.801 0.522,-0.5144 0.792,-1.1594 0.81,-1.9349 z"
           style="font-size:72px;fill:#ff6600;font-family:Mission Gothic Light;-inkscape-font-specification:Mission Gothic Light"
           id="path7063" />
        <path
           d="m 1901.5317,1882.84 0,-23.3997 c 0.08,-4.2585 -0.7095,-7.8374 -2.367,-10.7369 -1.6575,-2.8994 -4.6604,-4.4084 -9.0089,-4.5269 -2.3099,0.016 -4.3139,0.6315 -6.0119,1.8449 -1.698,1.2136 -3.0539,2.9265 -4.0679,5.139 l -0.144,0 c -0.073,-1.71 -0.2505,-3.168 -0.531,-4.374 -0.2805,-1.2059 -0.4395,-1.8359 -0.477,-1.8899 l -4.176,0 c 0.1395,0.231 0.3465,0.885 0.621,1.9619 0.2745,1.077 0.4275,2.487 0.459,4.23 l 0,31.7516 4.392,0 0,-21.8878 c -0.01,-3.6524 0.744,-6.6793 2.2499,-9.0808 1.506,-2.4015 3.804,-3.6465 6.894,-3.735 2.9384,0.048 4.9814,1.176 6.1289,3.384 1.1474,2.208 1.6964,5.2079 1.647,8.9999 l 0,22.3197 z"
           style="font-size:72px;fill:#ff6600;font-family:Mission Gothic Light;-inkscape-font-specification:Mission Gothic Light"
           id="path7065" />
        <path
           d="m 1927.0952,1877.872 c -0.594,0.4755 -1.296,0.8565 -2.106,1.143 -0.81,0.2865 -1.62,0.4335 -2.4299,0.441 -1.593,-0.01 -2.817,-0.5505 -3.672,-1.629 -0.855,-1.0785 -1.287,-2.6474 -1.296,-4.7069 l 0,-24.3357 8.7119,0 0,-3.8879 -8.7119,0 0,-9.0719 -4.3199,0 0,9.0719 -5.1119,0 0,3.8879 5.1119,0 0,24.5517 c -0.014,3.2295 0.6975,5.7344 2.133,7.5149 1.4354,1.7805 3.6764,2.6835 6.7229,2.709 1.3019,-0.018 2.4959,-0.216 3.5819,-0.594 1.086,-0.378 2.028,-0.828 2.826,-1.35 z"
           style="font-size:72px;fill:#ff6600;font-family:Mission Gothic Light;-inkscape-font-specification:Mission Gothic Light"
           id="path7067" />
        <path
           d="m 1958.8527,1850.3684 c -1.5795,-2.016 -3.3345,-3.5279 -5.2649,-4.536 -1.9305,-1.0079 -4.2795,-1.5119 -7.0469,-1.5119 -3.579,0.063 -6.4289,1.017 -8.5499,2.8619 -2.121,1.845 -3.207,4.203 -3.258,7.0739 0.1088,3.0038 1.1963,5.2537 3.2625,6.7499 2.0662,1.4963 4.4587,2.6843 7.1774,3.564 2.7187,0.8798 5.1112,1.8967 7.1774,3.051 2.0662,1.1542 3.1537,2.8912 3.2625,5.2109 -0.032,2.2035 -0.7605,3.8805 -2.187,5.0309 -1.4265,1.1505 -3.3615,1.7295 -5.8049,1.737 -2.274,-0.014 -4.386,-0.5445 -6.3359,-1.593 -1.95,-1.0485 -3.486,-2.5334 -4.608,-4.4549 -0.546,0.4695 -1.11,0.9345 -1.692,1.395 -0.582,0.4605 -1.146,0.9075 -1.6919,1.341 1.4834,2.3819 3.4664,4.1879 5.9489,5.4179 2.4824,1.23 5.2034,1.848 8.1629,1.854 3.9299,-0.01 7.0139,-0.9435 9.2519,-2.799 2.2379,-1.8555 3.3779,-4.5704 3.4199,-8.1449 -0.1088,-3.1513 -1.1962,-5.5291 -3.2624,-7.1335 -2.0663,-1.6044 -4.4588,-2.8595 -7.1775,-3.7654 -2.7187,-0.9057 -5.1112,-1.8864 -7.1774,-2.9418 -2.0662,-1.0554 -3.1537,-2.6098 -3.2624,-4.6631 0.053,-1.8869 0.7575,-3.3509 2.115,-4.3919 1.3574,-1.041 3.0524,-1.569 5.0849,-1.584 2.0909,-0.01 3.8669,0.387 5.3279,1.188 1.461,0.801 2.805,2.061 4.032,3.7799 z"
           style="font-size:72px;fill:#ff6600;font-family:Mission Gothic Light;-inkscape-font-specification:Mission Gothic Light"
           id="path7069" />
      </g>
    </g>
  </g>
</svg>
