<?xml version="1.0" encoding="UTF-8" standalone="no"?>
<!-- Created with Inkscape (http://www.inkscape.org/) -->

<svg
   xmlns:dc="http://purl.org/dc/elements/1.1/"
   xmlns:cc="http://creativecommons.org/ns#"
   xmlns:rdf="http://www.w3.org/1999/02/22-rdf-syntax-ns#"
   xmlns:svg="http://www.w3.org/2000/svg"
   xmlns="http://www.w3.org/2000/svg"
   xmlns:sodipodi="http://sodipodi.sourceforge.net/DTD/sodipodi-0.dtd"
   xmlns:inkscape="http://www.inkscape.org/namespaces/inkscape"
   width="248.2298"
   height="53.760288"
   id="svg9178"
   version="1.1"
   inkscape:version="0.48.4 r9939"
   sodipodi:docname="start_icon.svg">
  <defs
     id="defs9180" />
  <sodipodi:namedview
     id="base"
     pagecolor="#ffffff"
     bordercolor="#666666"
     borderopacity="1.0"
     inkscape:pageopacity="0.0"
     inkscape:pageshadow="2"
     inkscape:zoom="0.35"
     inkscape:cx="-459.45653"
     inkscape:cy="158.30872"
     inkscape:document-units="px"
     inkscape:current-layer="layer1"
     showgrid="false"
     fit-margin-top="0"
     fit-margin-left="0"
     fit-margin-right="0"
     fit-margin-bottom="0"
     inkscape:window-width="1366"
     inkscape:window-height="705"
     inkscape:window-x="-8"
     inkscape:window-y="-8"
     inkscape:window-maximized="1" />
  <metadata
     id="metadata9183">
    <rdf:RDF>
      <cc:Work
         rdf:about="">
        <dc:format>image/svg+xml</dc:format>
        <dc:type
           rdf:resource="http://purl.org/dc/dcmitype/StillImage" />
        <dc:title></dc:title>
      </cc:Work>
    </rdf:RDF>
  </metadata>
  <g
     inkscape:label="Layer 1"
     inkscape:groupmode="layer"
     id="layer1"
     transform="translate(-493.02796,-636.91061)">
    <g
       id="g9208"
       style="fill:#ffffff"
       transform="translate(30,-8.8073728e-7)">
      <path
         inkscape:connector-curvature="0"
         d="m 510.97269,650.8323 c -3.83266,-0.0202 -8.64644,2.05633 -12.31782,5.72771 -1.40001,1.4 -2.63426,3.03521 -3.58626,4.86978 3.31298,-2.50657 6.84771,-3.29282 10.98277,-0.97216 1.21857,-3.2189 2.84482,-6.49604 4.92131,-9.62533 z m 21.91851,21.89163 c -3.39586,2.21985 -6.73572,3.82146 -9.62533,4.95042 2.32065,4.13954 1.53665,7.6698 -0.97217,10.98054 1.83457,-0.94977 3.46978,-2.18402 4.87203,-3.5885 3.68258,-3.6781 5.76131,-8.50308 5.72547,-12.34246 z m 13.78055,-35.71922 c -0.92289,-0.0627 -1.82785,-0.0941 -2.71714,-0.0941 -19.26857,0 -30.23567,14.68999 -34.22737,26.50605 l 10.59077,10.59301 c 12.15878,-4.35906 26.47022,-14.92071 26.47022,-33.98544 v -0.12769 c 0,-0.9408 -0.0426,-1.90624 -0.11648,-2.89185 z m -22.14923,22.19851 c -0.87585,-0.87584 -0.87585,-2.29153 0,-3.16738 0.87584,-0.87584 2.29153,-0.87584 3.16737,0 0.87585,0.87585 0.87585,2.29154 0,3.16738 -0.87584,0.87584 -2.29377,0.8736 -3.16737,0 z m 6.33475,-6.33475 c -1.74945,-1.74721 -1.74945,-4.5853 0,-6.33475 1.74945,-1.74945 4.58754,-1.74945 6.33475,0 1.74945,1.74945 1.74945,4.5853 0,6.33475 -1.74945,1.74945 -4.5853,1.74945 -6.33475,0 z m -14.63624,23.38123 c -3.34209,8.53445 -12.99878,13.90599 -23.19307,14.4212 0.49056,-9.60741 5.95171,-19.43434 14.87367,-22.74284 l 1.80321,1.80545 c -9.70149,6.17123 -10.42277,11.9751 -10.44965,14.72807 2.84033,-0.0336 9.08101,-0.77056 15.1828,-9.9994 l 1.78304,1.78752 z"
         id="path9097"
         style="fill:#ffffff" />
      <g
         style="font-size:40px;font-style:normal;font-weight:normal;line-height:125%;letter-spacing:0px;word-spacing:0px;fill:#ffffff;fill-opacity:1;stroke:none;font-family:Sans"
         id="text6251-6-8">
        <path
           d="m 577.67413,666.68318 c 0.70249,1.52748 1.80747,2.76246 3.31496,3.70495 1.50747,0.94249 3.28245,1.42748 5.32493,1.45498 2.57329,-0.0508 4.54659,-0.77916 5.91992,-2.18497 1.3733,-1.40581 2.06663,-3.18412 2.07998,-5.33493 -0.0688,-2.26663 -0.75626,-3.98327 -2.06248,-5.14994 -1.30625,-1.16664 -2.81872,-2.10329 -4.53744,-2.80996 -1.71874,-0.70664 -3.23122,-1.5033 -4.53744,-2.38997 -1.30624,-0.88664 -1.99373,-2.18329 -2.06247,-3.88995 0.025,-1.33246 0.48498,-2.43744 1.37998,-3.31496 0.89498,-0.87746 2.07496,-1.33245 3.53995,-1.36498 1.5383,0.035 2.78162,0.44502 3.72995,1.22999 0.94831,0.78501 1.61164,1.735 1.98998,2.84996 l 2.15997,-1.15999 c -0.61751,-1.60245 -1.57249,-2.87743 -2.86496,-3.82495 -1.2925,-0.94746 -2.93748,-1.43245 -4.93494,-1.45498 -2.37664,0.0467 -4.21328,0.73335 -5.50993,2.05997 -1.29665,1.32668 -1.95331,3.01332 -1.96997,5.05994 0.0689,2.20791 0.75853,3.88705 2.06872,5.03743 1.31019,1.15042 2.82725,2.08457 4.55119,2.80247 1.72393,0.71792 3.24099,1.53207 4.55119,2.44247 1.31018,0.91041 1.99975,2.22956 2.06873,3.95745 0.006,1.38582 -0.44584,2.57413 -1.35498,3.56495 -0.90917,0.99082 -2.31082,1.50915 -4.20495,1.55498 -1.51416,-0.0158 -2.8358,-0.39416 -3.96495,-1.13499 -1.12916,-0.74082 -1.98081,-1.74913 -2.55497,-3.02496 z"
           style="fill:#ffffff;font-family:Mission Gothic Light;-inkscape-font-specification:Mission Gothic Light"
           id="path9214"
           inkscape:connector-curvature="0" />
        <path
           d="m 607.5615,668.68315 c -0.33001,0.26417 -0.72,0.47583 -1.16999,0.63499 -0.45,0.15917 -0.89999,0.24083 -1.34998,0.245 -0.88499,-0.004 -1.56499,-0.30583 -2.03997,-0.90499 -0.475,-0.59915 -0.715,-1.47081 -0.71999,-2.61497 l 0,-13.51982 4.83993,0 0,-2.15997 -4.83993,0 0,-5.03994 -2.39997,0 0,5.03994 -2.83997,0 0,2.15997 2.83997,0 0,13.63982 c -0.008,1.79415 0.38749,3.1858 1.18498,4.17495 0.79749,0.98915 2.04247,1.49081 3.73495,1.50498 0.72332,-0.01 1.38664,-0.12 1.98998,-0.33 0.60331,-0.20999 1.12664,-0.45999 1.56998,-0.74999 z"
           style="fill:#ffffff;font-family:Mission Gothic Light;-inkscape-font-specification:Mission Gothic Light"
           id="path9216"
           inkscape:connector-curvature="0" />
        <path
           d="m 625.88456,671.44312 c -0.0792,-0.12334 -0.20085,-0.47667 -0.365,-1.05999 -0.16418,-0.58333 -0.25584,-1.37665 -0.27499,-2.37997 l 0,-10.43987 c -0.0375,-2.57578 -0.63251,-4.49409 -1.78498,-5.75492 -1.1525,-1.2608 -2.63748,-1.88912 -4.45494,-1.88498 -1.35249,-0.004 -2.61748,0.32419 -3.79495,0.98499 -1.17749,0.66085 -2.19248,1.67916 -3.04497,3.05496 l 1.79998,1.43998 c 0.47916,-0.99414 1.11081,-1.78579 1.89498,-2.37497 0.78415,-0.58914 1.7258,-0.8908 2.82496,-0.90499 1.25664,-0.002 2.25329,0.43252 2.98996,1.30499 0.73665,0.8725 1.11331,2.19749 1.12999,3.97495 l 0,1.67997 c -3.94996,0.0167 -6.87992,0.61334 -8.78989,1.78998 -1.90998,1.17666 -2.85996,2.83331 -2.84996,4.96994 0.0167,1.80748 0.55332,3.25246 1.60998,4.33494 1.05665,1.08249 2.53329,1.63748 4.42994,1.66498 1.50747,-0.0392 2.71245,-0.44083 3.61495,-1.20499 0.90248,-0.76415 1.57747,-1.6558 2.02498,-2.67496 0.0725,0.94249 0.17748,1.73748 0.31499,2.38497 0.13749,0.64749 0.23249,1.01249 0.285,1.09499 z m -3.07996,-8.59989 c -0.003,1.89664 -0.45668,3.50329 -1.35998,4.81993 -0.90334,1.31666 -2.23665,2.00331 -3.99995,2.05998 -1.07333,-0.002 -1.98665,-0.32833 -2.73997,-0.97999 -0.75333,-0.65166 -1.14665,-1.61831 -1.17998,-2.89996 0.0142,-1.56331 0.72582,-2.74663 2.13497,-3.54996 1.40914,-0.80331 3.43078,-1.20664 6.06492,-1.20998 0.35998,10e-6 0.71998,10e-6 1.07999,0 z"
           style="fill:#ffffff;font-family:Mission Gothic Light;-inkscape-font-specification:Mission Gothic Light"
           id="path9218"
           inkscape:connector-curvature="0" />
        <path
           d="m 633.62908,671.44312 0,-12.55984 c 0.0283,-1.96413 0.52165,-3.51578 1.47998,-4.65494 0.95831,-1.13914 2.21163,-1.7208 3.75995,-1.74498 0.28249,0.003 0.54748,0.0275 0.79499,0.075 0.24749,0.0475 0.46248,0.10252 0.64499,0.165 l 0.48,-2.59997 c -0.21751,-0.04 -0.43251,-0.07 -0.645,-0.09 -0.21251,-0.02 -0.4375,-0.03 -0.67499,-0.03 -1.38499,0.003 -2.57497,0.34752 -3.56995,1.03499 -0.995,0.68751 -1.76499,1.70249 -2.30997,3.04496 l -0.08,0 c -0.0425,-1.01247 -0.1475,-1.87746 -0.315,-2.59497 -0.1675,-0.71747 -0.2625,-1.09246 -0.28499,-1.12498 l -2.31997,0 c 0.0775,0.12835 0.19249,0.49168 0.34499,1.08998 0.1525,0.59835 0.2375,1.38167 0.255,2.34997 l 0,17.63978 z"
           style="fill:#ffffff;font-family:Mission Gothic Light;-inkscape-font-specification:Mission Gothic Light"
           id="path9220"
           inkscape:connector-curvature="0" />
        <path
           d="m 652.79587,668.68315 c -0.33,0.26417 -0.72,0.47583 -1.16998,0.63499 -0.45001,0.15917 -0.9,0.24083 -1.34998,0.245 -0.885,-0.004 -1.56499,-0.30583 -2.03998,-0.90499 -0.475,-0.59915 -0.71499,-1.47081 -0.71999,-2.61497 l 0,-13.51982 4.83994,0 0,-2.15997 -4.83994,0 0,-5.03994 -2.39997,0 0,5.03994 -2.83996,0 0,2.15997 2.83996,0 0,13.63982 c -0.007,1.79415 0.38749,3.1858 1.18499,4.17495 0.79748,0.98915 2.04246,1.49081 3.73495,1.50498 0.72331,-0.01 1.38664,-0.12 1.98997,-0.33 0.60332,-0.20999 1.12664,-0.45999 1.56998,-0.74999 z"
           style="fill:#ffffff;font-family:Mission Gothic Light;-inkscape-font-specification:Mission Gothic Light"
           id="path9222"
           inkscape:connector-curvature="0" />
      </g>
    </g>
  </g>
</svg>
