<?xml version="1.0" encoding="UTF-8" standalone="no"?>
<!-- Created with Inkscape (http://www.inkscape.org/) -->

<svg
   xmlns:dc="http://purl.org/dc/elements/1.1/"
   xmlns:cc="http://creativecommons.org/ns#"
   xmlns:rdf="http://www.w3.org/1999/02/22-rdf-syntax-ns#"
   xmlns:svg="http://www.w3.org/2000/svg"
   xmlns="http://www.w3.org/2000/svg"
   xmlns:sodipodi="http://sodipodi.sourceforge.net/DTD/sodipodi-0.dtd"
   xmlns:inkscape="http://www.inkscape.org/namespaces/inkscape"
   width="248.2298"
   height="49.676479"
   id="svg8481"
   version="1.1"
   inkscape:version="0.48.4 r9939"
   sodipodi:docname="submit_btn.svg">
  <defs
     id="defs8483" />
  <sodipodi:namedview
     id="base"
     pagecolor="#ffffff"
     bordercolor="#666666"
     borderopacity="1.0"
     inkscape:pageopacity="0.0"
     inkscape:pageshadow="2"
     inkscape:zoom="1.7103774"
     inkscape:cx="73.300759"
     inkscape:cy="60.240475"
     inkscape:document-units="px"
     inkscape:current-layer="layer1"
     showgrid="false"
     fit-margin-top="0"
     fit-margin-left="0"
     fit-margin-right="0"
     fit-margin-bottom="0"
     inkscape:window-width="1366"
     inkscape:window-height="705"
     inkscape:window-x="-8"
     inkscape:window-y="-8"
     inkscape:window-maximized="1" />
  <metadata
     id="metadata8486">
    <rdf:RDF>
      <cc:Work
         rdf:about="">
        <dc:format>image/svg+xml</dc:format>
        <dc:type
           rdf:resource="http://purl.org/dc/dcmitype/StillImage" />
        <dc:title></dc:title>
      </cc:Work>
    </rdf:RDF>
  </metadata>
  <g
     inkscape:label="Layer 1"
     inkscape:groupmode="layer"
     id="layer1"
     transform="translate(-255.34163,-506.64789)">
    <g
       id="g8933"
       transform="translate(0,-2.2808149e-6)"
       style="fill:#ffffff">
      <g
         style="font-size:40px;font-style:normal;font-weight:normal;line-height:125%;letter-spacing:0px;word-spacing:0px;fill:#ffffff;fill-opacity:1;stroke:none;font-family:Sans"
         id="text6251">
        <path
           d="m 339.98782,541.12599 c 0.70249,1.52748 1.80747,2.76246 3.31496,3.70495 1.50747,0.94249 3.28245,1.42748 5.32493,1.45498 2.57329,-0.0508 4.54659,-0.77916 5.91992,-2.18497 1.3733,-1.40581 2.06663,-3.18412 2.07998,-5.33493 -0.0688,-2.26663 -0.75626,-3.98327 -2.06248,-5.14994 -1.30624,-1.16663 -2.81872,-2.10329 -4.53744,-2.80996 -1.71874,-0.70664 -3.23122,-1.5033 -4.53744,-2.38997 -1.30624,-0.88664 -1.99373,-2.18329 -2.06247,-3.88995 0.025,-1.33246 0.48498,-2.43744 1.37998,-3.31496 0.89498,-0.87746 2.07496,-1.33245 3.53995,-1.36498 1.5383,0.035 2.78162,0.44502 3.72995,1.22999 0.94831,0.78501 1.61164,1.735 1.98998,2.84996 l 2.15997,-1.15999 c -0.61751,-1.60245 -1.57249,-2.87743 -2.86496,-3.82495 -1.2925,-0.94746 -2.93748,-1.43245 -4.93494,-1.45498 -2.37664,0.0467 -4.21328,0.73335 -5.50993,2.05997 -1.29665,1.32668 -1.95331,3.01332 -1.96997,5.05994 0.0689,2.20791 0.75853,3.88705 2.06872,5.03743 1.31019,1.15042 2.82725,2.08457 4.55119,2.80247 1.72393,0.71792 3.24099,1.53207 4.55119,2.44247 1.31018,0.91041 1.99975,2.22956 2.06873,3.95745 0.006,1.38582 -0.44584,2.57413 -1.35498,3.56495 -0.90917,0.99082 -2.31082,1.50915 -4.20495,1.55498 -1.51416,-0.0158 -2.8358,-0.39416 -3.96495,-1.13499 -1.12916,-0.74082 -1.98081,-1.74913 -2.55497,-3.02496 z"
           style="fill:#ffffff;font-family:Mission Gothic Light;-inkscape-font-specification:Mission Gothic Light"
           id="path8998" />
        <path
           d="m 375.71511,545.88593 c -0.06,-0.10917 -0.17001,-0.46083 -0.32999,-1.05499 -0.16002,-0.59416 -0.25002,-1.37582 -0.27,-2.34497 l 0,-17.67977 -2.43997,0 0,12.39984 c -0.0117,2.00164 -0.45834,3.63829 -1.33998,4.90993 -0.88167,1.27166 -2.12832,1.92831 -3.73995,1.96998 -1.64999,-0.0225 -2.78997,-0.63749 -3.41996,-1.84498 -0.63,-1.20748 -0.92999,-2.87245 -0.89999,-4.99493 l 0,-12.43984 -2.43996,0 0,12.99983 c -0.0442,2.36581 0.39416,4.35411 1.31498,5.96492 0.92082,1.61082 2.58913,2.44914 5.00493,2.51497 1.26831,-0.007 2.38163,-0.34333 3.33996,-1.00999 0.95831,-0.66665 1.71163,-1.62331 2.25997,-2.86996 l 0.08,0 c 0.0408,0.94999 0.13915,1.75998 0.295,2.42997 0.15581,0.66999 0.24415,1.01999 0.26499,1.04999 z"
           style="fill:#ffffff;font-family:Mission Gothic Light;-inkscape-font-specification:Mission Gothic Light"
           id="path9000" />
        <path
           d="m 382.83903,545.88593 c 0.0533,-0.0792 0.14666,-0.39083 0.27999,-0.93499 0.13333,-0.54416 0.22666,-1.20582 0.28,-1.98498 l 0.08,0 c 0.43582,0.90833 1.06415,1.68165 1.88498,2.31997 0.82081,0.63833 1.85913,0.97166 3.11496,0.99999 2.19745,-0.0317 3.90243,-1.00832 5.11493,-2.92996 1.21247,-1.92164 1.82746,-4.59827 1.84498,-8.0299 -8.6e-4,-3.42994 -0.57918,-6.0999 -1.73498,-8.0099 -1.15583,-1.90995 -2.88414,-2.87994 -5.18494,-2.90996 -1.19499,0.0225 -2.19497,0.33752 -2.99996,0.94499 -0.80499,0.60751 -1.44498,1.3725 -1.91997,2.29497 l -0.08,0 c 0.002,-0.0525 0.008,-0.41748 0.02,-1.09499 0.0117,-0.67747 0.0183,-1.35246 0.02,-2.02497 l 0,-7.8399 -2.39997,0 0,25.75967 c -0.02,1.00582 -0.11,1.80414 -0.27,2.39497 -0.16,0.59083 -0.27,0.93915 -0.32999,1.04499 z m 0.71999,-13.19983 c -10e-6,-1.7233 0.37999,-3.15661 1.13998,-4.29995 0.75999,-1.1433 1.89997,-1.73663 3.41996,-1.77998 1.72413,0.0334 2.96578,0.82668 3.72495,2.37997 0.75914,1.55333 1.13081,3.66664 1.11499,6.33992 0.0158,2.65414 -0.35585,4.75578 -1.11499,6.30492 -0.75917,1.54915 -2.00082,2.3408 -3.72495,2.37497 -1.60749,-0.0408 -2.77247,-0.70916 -3.49496,-2.00498 -0.72249,-1.29581 -1.07749,-2.97412 -1.06498,-5.03493 z"
           style="fill:#ffffff;font-family:Mission Gothic Light;-inkscape-font-specification:Mission Gothic Light"
           id="path9002" />
        <path
           d="m 424.09749,545.88593 0,-13.27983 c 0.0575,-2.33663 -0.29752,-4.27327 -1.06498,-5.80993 -0.76752,-1.53663 -2.2925,-2.33328 -4.57494,-2.38997 -1.26501,-0.004 -2.35499,0.33419 -3.26996,1.01499 -0.91501,0.68084 -1.625,1.72916 -2.12997,3.14496 l -0.08,0 c -0.29501,-1.23747 -0.86501,-2.22245 -1.70998,-2.95496 -0.845,-0.73247 -1.99499,-1.10747 -3.44996,-1.12499 -1.13916,-0.0108 -2.13081,0.26085 -2.97496,0.81499 -0.84416,0.55418 -1.54582,1.45583 -2.10497,2.70497 l -0.08,0 c -0.0583,-0.90331 -0.16167,-1.65663 -0.31,-2.25998 -0.14833,-0.6033 -0.23166,-0.91663 -0.24999,-0.93998 l -2.31997,0 c 0.0775,0.12835 0.19249,0.49168 0.34499,1.08998 0.1525,0.59835 0.2375,1.38167 0.255,2.34997 l 0,17.63978 2.43997,0 0,-12.99984 c 0.0258,-2.09412 0.46415,-3.64577 1.31498,-4.65494 0.85082,-1.00913 1.95913,-1.51079 3.32496,-1.50498 1.2508,-0.009 2.15912,0.46918 2.72496,1.43498 0.56582,0.96584 0.84415,2.47415 0.83499,4.52495 l 0,13.19983 2.43997,0 0,-12.71984 c 0.0208,-2.19329 0.44915,-3.8166 1.28498,-4.86994 0.83581,-1.0533 1.95413,-1.57663 3.35496,-1.56998 1.2508,-0.009 2.15912,0.46918 2.72497,1.43498 0.5658,0.96584 0.84413,2.47415 0.83499,4.52495 l 0,13.19983 z"
           style="fill:#ffffff;font-family:Mission Gothic Light;-inkscape-font-specification:Mission Gothic Light"
           id="path9004" />
        <path
           d="m 432.03464,545.88593 0,-21.07973 -2.43996,0 0,21.07973 z m 0.32,-25.87967 c -0.01,-0.44997 -0.16,-0.81996 -0.44999,-1.10999 -0.29001,-0.28997 -0.66,-0.43996 -1.10999,-0.44999 -0.43083,0.01 -0.78916,0.16002 -1.07499,0.44999 -0.28583,0.29003 -0.43416,0.66002 -0.44499,1.10999 0.0108,0.43085 0.15916,0.78918 0.44499,1.07498 0.28583,0.28586 0.64416,0.43419 1.07499,0.445 0.44999,-0.0108 0.81998,-0.15914 1.10999,-0.445 0.28999,-0.2858 0.43998,-0.64413 0.44999,-1.07498 z"
           style="fill:#ffffff;font-family:Mission Gothic Light;-inkscape-font-specification:Mission Gothic Light"
           id="path9006" />
        <path
           d="m 446.51581,543.12596 c -0.33,0.26417 -0.72,0.47583 -1.16998,0.63499 -0.45001,0.15917 -0.9,0.24083 -1.34998,0.245 -0.885,-0.004 -1.56499,-0.30583 -2.03998,-0.90499 -0.475,-0.59915 -0.71499,-1.47081 -0.71999,-2.61497 l 0,-13.51982 4.83994,0 0,-2.15997 -4.83994,0 0,-5.03994 -2.39997,0 0,5.03994 -2.83996,0 0,2.15997 2.83996,0 0,13.63982 c -0.007,1.79415 0.3875,3.1858 1.18499,4.17495 0.79748,0.98915 2.04246,1.49081 3.73495,1.50498 0.72331,-0.01 1.38664,-0.12 1.98997,-0.33 0.60332,-0.20999 1.12664,-0.45999 1.56998,-0.74999 z"
           style="fill:#ffffff;font-family:Mission Gothic Light;-inkscape-font-specification:Mission Gothic Light"
           id="path9008" />
      </g>
      <g
         style="fill:#ffffff"
         transform="matrix(1.9296481,0,0,1.9296481,255.34163,505.74763)"
         id="g8578">
        <g
           style="fill:#ffffff"
           id="g8508">
          <path
             style="fill:#ffffff"
             inkscape:connector-curvature="0"
             d="M 0.462,21.883 C 0.192,21.826 0,21.59 0,21.32 0,11.97 11.1,9.98 13.675,9.644 V 5.355 c 0,-0.211 0.117,-0.406 0.306,-0.504 0.188,-0.1 0.413,-0.086 0.588,0.027 l 11.858,7.984 c 0.156,0.105 0.25,0.281 0.25,0.477 0,0.189 -0.094,0.365 -0.25,0.473 l -11.854,7.983 c -0.176,0.115 -0.402,0.127 -0.59,0.029 -0.188,-0.1 -0.303,-0.297 -0.303,-0.506 v -4.617 c -1.867,0.014 -3.409,0.098 -4.696,0.252 -6.166,0.729 -7.813,4.432 -7.883,4.59 l 0,0 C 1.008,21.756 0.799,21.893 0.575,21.893 0.538,21.892 0.497,21.89 0.462,21.883 z"
             id="path8510" />
          <g
             style="fill:#ffffff"
             id="g8512" />
          <g
             style="fill:#ffffff"
             id="g8514" />
          <g
             style="fill:#ffffff"
             id="g8516" />
          <g
             style="fill:#ffffff"
             id="g8518" />
          <g
             style="fill:#ffffff"
             id="g8520" />
          <g
             style="fill:#ffffff"
             id="g8522" />
          <g
             style="fill:#ffffff"
             id="g8524" />
          <g
             style="fill:#ffffff"
             id="g8526" />
          <g
             style="fill:#ffffff"
             id="g8528" />
          <g
             style="fill:#ffffff"
             id="g8530" />
          <g
             style="fill:#ffffff"
             id="g8532" />
          <g
             style="fill:#ffffff"
             id="g8534" />
          <g
             style="fill:#ffffff"
             id="g8536" />
          <g
             style="fill:#ffffff"
             id="g8538" />
          <g
             style="fill:#ffffff"
             id="g8540" />
        </g>
        <g
           style="fill:#ffffff"
           id="g8542" />
        <g
           style="fill:#ffffff"
           id="g8544" />
        <g
           style="fill:#ffffff"
           id="g8546" />
        <g
           style="fill:#ffffff"
           id="g8548" />
        <g
           style="fill:#ffffff"
           id="g8550" />
        <g
           style="fill:#ffffff"
           id="g8552" />
        <g
           style="fill:#ffffff"
           id="g8554" />
        <g
           style="fill:#ffffff"
           id="g8556" />
        <g
           style="fill:#ffffff"
           id="g8558" />
        <g
           style="fill:#ffffff"
           id="g8560" />
        <g
           style="fill:#ffffff"
           id="g8562" />
        <g
           style="fill:#ffffff"
           id="g8564" />
        <g
           style="fill:#ffffff"
           id="g8566" />
        <g
           style="fill:#ffffff"
           id="g8568" />
        <g
           style="fill:#ffffff"
           id="g8570" />
      </g>
    </g>
  </g>
</svg>
