<?xml version="1.0" encoding="UTF-8" standalone="no"?>
<!-- Created with Inkscape (http://www.inkscape.org/) -->

<svg
   xmlns:dc="http://purl.org/dc/elements/1.1/"
   xmlns:cc="http://creativecommons.org/ns#"
   xmlns:rdf="http://www.w3.org/1999/02/22-rdf-syntax-ns#"
   xmlns:svg="http://www.w3.org/2000/svg"
   xmlns="http://www.w3.org/2000/svg"
   xmlns:sodipodi="http://sodipodi.sourceforge.net/DTD/sodipodi-0.dtd"
   xmlns:inkscape="http://www.inkscape.org/namespaces/inkscape"
   width="202.91687"
   height="107.29548"
   id="svg8481"
   version="1.1"
   inkscape:version="0.48.4 r9939"
   sodipodi:docname="time_icon_wht.svg">
  <defs
     id="defs8483" />
  <sodipodi:namedview
     id="base"
     pagecolor="#ffffff"
     bordercolor="#666666"
     borderopacity="1.0"
     inkscape:pageopacity="0.0"
     inkscape:pageshadow="2"
     inkscape:zoom="1.7103774"
     inkscape:cx="124.60245"
     inkscape:cy="-29.218607"
     inkscape:document-units="px"
     inkscape:current-layer="g6564"
     showgrid="false"
     fit-margin-top="0"
     fit-margin-left="0"
     fit-margin-right="0"
     fit-margin-bottom="0"
     inkscape:window-width="1366"
     inkscape:window-height="705"
     inkscape:window-x="-8"
     inkscape:window-y="-8"
     inkscape:window-maximized="1" />
  <metadata
     id="metadata8486">
    <rdf:RDF>
      <cc:Work
         rdf:about="">
        <dc:format>image/svg+xml</dc:format>
        <dc:type
           rdf:resource="http://purl.org/dc/dcmitype/StillImage" />
        <dc:title />
      </cc:Work>
    </rdf:RDF>
  </metadata>
  <g
     inkscape:label="Layer 1"
     inkscape:groupmode="layer"
     id="layer1"
     transform="translate(-277.99808,-359.56981)">
    <g
       id="g8933"
       transform="translate(0,-2.2808149e-6)"
       style="fill:#ffffff">
      <g
         style="font-size:40px;font-style:normal;font-weight:normal;line-height:125%;letter-spacing:0px;word-spacing:0px;fill:#ffffff;fill-opacity:1;stroke:none;font-family:Sans"
         id="text6251">
        <path
           d="m 339.98782,541.12599 c 0.70249,1.52748 1.80747,2.76246 3.31496,3.70495 1.50747,0.94249 3.28245,1.42748 5.32493,1.45498 2.57329,-0.0508 4.54659,-0.77916 5.91992,-2.18497 1.3733,-1.40581 2.06663,-3.18412 2.07998,-5.33493 -0.0688,-2.26663 -0.75626,-3.98327 -2.06248,-5.14994 -1.30624,-1.16663 -2.81872,-2.10329 -4.53744,-2.80996 -1.71874,-0.70664 -3.23122,-1.5033 -4.53744,-2.38997 -1.30624,-0.88664 -1.99373,-2.18329 -2.06247,-3.88995 0.025,-1.33246 0.48498,-2.43744 1.37998,-3.31496 0.89498,-0.87746 2.07496,-1.33245 3.53995,-1.36498 1.5383,0.035 2.78162,0.44502 3.72995,1.22999 0.94831,0.78501 1.61164,1.735 1.98998,2.84996 l 2.15997,-1.15999 c -0.61751,-1.60245 -1.57249,-2.87743 -2.86496,-3.82495 -1.2925,-0.94746 -2.93748,-1.43245 -4.93494,-1.45498 -2.37664,0.0467 -4.21328,0.73335 -5.50993,2.05997 -1.29665,1.32668 -1.95331,3.01332 -1.96997,5.05994 0.0689,2.20791 0.75853,3.88705 2.06872,5.03743 1.31019,1.15042 2.82725,2.08457 4.55119,2.80247 1.72393,0.71792 3.24099,1.53207 4.55119,2.44247 1.31018,0.91041 1.99975,2.22956 2.06873,3.95745 0.006,1.38582 -0.44584,2.57413 -1.35498,3.56495 -0.90917,0.99082 -2.31082,1.50915 -4.20495,1.55498 -1.51416,-0.0158 -2.8358,-0.39416 -3.96495,-1.13499 -1.12916,-0.74082 -1.98081,-1.74913 -2.55497,-3.02496 z"
           style="fill:#ffffff;font-family:Mission Gothic Light;-inkscape-font-specification:Mission Gothic Light"
           id="path8998"
           inkscape:connector-curvature="0" />
        <path
           d="m 375.71511,545.88593 c -0.06,-0.10917 -0.17001,-0.46083 -0.32999,-1.05499 -0.16002,-0.59416 -0.25002,-1.37582 -0.27,-2.34497 l 0,-17.67977 -2.43997,0 0,12.39984 c -0.0117,2.00164 -0.45834,3.63829 -1.33998,4.90993 -0.88167,1.27166 -2.12832,1.92831 -3.73995,1.96998 -1.64999,-0.0225 -2.78997,-0.63749 -3.41996,-1.84498 -0.63,-1.20748 -0.92999,-2.87245 -0.89999,-4.99493 l 0,-12.43984 -2.43996,0 0,12.99983 c -0.0442,2.36581 0.39416,4.35411 1.31498,5.96492 0.92082,1.61082 2.58913,2.44914 5.00493,2.51497 1.26831,-0.007 2.38163,-0.34333 3.33996,-1.00999 0.95831,-0.66665 1.71163,-1.62331 2.25997,-2.86996 l 0.08,0 c 0.0408,0.94999 0.13915,1.75998 0.295,2.42997 0.15581,0.66999 0.24415,1.01999 0.26499,1.04999 z"
           style="fill:#ffffff;font-family:Mission Gothic Light;-inkscape-font-specification:Mission Gothic Light"
           id="path9000"
           inkscape:connector-curvature="0" />
        <path
           d="m 382.83903,545.88593 c 0.0533,-0.0792 0.14666,-0.39083 0.27999,-0.93499 0.13333,-0.54416 0.22666,-1.20582 0.28,-1.98498 l 0.08,0 c 0.43582,0.90833 1.06415,1.68165 1.88498,2.31997 0.82081,0.63833 1.85913,0.97166 3.11496,0.99999 2.19745,-0.0317 3.90243,-1.00832 5.11493,-2.92996 1.21247,-1.92164 1.82746,-4.59827 1.84498,-8.0299 -8.6e-4,-3.42994 -0.57918,-6.0999 -1.73498,-8.0099 -1.15583,-1.90995 -2.88414,-2.87994 -5.18494,-2.90996 -1.19499,0.0225 -2.19497,0.33752 -2.99996,0.94499 -0.80499,0.60751 -1.44498,1.3725 -1.91997,2.29497 l -0.08,0 c 0.002,-0.0525 0.008,-0.41748 0.02,-1.09499 0.0117,-0.67747 0.0183,-1.35246 0.02,-2.02497 l 0,-7.8399 -2.39997,0 0,25.75967 c -0.02,1.00582 -0.11,1.80414 -0.27,2.39497 -0.16,0.59083 -0.27,0.93915 -0.32999,1.04499 z m 0.71999,-13.19983 c -10e-6,-1.7233 0.37999,-3.15661 1.13998,-4.29995 0.75999,-1.1433 1.89997,-1.73663 3.41996,-1.77998 1.72413,0.0334 2.96578,0.82668 3.72495,2.37997 0.75914,1.55333 1.13081,3.66664 1.11499,6.33992 0.0158,2.65414 -0.35585,4.75578 -1.11499,6.30492 -0.75917,1.54915 -2.00082,2.3408 -3.72495,2.37497 -1.60749,-0.0408 -2.77247,-0.70916 -3.49496,-2.00498 -0.72249,-1.29581 -1.07749,-2.97412 -1.06498,-5.03493 z"
           style="fill:#ffffff;font-family:Mission Gothic Light;-inkscape-font-specification:Mission Gothic Light"
           id="path9002"
           inkscape:connector-curvature="0" />
        <path
           d="m 424.09749,545.88593 0,-13.27983 c 0.0575,-2.33663 -0.29752,-4.27327 -1.06498,-5.80993 -0.76752,-1.53663 -2.2925,-2.33328 -4.57494,-2.38997 -1.26501,-0.004 -2.35499,0.33419 -3.26996,1.01499 -0.91501,0.68084 -1.625,1.72916 -2.12997,3.14496 l -0.08,0 c -0.29501,-1.23747 -0.86501,-2.22245 -1.70998,-2.95496 -0.845,-0.73247 -1.99499,-1.10747 -3.44996,-1.12499 -1.13916,-0.0108 -2.13081,0.26085 -2.97496,0.81499 -0.84416,0.55418 -1.54582,1.45583 -2.10497,2.70497 l -0.08,0 c -0.0583,-0.90331 -0.16167,-1.65663 -0.31,-2.25998 -0.14833,-0.6033 -0.23166,-0.91663 -0.24999,-0.93998 l -2.31997,0 c 0.0775,0.12835 0.19249,0.49168 0.34499,1.08998 0.1525,0.59835 0.2375,1.38167 0.255,2.34997 l 0,17.63978 2.43997,0 0,-12.99984 c 0.0258,-2.09412 0.46415,-3.64577 1.31498,-4.65494 0.85082,-1.00913 1.95913,-1.51079 3.32496,-1.50498 1.2508,-0.009 2.15912,0.46918 2.72496,1.43498 0.56582,0.96584 0.84415,2.47415 0.83499,4.52495 l 0,13.19983 2.43997,0 0,-12.71984 c 0.0208,-2.19329 0.44915,-3.8166 1.28498,-4.86994 0.83581,-1.0533 1.95413,-1.57663 3.35496,-1.56998 1.2508,-0.009 2.15912,0.46918 2.72497,1.43498 0.5658,0.96584 0.84413,2.47415 0.83499,4.52495 l 0,13.19983 z"
           style="fill:#ffffff;font-family:Mission Gothic Light;-inkscape-font-specification:Mission Gothic Light"
           id="path9004"
           inkscape:connector-curvature="0" />
        <path
           d="m 432.03464,545.88593 0,-21.07973 -2.43996,0 0,21.07973 z m 0.32,-25.87967 c -0.01,-0.44997 -0.16,-0.81996 -0.44999,-1.10999 -0.29001,-0.28997 -0.66,-0.43996 -1.10999,-0.44999 -0.43083,0.01 -0.78916,0.16002 -1.07499,0.44999 -0.28583,0.29003 -0.43416,0.66002 -0.44499,1.10999 0.0108,0.43085 0.15916,0.78918 0.44499,1.07498 0.28583,0.28586 0.64416,0.43419 1.07499,0.445 0.44999,-0.0108 0.81998,-0.15914 1.10999,-0.445 0.28999,-0.2858 0.43998,-0.64413 0.44999,-1.07498 z"
           style="fill:#ffffff;font-family:Mission Gothic Light;-inkscape-font-specification:Mission Gothic Light"
           id="path9006"
           inkscape:connector-curvature="0" />
        <path
           d="m 446.51581,543.12596 c -0.33,0.26417 -0.72,0.47583 -1.16998,0.63499 -0.45001,0.15917 -0.9,0.24083 -1.34998,0.245 -0.885,-0.004 -1.56499,-0.30583 -2.03998,-0.90499 -0.475,-0.59915 -0.71499,-1.47081 -0.71999,-2.61497 l 0,-13.51982 4.83994,0 0,-2.15997 -4.83994,0 0,-5.03994 -2.39997,0 0,5.03994 -2.83996,0 0,2.15997 2.83996,0 0,13.63982 c -0.007,1.79415 0.3875,3.1858 1.18499,4.17495 0.79748,0.98915 2.04246,1.49081 3.73495,1.50498 0.72331,-0.01 1.38664,-0.12 1.98997,-0.33 0.60332,-0.20999 1.12664,-0.45999 1.56998,-0.74999 z"
           style="fill:#ffffff;font-family:Mission Gothic Light;-inkscape-font-specification:Mission Gothic Light"
           id="path9008"
           inkscape:connector-curvature="0" />
      </g>
      <g
         style="fill:#ffffff"
         transform="matrix(1.9296481,0,0,1.9296481,255.34163,505.74763)"
         id="g8578">
        <g
           style="fill:#ffffff"
           id="g8508">
          <path
             style="fill:#ffffff"
             inkscape:connector-curvature="0"
             d="M 0.462,21.883 C 0.192,21.826 0,21.59 0,21.32 0,11.97 11.1,9.98 13.675,9.644 V 5.355 c 0,-0.211 0.117,-0.406 0.306,-0.504 0.188,-0.1 0.413,-0.086 0.588,0.027 l 11.858,7.984 c 0.156,0.105 0.25,0.281 0.25,0.477 0,0.189 -0.094,0.365 -0.25,0.473 l -11.854,7.983 c -0.176,0.115 -0.402,0.127 -0.59,0.029 -0.188,-0.1 -0.303,-0.297 -0.303,-0.506 v -4.617 c -1.867,0.014 -3.409,0.098 -4.696,0.252 -6.166,0.729 -7.813,4.432 -7.883,4.59 l 0,0 C 1.008,21.756 0.799,21.893 0.575,21.893 0.538,21.892 0.497,21.89 0.462,21.883 z"
             id="path8510" />
          <g
             style="fill:#ffffff"
             id="g8512" />
          <g
             style="fill:#ffffff"
             id="g8514" />
          <g
             style="fill:#ffffff"
             id="g8516" />
          <g
             style="fill:#ffffff"
             id="g8518" />
          <g
             style="fill:#ffffff"
             id="g8520" />
          <g
             style="fill:#ffffff"
             id="g8522" />
          <g
             style="fill:#ffffff"
             id="g8524" />
          <g
             style="fill:#ffffff"
             id="g8526" />
          <g
             style="fill:#ffffff"
             id="g8528" />
          <g
             style="fill:#ffffff"
             id="g8530" />
          <g
             style="fill:#ffffff"
             id="g8532" />
          <g
             style="fill:#ffffff"
             id="g8534" />
          <g
             style="fill:#ffffff"
             id="g8536" />
          <g
             style="fill:#ffffff"
             id="g8538" />
          <g
             style="fill:#ffffff"
             id="g8540" />
        </g>
        <g
           style="fill:#ffffff"
           id="g8542" />
        <g
           style="fill:#ffffff"
           id="g8544" />
        <g
           style="fill:#ffffff"
           id="g8546" />
        <g
           style="fill:#ffffff"
           id="g8548" />
        <g
           style="fill:#ffffff"
           id="g8550" />
        <g
           style="fill:#ffffff"
           id="g8552" />
        <g
           style="fill:#ffffff"
           id="g8554" />
        <g
           style="fill:#ffffff"
           id="g8556" />
        <g
           style="fill:#ffffff"
           id="g8558" />
        <g
           style="fill:#ffffff"
           id="g8560" />
        <g
           style="fill:#ffffff"
           id="g8562" />
        <g
           style="fill:#ffffff"
           id="g8564" />
        <g
           style="fill:#ffffff"
           id="g8566" />
        <g
           style="fill:#ffffff"
           id="g8568" />
        <g
           style="fill:#ffffff"
           id="g8570" />
      </g>
    </g>
    <g
       transform="translate(25.136881,-288.69136)"
       id="g6564"
       style="fill:#000080">
      <g
         id="g9044"
         style="fill:#0055d4">
        <path
           inkscape:connector-curvature="0"
           d="m 382.72211,398.7568 -2.24672,-13.06233 h -1.98874 l -2.2957,13.06233 c -1.94629,1.13315 -3.26558,3.21333 -3.26558,5.62659 0,3.60521 2.92596,6.53117 6.53116,6.53117 3.6052,0 6.53116,-2.92596 6.53116,-6.53117 0,-2.41326 -1.31929,-4.49344 -3.26558,-5.62659 z m -3.26558,-26.12466 c -18.03254,0 -32.65582,14.62001 -32.65582,32.65582 0,18.03581 14.62328,32.65582 32.65582,32.65582 18.03254,0 32.65582,-14.62001 32.65582,-32.65582 0,-18.03581 -14.62328,-32.65582 -32.65582,-32.65582 z m 0,58.78048 c -14.40448,0 -26.12466,-11.72018 -26.12466,-26.12466 0,-14.40448 11.72018,-26.12465 26.12466,-26.12465 14.40448,0 26.12465,11.72017 26.12465,26.12465 0,14.40448 -11.72017,26.12466 -26.12465,26.12466 z m -6.53116,-64.72057 v -7.12224 h 13.06232 v 7.12224 c -4.6959,-0.79354 -8.46439,-0.77721 -13.06232,0 z m 29.97477,7.26918 4.59468,-4.59467 4.61753,4.61753 -4.31384,4.31384 c -1.50869,-1.58055 -3.14802,-3.02393 -4.89837,-4.3367 z"
           id="path4"
           style="fill:#0055d4"
           transform="translate(-25.136881,288.69136)" />
        <g
           style="font-size:40px;font-style:normal;font-weight:normal;line-height:125%;letter-spacing:0px;word-spacing:0px;fill:#0055d4;fill-opacity:1;stroke:none;font-family:Sans"
           id="text6251-4">
          <path
             d="m 258.57313,755.31665 0,-4.96794 4.27194,-11.83184 -1.60797,0 -2.75997,7.96789 c -0.1605,0.47951 -0.2955,0.9545 -0.40499,1.42499 -0.10951,0.4705 -0.16651,0.72349 -0.171,0.75899 l -0.048,0 c -0.006,-0.0355 -0.0665,-0.28849 -0.183,-0.75899 -0.1165,-0.47049 -0.2555,-0.94548 -0.41699,-1.42499 l -2.80797,-7.96789 -1.58398,0 4.24795,11.78384 0,5.01594 z"
             style="font-size:24px;fill:#0055d4;font-family:Mission Gothic Light;-inkscape-font-specification:Mission Gothic Light"
             id="path9050" />
          <path
             d="m 268.85376,754.21266 c -1.02899,-0.0215 -1.79098,-0.50049 -2.28597,-1.43698 -0.495,-0.93648 -0.741,-2.20146 -0.73799,-3.79495 -0.003,-1.60397 0.24299,-2.87195 0.73799,-3.80395 0.49499,-0.93198 1.25698,-1.40797 2.28597,-1.42798 1.04048,0.02 1.80947,0.496 2.30697,1.42798 0.49748,0.932 0.74448,2.19998 0.74099,3.80395 0.003,1.61449 -0.24351,2.88547 -0.74099,3.81295 -0.4975,0.92749 -1.26649,1.40049 -2.30697,1.41898 z m 0,1.34399 c 1.49097,-0.0175 2.61896,-0.60049 3.38396,-1.74898 0.76498,-1.14848 1.14897,-2.75746 1.15198,-4.82694 -0.003,-2.05796 -0.387,-3.65994 -1.15198,-4.80594 -0.765,-1.14597 -1.89299,-1.72796 -3.38396,-1.74597 -1.47949,0.018 -2.60047,0.6 -3.36296,1.74597 -0.76249,1.146 -1.14548,2.74798 -1.14898,4.80594 0.004,2.06948 0.38649,3.67846 1.14898,4.82694 0.76249,1.14849 1.88347,1.73148 3.36296,1.74898 z"
             style="font-size:24px;fill:#0055d4;font-family:Mission Gothic Light;-inkscape-font-specification:Mission Gothic Light"
             id="path9052" />
          <path
             d="m 284.99632,755.31665 c -0.036,-0.0655 -0.10201,-0.2765 -0.198,-0.63299 -0.096,-0.3565 -0.15,-0.82549 -0.16199,-1.40698 l 0,-10.60787 -1.46398,0 0,7.43991 c -0.007,1.20099 -0.27501,2.18297 -0.80399,2.94596 -0.529,0.76299 -1.27699,1.15699 -2.24397,1.18198 -0.99,-0.0135 -1.67399,-0.38249 -2.05198,-1.10698 -0.378,-0.72449 -0.55799,-1.72348 -0.53999,-2.99696 l 0,-7.46391 -1.46398,0 0,7.7999 c -0.0265,1.41949 0.23649,2.61247 0.78899,3.57896 0.55249,0.96648 1.55347,1.46948 3.00296,1.50898 0.76098,-0.004 1.42897,-0.206 2.00397,-0.606 0.57499,-0.39999 1.02698,-0.97398 1.35599,-1.72197 l 0.048,0 c 0.0245,0.56999 0.0835,1.05598 0.17699,1.45798 0.0935,0.40199 0.14649,0.61199 0.159,0.62999 z"
             style="font-size:24px;fill:#0055d4;font-family:Mission Gothic Light;-inkscape-font-specification:Mission Gothic Light"
             id="path9054" />
          <path
             d="m 289.72667,755.31665 0,-7.5359 c 0.017,-1.17848 0.31299,-2.10947 0.88798,-2.79297 0.57499,-0.68348 1.32698,-1.03247 2.25598,-1.04698 0.16949,0.002 0.32848,0.0165 0.47699,0.045 0.14849,0.0285 0.27749,0.0615 0.38699,0.099 l 0.288,-1.55997 c -0.13051,-0.024 -0.2595,-0.042 -0.387,-0.054 -0.1275,-0.012 -0.2625,-0.018 -0.40499,-0.018 -0.83099,0.002 -1.54499,0.20851 -2.14197,0.62099 -0.597,0.4125 -1.05899,1.0215 -1.38598,1.82697 l -0.048,0 c -0.0255,-0.60748 -0.0885,-1.12647 -0.189,-1.55698 -0.1005,-0.43048 -0.1575,-0.65547 -0.171,-0.67499 l -1.39198,0 c 0.0465,0.077 0.1155,0.29501 0.207,0.65399 0.0915,0.35901 0.14249,0.82901 0.15299,1.40999 l 0,10.58386 z"
             style="font-size:24px;fill:#0055d4;font-family:Mission Gothic Light;-inkscape-font-specification:Mission Gothic Light"
             id="path9056" />
          <path
             d="m 307.46112,753.66067 c -0.19801,0.1585 -0.432,0.2855 -0.70199,0.381 -0.27001,0.0955 -0.54,0.1445 -0.80999,0.14699 -0.531,-0.002 -0.93899,-0.18349 -1.22399,-0.54299 -0.285,-0.35949 -0.42899,-0.88248 -0.43199,-1.56898 l 0,-8.11189 2.90396,0 0,-1.29599 -2.90396,0 0,-3.02396 -1.43998,0 0,3.02396 -1.70398,0 0,1.29599 1.70398,0 0,8.18389 c -0.005,1.07649 0.23249,1.91148 0.71099,2.50497 0.47849,0.59349 1.22548,0.89449 2.24097,0.90299 0.43399,-0.006 0.83198,-0.072 1.19398,-0.198 0.36199,-0.126 0.67599,-0.276 0.94199,-0.44999 z"
             style="font-size:24px;fill:#0055d4;font-family:Mission Gothic Light;-inkscape-font-specification:Mission Gothic Light"
             id="path9058" />
          <path
             d="m 311.66304,755.31665 0,-12.64784 -1.46398,0 0,12.64784 z m 0.192,-15.5278 c -0.006,-0.26998 -0.096,-0.49198 -0.27,-0.66599 -0.174,-0.17398 -0.396,-0.26398 -0.66599,-0.27 -0.2585,0.006 -0.4735,0.096 -0.64499,0.27 -0.1715,0.17401 -0.2605,0.39601 -0.267,0.66599 0.006,0.25851 0.0955,0.47351 0.267,0.64499 0.1715,0.17151 0.38649,0.26051 0.64499,0.267 0.26999,-0.006 0.49199,-0.0955 0.66599,-0.267 0.174,-0.17148 0.264,-0.38648 0.27,-0.64499 z"
             style="font-size:24px;fill:#0055d4;font-family:Mission Gothic Light;-inkscape-font-specification:Mission Gothic Light"
             id="path9060" />
          <path
             d="m 329.44763,755.31665 0,-7.9679 c 0.0345,-1.40197 -0.17852,-2.56395 -0.639,-3.48595 -0.46051,-0.92198 -1.37549,-1.39997 -2.74496,-1.43398 -0.759,-0.002 -1.41299,0.20051 -1.96198,0.60899 -0.549,0.4085 -0.97499,1.0375 -1.27798,1.88697 l -0.048,0 c -0.17701,-0.74247 -0.519,-1.33347 -1.02599,-1.77297 -0.507,-0.43949 -1.19699,-0.66448 -2.06997,-0.67499 -0.68349,-0.006 -1.27849,0.15651 -1.78498,0.48899 -0.50649,0.33251 -0.92749,0.8735 -1.26298,1.62298 l -0.048,0 c -0.035,-0.54198 -0.097,-0.99398 -0.186,-1.35598 -0.089,-0.36199 -0.139,-0.54998 -0.14999,-0.564 l -1.39199,0 c 0.0465,0.077 0.1155,0.29501 0.207,0.65399 0.0915,0.35901 0.1425,0.82901 0.153,1.40999 l 0,10.58386 1.46398,0 0,-7.7999 c 0.0155,-1.25647 0.27849,-2.18746 0.78899,-2.79296 0.51049,-0.60548 1.17548,-0.90648 1.99497,-0.90299 0.75049,-0.005 1.29548,0.28151 1.63498,0.86099 0.33949,0.5795 0.50649,1.48449 0.501,2.71496 l 0,7.9199 1.46398,0 0,-7.6319 c 0.0125,-1.31598 0.26948,-2.28996 0.77099,-2.92196 0.50148,-0.63198 1.17247,-0.94598 2.01297,-0.94199 0.75048,-0.005 1.29547,0.28151 1.63498,0.86099 0.33948,0.5795 0.50648,1.48449 0.50099,2.71496 l 0,7.9199 z"
             style="font-size:24px;fill:#0055d4;font-family:Mission Gothic Light;-inkscape-font-specification:Mission Gothic Light"
             id="path9062" />
          <path
             d="m 339.84984,751.7167 c -0.2935,0.86099 -0.6845,1.49698 -1.17298,1.90797 -0.4885,0.411 -1.11349,0.615 -1.87498,0.61199 -1.01999,-0.014 -1.79398,-0.43599 -2.32197,-1.26598 -0.52799,-0.82999 -0.80999,-1.98397 -0.84599,-3.46195 l 7.51191,0 0,-0.456 c 0.022,-1.99797 -0.30401,-3.59394 -0.97799,-4.78794 -0.674,-1.19397 -1.82798,-1.80596 -3.46196,-1.83597 -1.43848,0.019 -2.55147,0.605 -3.33895,1.75797 -0.78749,1.153 -1.18649,2.75898 -1.19699,4.81794 0.009,2.06848 0.405,3.67346 1.18799,4.81494 0.78298,1.14148 1.89897,1.72048 3.34795,1.73698 1.11698,-0.001 2.02097,-0.2685 2.71197,-0.80099 0.69098,-0.53249 1.23497,-1.32148 1.63198,-2.36697 z m -6.21592,-3.43196 c 0.073,-1.41947 0.371,-2.53446 0.89399,-3.34496 0.52299,-0.81048 1.26498,-1.22347 2.22597,-1.23898 1.00998,0.01 1.74397,0.41051 2.20198,1.20298 0.45798,0.7925 0.69998,1.91949 0.72599,3.38096 z"
             style="font-size:24px;fill:#0055d4;font-family:Mission Gothic Light;-inkscape-font-specification:Mission Gothic Light"
             id="path9064" />
          <path
             d="m 355.41424,753.66067 c -0.198,0.1585 -0.432,0.2855 -0.70199,0.381 -0.27,0.0955 -0.54,0.1445 -0.80999,0.14699 -0.531,-0.002 -0.93899,-0.18349 -1.22398,-0.54299 -0.285,-0.35949 -0.429,-0.88248 -0.432,-1.56898 l 0,-8.11189 2.90397,0 0,-1.29599 -2.90397,0 0,-3.02396 -1.43998,0 0,3.02396 -1.70398,0 0,1.29599 1.70398,0 0,8.18389 c -0.005,1.07649 0.2325,1.91148 0.71099,2.50497 0.47849,0.59349 1.22548,0.89449 2.24097,0.90299 0.43399,-0.006 0.83199,-0.072 1.19399,-0.198 0.36199,-0.126 0.67598,-0.276 0.94199,-0.44999 z"
             style="font-size:24px;fill:#0055d4;font-family:Mission Gothic Light;-inkscape-font-specification:Mission Gothic Light"
             id="path9066" />
          <path
             d="m 362.08813,754.21266 c -1.02899,-0.0215 -1.79098,-0.50049 -2.28597,-1.43698 -0.49499,-0.93648 -0.74099,-2.20146 -0.73799,-3.79495 -0.003,-1.60397 0.243,-2.87195 0.73799,-3.80395 0.49499,-0.93198 1.25698,-1.40797 2.28597,-1.42798 1.04048,0.02 1.80947,0.496 2.30697,1.42798 0.49749,0.932 0.74449,2.19998 0.741,3.80395 0.003,1.61449 -0.24351,2.88547 -0.741,3.81295 -0.4975,0.92749 -1.26649,1.40049 -2.30697,1.41898 z m 0,1.34399 c 1.49098,-0.0175 2.61896,-0.60049 3.38396,-1.74898 0.76498,-1.14848 1.14898,-2.75746 1.15199,-4.82694 -0.003,-2.05796 -0.38701,-3.65994 -1.15199,-4.80594 -0.765,-1.14597 -1.89298,-1.72796 -3.38396,-1.74597 -1.47948,0.018 -2.60047,0.6 -3.36295,1.74597 -0.76249,1.146 -1.14549,2.74798 -1.14899,4.80594 0.004,2.06948 0.3865,3.67846 1.14899,4.82694 0.76248,1.14849 1.88347,1.73148 3.36295,1.74898 z"
             style="font-size:24px;fill:#0055d4;font-family:Mission Gothic Light;-inkscape-font-specification:Mission Gothic Light"
             id="path9068" />
          <path
             d="m 384.15308,755.31665 0,-1.39198 -6.67192,0 0,-5.59193 5.73593,0 0,-1.39198 -5.73593,0 0,-7.00791 6.67192,0 0,-1.41598 -8.1359,0 0,16.79978 z"
             style="font-size:24px;fill:#0055d4;font-family:Mission Gothic Light;-inkscape-font-specification:Mission Gothic Light"
             id="path9070" />
          <path
             d="m 396.46957,755.31665 -4.05595,-8.39989 4.05595,-8.39989 -1.60798,0 -2.61596,5.63992 c -0.20001,0.43201 -0.37601,0.834 -0.528,1.20599 -0.152,0.372 -0.232,0.57 -0.24,0.59399 l -0.048,0 c -0.007,-0.0225 -0.083,-0.21749 -0.228,-0.58499 -0.14501,-0.36749 -0.317,-0.77248 -0.51599,-1.21499 l -2.63997,-5.63992 -1.58398,0 4.03195,8.39989 -4.05595,8.39989 1.60798,0 2.63997,-5.56793 c 0.18699,-0.40049 0.35299,-0.79348 0.49799,-1.17898 0.14499,-0.38549 0.22699,-0.59249 0.246,-0.62099 l 0.048,0 c 0.009,0.0285 0.087,0.2295 0.234,0.60299 0.14699,0.3735 0.30899,0.74849 0.486,1.12498 l 2.68796,5.63993 z"
             style="font-size:24px;fill:#0055d4;font-family:Mission Gothic Light;-inkscape-font-specification:Mission Gothic Light"
             id="path9072" />
          <path
             d="m 400.56766,755.31665 0,-4.70394 2.42397,0 c 1.91847,-0.039 3.31345,-0.62099 4.18495,-1.74598 0.87147,-1.12497 1.30047,-2.55895 1.28698,-4.30194 0.013,-1.75347 -0.409,-3.19045 -1.26598,-4.31095 -0.857,-1.12047 -2.22698,-1.69946 -4.10995,-1.73697 l -3.98395,0 0,16.79978 z m 0,-6.09592 0,-9.31188 2.42397,0 c 1.39648,0.02 2.41946,0.44801 3.06896,1.28398 0.64948,0.836 0.97048,1.95999 0.96299,3.37196 0.007,1.41199 -0.31301,2.53597 -0.95999,3.37196 -0.647,0.83599 -1.66298,1.26399 -3.04796,1.28398 z"
             style="font-size:24px;fill:#0055d4;font-family:Mission Gothic Light;-inkscape-font-specification:Mission Gothic Light"
             id="path9074" />
          <path
             d="m 419.11733,755.31665 0,-1.39198 -6.45592,0 0,-15.4078 -1.46398,0 0,16.79978 z"
             style="font-size:24px;fill:#0055d4;font-family:Mission Gothic Light;-inkscape-font-specification:Mission Gothic Light"
             id="path9076" />
          <path
             d="m 426.23337,755.55665 c 1.91547,-0.0555 3.29845,-0.88649 4.14895,-2.49297 0.85048,-1.60648 1.26747,-3.65545 1.25098,-6.14692 0.0165,-2.49146 -0.4005,-4.54043 -1.25098,-6.14692 -0.8505,-1.60647 -2.23348,-2.43745 -4.14895,-2.49297 -1.92598,0.0555 -3.31196,0.8865 -4.15794,2.49297 -0.84599,1.60649 -1.25999,3.65546 -1.24199,6.14692 -0.018,2.49147 0.396,4.54044 1.24199,6.14692 0.84598,1.60648 2.23196,2.43747 4.15794,2.49297 z m 0,-1.36799 c -1.38298,-0.033 -2.39097,-0.70498 -3.02396,-2.01597 -0.63299,-1.31098 -0.94499,-3.06295 -0.93599,-5.25593 -0.009,-2.19296 0.303,-3.94494 0.93599,-5.25593 0.63299,-1.31097 1.64098,-1.98296 3.02396,-2.01598 1.37148,0.033 2.37246,0.70501 3.00296,2.01598 0.63049,1.31099 0.94148,3.06297 0.93299,5.25593 0.008,2.19298 -0.3025,3.94495 -0.93299,5.25593 -0.6305,1.31099 -1.63148,1.98298 -3.00296,2.01597 z"
             style="font-size:24px;fill:#0055d4;font-family:Mission Gothic Light;-inkscape-font-specification:Mission Gothic Light"
             id="path9078" />
          <path
             d="m 444.11031,755.31665 -2.83196,-6.07192 c 0.98198,-0.43199 1.71197,-1.09198 2.18997,-1.97998 0.47798,-0.88798 0.71598,-1.93196 0.71399,-3.13196 0.008,-1.65146 -0.4225,-2.99244 -1.29298,-4.02294 -0.8705,-1.03047 -2.23148,-1.56147 -4.08295,-1.59298 l -3.98395,0 0,16.79978 1.46398,0 0,-5.54393 2.42397,0 c 0.20549,5.1e-4 0.41249,-0.006 0.62099,-0.021 0.20849,-0.0145 0.40949,-0.0395 0.603,-0.075 l 2.59196,5.63993 z m -7.8239,-6.93591 0,-8.47189 2.42397,0 c 1.35448,0.014 2.36546,0.39401 3.03296,1.13998 0.66748,0.74601 1.00048,1.77399 0.99899,3.08396 9.9e-4,1.311 -0.33101,2.34298 -0.99599,3.09596 -0.665,0.753 -1.66898,1.137 -3.01196,1.15199 z"
             style="font-size:24px;fill:#0055d4;font-family:Mission Gothic Light;-inkscape-font-specification:Mission Gothic Light"
             id="path9080" />
          <path
             d="m 455.77808,755.31665 0,-1.39198 -6.67192,0 0,-5.59193 5.73593,0 0,-1.39198 -5.73593,0 0,-7.00791 6.67192,0 0,-1.41598 -8.1359,0 0,16.79978 z"
             style="font-size:24px;fill:#0055d4;font-family:Mission Gothic Light;-inkscape-font-specification:Mission Gothic Light"
             id="path9082" />
        </g>
      </g>
    </g>
  </g>
</svg>
