<?xml version="1.0" encoding="UTF-8" standalone="no"?>
<!-- Created with Inkscape (http://www.inkscape.org/) -->

<svg
   xmlns:dc="http://purl.org/dc/elements/1.1/"
   xmlns:cc="http://creativecommons.org/ns#"
   xmlns:rdf="http://www.w3.org/1999/02/22-rdf-syntax-ns#"
   xmlns:svg="http://www.w3.org/2000/svg"
   xmlns="http://www.w3.org/2000/svg"
   xmlns:sodipodi="http://sodipodi.sourceforge.net/DTD/sodipodi-0.dtd"
   xmlns:inkscape="http://www.inkscape.org/namespaces/inkscape"
   width="88.700638"
   height="107.80627"
   id="svg7314"
   version="1.1"
   inkscape:version="0.48.4 r9939"
   sodipodi:docname="New document 59">
  <defs
     id="defs7316" />
  <sodipodi:namedview
     id="base"
     pagecolor="#ffffff"
     bordercolor="#666666"
     borderopacity="1.0"
     inkscape:pageopacity="0.0"
     inkscape:pageshadow="2"
     inkscape:zoom="0.35"
     inkscape:cx="-137.79254"
     inkscape:cy="-43.239726"
     inkscape:document-units="px"
     inkscape:current-layer="layer1"
     showgrid="false"
     fit-margin-top="0"
     fit-margin-left="0"
     fit-margin-right="0"
     fit-margin-bottom="0"
     inkscape:window-width="463"
     inkscape:window-height="423"
     inkscape:window-x="156"
     inkscape:window-y="156"
     inkscape:window-maximized="0" />
  <metadata
     id="metadata7319">
    <rdf:RDF>
      <cc:Work
         rdf:about="">
        <dc:format>image/svg+xml</dc:format>
        <dc:type
           rdf:resource="http://purl.org/dc/dcmitype/StillImage" />
        <dc:title></dc:title>
      </cc:Work>
    </rdf:RDF>
  </metadata>
  <g
     inkscape:label="Layer 1"
     inkscape:groupmode="layer"
     id="layer1"
     transform="translate(-512.79254,-381.31619)">
    <g
       transform="translate(127.63794,271.76059)"
       id="g7253">
      <path
         id="rect5065-3-2"
         d="m 445.46901,174.01165 c -0.75784,0.0131 -1.51536,0.24141 -2.1856,0.70612 l -1.51311,1.04236 c -1.7873,1.23921 -2.22659,3.6774 -0.97511,5.44719 l 24.41146,34.49884 c 1.25148,1.76979 3.69351,2.18072 5.48081,0.94149 l 1.47948,-1.04236 c 1.78731,-1.23922 2.22661,-3.64379 0.97512,-5.41356 l -24.37784,-34.49885 c -0.78218,-1.10611 -2.03215,-1.70308 -3.29521,-1.68123 z m 5.27906,11.70136 c 0.67874,-0.10028 1.43306,0.25094 1.9166,0.94149 l 12.57561,17.95554 c 0.64471,0.92075 0.53981,2.07993 -0.23538,2.62272 -0.77518,0.54279 -1.94438,0.24825 -2.58909,-0.67249 l -12.54198,-17.95554 c -0.64471,-0.92074 -0.53981,-2.07993 0.23537,-2.62272 0.1938,-0.13569 0.41262,-0.23558 0.63887,-0.269 z"
         style="fill:#1f241c;fill-opacity:1;stroke:none"
         inkscape:connector-curvature="0" />
      <g
         transform="matrix(0.29565294,0,0,0.29565294,742.63596,133.72523)"
         id="g5421-1-7"
         style="fill:#1f241c">
        <path
           style="fill:#1f241c;fill-opacity:1;stroke:none"
           d="m -1076.5938,-81.75 c -73.1848,0 -132.5312,59.315158 -132.5312,132.5 0,73.18485 59.3464,132.53125 132.5312,132.53125 73.1848,0 132.50005,-59.3464 132.50005,-132.53125 0,-73.184842 -59.31525,-132.5 -132.50005,-132.5 z m 0,25.25 c 59.2334,0 107.25005,48.01665 107.25005,107.25 0,59.23335 -48.01655,107.25 -107.25005,107.25 -59.2333,0 -107.25,-48.01665 -107.25,-107.25 0,-59.23335 48.0167,-107.25 107.25,-107.25 z"
           id="path5041-6-8"
           inkscape:connector-curvature="0" />
        <g
           id="g4938-5-3"
           transform="matrix(0.17092019,0,0,0.17092019,-1157.6352,-30.260117)"
           style="fill:#1f241c">
          <g
             id="g4892-7-5"
             style="fill:#1f241c">
            <g
               id="g4894-5-1"
               style="fill:#1f241c">
              <path
                 id="path4896-4-2"
                 d="m 39.068,674.506 c -26.1,5 -43.2,30.2 -38.2,56.301 4.4,23 24.6,39 47.2,39 3,0 6.1,-0.301 9.1,-0.9 l 198,-38 c 11.3,-2.2 21.4,-8.3 28.6,-17.3 l 85,-107.2 -28.399,-14.5 c -21,-10.6 -35.601,-29.8 -40.601,-53.1 l -80.2,101.1 -180.5,34.599 z"
                 inkscape:connector-curvature="0"
                 style="fill:#1f241c" />
              <path
                 d="m 849.66801,151.106 c 0,58.21082 -47.18919,105.4 -105.4,105.4 -58.21082,0 -105.40001,-47.18918 -105.40001,-105.4 0,-58.210811 47.18919,-105.399999 105.40001,-105.399999 58.21081,0 105.4,47.189188 105.4,105.399999 z"
                 id="circle4898-1-0"
                 inkscape:connector-curvature="0"
                 style="fill:#1f241c" />
              <path
                 id="path4900-2-1"
                 d="m 514.268,124.706 c -11.1,-11.4 -21.399,-15.9 -32.699,-15.9 -4.101,0 -8.2,0.6 -12.601,1.6 l -180.899,42.9 c -25,5.9 -40.4,31 -34.5,55.9 5.1,21.4 24.1,35.8 45.2,35.8 3.601,0 7.2,-0.4 10.801,-1.3 l 154.1,-36.5 c 10,11.1 60.1,65.4 69.2,75 l 0,0 c -63.7,68.2 -127.4,136.3 -191.101,204.5 -1,1.101 -1.899,2.2 -2.8,3.3 -18.6,23.7 -12.899,60.9 15.101,75 l 33.899,17.301 161.4,82.399 -101.4,164.3 c -13.899,22.601 -6.899,52.2 15.7,66.2 7.9,4.9 16.6,7.2 25.2,7.2 l 0,0 c 16.1,0 31.899,-8.1 41,-22.8 l 128.8,-208.7 c 7.1,-11.5 9,-25.4 5.3,-38.3 -3.7,-13 -12.6,-23.8 -24.7,-29.9 l -132.3,-67.3 139.101,-148.8 105,89 c 8.699,7.399 19.399,11 30,11 11.399,0 22.8,-4.2 31.699,-12.4 l 120.5,-112.3 c 18.801,-17.5 19.9,-46.9 2.4,-65.7 -9.2,-9.8 -21.6,-14.8 -34,-14.8 -11.3,0 -22.7,4.1 -31.6,12.4 l -90.2,83.9 c -0.101,0.1 -226.101,-212.5 -265.601,-253 z"
                 inkscape:connector-curvature="0"
                 style="fill:#1f241c" />
            </g>
          </g>
          <g
             id="g4902-0-6"
             style="fill:#1f241c" />
          <g
             id="g4904-0-4"
             style="fill:#1f241c" />
          <g
             id="g4906-1-0"
             style="fill:#1f241c" />
          <g
             id="g4908-4-6"
             style="fill:#1f241c" />
          <g
             id="g4910-6-1"
             style="fill:#1f241c" />
          <g
             id="g4912-0-8"
             style="fill:#1f241c" />
          <g
             id="g4914-7-9"
             style="fill:#1f241c" />
          <g
             id="g4916-1-8"
             style="fill:#1f241c" />
          <g
             id="g4918-7-4"
             style="fill:#1f241c" />
          <g
             id="g4920-7-1"
             style="fill:#1f241c" />
          <g
             id="g4922-7-4"
             style="fill:#1f241c" />
          <g
             id="g4924-7-3"
             style="fill:#1f241c" />
          <g
             id="g4926-3-9"
             style="fill:#1f241c" />
          <g
             id="g4928-3-8"
             style="fill:#1f241c" />
          <g
             id="g4930-5-8"
             style="fill:#1f241c" />
        </g>
      </g>
    </g>
  </g>
</svg>
