<?xml version="1.0" encoding="UTF-8" standalone="no"?>
<!-- Created with Inkscape (http://www.inkscape.org/) -->

<svg
   xmlns:dc="http://purl.org/dc/elements/1.1/"
   xmlns:cc="http://creativecommons.org/ns#"
   xmlns:rdf="http://www.w3.org/1999/02/22-rdf-syntax-ns#"
   xmlns:svg="http://www.w3.org/2000/svg"
   xmlns="http://www.w3.org/2000/svg"
   xmlns:sodipodi="http://sodipodi.sourceforge.net/DTD/sodipodi-0.dtd"
   xmlns:inkscape="http://www.inkscape.org/namespaces/inkscape"
   width="450.13434"
   height="107.80627"
   id="svg6430"
   version="1.1"
   inkscape:version="0.48.4 r9939"
   sodipodi:docname="travelQuest_icon.svg">
  <defs
     id="defs6432" />
  <sodipodi:namedview
     id="base"
     pagecolor="#ffffff"
     bordercolor="#666666"
     borderopacity="1.0"
     inkscape:pageopacity="0.0"
     inkscape:pageshadow="2"
     inkscape:zoom="0.35"
     inkscape:cx="225.06716"
     inkscape:cy="53.903128"
     inkscape:document-units="px"
     inkscape:current-layer="layer1"
     showgrid="false"
     fit-margin-top="0"
     fit-margin-left="0"
     fit-margin-right="0"
     fit-margin-bottom="0"
     inkscape:window-width="463"
     inkscape:window-height="423"
     inkscape:window-x="156"
     inkscape:window-y="156"
     inkscape:window-maximized="0" />
  <metadata
     id="metadata6435">
    <rdf:RDF>
      <cc:Work
         rdf:about="">
        <dc:format>image/svg+xml</dc:format>
        <dc:type
           rdf:resource="http://purl.org/dc/dcmitype/StillImage" />
        <dc:title></dc:title>
      </cc:Work>
    </rdf:RDF>
  </metadata>
  <g
     inkscape:label="Layer 1"
     inkscape:groupmode="layer"
     id="layer1"
     transform="translate(-149.93284,-478.45905)">
    <g
       id="g6339"
       style="fill:#1f241c"
       transform="matrix(1.0759874,0,0,1.0759874,-35.9513,356.48265)">
      <g
         style="fill:#1f241c"
         transform="translate(12.481759,-49.889866)"
         id="g5550-6-8">
        <path
           inkscape:connector-curvature="0"
           style="fill:#1f241c;fill-opacity:1;stroke:none"
           d="m 428.5,223.15625 c -0.70432,0.0122 -1.40834,0.22436 -2.03125,0.65625 l -1.40625,0.96875 c -1.66108,1.1517 -2.06935,3.4177 -0.90625,5.0625 l 22.6875,32.0625 c 1.1631,1.6448 3.43267,2.02671 5.09375,0.875 l 1.375,-0.96875 c 1.66108,-1.1517 2.06936,-3.38646 0.90625,-5.03125 l -22.65625,-32.0625 c -0.72694,-1.028 -1.88864,-1.58281 -3.0625,-1.5625 z m 4.90625,10.875 c 0.63081,-0.0932 1.33186,0.23322 1.78125,0.875 l 11.6875,16.6875 c 0.59918,0.85572 0.50169,1.93304 -0.21875,2.4375 -0.72044,0.50446 -1.80707,0.23072 -2.40625,-0.625 l -11.65625,-16.6875 c -0.59918,-0.85572 -0.50169,-1.93304 0.21875,-2.4375 0.18011,-0.12611 0.38348,-0.21894 0.59375,-0.25 z"
           id="rect5065-3-2" />
        <g
           id="flowRoot5089-61-6"
           style="font-size:40px;font-style:normal;font-weight:normal;line-height:125%;letter-spacing:0px;word-spacing:0px;fill:#1f241c;fill-opacity:1;stroke:none;font-family:Sans"
           transform="matrix(0.27477361,0,0,0.27477361,550.48269,152.49916)">
          <path
             inkscape:connector-curvature="0"
             id="path5256-5-6"
             style="font-size:144px;font-variant:normal;font-stretch:normal;fill:#1f241c;font-family:Neuropolitical Rg;-inkscape-font-specification:Neuropolitical Rg"
             d="m -1378.9248,220.75193 0,-79.34326 -41.1812,0 0,-18.86572 104.3965,0 0,18.86572 -41.1811,0 0,79.34326 z" />
          <path
             inkscape:connector-curvature="0"
             id="path5258-4-0"
             style="font-size:144px;font-variant:normal;font-stretch:normal;fill:#1f241c;font-family:Neuropolitical Rg;-inkscape-font-specification:Neuropolitical Rg"
             d="m -1225.3228,220.75193 -57.4541,-35.70996 0,35.70996 -21.7441,0 0,-98.20898 76.8955,0 c 6.9111,10e-5 12.8144,0.43223 17.71,1.29639 4.8954,0.86435 8.9032,2.40024 12.0234,4.60766 3.12,2.20761 5.4,5.23178 6.8401,9.07251 1.4398,3.8409 2.1598,8.68953 2.1599,14.5459 l 0,6.76758 c -10e-5,5.66314 -0.7677,10.34258 -2.3027,14.03833 -1.5353,3.69584 -3.9113,6.62406 -7.128,8.78467 -3.2169,2.16068 -7.273,3.67313 -12.1684,4.53735 -4.8956,0.86429 -10.7037,1.29642 -17.4243,1.29639 l -17.2793,0 57.5991,33.2622 z m 14.5459,-67.53515 c -10e-5,-2.59271 -0.2886,-4.70501 -0.8657,-6.33692 -0.5772,-1.63176 -1.5374,-2.8798 -2.8806,-3.74414 -1.3434,-0.86418 -3.2154,-1.43986 -5.6162,-1.72705 -2.401,-0.28703 -5.3768,-0.43058 -8.9275,-0.43066 l -53.71,0 0,29.94873 53.71,0 c 3.5507,5e-5 6.5024,-0.14351 8.855,-0.43067 2.3524,-0.28705 4.2245,-0.86274 5.6162,-1.72705 1.3915,-0.8642 2.3759,-2.11225 2.9531,-3.74414 0.5771,-1.63178 0.8656,-3.79242 0.8657,-6.48193 z" />
          <path
             inkscape:connector-curvature="0"
             id="path5260-2-3"
             style="font-size:144px;font-variant:normal;font-stretch:normal;fill:#1f241c;font-family:Neuropolitical Rg;-inkscape-font-specification:Neuropolitical Rg"
             d="m -1073.8037,198.14207 -67.9702,0 -13.9658,22.60986 -25.2027,0 57.0235,-90.7207 c 1.7284,-2.78311 3.7924,-5.08657 6.1918,-6.9104 2.3994,-1.82363 5.8564,-2.73549 10.3711,-2.7356 4.415,1.1e-4 7.8222,0.91197 10.2217,2.7356 2.3993,1.82383 4.4633,4.12729 6.1919,6.9104 l 56.7378,90.7207 -25.3433,0 z m -57.7442,-16.84424 47.5181,0 -23.7612,-38.73779 z" />
          <path
             inkscape:connector-curvature="0"
             id="path5262-0-8"
             style="font-size:144px;font-variant:normal;font-stretch:normal;fill:#1f241c;font-family:Neuropolitical Rg;-inkscape-font-specification:Neuropolitical Rg"
             d="m -943.32129,213.55369 c -1.82235,2.97364 -3.88558,5.2771 -6.1897,6.9104 -2.30428,1.6333 -5.61702,2.44995 -9.93823,2.44995 -4.31843,0 -7.6297,-0.81665 -9.93384,-2.44995 -2.30426,-1.6333 -4.36895,-3.93676 -6.19409,-6.9104 l -56.44775,-91.01074 26.499,0 46.51174,75.88916 46.3667,-75.88916 26.06396,0 z" />
          <path
             inkscape:connector-curvature="0"
             id="path5264-9-0"
             style="font-size:144px;font-variant:normal;font-stretch:normal;fill:#1f241c;font-family:Neuropolitical Rg;-inkscape-font-specification:Neuropolitical Rg"
             d="m -840.15967,220.75193 c -7.19828,0 -13.19754,-0.59985 -17.9978,-1.79956 -4.80032,-1.1997 -8.6404,-3.11938 -11.52026,-5.75903 -2.8799,-2.63964 -4.92043,-6.09593 -6.12159,-10.3689 -1.20118,-4.27292 -1.80176,-9.52951 -1.80175,-15.76977 l 0,-30.81445 c -10e-6,-6.14349 0.60057,-11.37517 1.80175,-15.69507 1.20116,-4.31974 3.24169,-7.80021 6.12159,-10.44141 2.87986,-2.64102 6.71994,-4.56143 11.52026,-5.76123 4.80026,-1.19961 10.79952,-1.79946 17.9978,-1.79956 l 24.1919,0 0,18.57568 -24.1919,0 c -3.16703,8e-5 -5.75834,0.26449 -7.77392,0.79322 -2.01566,0.52888 -3.62406,1.36897 -4.8252,2.52026 -1.2012,1.15144 -2.01785,2.68733 -2.44995,4.60767 -0.43216,1.92048 -0.64822,4.32062 -0.64819,7.20044 l 0,6.62255 83.66748,0 0,17.42432 -83.66748,0 0,6.9126 c -3e-5,2.97659 0.21603,5.42507 0.64819,7.34546 0.4321,1.92043 1.22458,3.45632 2.37744,4.60766 1.1528,1.15139 2.7612,1.94314 4.8252,2.37525 2.06392,0.43214 4.6794,0.64821 7.84643,0.64819 l 68.5459,0 0,18.57568 z" />
          <path
             inkscape:connector-curvature="0"
             id="path5266-7-1"
             style="font-size:144px;font-variant:normal;font-stretch:normal;fill:#1f241c;font-family:Neuropolitical Rg;-inkscape-font-specification:Neuropolitical Rg"
             d="m -720.61963,220.75193 c -7.20121,0 -13.20194,-0.59985 -18.0022,-1.79956 -4.80031,-1.1997 -8.6404,-3.11938 -11.52026,-5.75903 -2.8799,-2.63964 -4.91969,-6.09593 -6.11938,-10.3689 -1.19972,-4.27292 -1.79957,-9.52951 -1.79957,-15.76977 l 0,-64.51172 21.74415,0 0,63.65039 c -3e-5,2.87991 0.26364,5.3035 0.79101,7.27075 0.52731,1.96731 1.46335,3.59915 2.80811,4.89551 1.34469,1.29641 3.14498,2.23244 5.40088,2.80811 2.25581,0.5757 5.11226,0.86354 8.56933,0.86352 l 58.31983,0 0,18.7207 z" />
        </g>
        <g
           id="flowRoot5089-6-3-2"
           style="font-size:40px;font-style:normal;font-weight:normal;line-height:125%;letter-spacing:0px;word-spacing:0px;fill:#1f241c;fill-opacity:1;stroke:none;font-family:Sans"
           transform="matrix(0.27477361,0,0,0.27477361,840.21949,152.49977)">
          <path
             inkscape:connector-curvature="0"
             id="path5269-7-5"
             style="font-size:144px;font-variant:normal;font-stretch:normal;fill:#1f241c;font-family:Neuropolitical Rg;-inkscape-font-specification:Neuropolitical Rg"
             d="m -1377.3384,220.75193 c -7.2012,0 -13.2019,-0.59985 -18.0022,-1.79956 -4.8003,-1.1997 -8.6404,-3.11938 -11.5202,-5.75903 -2.8799,-2.63964 -4.9197,-6.09593 -6.1194,-10.3689 -1.1997,-4.27292 -1.7996,-9.52951 -1.7996,-15.76977 l 0,-64.51172 22.0342,0 0,63.79102 c 0,3.07327 0.3112,5.59426 0.9338,7.56298 0.6226,1.96878 1.6062,3.57644 2.951,4.823 1.3447,1.2466 3.1449,2.11013 5.4008,2.59058 2.2559,0.48049 5.0156,0.72072 8.2793,0.7207 l 32.9766,0 c 3.2636,2e-5 6.0233,-0.24021 8.2793,-0.7207 2.2558,-0.48045 4.0561,-1.34398 5.4009,-2.59058 1.3446,-1.24656 2.329,-2.87839 2.9531,-4.89551 0.6239,-2.01706 0.9359,-4.56076 0.936,-7.6311 l 0,-63.65039 21.7442,0 0,64.51172 c -10e-5,6.24026 -0.6,11.49685 -1.7996,15.76977 -1.1998,4.27297 -3.2403,7.72926 -6.1216,10.3689 -2.8814,2.63965 -6.7215,4.55933 -11.5202,5.75903 -4.799,1.19971 -10.8473,1.79956 -18.1451,1.79956 z" />
          <path
             inkscape:connector-curvature="0"
             id="path5271-2-0"
             style="font-size:144px;font-variant:normal;font-stretch:normal;fill:#1f241c;font-family:Neuropolitical Rg;-inkscape-font-specification:Neuropolitical Rg"
             d="m -1249.6597,220.75193 c -7.1982,0 -13.1975,-0.59985 -17.9978,-1.79956 -4.8003,-1.1997 -8.6404,-3.11938 -11.5202,-5.75903 -2.8799,-2.63964 -4.9205,-6.09593 -6.1216,-10.3689 -1.2012,-4.27292 -1.8018,-9.52951 -1.8018,-15.76977 l 0,-30.81445 c 0,-6.14349 0.6006,-11.37517 1.8018,-15.69507 1.2011,-4.31974 3.2417,-7.80021 6.1216,-10.44141 2.8798,-2.64102 6.7199,-4.56143 11.5202,-5.76123 4.8003,-1.19961 10.7996,-1.79946 17.9978,-1.79956 l 24.1919,0 0,18.57568 -24.1919,0 c -3.167,8e-5 -5.7583,0.26449 -7.7739,0.79322 -2.0157,0.52888 -3.6241,1.36897 -4.8252,2.52026 -1.2012,1.15144 -2.0178,2.68733 -2.4499,4.60767 -0.4322,1.92048 -0.6483,4.32062 -0.6482,7.20044 l 0,6.62255 83.6674,0 0,17.42432 -83.6674,0 0,6.9126 c -10e-5,2.97659 0.216,5.42507 0.6482,7.34546 0.4321,1.92043 1.2245,3.45632 2.3774,4.60766 1.1528,1.15139 2.7612,1.94314 4.8252,2.37525 2.0639,0.43214 4.6794,0.64821 7.8464,0.64819 l 68.5459,0 0,18.57568 z" />
          <path
             inkscape:connector-curvature="0"
             id="path5273-6-9"
             style="font-size:144px;font-variant:normal;font-stretch:normal;fill:#1f241c;font-family:Neuropolitical Rg;-inkscape-font-specification:Neuropolitical Rg"
             d="m -1170.0088,220.75193 0,-18.57568 74.5928,0 c 3.9345,2e-5 6.766,-0.55223 8.4946,-1.65674 1.7284,-1.10447 2.5927,-3.33689 2.5928,-6.69726 l 0,-5.32618 c -10e-5,-3.0732 -0.8644,-5.25728 -2.5928,-6.55224 -1.7286,-1.29488 -4.5118,-1.94234 -8.3496,-1.94238 l -46.8018,0 c -5.4726,4e-5 -10.0085,-0.50387 -13.6076,-1.51172 -3.5992,-1.00777 -6.4549,-2.54366 -8.5672,-4.60767 -2.1123,-2.06391 -3.5764,-4.65595 -4.3923,-7.77612 -0.8159,-3.12006 -1.2239,-6.79242 -1.2239,-11.01709 l 0,-4.89551 c 0,-4.99211 0.5281,-9.26432 1.5843,-12.81665 1.0561,-3.55216 2.6879,-6.4086 4.8955,-8.56934 2.2075,-2.16055 5.0874,-3.74477 8.6396,-4.75268 3.5522,-1.00772 7.7761,-1.51162 12.6716,-1.51172 l 30.5289,0 0,18.57568 -28.5118,0 c -3.3603,8e-5 -5.833,0.64828 -7.4179,1.94458 -1.585,1.29647 -2.3775,3.91341 -2.3775,7.85083 l 0,3.16407 c 0,3.0733 0.7207,5.25811 2.1621,6.55444 1.4414,1.29644 3.9375,1.94464 7.4883,1.94458 l 45.9361,0 c 5.4725,6e-5 10.1044,0.45562 13.8955,1.3667 3.7909,0.91119 6.8868,2.3753 9.2878,4.39233 2.4008,2.01714 4.1293,4.60918 5.1855,7.77613 1.0561,3.16703 1.5842,6.95951 1.5843,11.37744 l 0,7.77392 c -10e-5,4.60842 -0.5282,8.52028 -1.5843,11.7356 -1.0562,3.21534 -2.7847,5.83155 -5.1855,7.84863 -2.401,2.0171 -5.4969,3.50537 -9.2878,4.46485 -3.7911,0.95947 -8.423,1.4392 -13.8955,1.4392 z" />
          <path
             inkscape:connector-curvature="0"
             id="path5275-0-4"
             style="font-size:144px;font-variant:normal;font-stretch:normal;fill:#1f241c;font-family:Neuropolitical Rg;-inkscape-font-specification:Neuropolitical Rg"
             d="m -1015.2686,220.75193 0,-79.34326 -41.1811,0 0,-18.86572 104.39648,0 0,18.86572 -41.18115,0 0,79.34326 z" />
        </g>
        <g
           style="fill:#1f241c"
           id="g5421-1-7"
           transform="matrix(0.27477361,0,0,0.27477361,704.6807,185.7149)">
          <path
             inkscape:connector-curvature="0"
             id="path5041-6-8"
             d="m -1076.5938,-81.75 c -73.1848,0 -132.5312,59.315158 -132.5312,132.5 0,73.18485 59.3464,132.53125 132.5312,132.53125 73.1848,0 132.50005,-59.3464 132.50005,-132.53125 0,-73.184842 -59.31525,-132.5 -132.50005,-132.5 z m 0,25.25 c 59.2334,0 107.25005,48.01665 107.25005,107.25 0,59.23335 -48.01655,107.25 -107.25005,107.25 -59.2333,0 -107.25,-48.01665 -107.25,-107.25 0,-59.23335 48.0167,-107.25 107.25,-107.25 z"
             style="fill:#1f241c;fill-opacity:1;stroke:none" />
          <g
             style="fill:#1f241c"
             transform="matrix(0.17092019,0,0,0.17092019,-1157.6352,-30.260117)"
             id="g4938-5-3">
            <g
               style="fill:#1f241c"
               id="g4892-7-5">
              <g
                 style="fill:#1f241c"
                 id="g4894-5-1">
                <path
                   style="fill:#1f241c"
                   inkscape:connector-curvature="0"
                   d="m 39.068,674.506 c -26.1,5 -43.2,30.2 -38.2,56.301 4.4,23 24.6,39 47.2,39 3,0 6.1,-0.301 9.1,-0.9 l 198,-38 c 11.3,-2.2 21.4,-8.3 28.6,-17.3 l 85,-107.2 -28.399,-14.5 c -21,-10.6 -35.601,-29.8 -40.601,-53.1 l -80.2,101.1 -180.5,34.599 z"
                   id="path4896-4-2" />
                <path
                   style="fill:#1f241c"
                   inkscape:connector-curvature="0"
                   id="circle4898-1-0"
                   d="m 849.66801,151.106 c 0,58.21082 -47.18919,105.4 -105.4,105.4 -58.21082,0 -105.40001,-47.18918 -105.40001,-105.4 0,-58.210811 47.18919,-105.399999 105.40001,-105.399999 58.21081,0 105.4,47.189188 105.4,105.399999 z" />
                <path
                   style="fill:#1f241c"
                   inkscape:connector-curvature="0"
                   d="m 514.268,124.706 c -11.1,-11.4 -21.399,-15.9 -32.699,-15.9 -4.101,0 -8.2,0.6 -12.601,1.6 l -180.899,42.9 c -25,5.9 -40.4,31 -34.5,55.9 5.1,21.4 24.1,35.8 45.2,35.8 3.601,0 7.2,-0.4 10.801,-1.3 l 154.1,-36.5 c 10,11.1 60.1,65.4 69.2,75 l 0,0 c -63.7,68.2 -127.4,136.3 -191.101,204.5 -1,1.101 -1.899,2.2 -2.8,3.3 -18.6,23.7 -12.899,60.9 15.101,75 l 33.899,17.301 161.4,82.399 -101.4,164.3 c -13.899,22.601 -6.899,52.2 15.7,66.2 7.9,4.9 16.6,7.2 25.2,7.2 l 0,0 c 16.1,0 31.899,-8.1 41,-22.8 l 128.8,-208.7 c 7.1,-11.5 9,-25.4 5.3,-38.3 -3.7,-13 -12.6,-23.8 -24.7,-29.9 l -132.3,-67.3 139.101,-148.8 105,89 c 8.699,7.399 19.399,11 30,11 11.399,0 22.8,-4.2 31.699,-12.4 l 120.5,-112.3 c 18.801,-17.5 19.9,-46.9 2.4,-65.7 -9.2,-9.8 -21.6,-14.8 -34,-14.8 -11.3,0 -22.7,4.1 -31.6,12.4 l -90.2,83.9 c -0.101,0.1 -226.101,-212.5 -265.601,-253 z"
                   id="path4900-2-1" />
              </g>
            </g>
            <g
               style="fill:#1f241c"
               id="g4902-0-6" />
            <g
               style="fill:#1f241c"
               id="g4904-0-4" />
            <g
               style="fill:#1f241c"
               id="g4906-1-0" />
            <g
               style="fill:#1f241c"
               id="g4908-4-6" />
            <g
               style="fill:#1f241c"
               id="g4910-6-1" />
            <g
               style="fill:#1f241c"
               id="g4912-0-8" />
            <g
               style="fill:#1f241c"
               id="g4914-7-9" />
            <g
               style="fill:#1f241c"
               id="g4916-1-8" />
            <g
               style="fill:#1f241c"
               id="g4918-7-4" />
            <g
               style="fill:#1f241c"
               id="g4920-7-1" />
            <g
               style="fill:#1f241c"
               id="g4922-7-4" />
            <g
               style="fill:#1f241c"
               id="g4924-7-3" />
            <g
               style="fill:#1f241c"
               id="g4926-3-9" />
            <g
               style="fill:#1f241c"
               id="g4928-3-8" />
            <g
               style="fill:#1f241c"
               id="g4930-5-8" />
          </g>
        </g>
      </g>
      <g
         style="font-size:40px;font-style:normal;font-weight:normal;line-height:125%;letter-spacing:0px;word-spacing:0px;fill:#1f241c;fill-opacity:1;stroke:none;font-family:Sans"
         id="text5776-4-8-0">
        <path
           d="m 184.73504,190.12132 -1.09999,-13.99982 -1.13998,0 -7.01991,13.99982 1.33998,0 1.71998,-3.41995 4.69994,0 0.27999,3.41995 z m -1.55998,-4.57994 -4.07995,0 2.63997,-5.29993 c 0.22124,-0.44957 0.42373,-0.8904 0.60749,-1.32248 0.18374,-0.43207 0.28124,-0.6779 0.2925,-0.73749 l 0.04,0 c 0.007,0.0213 0.0129,0.22376 0.0175,0.60749 0.005,0.38375 0.0254,0.82125 0.0625,1.31248 z"
           style="font-size:20px;font-variant:normal;font-stretch:normal;letter-spacing:0.62px;fill:#1f241c;font-family:Mission Gothic Light Italic;-inkscape-font-specification:Mission Gothic Light Italic"
           id="path6524" />
        <path
           d="m 201.49784,190.22132 c 0.0483,-0.19041 0.0917,-0.38458 0.13,-0.58249 0.0383,-0.19792 0.0817,-0.39708 0.13,-0.59749 -0.10043,0.0192 -0.19459,0.0308 -0.2825,0.035 -0.0879,0.004 -0.16709,0.006 -0.23749,0.005 -0.31293,0.002 -0.55709,-0.0767 -0.7325,-0.235 -0.17542,-0.15833 -0.26458,-0.40666 -0.26749,-0.74499 -1e-5,-0.12875 0.01,-0.26125 0.03,-0.3975 0.02,-0.13624 0.05,-0.28374 0.09,-0.44249 l 0.69999,-3.27996 c 0.0704,-0.31124 0.12457,-0.61373 0.1625,-0.90749 0.0379,-0.29374 0.0571,-0.57123 0.0575,-0.83249 0.006,-0.82706 -0.19583,-1.50288 -0.60499,-2.02747 -0.40917,-0.52457 -1.06082,-0.7954 -1.95497,-0.81249 -0.67833,0.01 -1.25166,0.17501 -1.71998,0.49499 -0.46833,0.32001 -0.84166,0.735 -1.11999,1.24499 l -0.04,0 c 0.0592,-0.29874 0.10083,-0.58124 0.125,-0.84749 0.0242,-0.26624 0.0358,-0.46373 0.035,-0.59249 l 0,-0.12 -1.13998,0 0,0.2 c 0.002,0.19709 -0.0175,0.47292 -0.06,0.82748 -0.0425,0.35459 -0.1225,0.80542 -0.24,1.35249 l -1.73998,8.15989 1.21999,0 1.25998,-5.97992 c 0.1875,-0.99415 0.52249,-1.8508 1.00499,-2.56997 0.48249,-0.71915 1.18748,-1.09581 2.11497,-1.12998 0.60207,0.01 1.0279,0.19 1.27749,0.53999 0.24957,0.35 0.3704,0.81 0.36249,1.37998 -8.4e-4,0.22042 -0.0192,0.45459 -0.055,0.70249 -0.0358,0.24792 -0.0842,0.50709 -0.145,0.77749 l -0.69999,3.33996 c -0.0408,0.19 -0.0742,0.375 -0.1,0.55499 -0.0258,0.18 -0.0392,0.355 -0.04,0.525 -0.005,0.58416 0.15,1.04582 0.465,1.38498 0.31499,0.33916 0.81998,0.53083 1.51498,0.57499 z"
           style="font-size:20px;font-variant:normal;font-stretch:normal;letter-spacing:0.62px;fill:#1f241c;font-family:Mission Gothic Light Italic;-inkscape-font-specification:Mission Gothic Light Italic"
           id="path6526" />
        <path
           d="m 210.80568,187.70135 c -0.3425,0.43083 -0.7425,0.78916 -1.19999,1.07499 -0.4575,0.28583 -0.95749,0.43416 -1.49998,0.44499 -0.75957,-0.002 -1.3604,-0.27332 -1.80247,-0.81499 -0.44208,-0.54165 -0.66791,-1.34331 -0.67749,-2.40496 -8.4e-4,-0.11 8.3e-4,-0.225 0.005,-0.345 0.004,-0.11999 0.0158,-0.24499 0.035,-0.375 l 6.73991,0 0.1,-0.71999 c 0.0566,-0.37998 0.0833,-0.73998 0.08,-1.07998 0.004,-1.16831 -0.26418,-2.13663 -0.80499,-2.90497 -0.54084,-0.76831 -1.37916,-1.16664 -2.51497,-1.19498 -1.02987,0.0256 -1.90788,0.37223 -2.63404,1.03999 -0.72617,0.66778 -1.28122,1.50332 -1.66517,2.50663 -0.38394,1.00333 -0.57752,2.02109 -0.58073,3.0533 0.003,1.28332 0.31166,2.32163 0.92499,3.11496 0.61332,0.79332 1.51164,1.20165 2.69496,1.22498 0.71832,-0.007 1.37665,-0.1725 1.97498,-0.49499 0.59832,-0.3225 1.14664,-0.75749 1.64498,-1.30499 z m -4.97994,-3.41995 c 0.22708,-1.05248 0.63291,-1.94747 1.21749,-2.68497 0.58457,-0.73748 1.30539,-1.12247 2.16247,-1.15498 0.6954,0.0108 1.23456,0.28917 1.61748,0.83499 0.3829,0.54583 0.57707,1.29415 0.58249,2.24497 -10e-6,0.26333 -0.02,0.51666 -0.06,0.75999 z"
           style="font-size:20px;font-variant:normal;font-stretch:normal;letter-spacing:0.62px;fill:#1f241c;font-family:Mission Gothic Light Italic;-inkscape-font-specification:Mission Gothic Light Italic"
           id="path6528" />
        <path
           d="m 223.17221,190.12132 5.09994,-10.53986 -1.33998,0 -2.99997,6.45992 c -0.26292,0.58207 -0.50208,1.1229 -0.71749,1.62247 -0.21542,0.49958 -0.32958,0.76541 -0.34249,0.79749 l -0.04,0 c 4.1e-4,-0.035 -0.0104,-0.31499 -0.0325,-0.83999 -0.0221,-0.52499 -0.0579,-1.08498 -0.1075,-1.67997 l -0.51999,-6.35992 -1.11999,0 -3.05996,6.45992 c -0.26292,0.56457 -0.50208,1.1004 -0.71749,1.60747 -0.21542,0.50708 -0.32958,0.77791 -0.3425,0.81249 l -0.06,0 c 8.3e-4,-0.0362 -0.006,-0.31874 -0.02,-0.84749 -0.0142,-0.52874 -0.0408,-1.08623 -0.08,-1.67247 l -0.46,-6.35992 -1.27998,0 0.95999,10.53986 1.19998,0 3.05996,-6.47991 c 0.29457,-0.61749 0.5304,-1.13748 0.70749,-1.55998 0.17708,-0.42249 0.26791,-0.64249 0.2725,-0.66 l 0.06,0 c -0.002,0.0184 0.002,0.24668 0.0125,0.685 0.0104,0.43833 0.0396,0.97666 0.0875,1.61498 l 0.55999,6.39991 z"
           style="font-size:20px;font-variant:normal;font-stretch:normal;letter-spacing:0.62px;fill:#1f241c;font-family:Mission Gothic Light Italic;-inkscape-font-specification:Mission Gothic Light Italic"
           id="path6530" />
        <path
           d="m 239.03571,188.96134 c -0.15875,0.08 -0.32125,0.14 -0.48749,0.18 -0.16626,0.04 -0.34375,0.06 -0.5325,0.06 -0.47916,-0.004 -0.83582,-0.14083 -1.06998,-0.40999 -0.23417,-0.26916 -0.35083,-0.64582 -0.35,-1.12999 0.003,-0.25666 0.0367,-0.52332 0.1,-0.79999 l 1.29998,-6.19992 2.29997,0 0.22,-1.07998 -2.27997,0 0.51999,-2.51997 -1.19998,0 -0.55999,2.51997 -1.37999,0 -0.23999,1.07998 1.39998,0 -1.27998,6.05993 c -0.0408,0.19875 -0.0742,0.39124 -0.1,0.57749 -0.0258,0.18625 -0.0392,0.37375 -0.04,0.56249 0.002,0.74208 0.21333,1.3379 0.63499,1.78748 0.42166,0.44958 1.04332,0.68041 1.86498,0.69249 0.24124,-4.2e-4 0.47373,-0.0196 0.69749,-0.0575 0.22374,-0.0379 0.43124,-0.0921 0.62249,-0.1625 z"
           style="font-size:20px;font-variant:normal;font-stretch:normal;letter-spacing:0.62px;fill:#1f241c;font-family:Mission Gothic Light Italic;-inkscape-font-specification:Mission Gothic Light Italic"
           id="path6532" />
        <path
           d="m 242.68481,190.12132 1.25998,-5.99992 c 0.18041,-0.94373 0.51958,-1.76122 1.01749,-2.45247 0.49791,-0.69123 1.21206,-1.05373 2.14247,-1.08748 0.13083,4.2e-4 0.25416,0.01 0.37,0.0275 0.11582,0.0179 0.21915,0.0421 0.30999,0.0725 0.0592,-0.2004 0.11583,-0.39956 0.17,-0.59749 0.0542,-0.1979 0.11083,-0.39207 0.17,-0.58249 -0.24334,-0.0633 -0.49667,-0.0967 -0.75999,-0.1 -0.66958,0.0125 -1.24041,0.18251 -1.71248,0.50999 -0.47208,0.32751 -0.84791,0.7375 -1.12748,1.22999 l -0.04,0 c 0.0504,-0.27124 0.0896,-0.51874 0.11749,-0.74249 0.0279,-0.22374 0.0421,-0.41624 0.0425,-0.57749 0,-0.0712 0,-0.12874 0,-0.1725 0,-0.0437 0,-0.0662 0,-0.0675 l -1.13998,0 0,0.2 c 0.002,0.19792 -0.0175,0.47708 -0.06,0.83749 -0.0425,0.36042 -0.1225,0.81458 -0.24,1.36248 l -1.73997,8.13989 z"
           style="font-size:20px;font-variant:normal;font-stretch:normal;letter-spacing:0.62px;fill:#1f241c;font-family:Mission Gothic Light Italic;-inkscape-font-specification:Mission Gothic Light Italic"
           id="path6534" />
        <path
           d="m 254.53475,188.26135 c -0.0408,0.65041 0.12082,1.13957 0.48499,1.46748 0.36416,0.32791 0.99581,0.49207 1.89498,0.49249 0.0483,-0.19 0.0917,-0.38499 0.13,-0.58499 0.0383,-0.2 0.0817,-0.405 0.12999,-0.61499 -0.0696,0.0192 -0.13542,0.0308 -0.19749,0.035 -0.0621,0.004 -0.12293,0.006 -0.1825,0.005 -0.38,0.004 -0.665,-0.0687 -0.85499,-0.2175 -0.19001,-0.14875 -0.285,-0.39624 -0.285,-0.74249 0,-0.12833 0.01,-0.26166 0.03,-0.4 0.02,-0.13833 0.05,-0.29166 0.09,-0.45999 l 0.87999,-4.13995 c 0.04,-0.24332 0.06,-0.47665 0.06,-0.69999 -0.009,-0.87831 -0.28084,-1.59663 -0.81499,-2.15497 -0.53417,-0.55832 -1.27582,-0.84665 -2.22497,-0.86499 -1.45457,0.0558 -2.62539,0.77917 -3.51246,2.16997 -0.88707,1.39083 -1.3429,3.11413 -1.36748,5.16994 -0.003,1.04249 0.21833,1.89747 0.66499,2.56496 0.44666,0.66749 1.13832,1.01249 2.07498,1.03499 0.79707,-0.0221 1.42289,-0.23791 1.87747,-0.64749 0.45457,-0.40958 0.8154,-0.88041 1.08249,-1.41248 z m 0.69999,-4.21995 c -0.25126,1.30874 -0.64875,2.48122 -1.19249,3.51746 -0.54374,1.03623 -1.28623,1.58373 -2.22747,1.64247 -0.69624,-0.0221 -1.17374,-0.28791 -1.43248,-0.79749 -0.25875,-0.50957 -0.38125,-1.13039 -0.36749,-1.86247 -0.003,-0.73567 0.11839,-1.56874 0.3637,-2.49923 0.2453,-0.93047 0.63171,-1.74429 1.15924,-2.44145 0.52752,-0.69714 1.21319,-1.06356 2.05701,-1.09924 0.59457,0.0133 1.0554,0.20167 1.38248,0.56499 0.32707,0.36334 0.4929,0.82166 0.4975,1.37498 -1e-5,0.22001 -0.02,0.46 -0.06,0.71999 z"
           style="font-size:20px;font-variant:normal;font-stretch:normal;letter-spacing:0.62px;fill:#1f241c;font-family:Mission Gothic Light Italic;-inkscape-font-specification:Mission Gothic Light Italic"
           id="path6536" />
        <path
           d="m 262.70073,190.12132 5.33993,-10.53986 -1.33998,0 -3.27996,6.63991 c -0.26042,0.54917 -0.48958,1.05583 -0.68749,1.51998 -0.19792,0.46417 -0.30209,0.71083 -0.3125,0.73999 l -0.04,0 c 4.2e-4,-0.0375 -0.0104,-0.30749 -0.0325,-0.80999 -0.0221,-0.50249 -0.0579,-1.01248 -0.1075,-1.52998 l -0.67999,-6.55991 -1.27998,0 1.21998,10.53986 z"
           style="font-size:20px;font-variant:normal;font-stretch:normal;letter-spacing:0.62px;fill:#1f241c;font-family:Mission Gothic Light Italic;-inkscape-font-specification:Mission Gothic Light Italic"
           id="path6538" />
        <path
           d="m 275.38005,187.70135 c -0.3425,0.43083 -0.7425,0.78916 -1.19998,1.07499 -0.4575,0.28583 -0.9575,0.43416 -1.49999,0.44499 -0.75957,-0.002 -1.3604,-0.27332 -1.80247,-0.81499 -0.44208,-0.54165 -0.66791,-1.34331 -0.67749,-2.40496 -8.4e-4,-0.11 8.3e-4,-0.225 0.005,-0.345 0.004,-0.11999 0.0158,-0.24499 0.035,-0.375 l 6.73991,0 0.1,-0.71999 c 0.0566,-0.37998 0.0833,-0.73998 0.08,-1.07998 0.004,-1.16831 -0.26418,-2.13663 -0.80499,-2.90497 -0.54084,-0.76831 -1.37916,-1.16664 -2.51497,-1.19498 -1.02987,0.0256 -1.90788,0.37223 -2.63404,1.03999 -0.72617,0.66778 -1.28122,1.50332 -1.66516,2.50663 -0.38395,1.00333 -0.57753,2.02109 -0.58074,3.0533 0.003,1.28332 0.31166,2.32163 0.92499,3.11496 0.61332,0.79332 1.51164,1.20165 2.69497,1.22498 0.71832,-0.007 1.37664,-0.1725 1.97497,-0.49499 0.59832,-0.3225 1.14665,-0.75749 1.64498,-1.30499 z m -4.97994,-3.41995 c 0.22708,-1.05248 0.63291,-1.94747 1.21749,-2.68497 0.58457,-0.73748 1.30539,-1.12247 2.16247,-1.15498 0.6954,0.0108 1.23456,0.28917 1.61748,0.83499 0.3829,0.54583 0.57707,1.29415 0.58249,2.24497 -10e-6,0.26333 -0.02,0.51666 -0.06,0.75999 z"
           style="font-size:20px;font-variant:normal;font-stretch:normal;letter-spacing:0.62px;fill:#1f241c;font-family:Mission Gothic Light Italic;-inkscape-font-specification:Mission Gothic Light Italic"
           id="path6540" />
        <path
           d="m 282.30666,189.04134 c -0.0696,0.0192 -0.13542,0.0308 -0.1975,0.035 -0.0621,0.004 -0.12292,0.006 -0.1825,0.005 -0.38791,0.004 -0.67207,-0.0692 -0.85249,-0.22 -0.18041,-0.15083 -0.26958,-0.40416 -0.26749,-0.75999 -8.4e-4,-0.11 0.006,-0.235 0.02,-0.375 0.0142,-0.13999 0.0408,-0.29499 0.08,-0.46499 l 2.49997,-11.73985 -1.21999,0 -2.47997,11.65985 c -0.0408,0.19958 -0.0742,0.39041 -0.1,0.57249 -0.0258,0.18209 -0.0392,0.35792 -0.04,0.5275 -0.0117,0.64082 0.17167,1.12415 0.55,1.44998 0.37832,0.32583 1.02165,0.48916 1.92997,0.48999 z"
           style="font-size:20px;font-variant:normal;font-stretch:normal;letter-spacing:0.62px;fill:#1f241c;font-family:Mission Gothic Light Italic;-inkscape-font-specification:Mission Gothic Light Italic"
           id="path6542" />
        <path
           d="m 297.63068,187.70135 c -0.34251,0.43083 -0.7425,0.78916 -1.19999,1.07499 -0.4575,0.28583 -0.95749,0.43416 -1.49998,0.44499 -0.75958,-0.002 -1.3604,-0.27332 -1.80248,-0.81499 -0.44208,-0.54165 -0.66791,-1.34331 -0.67749,-2.40496 -8.3e-4,-0.11 8.3e-4,-0.225 0.005,-0.345 0.004,-0.11999 0.0158,-0.24499 0.035,-0.375 l 6.73992,0 0.1,-0.71999 c 0.0567,-0.37998 0.0833,-0.73998 0.08,-1.07998 0.004,-1.16831 -0.26417,-2.13663 -0.80499,-2.90497 -0.54083,-0.76831 -1.37915,-1.16664 -2.51496,-1.19498 -1.02987,0.0256 -1.90788,0.37223 -2.63404,1.03999 -0.72617,0.66778 -1.28123,1.50332 -1.66517,2.50663 -0.38395,1.00333 -0.57752,2.02109 -0.58073,3.0533 0.003,1.28332 0.31166,2.32163 0.92499,3.11496 0.61332,0.79332 1.51164,1.20165 2.69496,1.22498 0.71832,-0.007 1.37664,-0.1725 1.97498,-0.49499 0.59832,-0.3225 1.14664,-0.75749 1.64498,-1.30499 z m -4.97994,-3.41995 c 0.22708,-1.05248 0.63291,-1.94747 1.21748,-2.68497 0.58458,-0.73748 1.3054,-1.12247 2.16248,-1.15498 0.6954,0.0108 1.23456,0.28917 1.61748,0.83499 0.3829,0.54583 0.57706,1.29415 0.58249,2.24497 -10e-6,0.26333 -0.02,0.51666 -0.06,0.75999 z"
           style="font-size:20px;font-variant:normal;font-stretch:normal;letter-spacing:0.62px;fill:#1f241c;font-family:Mission Gothic Light Italic;-inkscape-font-specification:Mission Gothic Light Italic"
           id="path6544" />
        <path
           d="m 307.63725,190.12132 -1.67998,-5.25993 3.91995,-5.27993 -1.39999,0 -1.95997,2.67996 c -0.3325,0.45126 -0.6225,0.85875 -0.86999,1.22249 -0.2475,0.36375 -0.3775,0.55625 -0.38999,0.57749 l -0.04,0 c -0.007,-0.0254 -0.0633,-0.22957 -0.17,-0.61249 -0.10667,-0.38291 -0.22334,-0.79207 -0.35,-1.22749 l -0.79999,-2.63996 -1.27998,0 1.63998,5.17993 -3.85995,5.35993 1.37998,0 2.03997,-2.87996 c 0.35375,-0.50582 0.63124,-0.90915 0.83249,-1.20999 0.20125,-0.30082 0.30375,-0.46415 0.3075,-0.48999 l 0.04,0 c -0.005,0.0167 0.0396,0.18834 0.1325,0.515 0.0929,0.32666 0.20207,0.70832 0.32749,1.14498 l 0.89999,2.91996 z"
           style="font-size:20px;font-variant:normal;font-stretch:normal;letter-spacing:0.62px;fill:#1f241c;font-family:Mission Gothic Light Italic;-inkscape-font-specification:Mission Gothic Light Italic"
           id="path6546" />
        <path
           d="m 310.63389,194.12127 0.71999,-3.39996 c 0.11083,-0.50166 0.20416,-0.94332 0.28,-1.32498 0.0758,-0.38166 0.12916,-0.69332 0.15999,-0.93499 l 0.04,0 c 0.13333,0.57625 0.39666,1.02874 0.78999,1.35749 0.39333,0.32874 0.89665,0.49624 1.50998,0.50249 0.9969,-0.0273 1.84973,-0.40604 2.55849,-1.13628 0.70875,-0.73024 1.25195,-1.64825 1.62961,-2.75404 0.37764,-1.10578 0.56825,-2.23564 0.57184,-3.38959 -0.007,-1.23747 -0.24792,-2.15746 -0.72249,-2.75996 -0.47458,-0.60248 -1.14041,-0.90248 -1.99747,-0.89999 -0.66792,0.0171 -1.23708,0.19793 -1.70748,0.54249 -0.47042,0.34459 -0.85458,0.75042 -1.15249,1.21749 l -0.04,0 c 0.0687,-0.32415 0.11624,-0.61082 0.14249,-0.85999 0.0263,-0.24915 0.0387,-0.43582 0.0375,-0.55999 0,-0.0767 0,-0.12332 0,-0.14 l -1.15998,0 c 0.0167,0.0233 0.0233,0.11667 0.02,0.27999 8.3e-4,0.18043 -0.0208,0.42959 -0.065,0.74749 -0.0442,0.31793 -0.11584,0.70209 -0.215,1.15249 l -2.61997,12.35984 z m 3.47995,-4.89994 c -0.62958,-0.0192 -1.1004,-0.25082 -1.41248,-0.69499 -0.31208,-0.44416 -0.46791,-0.98581 -0.46749,-1.62498 0.008,-0.39249 0.0671,-0.83748 0.1775,-1.33498 0.11041,-0.49749 0.22457,-0.97248 0.34249,-1.42498 0.18666,-0.86998 0.51833,-1.68497 0.99499,-2.44497 0.47666,-0.75998 1.17831,-1.16497 2.10497,-1.21498 0.65332,0.009 1.12165,0.24584 1.40498,0.70999 0.28333,0.46417 0.42166,1.10082 0.415,1.90997 -0.003,0.96333 -0.14791,1.90998 -0.43407,2.83997 -0.28618,0.92999 -0.69457,1.70331 -1.22517,2.31997 -0.53062,0.61666 -1.16419,0.93665 -1.90072,0.95998 z"
           style="font-size:20px;font-variant:normal;font-stretch:normal;letter-spacing:0.62px;fill:#1f241c;font-family:Mission Gothic Light Italic;-inkscape-font-specification:Mission Gothic Light Italic"
           id="path6548" />
        <path
           d="m 327.42036,187.70135 c -0.3425,0.43083 -0.74249,0.78916 -1.19998,1.07499 -0.4575,0.28583 -0.95749,0.43416 -1.49998,0.44499 -0.75958,-0.002 -1.3604,-0.27332 -1.80248,-0.81499 -0.44208,-0.54165 -0.66791,-1.34331 -0.67749,-2.40496 -8.3e-4,-0.11 8.3e-4,-0.225 0.005,-0.345 0.004,-0.11999 0.0158,-0.24499 0.035,-0.375 l 6.73991,0 0.1,-0.71999 c 0.0567,-0.37998 0.0833,-0.73998 0.08,-1.07998 0.004,-1.16831 -0.26417,-2.13663 -0.80499,-2.90497 -0.54083,-0.76831 -1.37915,-1.16664 -2.51497,-1.19498 -1.02986,0.0256 -1.90788,0.37223 -2.63404,1.03999 -0.72616,0.66778 -1.28122,1.50332 -1.66516,2.50663 -0.38395,1.00333 -0.57752,2.02109 -0.58073,3.0533 0.003,1.28332 0.31166,2.32163 0.92498,3.11496 0.61333,0.79332 1.51165,1.20165 2.69497,1.22498 0.71832,-0.007 1.37664,-0.1725 1.97497,-0.49499 0.59832,-0.3225 1.14665,-0.75749 1.64498,-1.30499 z m -4.97993,-3.41995 c 0.22708,-1.05248 0.6329,-1.94747 1.21748,-2.68497 0.58457,-0.73748 1.3054,-1.12247 2.16247,-1.15498 0.69541,0.0108 1.23456,0.28917 1.61748,0.83499 0.38291,0.54583 0.57707,1.29415 0.5825,2.24497 -10e-6,0.26333 -0.02,0.51666 -0.06,0.75999 z"
           style="font-size:20px;font-variant:normal;font-stretch:normal;letter-spacing:0.62px;fill:#1f241c;font-family:Mission Gothic Light Italic;-inkscape-font-specification:Mission Gothic Light Italic"
           id="path6550" />
        <path
           d="m 332.12699,190.12132 1.25999,-5.99992 c 0.18041,-0.94373 0.51957,-1.76122 1.01748,-2.45247 0.49791,-0.69123 1.21207,-1.05373 2.14248,-1.08748 0.13082,4.2e-4 0.25415,0.01 0.36999,0.0275 0.11583,0.0179 0.21916,0.0421 0.31,0.0725 0.0592,-0.2004 0.11582,-0.39956 0.17,-0.59749 0.0541,-0.1979 0.11082,-0.39207 0.16999,-0.58249 -0.24333,-0.0633 -0.49666,-0.0967 -0.75999,-0.1 -0.66958,0.0125 -1.2404,0.18251 -1.71247,0.50999 -0.47209,0.32751 -0.84791,0.7375 -1.12749,1.22999 l -0.04,0 c 0.0504,-0.27124 0.0896,-0.51874 0.1175,-0.74249 0.0279,-0.22374 0.0421,-0.41624 0.0425,-0.57749 0,-0.0712 0,-0.12874 0,-0.1725 0,-0.0437 0,-0.0662 0,-0.0675 l -1.13999,0 0,0.2 c 0.002,0.19792 -0.0175,0.47708 -0.06,0.83749 -0.0425,0.36042 -0.1225,0.81458 -0.23999,1.36248 l -1.73998,8.13989 z"
           style="font-size:20px;font-variant:normal;font-stretch:normal;letter-spacing:0.62px;fill:#1f241c;font-family:Mission Gothic Light Italic;-inkscape-font-specification:Mission Gothic Light Italic"
           id="path6552" />
        <path
           d="m 341.83697,176.96149 c -0.006,-0.22498 -0.0838,-0.40998 -0.2325,-0.55499 -0.14875,-0.14499 -0.33125,-0.21998 -0.54749,-0.225 -0.22417,0.005 -0.40583,0.08 -0.545,0.225 -0.13916,0.14501 -0.21083,0.33001 -0.21499,0.55499 0.004,0.22418 0.0758,0.40584 0.215,0.54499 0.13916,0.13918 0.32082,0.21085 0.54499,0.215 0.21624,-0.004 0.39874,-0.0758 0.54749,-0.21499 0.14874,-0.13916 0.22624,-0.32082 0.2325,-0.545 z m -0.79999,12.03985 c -0.15667,0.0233 -0.30333,0.0367 -0.44,0.04 -0.36791,0.002 -0.63707,-0.0775 -0.80749,-0.24 -0.17041,-0.1625 -0.25458,-0.42249 -0.25249,-0.77999 0.001,-0.10958 0.0138,-0.23041 0.0375,-0.3625 0.0237,-0.13208 0.0512,-0.27791 0.0825,-0.43749 l 1.01998,-4.93994 c 0.13791,-0.69915 0.23208,-1.26081 0.2825,-1.68498 0.0504,-0.42415 0.0696,-0.71581 0.0575,-0.87498 -10e-6,-0.0967 -10e-6,-0.14332 0,-0.14 l -1.17999,0 0,0.43999 c -0.003,0.34376 -0.0317,0.65125 -0.085,0.92249 -0.0533,0.27126 -0.11166,0.54375 -0.17499,0.81749 l -1.13999,5.37993 c -0.0408,0.2 -0.0742,0.39 -0.1,0.56999 -0.0258,0.18 -0.0392,0.35 -0.04,0.51 0.001,0.60666 0.17375,1.08332 0.5175,1.42998 0.34374,0.34666 0.85123,0.52332 1.52248,0.52999 0.15999,-0.002 0.27999,-0.008 0.35999,-0.02 0.08,-0.0117 0.12,-0.0183 0.12,-0.02 z"
           style="font-size:20px;font-variant:normal;font-stretch:normal;letter-spacing:0.62px;fill:#1f241c;font-family:Mission Gothic Light Italic;-inkscape-font-specification:Mission Gothic Light Italic"
           id="path6554" />
        <path
           d="m 350.33505,187.70135 c -0.3425,0.43083 -0.7425,0.78916 -1.19998,1.07499 -0.4575,0.28583 -0.9575,0.43416 -1.49998,0.44499 -0.75958,-0.002 -1.36041,-0.27332 -1.80248,-0.81499 -0.44208,-0.54165 -0.66791,-1.34331 -0.67749,-2.40496 -8.4e-4,-0.11 8.3e-4,-0.225 0.005,-0.345 0.004,-0.11999 0.0158,-0.24499 0.035,-0.375 l 6.73991,0 0.1,-0.71999 c 0.0567,-0.37998 0.0833,-0.73998 0.08,-1.07998 0.004,-1.16831 -0.26417,-2.13663 -0.80499,-2.90497 -0.54084,-0.76831 -1.37916,-1.16664 -2.51497,-1.19498 -1.02987,0.0256 -1.90788,0.37223 -2.63404,1.03999 -0.72616,0.66778 -1.28122,1.50332 -1.66516,2.50663 -0.38395,1.00333 -0.57753,2.02109 -0.58074,3.0533 0.003,1.28332 0.31167,2.32163 0.92499,3.11496 0.61333,0.79332 1.51165,1.20165 2.69497,1.22498 0.71832,-0.007 1.37664,-0.1725 1.97497,-0.49499 0.59832,-0.3225 1.14665,-0.75749 1.64498,-1.30499 z m -4.97993,-3.41995 c 0.22707,-1.05248 0.6329,-1.94747 1.21748,-2.68497 0.58457,-0.73748 1.3054,-1.12247 2.16247,-1.15498 0.6954,0.0108 1.23456,0.28917 1.61748,0.83499 0.38291,0.54583 0.57707,1.29415 0.58249,2.24497 0,0.26333 -0.02,0.51666 -0.06,0.75999 z"
           style="font-size:20px;font-variant:normal;font-stretch:normal;letter-spacing:0.62px;fill:#1f241c;font-family:Mission Gothic Light Italic;-inkscape-font-specification:Mission Gothic Light Italic"
           id="path6556" />
        <path
           d="m 362.50159,190.22132 c 0.0483,-0.19041 0.0916,-0.38458 0.12999,-0.58249 0.0383,-0.19792 0.0817,-0.39708 0.13,-0.59749 -0.10042,0.0192 -0.19459,0.0308 -0.28249,0.035 -0.0879,0.004 -0.16709,0.006 -0.2375,0.005 -0.31292,0.002 -0.55709,-0.0767 -0.73249,-0.235 -0.17542,-0.15833 -0.26459,-0.40666 -0.2675,-0.74499 -1e-5,-0.12875 0.01,-0.26125 0.03,-0.3975 0.02,-0.13624 0.05,-0.28374 0.09,-0.44249 l 0.69999,-3.27996 c 0.0704,-0.31124 0.12457,-0.61373 0.1625,-0.90749 0.0379,-0.29374 0.0571,-0.57123 0.0575,-0.83249 0.006,-0.82706 -0.19584,-1.50288 -0.60499,-2.02747 -0.40917,-0.52457 -1.06083,-0.7954 -1.95498,-0.81249 -0.67833,0.01 -1.25165,0.17501 -1.71998,0.49499 -0.46833,0.32001 -0.84166,0.735 -1.11998,1.24499 l -0.04,0 c 0.0592,-0.29874 0.10083,-0.58124 0.125,-0.84749 0.0242,-0.26624 0.0358,-0.46373 0.035,-0.59249 l 0,-0.12 -1.13999,0 0,0.2 c 0.002,0.19709 -0.0175,0.47292 -0.06,0.82748 -0.0425,0.35459 -0.1225,0.80542 -0.23999,1.35249 l -1.73998,8.15989 1.21998,0 1.25999,-5.97992 c 0.18749,-0.99415 0.52249,-1.8508 1.00498,-2.56997 0.48249,-0.71915 1.18748,-1.09581 2.11498,-1.12998 0.60206,0.01 1.02789,0.19 1.27748,0.53999 0.24957,0.35 0.3704,0.81 0.36249,1.37998 -8.4e-4,0.22042 -0.0192,0.45459 -0.055,0.70249 -0.0359,0.24792 -0.0842,0.50709 -0.145,0.77749 l -0.69999,3.33996 c -0.0408,0.19 -0.0742,0.375 -0.1,0.55499 -0.0258,0.18 -0.0392,0.355 -0.04,0.525 -0.005,0.58416 0.14999,1.04582 0.46499,1.38498 0.31499,0.33916 0.81998,0.53083 1.51498,0.57499 z"
           style="font-size:20px;font-variant:normal;font-stretch:normal;letter-spacing:0.62px;fill:#1f241c;font-family:Mission Gothic Light Italic;-inkscape-font-specification:Mission Gothic Light Italic"
           id="path6558" />
        <path
           d="m 371.08944,187.54136 c -0.30083,0.51457 -0.65416,0.9154 -1.05998,1.20248 -0.40584,0.28708 -0.85917,0.43291 -1.35999,0.43749 -0.66249,-0.008 -1.16749,-0.28166 -1.51498,-0.81998 -0.3475,-0.53833 -0.52249,-1.29165 -0.52499,-2.25998 0.003,-0.8622 0.1416,-1.71775 0.41629,-2.56663 0.27468,-0.84887 0.66826,-1.55775 1.18073,-2.12664 0.51245,-0.56887 1.12677,-0.86442 1.84293,-0.88665 0.53082,0.004 0.95915,0.17084 1.28499,0.49999 0.32582,0.32917 0.54415,0.79583 0.65499,1.39998 l 1.09999,-0.55999 c -0.18709,-0.73332 -0.52292,-1.32664 -1.00749,-1.77998 -0.48459,-0.45332 -1.13541,-0.68665 -1.95248,-0.69999 -1.05332,0.0282 -1.93109,0.39408 -2.6333,1.09776 -0.70221,0.70371 -1.22887,1.57629 -1.57998,2.61775 -0.3511,1.04147 -0.52666,2.08294 -0.52666,3.1244 -8.3e-4,1.19457 0.26583,2.17039 0.79999,2.92746 0.53416,0.75708 1.34082,1.14791 2.41997,1.17249 0.74416,-0.007 1.38581,-0.1925 1.92498,-0.55499 0.53915,-0.3625 1.01081,-0.85749 1.41498,-1.48498 z"
           style="font-size:20px;font-variant:normal;font-stretch:normal;letter-spacing:0.62px;fill:#1f241c;font-family:Mission Gothic Light Italic;-inkscape-font-specification:Mission Gothic Light Italic"
           id="path6560" />
        <path
           d="m 381.21849,187.70135 c -0.3425,0.43083 -0.7425,0.78916 -1.19998,1.07499 -0.4575,0.28583 -0.9575,0.43416 -1.49999,0.44499 -0.75957,-0.002 -1.3604,-0.27332 -1.80247,-0.81499 -0.44208,-0.54165 -0.66791,-1.34331 -0.67749,-2.40496 -8.4e-4,-0.11 8.3e-4,-0.225 0.005,-0.345 0.004,-0.11999 0.0158,-0.24499 0.035,-0.375 l 6.73991,0 0.1,-0.71999 c 0.0566,-0.37998 0.0833,-0.73998 0.08,-1.07998 0.004,-1.16831 -0.26418,-2.13663 -0.80499,-2.90497 -0.54084,-0.76831 -1.37916,-1.16664 -2.51497,-1.19498 -1.02987,0.0256 -1.90788,0.37223 -2.63404,1.03999 -0.72617,0.66778 -1.28122,1.50332 -1.66516,2.50663 -0.38395,1.00333 -0.57753,2.02109 -0.58074,3.0533 0.003,1.28332 0.31166,2.32163 0.92499,3.11496 0.61332,0.79332 1.51164,1.20165 2.69497,1.22498 0.71831,-0.007 1.37664,-0.1725 1.97497,-0.49499 0.59832,-0.3225 1.14665,-0.75749 1.64498,-1.30499 z m -4.97994,-3.41995 c 0.22708,-1.05248 0.63291,-1.94747 1.21749,-2.68497 0.58457,-0.73748 1.30539,-1.12247 2.16247,-1.15498 0.6954,0.0108 1.23456,0.28917 1.61748,0.83499 0.3829,0.54583 0.57707,1.29415 0.58249,2.24497 -1e-5,0.26333 -0.02,0.51666 -0.06,0.75999 z"
           style="font-size:20px;font-variant:normal;font-stretch:normal;letter-spacing:0.62px;fill:#1f241c;font-family:Mission Gothic Light Italic;-inkscape-font-specification:Mission Gothic Light Italic"
           id="path6562" />
      </g>
    </g>
  </g>
</svg>
