<?xml version="1.0" encoding="UTF-8" standalone="no"?>
<!-- Created with Inkscape (http://www.inkscape.org/) -->

<svg
   xmlns:dc="http://purl.org/dc/elements/1.1/"
   xmlns:cc="http://creativecommons.org/ns#"
   xmlns:rdf="http://www.w3.org/1999/02/22-rdf-syntax-ns#"
   xmlns:svg="http://www.w3.org/2000/svg"
   xmlns="http://www.w3.org/2000/svg"
   xmlns:sodipodi="http://sodipodi.sourceforge.net/DTD/sodipodi-0.dtd"
   xmlns:inkscape="http://www.inkscape.org/namespaces/inkscape"
   width="248.2298"
   height="49.676479"
   id="svg6583"
   version="1.1"
   inkscape:version="0.48.4 r9939"
   sodipodi:docname="passenger_icon_wht.svg">
  <defs
     id="defs6585" />
  <sodipodi:namedview
     id="base"
     pagecolor="#ffffff"
     bordercolor="#666666"
     borderopacity="1.0"
     inkscape:pageopacity="0.0"
     inkscape:pageshadow="2"
     inkscape:zoom="0.35"
     inkscape:cx="124.1149"
     inkscape:cy="24.838237"
     inkscape:document-units="px"
     inkscape:current-layer="layer1"
     showgrid="false"
     fit-margin-top="0"
     fit-margin-left="0"
     fit-margin-right="0"
     fit-margin-bottom="0"
     inkscape:window-width="635"
     inkscape:window-height="423"
     inkscape:window-x="52"
     inkscape:window-y="52"
     inkscape:window-maximized="0" />
  <metadata
     id="metadata6588">
    <rdf:RDF>
      <cc:Work
         rdf:about="">
        <dc:format>image/svg+xml</dc:format>
        <dc:type
           rdf:resource="http://purl.org/dc/dcmitype/StillImage" />
        <dc:title></dc:title>
      </cc:Work>
    </rdf:RDF>
  </metadata>
  <g
     inkscape:label="Layer 1"
     inkscape:groupmode="layer"
     id="layer1"
     transform="translate(-250.8851,-507.52394)">
    <g
       transform="translate(3.8906701,-339.00211)"
       id="g6623">
      <g
         style="font-size:40px;font-style:normal;font-weight:normal;line-height:125%;letter-spacing:0px;word-spacing:0px;fill:#ffffff;fill-opacity:1;stroke:none;font-family:Sans"
         id="text6251-7">
        <path
           d="m 344.04047,885.16412 8.07989,-27.99964 -2.55996,0 -5.87993,20.75974 c -0.18917,0.71249 -0.36084,1.41748 -0.51499,2.11497 -0.15418,0.69749 -0.23584,1.07249 -0.245,1.12499 l -0.08,0 c -0.008,-0.055 -0.0825,-0.435 -0.22499,-1.13999 -0.14251,-0.70499 -0.30751,-1.40498 -0.495,-2.09997 l -5.91992,-20.75974 -2.55997,0 8.1199,27.99964 z"
           style="fill:#ffffff;font-family:Mission Gothic Light;-inkscape-font-specification:Mission Gothic Light"
           id="path6656" />
        <path
           d="m 357.82304,885.16412 0,-21.07973 -2.43997,0 0,21.07973 z m 0.31999,-25.87966 c -0.01,-0.44997 -0.16,-0.81997 -0.44999,-1.10999 -0.29001,-0.28997 -0.66,-0.43997 -1.10999,-0.44999 -0.43083,0.01 -0.78916,0.16002 -1.07499,0.44999 -0.28583,0.29002 -0.43416,0.66002 -0.44499,1.10999 0.0108,0.43085 0.15916,0.78918 0.445,1.07498 0.28582,0.28586 0.64415,0.43419 1.07498,0.445 0.44999,-0.0108 0.81999,-0.15914 1.10999,-0.445 0.28999,-0.2858 0.43999,-0.64413 0.44999,-1.07498 z"
           style="fill:#ffffff;font-family:Mission Gothic Light;-inkscape-font-specification:Mission Gothic Light"
           id="path6658" />
        <path
           d="m 376.74415,867.12436 c -0.87751,-1.11997 -1.85249,-1.95996 -2.92496,-2.51997 -1.0725,-0.55997 -2.37748,-0.83997 -3.91495,-0.83999 -1.98832,0.035 -3.57163,0.56501 -4.74994,1.58998 -1.17833,1.025 -1.78165,2.33499 -1.80998,3.92995 0.0604,1.66874 0.66457,2.91872 1.81248,3.74995 1.14789,0.83125 2.47704,1.49124 3.98745,1.97997 1.51038,0.48876 2.83953,1.05375 3.98744,1.69498 1.14789,0.64125 1.75205,1.60624 1.81248,2.89497 -0.0175,1.22415 -0.42251,2.1558 -1.21498,2.79496 -0.79251,0.63916 -1.86749,0.96082 -3.22496,0.96499 -1.26333,-0.008 -2.43664,-0.3025 -3.51996,-0.88499 -1.08332,-0.58249 -1.93664,-1.40748 -2.55996,-2.47497 -0.30334,0.26083 -0.61667,0.51916 -0.93999,0.77499 -0.32333,0.25583 -0.63666,0.50416 -0.93999,0.74499 0.82416,1.32332 1.92581,2.32664 3.30496,3.00996 1.37914,0.68333 2.89079,1.02665 4.53494,1.02999 2.18329,-0.006 3.8966,-0.52416 5.13993,-1.55498 1.2433,-1.03082 1.87663,-2.53913 1.89998,-4.52494 -0.0604,-1.7507 -0.66459,-3.07173 -1.81248,-3.96308 -1.14791,-0.89133 -2.47706,-1.58861 -3.98745,-2.09185 -1.5104,-0.50321 -2.83955,-1.04799 -3.98745,-1.63435 -1.1479,-0.58633 -1.75206,-1.44986 -1.81247,-2.59059 0.0292,-1.0483 0.42082,-1.86163 1.17498,-2.43997 0.75415,-0.57831 1.69581,-0.87164 2.82497,-0.87999 1.16164,-0.005 2.14829,0.21502 2.95996,0.65999 0.81164,0.44502 1.5583,1.14501 2.23997,2.09998 z"
           style="fill:#ffffff;font-family:Mission Gothic Light;-inkscape-font-specification:Mission Gothic Light"
           id="path6660" />
        <path
           d="m 384.30741,885.16412 0,-21.07973 -2.43997,0 0,21.07973 z m 0.32,-25.87966 c -0.01,-0.44997 -0.16001,-0.81997 -0.45,-1.10999 -0.29,-0.28997 -0.65999,-0.43997 -1.10998,-0.44999 -0.43084,0.01 -0.78916,0.16002 -1.07499,0.44999 -0.28583,0.29002 -0.43416,0.66002 -0.44499,1.10999 0.0108,0.43085 0.15916,0.78918 0.44499,1.07498 0.28583,0.28586 0.64416,0.43419 1.07499,0.445 0.44999,-0.0108 0.81998,-0.15914 1.10998,-0.445 0.28999,-0.2858 0.43999,-0.64413 0.45,-1.07498 z"
           style="fill:#ffffff;font-family:Mission Gothic Light;-inkscape-font-specification:Mission Gothic Light"
           id="path6662" />
        <path
           d="m 398.78858,882.40416 c -0.33001,0.26416 -0.72,0.47583 -1.16999,0.63499 -0.45,0.15917 -0.89999,0.24083 -1.34998,0.245 -0.88499,-0.004 -1.56498,-0.30583 -2.03997,-0.90499 -0.475,-0.59916 -0.715,-1.47081 -0.71999,-2.61497 l 0,-13.51982 4.83994,0 0,-2.15998 -4.83994,0 0,-5.03993 -2.39997,0 0,5.03993 -2.83996,0 0,2.15998 2.83996,0 0,13.63982 c -0.007,1.79415 0.38749,3.18579 1.18498,4.17495 0.79749,0.98915 2.04247,1.49081 3.73496,1.50498 0.72331,-0.01 1.38664,-0.12 1.98997,-0.33 0.60331,-0.21 1.12664,-0.45999 1.56998,-0.74999 z"
           style="fill:#ffffff;font-family:Mission Gothic Light;-inkscape-font-specification:Mission Gothic Light"
           id="path6664" />
        <path
           d="m 409.91173,883.32415 c -1.71498,-0.0358 -2.98497,-0.83416 -3.80995,-2.39497 -0.82499,-1.56081 -1.23499,-3.66911 -1.22998,-6.32492 -0.005,-2.67329 0.40499,-4.78659 1.22998,-6.33992 0.82498,-1.55329 2.09497,-2.34662 3.80995,-2.37997 1.73414,0.0334 3.01578,0.82668 3.84495,2.37997 0.82914,1.55333 1.2408,3.66663 1.23499,6.33992 0.006,2.69081 -0.40585,4.80911 -1.23499,6.35492 -0.82917,1.54581 -2.11081,2.33414 -3.84495,2.36497 z m 0,2.23997 c 2.48496,-0.0292 4.36493,-1.00082 5.63993,-2.91496 1.27497,-1.91414 1.91496,-4.59577 1.91997,-8.0449 -0.005,-3.42994 -0.645,-6.09991 -1.91997,-8.0099 -1.275,-1.90995 -3.15497,-2.87994 -5.63993,-2.90996 -2.46581,0.03 -4.33411,1.00001 -5.60493,2.90996 -1.27082,1.91 -1.90914,4.57996 -1.91497,8.0099 0.006,3.44913 0.64415,6.13076 1.91497,8.0449 1.27082,1.91414 3.13912,2.88579 5.60493,2.91496 z"
           style="fill:#ffffff;font-family:Mission Gothic Light;-inkscape-font-specification:Mission Gothic Light"
           id="path6666" />
        <path
           d="m 424.85616,885.16412 0,-12.55983 c 0.0283,-1.96413 0.52165,-3.51578 1.47998,-4.65495 0.95831,-1.13913 2.21163,-1.72079 3.75995,-1.74497 0.28249,0.003 0.54748,0.0275 0.79499,0.075 0.24749,0.0475 0.46248,0.10251 0.64499,0.16499 l 0.48,-2.59996 c -0.21751,-0.04 -0.43251,-0.07 -0.64499,-0.09 -0.21251,-0.02 -0.43751,-0.03 -0.675,-0.03 -1.38499,0.003 -2.57497,0.34752 -3.56995,1.03499 -0.99499,0.68751 -1.76498,1.70249 -2.30997,3.04496 l -0.08,0 c -0.0425,-1.01247 -0.1475,-1.87746 -0.315,-2.59497 -0.1675,-0.71747 -0.2625,-1.09247 -0.28499,-1.12499 l -2.31997,0 c 0.0775,0.12836 0.19249,0.49169 0.34499,1.08999 0.1525,0.59835 0.2375,1.38167 0.255,2.34997 l 0,17.63977 z"
           style="fill:#ffffff;font-family:Mission Gothic Light;-inkscape-font-specification:Mission Gothic Light"
           id="path6668" />
      </g>
      <path
         style="fill:#ffffff"
         inkscape:connector-curvature="0"
         d="m 279.33408,871.36429 c 0,-3.56598 -2.90194,-6.46792 -6.46793,-6.46792 -3.56599,0 -6.46793,2.90194 -6.46793,6.46792 0,3.56599 2.90194,6.46793 6.46793,6.46793 3.56599,0 6.46793,-2.90194 6.46793,-6.46793 z m 19.40379,0.96804 c 0,0 -9.16721,-16.05987 -25.83938,-16.05987 -15.47991,0 -25.90406,16.05987 -25.90406,16.05987 0,0 9.58547,14.1238 25.90406,14.1238 16.58808,0 25.83938,-14.1238 25.83938,-14.1238 z m -15.09184,-0.96804 c 0,5.95266 -4.82507,10.77989 -10.77988,10.77989 -5.95265,0 -10.77988,-4.82723 -10.77988,-10.77989 0,-5.9548 4.82723,-10.77988 10.77988,-10.77988 5.95481,0 10.77988,4.82508 10.77988,10.77988 z"
         id="path6312" />
    </g>
  </g>
</svg>
