<?xml version="1.0" encoding="UTF-8" standalone="no"?>
<!-- Created with Inkscape (http://www.inkscape.org/) -->

<svg
   xmlns:dc="http://purl.org/dc/elements/1.1/"
   xmlns:cc="http://creativecommons.org/ns#"
   xmlns:rdf="http://www.w3.org/1999/02/22-rdf-syntax-ns#"
   xmlns:svg="http://www.w3.org/2000/svg"
   xmlns="http://www.w3.org/2000/svg"
   xmlns:sodipodi="http://sodipodi.sourceforge.net/DTD/sodipodi-0.dtd"
   xmlns:inkscape="http://www.inkscape.org/namespaces/inkscape"
   width="256.91818"
   height="51"
   id="svg6547"
   version="1.1"
   inkscape:version="0.48.4 r9939"
   sodipodi:docname="wc_info_btn.svg">
  <defs
     id="defs6549" />
  <sodipodi:namedview
     id="base"
     pagecolor="#ffffff"
     bordercolor="#666666"
     borderopacity="1.0"
     inkscape:pageopacity="0.0"
     inkscape:pageshadow="2"
     inkscape:zoom="0.35"
     inkscape:cx="-332.25519"
     inkscape:cy="216.42862"
     inkscape:document-units="px"
     inkscape:current-layer="layer1"
     showgrid="false"
     fit-margin-top="0"
     fit-margin-left="0"
     fit-margin-right="0"
     fit-margin-bottom="0"
     inkscape:window-width="1366"
     inkscape:window-height="705"
     inkscape:window-x="-8"
     inkscape:window-y="-8"
     inkscape:window-maximized="1" />
  <metadata
     id="metadata6552">
    <rdf:RDF>
      <cc:Work
         rdf:about="">
        <dc:format>image/svg+xml</dc:format>
        <dc:type
           rdf:resource="http://purl.org/dc/dcmitype/StillImage" />
        <dc:title></dc:title>
      </cc:Work>
    </rdf:RDF>
  </metadata>
  <g
     inkscape:label="Layer 1"
     inkscape:groupmode="layer"
     id="layer1"
     transform="translate(-365.82662,-697.7908)">
    <g
       transform="translate(837.1816,-1049.6697)"
       id="g6451">
      <g
         style="fill:#ffffff"
         transform="matrix(0.12100004,0,0,0.12100004,-471.35496,1743.4098)"
         id="g4330">
        <g
           style="fill:#ffffff"
           id="XMLID_326_">
          <path
             style="fill:#ffffff"
             inkscape:connector-curvature="0"
             id="XMLID_331_"
             d="m 387.148,122.322 c 22.27,0 40.316,-18.027 40.316,-40.283 0,-22.271 -18.047,-40.298 -40.316,-40.298 -22.258,0 -40.287,18.027 -40.287,40.298 0,22.256 18.029,40.283 40.287,40.283 z" />
          <path
             style="fill:#ffffff"
             inkscape:connector-curvature="0"
             id="XMLID_330_"
             d="M 495.139,266.286 437.664,140.39 c -3.104,-6.854 -10.138,-9.815 -17.268,-9.815 -24.82,0 -39.216,-0.009 -66.485,-0.009 -7.13,0 -14.162,2.961 -17.277,9.824 l -57.461,125.896 c -3.965,8.662 -0.146,18.885 8.506,22.837 2.324,1.053 4.758,1.562 7.143,1.562 6.549,0 12.811,-3.746 15.694,-10.086 l 27.786,-60.887 v 65.589 c 0,0.114 -0.059,0.214 -0.059,0.329 v 148.651 c 0,11.426 9.258,20.683 20.677,20.683 11.423,0 20.677,-9.257 20.677,-20.683 V 311.044 h 15.099 v 123.237 c 0,11.426 9.255,20.683 20.676,20.683 11.419,0 20.677,-9.257 20.677,-20.683 V 285.63 c 0,-0.091 -0.044,-0.156 -0.044,-0.247 v -65.671 l 27.789,60.887 c 2.879,6.339 9.145,10.086 15.684,10.086 2.388,0 4.829,-0.509 7.157,-1.562 8.65,-3.952 12.465,-14.175 8.504,-22.837 z" />
          <path
             style="fill:#ffffff"
             inkscape:connector-curvature="0"
             id="XMLID_329_"
             d="m 109.554,122.322 c 22.26,0 40.29,-18.027 40.29,-40.283 0,-22.271 -18.03,-40.298 -40.29,-40.298 -22.27,0 -40.308,18.027 -40.308,40.298 0,22.256 18.038,40.283 40.308,40.283 z" />
          <path
             style="fill:#ffffff"
             inkscape:connector-curvature="0"
             id="XMLID_328_"
             d="m 160.067,140.391 c -2.837,-6.233 -8.954,-9.824 -15.38,-9.947 l -70.313,-0.006 c -6.427,0.13 -12.507,3.72 -15.337,9.954 L 1.566,266.286 c -3.962,8.662 -0.146,18.885 8.504,22.837 2.326,1.053 4.767,1.562 7.154,1.562 6.541,0 12.805,-3.746 15.686,-10.086 L 50.793,241.42 35.221,314.731 c -0.527,2.47 0.095,5.039 1.678,7 1.594,1.964 3.979,3.1 6.497,3.1 H 60.655 V 434.28 c 0,11.426 9.256,20.683 20.678,20.683 11.42,0 20.677,-9.257 20.677,-20.683 V 324.832 h 15.097 v 109.449 c 0,11.426 9.258,20.683 20.678,20.683 11.42,0 20.677,-9.257 20.677,-20.683 V 324.832 h 17.199 c 2.517,0 4.905,-1.136 6.489,-3.1 1.59,-1.961 2.215,-4.531 1.686,-7 l -15.607,-73.492 17.959,39.359 c 2.883,6.339 9.146,10.086 15.694,10.086 2.39,0 4.819,-0.509 7.146,-1.562 8.653,-3.952 12.468,-14.175 8.505,-22.837 L 160.067,140.391 z" />
          <path
             style="fill:#ffffff"
             inkscape:connector-curvature="0"
             id="XMLID_327_"
             d="m 249.369,71.315 c -7.624,0 -13.791,6.177 -13.791,13.791 v 327.729 c 0,7.615 6.167,13.79 13.791,13.79 7.621,0 13.791,-6.175 13.791,-13.79 V 85.106 c 0,-7.613 -6.17,-13.791 -13.791,-13.791 z" />
        </g>
        <g
           style="fill:#ffffff"
           id="g4294" />
        <g
           style="fill:#ffffff"
           id="g4296" />
        <g
           style="fill:#ffffff"
           id="g4298" />
        <g
           style="fill:#ffffff"
           id="g4300" />
        <g
           style="fill:#ffffff"
           id="g4302" />
        <g
           style="fill:#ffffff"
           id="g4304" />
        <g
           style="fill:#ffffff"
           id="g4306" />
        <g
           style="fill:#ffffff"
           id="g4308" />
        <g
           style="fill:#ffffff"
           id="g4310" />
        <g
           style="fill:#ffffff"
           id="g4312" />
        <g
           style="fill:#ffffff"
           id="g4314" />
        <g
           style="fill:#ffffff"
           id="g4316" />
        <g
           style="fill:#ffffff"
           id="g4318" />
        <g
           style="fill:#ffffff"
           id="g4320" />
        <g
           style="fill:#ffffff"
           id="g4322" />
      </g>
      <g
         style="font-size:40px;font-style:normal;font-weight:normal;line-height:125%;letter-spacing:0px;word-spacing:0px;fill:#ffffff;fill-opacity:1;stroke:none;font-family:Sans"
         id="text6251-37">
        <path
           d="m -378.10888,1782.993 0,-25.6396 6.43991,0 0,-2.36 -15.3598,0 0,2.36 6.47992,0 0,25.6396 z"
           style="fill:#ffffff;font-family:Mission Gothic Light;-inkscape-font-specification:Mission Gothic Light"
           id="path6890" />
        <path
           d="m -361.08888,1781.1531 c -1.71498,-0.036 -2.98497,-0.8342 -3.80995,-2.395 -0.825,-1.5608 -1.23499,-3.6691 -1.22998,-6.3249 -0.005,-2.6733 0.40499,-4.7866 1.22998,-6.3399 0.82498,-1.5533 2.09497,-2.3467 3.80995,-2.38 1.73414,0.033 3.01578,0.8267 3.84495,2.38 0.82914,1.5533 1.2408,3.6666 1.23499,6.3399 0.006,2.6908 -0.40585,4.8091 -1.23499,6.3549 -0.82917,1.5458 -2.11081,2.3341 -3.84495,2.365 z m 0,2.2399 c 2.48496,-0.029 4.36493,-1.0008 5.63993,-2.9149 1.27497,-1.9142 1.91496,-4.5958 1.91997,-8.0449 -0.005,-3.43 -0.645,-6.0999 -1.91997,-8.0099 -1.275,-1.91 -3.15497,-2.88 -5.63993,-2.91 -2.46581,0.03 -4.33411,1 -5.60493,2.91 -1.27082,1.91 -1.90914,4.5799 -1.91497,8.0099 0.006,3.4491 0.64415,6.1307 1.91497,8.0449 1.27082,1.9141 3.13912,2.8858 5.60493,2.9149 z"
           style="fill:#ffffff;font-family:Mission Gothic Light;-inkscape-font-specification:Mission Gothic Light"
           id="path6892" />
        <path
           d="m -346.22445,1782.993 0,-21.0797 -2.43997,0 0,21.0797 z m 0.32,-25.8796 c -0.01,-0.45 -0.16001,-0.82 -0.45,-1.11 -0.29,-0.29 -0.66,-0.44 -1.10998,-0.45 -0.43084,0.01 -0.78916,0.16 -1.07499,0.45 -0.28583,0.29 -0.43416,0.66 -0.44499,1.11 0.0108,0.4308 0.15916,0.7892 0.44499,1.075 0.28583,0.2858 0.64416,0.4341 1.07499,0.445 0.44999,-0.011 0.81998,-0.1592 1.10998,-0.445 0.28999,-0.2858 0.43999,-0.6442 0.45,-1.075 z"
           style="fill:#ffffff;font-family:Mission Gothic Light;-inkscape-font-specification:Mission Gothic Light"
           id="path6894" />
        <path
           d="m -338.0632,1782.993 0,-29.1996 -2.43997,0 0,29.1996 z"
           style="fill:#ffffff;font-family:Mission Gothic Light;-inkscape-font-specification:Mission Gothic Light"
           id="path6896" />
        <path
           d="m -320.49645,1776.9931 c -0.48917,1.435 -1.14083,2.495 -1.95497,3.18 -0.81417,0.685 -1.85582,1.025 -3.12496,1.02 -1.69999,-0.023 -2.98997,-0.7267 -3.86995,-2.11 -0.87999,-1.3833 -1.34999,-3.3066 -1.40998,-5.7699 l 12.51984,0 0,-0.76 c 0.0367,-3.33 -0.50668,-5.9899 -1.62998,-7.9799 -1.12334,-1.99 -3.04664,-3.01 -5.76993,-3.06 -2.39748,0.032 -4.25245,1.0084 -5.56493,2.93 -1.31248,1.9216 -1.97747,4.5983 -1.99497,8.0299 0.015,3.4474 0.67499,6.1224 1.97997,8.0249 1.30498,1.9024 3.16495,2.8674 5.57993,2.8949 1.86163,-0 3.36828,-0.4475 4.51994,-1.3349 1.15164,-0.8875 2.05829,-2.2025 2.71997,-3.945 z m -10.35986,-5.7199 c 0.12166,-2.3658 0.61832,-4.2241 1.48998,-5.5749 0.87165,-1.3508 2.1083,-2.0392 3.70995,-2.065 1.6833,0.016 2.90662,0.6842 3.66995,2.005 0.76331,1.3208 1.16664,3.1991 1.20999,5.6349 z"
           style="fill:#ffffff;font-family:Mission Gothic Light;-inkscape-font-specification:Mission Gothic Light"
           id="path6898" />
        <path
           d="m -304.9464,1780.2331 c -0.33001,0.2641 -0.72001,0.4758 -1.16999,0.635 -0.45,0.1591 -0.9,0.2408 -1.34998,0.245 -0.885,-0 -1.56499,-0.3059 -2.03998,-0.905 -0.475,-0.5992 -0.71499,-1.4708 -0.71999,-2.615 l 0,-13.5198 4.83994,0 0,-2.16 -4.83994,0 0,-5.0399 -2.39997,0 0,5.0399 -2.83996,0 0,2.16 2.83996,0 0,13.6398 c -0.007,1.7942 0.3875,3.1858 1.18499,4.175 0.79748,0.9891 2.04247,1.4908 3.73495,1.5049 0.72332,-0.01 1.38664,-0.12 1.98998,-0.33 0.60331,-0.21 1.12664,-0.46 1.56997,-0.7499 z"
           style="fill:#ffffff;font-family:Mission Gothic Light;-inkscape-font-specification:Mission Gothic Light"
           id="path6900" />
        <path
           d="m -287.30334,1764.9533 c -0.8775,-1.12 -1.85249,-1.96 -2.92496,-2.52 -1.0725,-0.56 -2.37748,-0.84 -3.91495,-0.84 -1.98831,0.035 -3.57163,0.565 -4.74994,1.59 -1.17832,1.025 -1.78165,2.335 -1.80997,3.9299 0.0604,1.6688 0.66457,2.9188 1.81247,3.75 1.1479,0.8312 2.47705,1.4912 3.98745,1.98 1.51039,0.4887 2.83954,1.0537 3.98745,1.6949 1.14789,0.6413 1.75205,1.6063 1.81248,2.895 -0.0175,1.2242 -0.42251,2.1558 -1.21499,2.795 -0.7925,0.6391 -1.86749,0.9608 -3.22496,0.965 -1.26332,-0.01 -2.43664,-0.3025 -3.51995,-0.885 -1.08333,-0.5825 -1.93665,-1.4075 -2.55997,-2.475 -0.30333,0.2608 -0.61666,0.5192 -0.93999,0.775 -0.32333,0.2558 -0.63666,0.5042 -0.93998,0.745 0.82415,1.3233 1.9258,2.3266 3.30495,3.0099 1.37915,0.6834 2.89079,1.0267 4.53494,1.03 2.1833,-0.01 3.89661,-0.5241 5.13994,-1.5549 1.2433,-1.0309 1.87662,-2.5392 1.89997,-4.525 -0.0604,-1.7507 -0.66459,-3.0717 -1.81247,-3.9631 -1.14792,-0.8913 -2.47707,-1.5886 -3.98745,-2.0918 -1.51041,-0.5032 -2.83956,-1.048 -3.98745,-1.6344 -1.14791,-0.5863 -1.75207,-1.4498 -1.81248,-2.5906 0.0292,-1.0483 0.42083,-1.8616 1.17499,-2.4399 0.75415,-0.5783 1.6958,-0.8717 2.82496,-0.88 1.16164,-0 2.1483,0.215 2.95996,0.66 0.81165,0.445 1.5583,1.145 2.23998,2.1 z"
           style="fill:#ffffff;font-family:Mission Gothic Light;-inkscape-font-specification:Mission Gothic Light"
           id="path6902" />
      </g>
    </g>
  </g>
</svg>
